<svg version="1" xmlns="http://www.w3.org/2000/svg" width="800" height="800" viewBox="0 0 600.000000 600.000000"><path d="M100 77.2c-16.3 2.6-29.4 16.3-32 33.3-.7 4.7-1 30.1-.8 75l.3 68 2.3 5.8c8.1 19.9 28.5 29.9 48.3 23.7 11.3-3.5 20.6-12.3 25-23.7 2-5.2 2.2-7.7 2.3-23.3l.1-17.5-7.7-.3-7.8-.3v14.9c0 21.7-2.9 28.9-13.4 33.8-13.9 6.5-29.4-1.1-32.6-15.9-.8-3.6-1-25.7-.8-73.2.3-67.5.3-68 2.5-72 4.5-8.4 11.8-12.9 20.8-12.9s16.3 4.5 20.8 12.9c2 3.6 2.2 5.8 2.5 22.9l.4 18.8 7.1-.7c3.9-.3 7.5-.9 7.9-1.1 1.2-.7 1-27.8-.2-35.4-3.5-21.8-23.4-36.3-45-32.8zM201 77.2c-16.3 2.6-29.4 16.3-32 33.3-.7 4.7-1 30.1-.8 75l.3 68 2.3 5.8c8.1 19.9 28.5 29.9 48.3 23.7 11.2-3.5 20.4-12.2 25.1-23.7l2.3-5.8.3-68c.2-44.9-.1-70.3-.8-75-3.4-22.2-23.2-36.9-45-33.3zm16.7 17.7c4.4 2.2 8.3 6.2 10.9 11.1 1.8 3.3 1.9 7.4 2.2 71.5.2 47.5 0 69.6-.8 73.2-1.6 7.2-6 12.9-12.3 15.9-14 6.5-29.5-1.1-32.7-15.9-.8-3.6-1-25.7-.8-73.2.3-64.1.4-68.2 2.2-71.5 6.5-12.3 19.8-17 31.3-11.1zM275 180.4V282h20.8c16.1 0 22.1-.4 26.3-1.6 13.9-4.1 24.7-14.7 29.1-28.6 1.7-5.6 1.8-10.5 1.8-70.7 0-69.5 0-69.2-5.2-79.5-2.7-5.3-10.1-13-15.4-16.1-8.6-5-12.4-5.7-35.6-6.2l-21.8-.5v101.6zm47-82.8c5.5 2.5 11.2 8.6 13.4 14.5 1.5 4 1.6 10.7 1.4 70.4-.3 73.5.2 68.5-7.3 76-6.3 6.3-8.5 6.9-24.2 7.3l-14.3.4V94.8l13.3.4c10.5.3 14.1.8 17.7 2.4zM381 180.5V282h67v-16h-51v-77h36v-16h-36V95h49.1l-.3-7.8-.3-7.7-32.2-.3L381 79v101.5zM526.9 310.2c-4.6 15.5-67 224.4-67.5 226-.5 1.6.2 1.8 6.3 1.8h6.8l34.8-116.3c19.1-63.9 34.7-116.8 34.7-117.5 0-.8-2-1.2-6.5-1.2h-6.4l-2.2 7.2zM100 317.2c-16.3 2.6-29.4 16.3-32 33.3-.7 4.7-1 30.1-.8 75l.3 68 2.3 5.8c8.1 19.9 28.5 29.9 48.3 23.7 11.3-3.5 20.6-12.3 25-23.7 2-5.2 2.2-7.7 2.3-23.3l.1-17.5-7.7-.3-7.8-.3v14.9c0 21.7-2.9 28.9-13.4 33.8-13.9 6.5-29.4-1.1-32.6-15.9-.8-3.6-1-25.7-.8-73.2.3-67.5.3-68 2.5-72 4.5-8.4 11.8-12.9 20.8-12.9s16.3 4.5 20.8 12.9c2 3.6 2.2 5.8 2.5 22.9l.4 18.8 7.1-.7c3.9-.3 7.5-.9 7.9-1.1 1.2-.7 1-27.8-.2-35.4-3.5-21.8-23.4-36.3-45-32.8zM201 317.2c-16.3 2.6-29.4 16.3-32 33.3-.7 4.7-1 30.1-.8 75l.3 68 2.3 5.8c8.1 19.9 28.5 29.9 48.3 23.7 11.2-3.5 20.4-12.2 25.1-23.7l2.3-5.8.3-68c.2-44.9-.1-70.3-.8-75-3.4-22.2-23.2-36.9-45-33.3zm16.7 17.7c4.4 2.2 8.3 6.2 10.9 11.1 1.8 3.3 1.9 7.4 2.2 71.5.2 47.5 0 69.6-.8 73.2-1.6 7.2-6 12.9-12.3 15.9-14 6.5-29.5-1.1-32.7-15.9-.8-3.6-1-25.7-.8-73.2.3-64.1.4-68.2 2.2-71.5 6.5-12.3 19.8-17 31.3-11.1zM275 420.4V522h20.8c16.1 0 22.1-.4 26.3-1.6 13.9-4.1 24.7-14.7 29.1-28.6 1.7-5.6 1.8-10.5 1.8-70.7 0-69.5 0-69.2-5.2-79.5-2.7-5.3-10.1-13-15.4-16.1-8.6-5-12.4-5.7-35.6-6.2l-21.8-.5v101.6zm47-82.8c5.5 2.5 11.2 8.6 13.4 14.5 1.5 4 1.6 10.7 1.4 70.4-.3 73.5.2 68.5-7.3 76-6.3 6.3-8.5 6.9-24.2 7.3l-14.3.4V334.8l13.3.4c10.5.3 14.1.8 17.7 2.4zM381 420.5V522h67v-16h-51v-77h36v-16h-36v-78h49.1l-.3-7.8-.3-7.7-32.2-.3-32.3-.2v101.5z"/></svg>