<?xml version="1.0" standalone="no"?> <!DOCTYPE svg PUBLIC "-//W3C//DTD SVG 1.0//EN" "http://www.w3.org/TR/2001/REC-SVG-20010904/DTD/svg10.dtd" > <svg xmlns="http://www.w3.org/2000/svg" width="100%" height="100%">
<defs >
<font id="Dense-Regular" horiz-adv-x="609" ><font-face
    font-family="Dense-Regular"
    units-per-em="2048"
    panose-1="2 0 0 0 0 0 0 0 0 0"
    ascent="1679"
    descent="-409"
    alphabetic="0" />
<missing-glyph horiz-adv-x="748" d="M68 0V1365H612V0H68ZM136 68H544V1297H136V68Z" />
<glyph unicode=" " glyph-name="space" horiz-adv-x="270" />
<glyph unicode="!" glyph-name="exclam" horiz-adv-x="319" d="M106 0H213V145H106V0ZM106 272V1382H213V272H106Z" />
<glyph unicode="&quot;" glyph-name="quotedbl" horiz-adv-x="407" d="M76 1135V1382H182L150 1135H76ZM242 1135V1382H348L315 1135H242Z" />
<glyph unicode="#" glyph-name="numbersign" horiz-adv-x="976" d="M68 479V571H279V811H68V903H279V1303L371 1315V903H610V1303L702 1315V903H909V811H702V571H909V479H702V80L610 68V479H371V80L279 68V479H68ZM371 571H610V811H371V571Z" />
<glyph unicode="$" glyph-name="dollar" horiz-adv-x="667" d="M68 246V449L174 461V246Q174 180 221 133T334 86T447 133T494 246V379Q494 405 484 431T464 472L455 485L129 872Q122 880 112 895T85 955T68 1044V1137Q68 1233 128 1305T281 1397V1518L387 1530V1397Q479
1378 539 1306T600 1137V965L494 952V1137Q494 1203 447 1249T334 1296T221 1250T174 1137V1044Q174 1018 183 993T202 954L211 942L537 555Q544 546 554 531T582 470T600 379V246Q600 150 539 77T387 -14V-135L281 -147V-14Q188 3 128 76T68 246Z" />
<glyph unicode="%" glyph-name="percent" horiz-adv-x="1089" d="M61 862V1225Q61 1294 110 1343T229 1393T347 1344T397 1225V862Q397 793 348 744T229 694T111 743T61 862ZM121 47L891 1382L971 1335L201 0L121 47ZM154 862Q154 831 176 809T229 786T282 808T305
862V1225Q305 1256 283 1278T229 1300T176 1278T154 1225V862ZM694 158V520Q694 589 743 638T862 688T980 639T1030 520V158Q1030 89 981 40T862 -10T744 39T694 158ZM786 158Q786 127 808 105T862 82T915 104T938 158V520Q938 551 916 573T862 596T809 574T786
520V158Z" />
<glyph unicode="&amp;" glyph-name="ampersand" horiz-adv-x="768" d="M70 264V459Q70 531 104 593T197 694Q111 767 111 881V1159Q111 1260 182 1331T354 1403T526 1332T598 1159V1026L492 1014V1159Q492 1216 452 1256T354 1296T257 1256T217 1159V881Q217 824
257 784T354 743H721V637H578Q639 560 639 459V264Q639 146 556 63T354 -20Q236 -20 153 63T70 264ZM176 264Q176 190 228 138T354 86T480 138T532 264V459Q532 532 480 584T354 637T228 585T176 459V264Z" />
<glyph unicode="&apos;" glyph-name="quotesingle" horiz-adv-x="264" d="M68 1006L102 1382H213L150 1006H68Z" />
<glyph unicode="(" glyph-name="parenleft" horiz-adv-x="380" d="M59 616V618Q59 856 97 1057T200 1376T344 1493V1448Q296 1448 255 1337T190 1035T166 618V616Q166 390 190 199T255 -102T344 -213V-258Q266 -258 201 -141T97 177T59 616Z" />
<glyph unicode=")" glyph-name="parenright" horiz-adv-x="380" d="M37 -213Q85 -213 126 -103T191 199T215 616V618Q215 844 191 1035T126 1337T37 1448V1493Q115 1493 180 1376T284 1058T322 618V616Q322 378 284 177T181 -141T37 -258V-213Z" />
<glyph unicode="*" glyph-name="asterisk" horiz-adv-x="512" d="M68 1104L201 1182L68 1257L94 1305L227 1227V1382H283V1227L418 1305L444 1257L311 1182L444 1104L418 1057L283 1133V979H227V1133L94 1057L68 1104Z" />
<glyph unicode="+" glyph-name="plus" horiz-adv-x="659" d="M74 588V694H276V897H383V694H586V588H383V385H276V588H74Z" />
<glyph unicode="," glyph-name="comma" horiz-adv-x="364" d="M129 0V145H236V18Q236 -34 205 -70T129 -106V-63Q149 -63 165 -44T182 0H129Z" />
<glyph unicode="-" glyph-name="hyphen" horiz-adv-x="548" d="M80 530V637H469V530H80Z" />
<glyph unicode="." glyph-name="period" horiz-adv-x="266" d="M80 0V145H186V0H80Z" />
<glyph unicode="/" glyph-name="slash" horiz-adv-x="624" d="M27 -111L506 1493H598L119 -111H27Z" />
<glyph unicode="0" glyph-name="zero" horiz-adv-x="712" d="M96 240V1143Q96 1250 172 1326T356 1403T539 1327T616 1143V240Q616 133 540 57T356 -20T173 56T96 240ZM203 240Q203 177 248 132T356 86T464 131T510 240V1143Q510 1206 465 1251T356 1296T248 1251T203
1143V240Z" />
<glyph unicode="1" glyph-name="one" horiz-adv-x="327" d="M111 0V1372L217 1382V0H111Z" />
<glyph unicode="2" glyph-name="two" horiz-adv-x="665" d="M70 0V106Q70 142 82 186T106 256L119 281L453 903Q496 983 496 1008V1137Q496 1203 449 1249T336 1296T223 1250T176 1137V969L70 956V1137Q70 1247 148 1325T336 1403T524 1325T602 1137V1008Q602
985 588 946T560 880L547 852L213 231Q176 161 176 106H592V0H70Z" />
<glyph unicode="3" glyph-name="three" horiz-adv-x="684" d="M72 246V379L178 391V246Q178 180 225 133T338 86T451 133T498 246V479Q498 545 451 592T338 639H307V745H338Q404 745 451 792T498 905V1137Q498 1203 451 1249T338 1296T225 1250T178 1137V1004L72
991V1137Q72 1247 150 1325T338 1403T526 1325T604 1137V905Q604 840 566 776T477 692Q527 670 565 607T604 479V246Q604 136 526 58T338 -20T150 58T72 246Z" />
<glyph unicode="4" glyph-name="four" horiz-adv-x="698" d="M43 319V426L457 1382H563V426H651V319H563V0H457V319H43ZM150 426H457V1137L150 426Z" />
<glyph unicode="5" glyph-name="five" horiz-adv-x="679" d="M82 246V371L188 383V246Q188 180 235 133T348 86T461 133T508 246V604Q508 670 461 717T348 764Q290 764 246 726T190 631L82 653V1382H575V1276H188V819Q258 870 348 870Q458 870 536 792T614 604V246Q614
136 536 58T348 -20T160 58T82 246Z" />
<glyph unicode="6" glyph-name="six" horiz-adv-x="704" d="M96 246V1137Q96 1247 174 1325T362 1403T550 1325T629 1137V1022L522 1010V1137Q522 1203 475 1249T362 1296T250 1250T203 1137V782Q274 834 362 834Q472 834 550 756T629 567V246Q629 136 551 58T362
-20T174 58T96 246ZM203 246Q203 180 249 133T362 86T475 133T522 246V567Q522 633 475 680T362 727T250 680T203 567V246Z" />
<glyph unicode="7" glyph-name="seven" horiz-adv-x="585" d="M45 1276V1382H557V1329L219 0H113L436 1276H45Z" />
<glyph unicode="8" glyph-name="eight" horiz-adv-x="692" d="M80 246V500Q80 564 118 627T207 713Q157 733 119 797T80 926V1137Q80 1247 158 1325T346 1403T534 1325T612 1137V926Q612 861 574 797T485 713Q535 691 573 628T612 500V246Q612 136 534 58T346
-20T158 58T80 246ZM186 246Q186 180 233 133T346 86T459 133T506 246V500Q506 566 459 612T346 659T233 613T186 500V246ZM186 926Q186 860 233 813T346 766T459 813T506 926V1137Q506 1203 459 1249T346 1296T233 1250T186 1137V926Z" />
<glyph unicode="9" glyph-name="nine" horiz-adv-x="704" d="M76 246V360L182 373V246Q182 180 229 133T342 86T455 133T502 246V600Q432 549 342 549Q232 549 154 627T76 815V1137Q76 1247 154 1325T342 1403T530 1325T608 1137V246Q608 136 530 58T342 -20T154
58T76 246ZM182 815Q182 749 229 702T342 655T455 702T502 815V1137Q502 1203 455 1249T342 1296T229 1250T182 1137V815Z" />
<glyph unicode=":" glyph-name="colon" horiz-adv-x="266" d="M80 0V145H186V0H80ZM80 696V842H186V696H80Z" />
<glyph unicode=";" glyph-name="semicolon" horiz-adv-x="266" d="M80 0V145H186V18Q186 -34 155 -70T80 -106V-63Q100 -63 116 -44T133 0H80ZM80 696V842H186V696H80Z" />
<glyph unicode="&lt;" glyph-name="less" horiz-adv-x="565" d="M49 641L375 987H485L160 641L485 295H375L49 641Z" />
<glyph unicode="=" glyph-name="equal" horiz-adv-x="598" d="M84 440V547H514V440H84ZM84 735V842H514V735H84Z" />
<glyph unicode="&gt;" glyph-name="greater" horiz-adv-x="565" d="M80 295L406 641L80 987H190L516 641L190 295H80Z" />
<glyph unicode="?" glyph-name="question" horiz-adv-x="665" d="M49 963V1118Q49 1236 132 1319T334 1403Q451 1403 533 1320T616 1118V977Q616 943 603 906T578 849L565 829L373 563Q350 530 350 489V272H244V489Q244 526 254 561T274 614L285 631L477 897Q510
942 510 977V1118Q510 1191 458 1243T334 1296Q260 1296 208 1244T156 1118V975L49 963ZM244 0V145H350V0H244Z" />
<glyph unicode="@" glyph-name="at" horiz-adv-x="1044" d="M76 219V788Q76 971 205 1101T518 1231T831 1101T961 788V154Q961 86 913 38T797 -10Q714 -10 670 70Q615 -10 518 -10Q426 -10 362 54T297 211V788Q297 880 354 945T492 1010Q538 1010 579 987T647
922L666 999H739V154Q739 131 756 114T797 96T837 113T854 154V788Q854 928 756 1026T518 1124T280 1026T182 788V219Q182 80 280 -18T518 -117H797V-223H518Q335 -223 206 -94T76 219ZM403 211Q403 164 437 130T518 96T599 130T633 211V788Q633 835 599 869T518
903T437 869T403 788V211Z" />
<glyph unicode="A" glyph-name="A" horiz-adv-x="655" d="M27 0L238 1382H418L629 0H522L467 354H186L133 0H27ZM203 461H451L330 1264H326L203 461Z" />
<glyph unicode="B" glyph-name="B" horiz-adv-x="698" d="M102 0V1382H338Q457 1382 541 1298T625 1096V926Q625 855 592 793T504 692Q560 651 592 590T625 459V287Q625 168 541 84T338 0H102ZM209 106H338Q413 106 465 159T518 287V459Q518 534 466 586T338 639H209V106ZM209
745H338Q413 745 465 798T518 926V1096Q518 1171 466 1223T338 1276H209V745Z" />
<glyph unicode="C" glyph-name="C" horiz-adv-x="694" d="M92 246V1137Q92 1247 170 1325T358 1403T546 1325T625 1137V932L518 920V1137Q518 1203 471 1249T358 1296T246 1250T199 1137V246Q199 180 245 133T358 86T471 133T518 246V434H625V246Q625 136 547
58T358 -20T170 58T92 246Z" />
<glyph unicode="D" glyph-name="D" horiz-adv-x="722" d="M102 0V1382H348Q467 1382 551 1298T635 1096V287Q635 168 551 84T348 0H102ZM209 106H348Q423 106 475 159T528 287V1096Q528 1171 476 1223T348 1276H209V106Z" />
<glyph unicode="E" glyph-name="E" horiz-adv-x="604" d="M102 0V1382H545V1276H209V745H457V637H209V106H561V0H102Z" />
<glyph unicode="F" glyph-name="F" horiz-adv-x="589" d="M102 0V1382H545V1276H209V745H457V637H209V0H102Z" />
<glyph unicode="G" glyph-name="G" horiz-adv-x="706" d="M92 246V1137Q92 1247 170 1325T358 1403T546 1325T625 1137V973L518 961V1137Q518 1203 471 1249T358 1296T246 1250T199 1137V246Q199 180 245 133T358 86T471 133T518 246V602H358V709H625V-20L535
-2V45Q460 -20 358 -20Q248 -20 170 58T92 246Z" />
<glyph unicode="H" glyph-name="H" horiz-adv-x="737" d="M102 0V1382H209V745H528V1382H635V0H528V639H209V0H102Z" />
<glyph unicode="I" glyph-name="I" horiz-adv-x="311" d="M102 0V1382H209V0H102Z" />
<glyph unicode="J" glyph-name="J" horiz-adv-x="675" d="M45 246V377L152 389V246Q152 180 198 133T311 86T424 133T471 246V1382H578V246Q578 136 500 58T311 -20T123 58T45 246Z" />
<glyph unicode="K" glyph-name="K" horiz-adv-x="675" d="M102 0V1382H209V745H311L543 1382H649L395 692L649 0H543L311 639H209V0H102Z" />
<glyph unicode="L" glyph-name="L" horiz-adv-x="579" d="M102 0V1382H209V106H543V0H102Z" />
<glyph unicode="M" glyph-name="M" horiz-adv-x="987" d="M102 0V1382H262L489 164H494L723 1382H885V0H778V1169H774L553 0H432L213 1159H209V0H102Z" />
<glyph unicode="N" glyph-name="N" horiz-adv-x="770" d="M102 0V1382H231L557 334H561V1382H668V0H561L213 1106H209V0H102Z" />
<glyph unicode="O" glyph-name="O" horiz-adv-x="716" d="M92 246V1137Q92 1247 170 1325T358 1403T546 1325T625 1137V246Q625 136 547 58T358 -20T170 58T92 246ZM199 246Q199 180 245 133T358 86T471 133T518 246V1137Q518 1203 471 1249T358 1296T246 1250T199
1137V246Z" />
<glyph unicode="P" glyph-name="P" horiz-adv-x="673" d="M102 0V1382H338Q457 1382 541 1298T625 1096V889Q625 770 541 686T338 602H209V0H102ZM209 709H338Q413 709 465 761T518 889V1096Q518 1171 466 1223T338 1276H209V709Z" />
<glyph unicode="Q" glyph-name="Q" horiz-adv-x="716" d="M92 246V1137Q92 1247 170 1325T358 1403T546 1325T625 1137V246Q625 150 564 77T412 -14V-188L305 -201V-14Q212 3 152 76T92 246ZM199 246Q199 180 245 133T358 86T471 133T518 246V1137Q518 1203 471
1249T358 1296T246 1250T199 1137V246Z" />
<glyph unicode="R" glyph-name="R" horiz-adv-x="704" d="M102 0V1382H338Q457 1382 541 1298T625 1096V926Q625 855 592 793T504 692Q560 651 592 590T625 459V0H518V459Q518 534 466 586T338 639H209V0H102ZM209 745H338Q413 745 465 798T518 926V1096Q518 1171
466 1223T338 1276H209V745Z" />
<glyph unicode="S" glyph-name="S" horiz-adv-x="671" d="M70 246V449L176 461V246Q176 180 223 133T336 86T449 133T496 246V379Q496 405 486 431T466 472L457 485L131 872Q124 880 114 895T87 955T70 1044V1137Q70 1247 148 1325T336 1403T524 1325T602 1137V965L496
952V1137Q496 1203 449 1249T336 1296T223 1250T176 1137V1044Q176 1018 185 993T204 954L213 942L539 555Q546 546 556 531T584 470T602 379V246Q602 136 524 58T336 -20T148 58T70 246Z" />
<glyph unicode="T" glyph-name="T" horiz-adv-x="569" d="M39 1276V1382H530V1276H340V0H231V1276H39Z" />
<glyph unicode="U" glyph-name="U" horiz-adv-x="729" d="M98 246V1382H205V246Q205 180 252 133T365 86T477 133T524 246V1382H631V246Q631 136 553 58T365 -20T177 58T98 246Z" />
<glyph unicode="V" glyph-name="V" horiz-adv-x="655" d="M27 1382H133L326 119H330L522 1382H629L418 0H238L27 1382Z" />
<glyph unicode="W" glyph-name="W" horiz-adv-x="987" d="M20 1382H127L330 240H334L440 842L344 1382H451L653 240H657L860 1382H967L719 0H592L496 543H492L395 0H268L20 1382Z" />
<glyph unicode="X" glyph-name="X" horiz-adv-x="659" d="M29 0L258 690L29 1382H135L328 799H332L524 1382H631L401 690L631 0H524L332 584H328L135 0H29Z" />
<glyph unicode="Y" glyph-name="Y" horiz-adv-x="630" d="M14 1382H121L313 799H317L510 1382H616L369 635V0H262V635L14 1382Z" />
<glyph unicode="Z" glyph-name="Z" horiz-adv-x="610" d="M37 0V53L444 1276H57V1382H565V1329L162 106H565V0H37Z" />
<glyph unicode="[" glyph-name="bracketleft" horiz-adv-x="442" d="M102 -287V1587H399V1495H195V-195H399V-287H102Z" />
<glyph unicode="\" glyph-name="backslash" horiz-adv-x="624" d="M27 1493H119L598 -111H506L27 1493Z" />
<glyph unicode="]" glyph-name="bracketright" horiz-adv-x="442" d="M43 -195H248V1495H43V1587H340V-287H43V-195Z" />
<glyph unicode="^" glyph-name="asciicircum" horiz-adv-x="761" d="M70 1122V1245L381 1538L692 1245V1122L381 1415L70 1122Z" />
<glyph unicode="_" glyph-name="underscore" horiz-adv-x="718" d="M80 -20H639V-113H80V-20Z" />
<glyph unicode="`" glyph-name="grave" horiz-adv-x="262" d="M31 1149V1255L231 1165V1059L31 1149Z" />
<glyph unicode="a" glyph-name="a" horiz-adv-x="587" d="M55 211V324Q55 353 64 379T87 422T113 452T136 471L145 477L303 567Q307 569 312 573T333 590T360 617T381 654T391 700V801Q391 844 362 873T289 903T216 874T186 801V682L80 670V801Q80 887 141 948T289
1010T436 949T498 801V143Q498 128 509 117T535 106V0Q470 0 426 47Q366 -10 276 -10Q184 -10 120 54T55 211ZM162 211Q162 164 195 130T276 96T357 130T391 211V502Q384 495 375 488T361 478L356 475L199 385Q195 383 189 379T173 358T162 324V211Z" />
<glyph unicode="b" glyph-name="b" horiz-adv-x="610" d="M88 0V1370L195 1382V940Q252 1010 336 1010Q416 1010 473 945T530 788V211Q530 119 473 55T336 -10Q289 -10 248 14T180 78L162 0H88ZM195 211Q195 164 228 130T309 96T390 130T424 211V788Q424 835 390
869T309 903T229 869T195 788V211Z" />
<glyph unicode="c" glyph-name="c" horiz-adv-x="579" d="M76 211V788Q76 880 140 945T297 1010T453 945T518 788V672L412 659V788Q412 835 378 869T297 903T216 869T182 788V211Q182 164 216 130T297 96T378 130T412 211V330H518V211Q518 119 454 55T297 -10T141
54T76 211Z" />
<glyph unicode="d" glyph-name="d" horiz-adv-x="610" d="M80 211V788Q80 880 137 945T274 1010Q359 1010 416 940V1370L522 1382V0H449L430 78Q403 38 362 14T274 -10Q194 -10 137 54T80 211ZM186 211Q186 164 220 130T301 96T382 130T416 211V788Q416 835 382
869T301 903T220 869T186 788V211Z" />
<glyph unicode="e" glyph-name="e" horiz-adv-x="585" d="M76 211V788Q76 880 140 945T297 1010T453 945T518 788V481H182V211Q182 164 216 130T297 96T378 130T412 211V330L518 342V211Q518 119 454 55T297 -10T141 54T76 211ZM182 588H412V788Q412 835 378 869T297
903T216 869T182 788V588Z" />
<glyph unicode="f" glyph-name="f" horiz-adv-x="397" d="M27 893V999H137V1186Q137 1268 194 1325T334 1382H373V1276H334Q297 1276 271 1250T244 1186V999H373V893H244V0H137V893H27Z" />
<glyph unicode="g" glyph-name="g" horiz-adv-x="577" d="M66 -16Q66 39 90 85T156 162Q125 204 125 260Q125 314 156 356Q114 387 90 434T66 537V788Q66 880 123 945T260 1010Q307 1010 348 986T416 922L434 999H508V537Q508 445 444 380T287 315Q264 315 248
299T231 260T247 221T287 205Q379 205 443 141T508 -16V-111Q508 -203 444 -267T287 -332T131 -268T66 -111V-16ZM172 -16V-111Q172 -158 206 -191T287 -225T367 -192T401 -111V-16Q401 31 368 64T287 98T206 65T172 -16ZM172 537Q172 490 206 456T287 422T367
456T401 537V788Q401 835 368 869T287 903T206 869T172 788V537Z" />
<glyph unicode="h" glyph-name="h" horiz-adv-x="616" d="M88 0V1370L195 1382V940Q252 1010 336 1010Q416 1010 473 945T530 788V0H424V788Q424 835 390 869T309 903T229 869T195 788V0H88Z" />
<glyph unicode="i" glyph-name="i" horiz-adv-x="282" d="M88 0H195V999H88V0ZM88 1114V1257H195V1114H88Z" />
<glyph unicode="j" glyph-name="j" horiz-adv-x="282" d="M-41 -225H-2Q35 -225 61 -199T88 -135V999H195V-135Q195 -217 138 -274T-2 -332H-41V-225ZM88 1114V1257H195V1114H88Z" />
<glyph unicode="k" glyph-name="k" horiz-adv-x="585" d="M88 0V1370L195 1382V606H270L449 999H555L354 553L555 0H449L266 500H195V0H88Z" />
<glyph unicode="l" glyph-name="l" horiz-adv-x="296" d="M90 137V1370L197 1382V137Q197 120 209 108T238 96V-10Q176 -10 133 33T90 137Z" />
<glyph unicode="m" glyph-name="m" horiz-adv-x="952" d="M88 0V999H162L180 922Q207 962 248 986T336 1010Q420 1010 481 936Q545 1010 645 1010Q737 1010 801 945T866 788V0H760V788Q760 835 726 869T645 903T564 869T530 788V0H424V788Q424 835 390 869T309
903T229 869T195 788V0H88Z" />
<glyph unicode="n" glyph-name="n" horiz-adv-x="616" d="M88 0V999H162L180 922Q207 962 248 986T336 1010Q416 1010 473 945T530 788V0H424V788Q424 835 390 869T309 903T229 869T195 788V0H88Z" />
<glyph unicode="o" glyph-name="o" horiz-adv-x="593" d="M76 211V788Q76 880 140 945T297 1010T453 945T518 788V211Q518 119 454 55T297 -10T141 54T76 211ZM182 211Q182 164 216 130T297 96T378 130T412 211V788Q412 835 378 869T297 903T216 869T182 788V211Z" />
<glyph unicode="p" glyph-name="p" horiz-adv-x="610" d="M88 -332V999H162L180 922Q207 962 248 986T336 1010Q416 1010 473 945T530 788V211Q530 119 473 55T336 -10Q251 -10 195 59V-319L88 -332ZM195 211Q195 164 228 130T309 96T390 130T424 211V788Q424
835 390 869T309 903T229 869T195 788V211Z" />
<glyph unicode="q" glyph-name="q" horiz-adv-x="610" d="M80 211V788Q80 880 137 945T274 1010Q321 1010 362 986T430 922L449 999H522V-319L416 -332V59Q360 -10 274 -10Q194 -10 137 54T80 211ZM186 211Q186 164 220 130T301 96T382 130T416 211V788Q416 835
382 869T301 903T220 869T186 788V211Z" />
<glyph unicode="r" glyph-name="r" horiz-adv-x="413" d="M88 0V999H162L180 922Q238 1010 393 1010V903H317Q265 903 230 867T195 778V0H88Z" />
<glyph unicode="s" glyph-name="s" horiz-adv-x="559" d="M57 211V309L164 322V211Q164 164 198 130T279 96T359 130T393 211V297Q393 322 385 343T367 374L358 383L137 567Q134 569 130 574T113 595T91 629T74 675T66 735V797Q66 885 128 947T279 1010T429 948T492
797V705L385 692V797Q385 841 354 872T279 903T204 872T172 797V735Q172 710 181 689T198 658L207 649L428 465Q436 458 448 446T480 389T500 297V211Q500 119 436 55T279 -10T122 54T57 211Z" />
<glyph unicode="t" glyph-name="t" horiz-adv-x="415" d="M25 893V999H154V1192L260 1204V999H389V893H260V137Q260 120 272 108T301 96V-10Q240 -10 197 33T154 137V893H25Z" />
<glyph unicode="u" glyph-name="u" horiz-adv-x="616" d="M86 211V999H193V211Q193 164 226 130T307 96T388 130T422 211V999H528V0H455L436 78Q409 37 368 14T281 -10Q201 -10 144 54T86 211Z" />
<glyph unicode="v" glyph-name="v" horiz-adv-x="528" d="M33 999H139L262 215H266L389 999H496L328 0H201L33 999Z" />
<glyph unicode="w" glyph-name="w" horiz-adv-x="790" d="M33 999H139L262 215H266L342 711L295 999H401L524 215H528L651 999H758L590 0H463L397 463H393L328 0H201L33 999Z" />
<glyph unicode="x" glyph-name="x" horiz-adv-x="528" d="M33 0L211 500L33 999H139L262 614H266L389 999H496L317 500L496 0H389L266 385H262L139 0H33Z" />
<glyph unicode="y" glyph-name="y" horiz-adv-x="526" d="M33 999H139L262 215H266L389 999H496L297 -115Q295 -124 292 -138T272 -190T233 -256T169 -308T76 -332V-225Q102 -225 123 -214T157 -186T177 -154T188 -126L190 -115L211 0L33 999Z" />
<glyph unicode="z" glyph-name="z" horiz-adv-x="495" d="M49 0V53L322 893H49V999H446V946L172 106H446V0H49Z" />
<glyph unicode="{" glyph-name="braceleft" horiz-adv-x="425" d="M31 604V696H123Q138 696 149 707T160 733V1458Q160 1512 197 1549T289 1587H381V1495H289Q274 1495 263 1484T252 1458V733Q252 681 201 651V649Q252 619 252 567V-158Q252 -173 263 -184T289
-195H381V-287H289Q235 -287 198 -250T160 -158V567Q160 582 149 593T123 604H31Z" />
<glyph unicode="|" glyph-name="bar" horiz-adv-x="296" d="M102 -143V1587H195V-131L102 -143Z" />
<glyph unicode="}" glyph-name="braceright" horiz-adv-x="425" d="M45 -195H137Q152 -195 163 -184T174 -158V567Q174 619 225 649V651Q174 681 174 733V1458Q174 1473 163 1484T137 1495H45V1587H137Q191 1587 228 1550T266 1458V733Q266 718 277 707T303 696H395V604H303Q288
604 277 593T266 567V-158Q266 -212 229 -249T137 -287H45V-195Z" />
<glyph unicode="~" glyph-name="asciitilde" horiz-adv-x="780" d="M76 522V573Q76 648 128 701T256 754T383 701T436 573Q436 536 461 511T524 485T586 510T612 573V625H705V573Q705 498 652 446T524 393T397 445T344 573Q344 610 319 636T256 662T194 636T168
573V522H76Z" />
</font>
</defs>
</svg>
