<?xml version="1.0" encoding="UTF-8" standalone="no"?>
<!-- Created with Inkscape (http://www.inkscape.org/) -->

<svg
   xmlns:osb="http://www.openswatchbook.org/uri/2009/osb"
   xmlns:dc="http://purl.org/dc/elements/1.1/"
   xmlns:cc="http://creativecommons.org/ns#"
   xmlns:rdf="http://www.w3.org/1999/02/22-rdf-syntax-ns#"
   xmlns:svg="http://www.w3.org/2000/svg"
   xmlns="http://www.w3.org/2000/svg"
   xmlns:sodipodi="http://sodipodi.sourceforge.net/DTD/sodipodi-0.dtd"
   xmlns:inkscape="http://www.inkscape.org/namespaces/inkscape"
   width="297mm"
   height="210mm"
   viewBox="0 0 1052.3622 744.09448"
   id="svg3740"
   version="1.1"
   inkscape:version="0.91 r13725"
   sodipodi:docname="3-collaborateb.svg">
  <sodipodi:namedview
     id="base"
     pagecolor="#ffffff"
     bordercolor="#666666"
     borderopacity="1.0"
     inkscape:pageopacity="0.0"
     inkscape:pageshadow="2"
     inkscape:zoom="0.90509668"
     inkscape:cx="330.59449"
     inkscape:cy="635.42624"
     inkscape:document-units="px"
     inkscape:current-layer="layer5"
     showgrid="true"
     inkscape:window-width="1301"
     inkscape:window-height="744"
     inkscape:window-x="65"
     inkscape:window-y="24"
     inkscape:window-maximized="1"
     objecttolerance="20"
     guidetolerance="10000">
    <inkscape:grid
       type="xygrid"
       id="grid4195"
       spacingx="1"
       spacingy="1"
       dotted="true" />
  </sodipodi:namedview>
  <defs
     id="defs3742">
    <linearGradient
       id="linearGradient4549"
       osb:paint="solid">
      <stop
         style="stop-color:#ffffff;stop-opacity:1;"
         offset="0"
         id="stop4551" />
    </linearGradient>
    <linearGradient
       id="linearGradient5317"
       osb:paint="solid">
      <stop
         style="stop-color:#030000;stop-opacity:1;"
         offset="0"
         id="stop5319" />
    </linearGradient>
  </defs>
  <metadata
     id="metadata3745">
    <rdf:RDF>
      <cc:Work
         rdf:about="">
        <dc:format>image/svg+xml</dc:format>
        <dc:type
           rdf:resource="http://purl.org/dc/dcmitype/StillImage" />
        <dc:title />
      </cc:Work>
    </rdf:RDF>
  </metadata>
  <g
     inkscape:groupmode="layer"
     id="layer5"
     inkscape:label="BG"
     transform="translate(0,-308.26772)" />
  <g
     inkscape:groupmode="layer"
     id="layer1"
     inkscape:label="Layer 1">
    <path
       style="fill:#4d4d4d;fill-opacity:0;stroke:#ffffff;stroke-width:4.45020485;stroke-linecap:round;stroke-miterlimit:4;stroke-dasharray:8.90040928, 4.45020464, 2.22510232, 4.45020464;stroke-dashoffset:0;stroke-opacity:0.58823529"
       d="m 531.86628,371.9513 101.67297,39.8342"
       id="path4387"
       inkscape:connector-curvature="0"
       sodipodi:nodetypes="cc" />
    <path
       style="fill:#4d4d4d;fill-opacity:0;stroke:#ffffff;stroke-width:4.45020485;stroke-linecap:round;stroke-miterlimit:4;stroke-dasharray:8.90040928, 4.45020464, 2.22510232, 4.45020464;stroke-dashoffset:0;stroke-opacity:0.58823529"
       d="m 537.39055,359.72094 102.97676,40.48608"
       id="path4389"
       inkscape:connector-curvature="0"
       sodipodi:nodetypes="cc" />
  </g>
  <g
     inkscape:label="Layer 2"
     id="layer3"
     inkscape:groupmode="layer"
     transform="translate(0,-308.26772)">
    <g
       id="g4249"
       transform="matrix(1.071454,0,0,1.071454,-7.4810818,-116.02531)">
      <path
         transform="translate(0,308.26772)"
         inkscape:connector-curvature="0"
         id="path4223"
         d="M 104.57634,323.60347 171.32941,178.97181"
         style="fill:none;fill-rule:evenodd;stroke:#ffffff;stroke-width:2.78137779;stroke-linecap:butt;stroke-linejoin:miter;stroke-miterlimit:4;stroke-dasharray:none;stroke-opacity:0.58823529" />
      <path
         transform="translate(0,308.26772)"
         inkscape:connector-curvature="0"
         id="path4244"
         d="m 204.70595,167.8463 178.00817,55.62756"
         style="fill:none;fill-rule:evenodd;stroke:#ffffff;stroke-width:2.78137779;stroke-linecap:butt;stroke-linejoin:miter;stroke-miterlimit:4;stroke-dasharray:none;stroke-opacity:0.58823529" />
      <path
         transform="translate(0,308.26772)"
         inkscape:connector-curvature="0"
         id="path4246"
         d="M 382.71412,256.8504 349.3376,290.22693"
         style="fill:#4d4d4d;fill-opacity:1;stroke:#ffffff;stroke-width:2.78137779;stroke-linecap:round;stroke-miterlimit:4;stroke-dasharray:none;stroke-dashoffset:0;stroke-opacity:0.58823529" />
      <path
         transform="translate(0,308.26772)"
         inkscape:connector-curvature="0"
         id="path4248"
         d="M 304.83555,279.10142 193.58043,178.97181"
         style="fill:#4d4d4d;fill-opacity:1;stroke:#ffffff;stroke-width:2.78137779;stroke-linecap:round;stroke-miterlimit:4;stroke-dasharray:none;stroke-dashoffset:0;stroke-opacity:0.58823529" />
      <path
         transform="translate(0,308.26772)"
         sodipodi:nodetypes="cc"
         inkscape:connector-curvature="0"
         id="path4252"
         d="m 304.83555,312.47795 -42.76369,31.63818"
         style="fill:#4d4d4d;fill-opacity:1;stroke:#ffffff;stroke-width:2.78137779;stroke-linecap:round;stroke-miterlimit:4;stroke-dasharray:none;stroke-dashoffset:0;stroke-opacity:0.58823529" />
      <path
         transform="translate(0,308.26772)"
         inkscape:connector-curvature="0"
         id="path4254"
         d="M 238.08248,323.60347 193.58043,178.97181"
         style="fill:#4d4d4d;fill-opacity:1;stroke:#ffffff;stroke-width:2.78137779;stroke-linecap:round;stroke-miterlimit:4;stroke-dasharray:none;stroke-dashoffset:0;stroke-opacity:0.58823529" />
      <path
         transform="translate(0,308.26772)"
         inkscape:connector-curvature="0"
         id="path4256"
         d="m 126.82736,356.98 89.0041,0"
         style="fill:#4d4d4d;fill-opacity:1;stroke:#ffffff;stroke-width:2.78137779;stroke-linecap:round;stroke-miterlimit:4;stroke-dasharray:none;stroke-dashoffset:0;stroke-opacity:0.58823529" />
      <path
         transform="translate(0,308.26772)"
         sodipodi:nodetypes="cc"
         inkscape:connector-curvature="0"
         id="path4258"
         d="m 243.61391,379.23102 11.49546,33.68384"
         style="fill:#4d4d4d;fill-opacity:1;stroke:#ffffff;stroke-width:2.78137779;stroke-linecap:round;stroke-miterlimit:4;stroke-dasharray:none;stroke-dashoffset:0;stroke-opacity:0.58823529" />
      <path
         transform="translate(0,308.26772)"
         sodipodi:nodetypes="cc"
         inkscape:connector-curvature="0"
         id="path4260"
         d="m 404.96514,267.97591 1.22921,196.50894"
         style="fill:#4d4d4d;fill-opacity:1;stroke:#ffffff;stroke-width:2.78137779;stroke-linecap:round;stroke-miterlimit:4;stroke-dasharray:none;stroke-dashoffset:0;stroke-opacity:0.58823529" />
      <path
         transform="translate(0,308.26772)"
         sodipodi:nodetypes="cc"
         inkscape:connector-curvature="0"
         id="path4262"
         d="m 281.93264,413.69403 34.02842,-90.09056"
         style="fill:#4d4d4d;fill-opacity:1;stroke:#ffffff;stroke-width:2.78137779;stroke-linecap:round;stroke-miterlimit:4;stroke-dasharray:none;stroke-dashoffset:0;stroke-opacity:0.58823529" />
      <path
         transform="translate(0,308.26772)"
         sodipodi:nodetypes="cc"
         inkscape:connector-curvature="0"
         id="path4264"
         d="m 104.57634,379.23102 84.33191,123.60983"
         style="fill:#4d4d4d;fill-opacity:1;stroke:#ffffff;stroke-width:2.78137779;stroke-linecap:round;stroke-miterlimit:4;stroke-dasharray:none;stroke-dashoffset:0;stroke-opacity:0.58823529" />
      <path
         transform="translate(0,308.26772)"
         sodipodi:nodetypes="cc"
         inkscape:connector-curvature="0"
         id="path4266"
         d="M 227.50893,496.01757 249.20799,457.1096"
         style="fill:#4d4d4d;fill-opacity:1;stroke:#ffffff;stroke-width:2.78137779;stroke-linecap:round;stroke-miterlimit:4;stroke-dasharray:none;stroke-dashoffset:0;stroke-opacity:0.58823529" />
      <path
         transform="translate(0,308.26772)"
         sodipodi:nodetypes="cc"
         inkscape:connector-curvature="0"
         id="path4268"
         d="m 288.60945,451.0163 93.73472,39.46984"
         style="fill:#4d4d4d;fill-opacity:1;stroke:#ffffff;stroke-width:2.78137779;stroke-linecap:round;stroke-miterlimit:4;stroke-dasharray:none;stroke-dashoffset:0;stroke-opacity:0.58823529" />
      <circle
         transform="translate(0,308.26772)"
         r="248.44101"
         cy="340.81323"
         cx="266.41769"
         id="path4370-0"
         style="fill:#4d4d4d;fill-opacity:0;stroke:#ffffff;stroke-width:3.76598692;stroke-linecap:round;stroke-miterlimit:4;stroke-dasharray:none;stroke-dashoffset:0;stroke-opacity:0.58823529" />
      <g
         transform="matrix(0.54853307,-0.06115835,0.06115835,0.54853307,79.947162,374.94981)"
         style="stroke:#ffffff;stroke-opacity:0.98039216"
         inkscape:transform-center-y="160.54638"
         inkscape:transform-center-x="-182.89571"
         id="g5229">
        <path
           inkscape:connector-curvature="0"
           id="path5283"
           d="m 191.74284,838.86006 a 45.957085,45.957072 0 0 1 -45.92599,45.95707 45.957085,45.957072 0 0 1 -45.98812,-45.89491 45.957085,45.957072 0 0 1 45.86378,-46.01915 45.957085,45.957072 0 0 1 46.05016,45.83268"
           style="fill:#ffffff;fill-opacity:0;stroke:#ffffff;stroke-width:9.33884335;stroke-miterlimit:2;stroke-dasharray:none;stroke-dashoffset:2;stroke-opacity:0.98039216" />
        <path
           inkscape:connector-curvature="0"
           id="path5277"
           d="M 3.8035877,554.552 A 45.957085,45.957072 60 0 1 -58.959391,537.75746 45.957085,45.957072 60 0 1 -42.207301,474.98311 45.957085,45.957072 60 0 1 20.578348,491.69275 45.957085,45.957072 60 0 1 3.9111577,554.4897"
           style="fill:#ffffff;fill-opacity:0;stroke:#ffffff;stroke-width:9.33884335;stroke-miterlimit:2;stroke-dasharray:none;stroke-dashoffset:2;stroke-opacity:0.98039216" />
        <path
           inkscape:connector-curvature="0"
           id="path5271"
           d="m 148.14475,223.56621 a 45.957072,45.957085 30 0 1 -16.83699,-62.75161 45.957072,45.957085 30 0 1 62.74022,-16.87943 45.957072,45.957085 30 0 1 16.92186,62.72878 45.957072,45.957085 30 0 1 -62.71735,16.96427"
           style="fill:#ffffff;fill-opacity:0;stroke:#ffffff;stroke-width:9.33884335;stroke-miterlimit:2;stroke-dasharray:none;stroke-dashoffset:2;stroke-opacity:0.98039216" />
        <path
           inkscape:connector-curvature="0"
           id="path5265"
           d="m 182.90589,546.43058 a 45.957085,45.957072 0 0 1 45.92599,-45.95707 45.957085,45.957072 0 0 1 45.98813,45.89491 45.957085,45.957072 0 0 1 -45.86379,46.01915 45.957085,45.957072 0 0 1 -46.05016,-45.83268"
           style="fill:#ffffff;fill-opacity:0;stroke:#ffffff;stroke-width:9.33884335;stroke-miterlimit:2;stroke-dasharray:none;stroke-dashoffset:2;stroke-opacity:0.98039216" />
        <path
           inkscape:connector-curvature="0"
           id="path5259"
           d="m 481.40322,787.60545 a 45.957085,45.957072 60 0 1 62.76298,16.79454 45.957085,45.957072 60 0 1 -16.75209,62.77435 45.957085,45.957072 60 0 1 -62.78565,-16.70964 45.957085,45.957072 60 0 1 16.66719,-62.79695"
           style="fill:#ffffff;fill-opacity:0;stroke:#ffffff;stroke-width:9.33884335;stroke-miterlimit:2;stroke-dasharray:none;stroke-dashoffset:2;stroke-opacity:0.98039216" />
        <path
           inkscape:connector-curvature="0"
           id="path5253"
           d="m 284.58791,663.69672 a 45.957072,45.957085 30 0 1 16.83699,62.75161 45.957072,45.957085 30 0 1 -62.74022,16.87943 45.957072,45.957085 30 0 1 -16.92186,-62.72878 45.957072,45.957085 30 0 1 62.71735,-16.96427"
           style="fill:none;fill-opacity:1;stroke:#ffffff;stroke-width:9.33884335;stroke-miterlimit:2;stroke-dasharray:none;stroke-dashoffset:2;stroke-opacity:0.98039216" />
        <path
           inkscape:connector-curvature="0"
           id="path5265-3"
           d="m 345.34346,461.27795 a 45.957072,45.957084 6.3618814 0 1 45.92599,-45.95706 45.957072,45.957084 6.3618814 0 1 45.98813,45.89491 45.957072,45.957084 6.3618814 0 1 -45.86379,46.01914 45.957072,45.957084 6.3618814 0 1 -46.05016,-45.83268"
           style="fill:#ffffff;fill-opacity:0;stroke:#ffffff;stroke-width:9.33884335;stroke-miterlimit:2;stroke-dasharray:none;stroke-dashoffset:2;stroke-opacity:0.98039216" />
        <path
           inkscape:connector-curvature="0"
           id="path5265-6"
           d="m 506.03072,376.58781 a 45.957072,45.957084 6.3618814 0 1 45.92599,-45.95706 45.957072,45.957084 6.3618814 0 1 45.98813,45.89491 45.957072,45.957084 6.3618814 0 1 -45.86379,46.01914 45.957072,45.957084 6.3618814 0 1 -46.05016,-45.83268"
           style="fill:#ffffff;fill-opacity:0;stroke:#ffffff;stroke-width:9.33884335;stroke-miterlimit:2;stroke-dasharray:none;stroke-dashoffset:2;stroke-opacity:0.98039216" />
      </g>
    </g>
    <g
       id="g4277"
       transform="translate(-40.310922,112.91165)">
      <g
         id="g4299"
         transform="matrix(1.071454,0,0,1.071454,-38.015761,-40.530035)">
        <circle
           transform="translate(0,308.26772)"
           style="fill:#4d4d4d;fill-opacity:0;stroke:#ffffff;stroke-width:2.92910123;stroke-linecap:round;stroke-miterlimit:4;stroke-dasharray:none;stroke-dashoffset:0;stroke-opacity:0.58823529"
           id="path4370"
           cx="840.77222"
           cy="388.96585"
           r="193.2319" />
        <path
           style="fill:#ffffff;fill-opacity:0;stroke:#ffffff;stroke-width:5.15440607;stroke-miterlimit:2;stroke-dasharray:none;stroke-dashoffset:2;stroke-opacity:0.98039216"
           d="m 703.77404,382.39727 a 25.365176,25.365183 0 0 1 22.38127,-28.01774 25.365176,25.365183 0 0 1 28.03286,22.36233 25.365176,25.365183 0 0 1 -22.34335,28.04797 25.365176,25.365183 0 0 1 -28.06308,-22.32439"
           id="path5265-6-2"
           inkscape:connector-curvature="0"
           transform="translate(0,308.26772)" />
        <path
           style="fill:#ffffff;fill-opacity:0;stroke:#ffffff;stroke-width:5.15440607;stroke-miterlimit:2;stroke-dasharray:none;stroke-dashoffset:2;stroke-opacity:0.98039216"
           d="m 837.74222,494.71501 a 25.365176,25.365183 0 0 1 22.38126,-28.01773 25.365176,25.365183 0 0 1 28.03287,22.36232 25.365176,25.365183 0 0 1 -22.34336,28.04797 25.365176,25.365183 0 0 1 -28.06308,-22.32438"
           id="path5265-6-9"
           inkscape:connector-curvature="0"
           transform="translate(0,308.26772)" />
        <path
           style="fill:#ffffff;fill-opacity:0;stroke:#ffffff;stroke-width:5.15440607;stroke-miterlimit:2;stroke-dasharray:none;stroke-dashoffset:2;stroke-opacity:0.98039216"
           d="m 704.23608,804.02575 a 25.365176,25.365183 0 0 1 22.38127,-28.01773 25.365176,25.365183 0 0 1 28.03286,22.36232 25.365176,25.365183 0 0 1 -22.34336,28.04797 25.365176,25.365183 0 0 1 -28.06308,-22.32438"
           id="path5265-6-5"
           inkscape:connector-curvature="0" />
        <path
           style="fill:#ffffff;fill-opacity:0;stroke:#ffffff;stroke-width:5.15440607;stroke-miterlimit:2;stroke-dasharray:none;stroke-dashoffset:2;stroke-opacity:0.98039216"
           d="m 770.64147,624.97455 a 25.365176,25.365183 0 0 1 22.38127,-28.01773 25.365176,25.365183 0 0 1 28.03287,22.36232 25.365176,25.365183 0 0 1 -22.34336,28.04797 25.365176,25.365183 0 0 1 -28.06308,-22.32439"
           id="path5265-6-3"
           inkscape:connector-curvature="0" />
        <path
           style="fill:#ffffff;fill-opacity:0;stroke:#ffffff;stroke-width:5.15440607;stroke-miterlimit:2;stroke-dasharray:none;stroke-dashoffset:2;stroke-opacity:0.98039216"
           d="m 836.6992,689.29391 a 25.365176,25.365183 0 0 1 22.38127,-28.01773 25.365176,25.365183 0 0 1 28.03286,22.36232 25.365176,25.365183 0 0 1 -22.34335,28.04797 25.365176,25.365183 0 0 1 -28.06308,-22.32438"
           id="path5265-6-56"
           inkscape:connector-curvature="0" />
        <path
           style="fill:#ffffff;fill-opacity:0;stroke:#ffffff;stroke-width:5.15440607;stroke-miterlimit:2;stroke-dasharray:none;stroke-dashoffset:2;stroke-opacity:0.98039216"
           d="m 906.58132,579.42948 a 25.365176,25.365183 0 0 1 22.38127,-28.01773 25.365176,25.365183 0 0 1 28.03286,22.36233 25.365176,25.365183 0 0 1 -22.34335,28.04797 25.365176,25.365183 0 0 1 -28.06308,-22.32439"
           id="path5265-6-3-2"
           inkscape:connector-curvature="0" />
        <path
           style="fill:#ffffff;fill-opacity:0;stroke:#ffffff;stroke-width:5.15440607;stroke-miterlimit:2;stroke-dasharray:none;stroke-dashoffset:2;stroke-opacity:0.98039216"
           d="m 927.44165,715.02166 a 25.365176,25.365183 0 0 1 22.38127,-28.01774 25.365176,25.365183 0 0 1 28.03286,22.36233 25.365176,25.365183 0 0 1 -22.34335,28.04797 25.365176,25.365183 0 0 1 -28.06308,-22.32439"
           id="path5265-6-3-7"
           inkscape:connector-curvature="0" />
        <path
           style="fill:#4d4d4d;fill-opacity:1;stroke:#ffffff;stroke-width:2.78137779;stroke-linecap:round;stroke-miterlimit:4;stroke-dasharray:none;stroke-dashoffset:0;stroke-opacity:0.58823529"
           d="M 844.42285,665.24772 816.60907,637.43394"
           id="path4336"
           inkscape:connector-curvature="0" />
        <path
           style="fill:#4d4d4d;fill-opacity:1;stroke:#ffffff;stroke-width:2.78137779;stroke-linecap:round;stroke-miterlimit:4;stroke-dasharray:none;stroke-dashoffset:0;stroke-opacity:0.58823529"
           d="m 777.66978,642.9967 -27.46611,27.29227"
           id="path4340"
           inkscape:connector-curvature="0"
           sodipodi:nodetypes="cc" />
        <path
           style="fill:#4d4d4d;fill-opacity:1;stroke:#ffffff;stroke-width:2.78137779;stroke-linecap:round;stroke-miterlimit:4;stroke-dasharray:none;stroke-dashoffset:0;stroke-opacity:0.58823529"
           d="m 727.60498,776.50284 0,-61.19032"
           id="path4342"
           inkscape:connector-curvature="0" />
        <path
           style="fill:#4d4d4d;fill-opacity:1;stroke:#ffffff;stroke-width:2.78137779;stroke-linecap:round;stroke-miterlimit:4;stroke-dasharray:none;stroke-dashoffset:0;stroke-opacity:0.58823529"
           d="m 755.41876,798.75386 83.44134,0"
           id="path4344"
           inkscape:connector-curvature="0" />
        <path
           style="fill:#4d4d4d;fill-opacity:1;stroke:#ffffff;stroke-width:2.78137779;stroke-linecap:round;stroke-miterlimit:4;stroke-dasharray:none;stroke-dashoffset:0;stroke-opacity:0.58823529"
           d="M 849.98561,776.50284 749.856,704.18701"
           id="path4346"
           inkscape:connector-curvature="0" />
        <path
           style="fill:#4d4d4d;fill-opacity:1;stroke:#ffffff;stroke-width:2.78137779;stroke-linecap:round;stroke-miterlimit:4;stroke-dasharray:none;stroke-dashoffset:0;stroke-opacity:0.58823529"
           d="m 883.36214,782.06559 50.0648,-50.0648"
           id="path4348"
           inkscape:connector-curvature="0" />
        <path
           style="fill:#4d4d4d;fill-opacity:1;stroke:#ffffff;stroke-width:2.78137779;stroke-linecap:round;stroke-miterlimit:4;stroke-dasharray:none;stroke-dashoffset:0;stroke-opacity:0.58823529"
           d="M 927.86419,709.74977 883.36214,698.62425"
           id="path4350"
           inkscape:connector-curvature="0" />
        <path
           style="fill:#4d4d4d;fill-opacity:1;stroke:#ffffff;stroke-width:2.78137779;stroke-linecap:round;stroke-miterlimit:4;stroke-dasharray:none;stroke-dashoffset:0;stroke-opacity:0.58823529"
           d="m 861.11112,709.74977 5.56275,66.75307"
           id="path4352"
           inkscape:connector-curvature="0" />
        <path
           style="fill:#4d4d4d;fill-opacity:1;stroke:#ffffff;stroke-width:2.78137779;stroke-linecap:round;stroke-miterlimit:4;stroke-dasharray:none;stroke-dashoffset:0;stroke-opacity:0.58823529"
           d="m 833.29734,687.49874 -77.87858,0"
           id="path4354"
           inkscape:connector-curvature="0" />
        <path
           style="fill:#4d4d4d;fill-opacity:1;stroke:#ffffff;stroke-width:2.78137779;stroke-linecap:round;stroke-miterlimit:4;stroke-dasharray:none;stroke-dashoffset:0;stroke-opacity:0.58823529"
           d="m 877.79939,665.24772 38.93929,-66.75307"
           id="path4356"
           inkscape:connector-curvature="0" />
        <path
           style="fill:#4d4d4d;fill-opacity:1;stroke:#ffffff;stroke-width:2.78137779;stroke-linecap:round;stroke-miterlimit:4;stroke-dasharray:none;stroke-dashoffset:0;stroke-opacity:0.58823529"
           d="m 950.11521,687.49874 -5.56275,-89.00409"
           id="path4358"
           inkscape:connector-curvature="0" />
        <path
           style="fill:#4d4d4d;fill-opacity:1;stroke:#ffffff;stroke-width:2.78137779;stroke-linecap:round;stroke-miterlimit:4;stroke-dasharray:none;stroke-dashoffset:0;stroke-opacity:0.58823529"
           d="m 905.61317,581.80638 -89.0041,22.25103"
           id="path4362"
           inkscape:connector-curvature="0" />
      </g>
    </g>
  </g>
</svg>
