<?xml version="1.0" encoding="UTF-8" standalone="no"?>
<!-- Created with Inkscape (http://www.inkscape.org/) -->

<svg
   xmlns:dc="http://purl.org/dc/elements/1.1/"
   xmlns:cc="http://creativecommons.org/ns#"
   xmlns:rdf="http://www.w3.org/1999/02/22-rdf-syntax-ns#"
   xmlns:svg="http://www.w3.org/2000/svg"
   xmlns="http://www.w3.org/2000/svg"
   xmlns:sodipodi="http://sodipodi.sourceforge.net/DTD/sodipodi-0.dtd"
   xmlns:inkscape="http://www.inkscape.org/namespaces/inkscape"
   width="200mm"
   height="200mm"
   viewBox="0 0 708.66142 708.66141"
   id="svg5573"
   version="1.1"
   inkscape:version="0.91 r13725"
   sodipodi:docname="A-activistsb.svg">
  <defs
     id="defs5575" />
  <sodipodi:namedview
     id="base"
     pagecolor="#ffffff"
     bordercolor="#666666"
     borderopacity="1.0"
     inkscape:pageopacity="0.0"
     inkscape:pageshadow="2"
     inkscape:zoom="0.49497475"
     inkscape:cx="-90.586526"
     inkscape:cy="338.97612"
     inkscape:document-units="px"
     inkscape:current-layer="layer1"
     showgrid="false"
     inkscape:window-width="1301"
     inkscape:window-height="744"
     inkscape:window-x="65"
     inkscape:window-y="24"
     inkscape:window-maximized="1" />
  <metadata
     id="metadata5578">
    <rdf:RDF>
      <cc:Work
         rdf:about="">
        <dc:format>image/svg+xml</dc:format>
        <dc:type
           rdf:resource="http://purl.org/dc/dcmitype/StillImage" />
        <dc:title />
      </cc:Work>
    </rdf:RDF>
  </metadata>
  <g
     inkscape:label="Layer 1"
     inkscape:groupmode="layer"
     id="layer1"
     transform="translate(0,-343.70079)">
    <path
       style="fill:none;fill-rule:evenodd;stroke:#bebebe;stroke-width:22.5;stroke-linecap:round;stroke-linejoin:miter;stroke-miterlimit:4;stroke-dasharray:none;stroke-opacity:1"
       d="m 515.60409,480.06823 -97.54431,-45.0252"
       id="path6285-3-8"
       inkscape:connector-curvature="0"
       sodipodi:nodetypes="cc" />
    <path
       style="fill:none;fill-rule:evenodd;stroke:#bebebe;stroke-width:22.5;stroke-linecap:round;stroke-linejoin:miter;stroke-miterlimit:4;stroke-dasharray:none;stroke-opacity:1"
       d="M 356.83007,623.12269 335.6095,504.07382"
       id="path6285-3-6"
       inkscape:connector-curvature="0"
       sodipodi:nodetypes="cc" />
    <path
       style="fill:none;fill-rule:evenodd;stroke:#bebebe;stroke-width:22.5;stroke-linecap:round;stroke-linejoin:miter;stroke-miterlimit:4;stroke-dasharray:none;stroke-opacity:1"
       d="m 591.41018,772.7462 2.12715,-148.45752"
       id="path6285-3-6-1"
       inkscape:connector-curvature="0"
       sodipodi:nodetypes="cc" />
    <path
       style="fill:none;fill-rule:evenodd;stroke:#bebebe;stroke-width:22.5;stroke-linecap:round;stroke-linejoin:miter;stroke-miterlimit:4;stroke-dasharray:none;stroke-opacity:1"
       d="m 370.09978,886.6088 0.52345,-87.51696"
       id="path6285-3-6-1-2"
       inkscape:connector-curvature="0"
       sodipodi:nodetypes="cc" />
    <path
       style="fill:none;fill-rule:evenodd;stroke:#bebebe;stroke-width:22.5;stroke-linecap:round;stroke-linejoin:miter;stroke-miterlimit:4;stroke-dasharray:none;stroke-opacity:1"
       d="M 281.89636,676.52428 176.57569,625.89239"
       id="path6285-3-6-1-9"
       inkscape:connector-curvature="0"
       sodipodi:nodetypes="cc" />
    <path
       style="fill:none;fill-rule:evenodd;stroke:#bebebe;stroke-width:22.5;stroke-linecap:round;stroke-linejoin:miter;stroke-miterlimit:4;stroke-dasharray:none;stroke-opacity:1"
       d="M 155.20418,763.92585 120.44624,658.7682"
       id="path6285-3-6-1-9-1"
       inkscape:connector-curvature="0"
       sodipodi:nodetypes="cc" />
    <path
       style="fill:none;fill-rule:evenodd;stroke:#bebebe;stroke-width:22.5;stroke-linecap:round;stroke-linejoin:miter;stroke-miterlimit:4;stroke-dasharray:none;stroke-opacity:1"
       d="M 275.48156,959.57709 214.5224,920.17108"
       id="path6285-3-6-1-9-1-9"
       inkscape:connector-curvature="0"
       sodipodi:nodetypes="cc" />
    <path
       style="fill:none;fill-rule:evenodd;stroke:#bebebe;stroke-width:22.5;stroke-linecap:round;stroke-linejoin:miter;stroke-miterlimit:4;stroke-dasharray:none;stroke-opacity:1"
       d="m 260.6944,789.5223 42.57349,-36.13587"
       id="path6285-3-6-1-9-1-4"
       inkscape:connector-curvature="0"
       sodipodi:nodetypes="cc" />
    <path
       style="fill:none;fill-rule:evenodd;stroke:#bebebe;stroke-width:22.5;stroke-linecap:round;stroke-linejoin:miter;stroke-miterlimit:4;stroke-dasharray:none;stroke-opacity:1"
       d="M 519.24374,805.62202 445.99705,759.80123"
       id="path6285-3-6-1-9-1-7"
       inkscape:connector-curvature="0"
       sodipodi:nodetypes="cc" />
    <path
       style="fill:none;fill-rule:evenodd;stroke:#bebebe;stroke-width:22.5;stroke-linecap:round;stroke-linejoin:miter;stroke-miterlimit:4;stroke-dasharray:none;stroke-opacity:1"
       d="m 528.86594,906.65503 -71.64299,53.60851"
       id="path6285-3-6-1-9-1-8"
       inkscape:connector-curvature="0"
       sodipodi:nodetypes="cc" />
    <path
       style="fill:none;fill-rule:evenodd;stroke:#bebebe;stroke-width:22.5;stroke-linecap:round;stroke-linejoin:miter;stroke-miterlimit:4;stroke-dasharray:none;stroke-opacity:1"
       d="M 447.07732,656.47805 514.9561,586.60177"
       id="path6285-3-6-1-9-1-45"
       inkscape:connector-curvature="0"
       sodipodi:nodetypes="cc" />
    <path
       style="fill:none;fill-rule:evenodd;stroke:#bebebe;stroke-width:22.5;stroke-linecap:round;stroke-linejoin:miter;stroke-miterlimit:4;stroke-dasharray:none;stroke-opacity:1"
       d="m 154.56502,508.15475 88.33874,-58.2714"
       id="path6285-3-8-0"
       inkscape:connector-curvature="0"
       sodipodi:nodetypes="cc" />
  </g>
  <g
     inkscape:groupmode="layer"
     id="layer4"
     inkscape:label="Layer 2"
     transform="translate(0,-343.70079)">
    <path
       style="fill:#00b018;fill-opacity:1"
       d="m 344.64037,1027.3526 c -1.98681,-0.9801 -2.99963,-2.8207 -2.99963,-5.4511 0,-1.0027 -0.3766,-3.0912 -0.83691,-4.6412 -0.98758,-3.3255 -0.98954,-3.3275 -19.71838,-20.06631 -15.19884,-13.5838 -16.75664,-15.50455 -18.22019,-22.46525 -1.21883,-5.79682 -0.92672,-23.4262 0.42917,-25.90136 1.22356,-2.2336 4.26574,-5.08704 6.20166,-5.8169 2.17791,-0.82111 6.7513,-0.73925 8.89755,0.15926 2.43688,1.02016 5.76917,4.83497 6.48955,7.42925 0.32517,1.17101 0.59262,5.1406 0.59432,8.82131 0.002,6.02971 0.11069,6.7594 1.08978,7.37087 1.06805,0.667 1.08954,0.35977 1.25381,-17.92958 l 0.16713,-18.6082 1.67945,-2.38843 c 5.24808,-7.46356 16.1984,-6.58573 20.08767,1.61034 0.55795,1.17577 1.03162,4.06923 1.21705,7.43436 0.26916,4.88477 0.42075,5.50939 1.33705,5.50939 0.95383,0 1.03439,-0.56887 1.04569,-7.3835 0.0141,-8.53562 0.70684,-10.79436 4.19104,-13.66632 5.88539,-4.85126 14.82769,-2.60756 17.78132,4.46148 0.62876,1.50479 0.86247,4.03215 0.86247,9.32625 0,6.71719 0.078,7.26209 1.03999,7.26209 0.92535,0 1.07014,-0.59893 1.3135,-5.43314 0.15043,-2.98823 0.65038,-6.31081 1.11099,-7.3835 3.81498,-8.88463 16.25184,-9.24256 20.63639,-0.59393 1.34593,2.65488 1.53243,3.65486 1.53243,8.21666 0,4.82242 0.0797,5.19391 1.11449,5.19391 0.78266,0 1.11611,-0.3733 1.11993,-1.25379 0.002,-0.6896 0.61719,-2.56777 1.36487,-4.17371 1.89927,-4.07943 5.36339,-6.27466 9.9016,-6.27466 4.13228,0 6.32021,0.9269 8.87738,3.76085 3.1256,3.46389 3.38212,5.66231 3.12472,26.7791 -0.25681,21.06969 0.76307,16.52381 -8.7758,39.11576 -5.50645,13.0415 -6.29011,15.3002 -6.70673,19.3303 -0.56406,5.4566 -1.14997,6.7033 -3.6391,7.7433 -2.92804,1.2234 -61.06818,1.1378 -63.56426,-0.094 z"
       id="path6226-8"
       inkscape:connector-curvature="0" />
    <path
       style="fill:#00b018;fill-opacity:1"
       d="m 572.36556,905.47151 c -1.9868,-0.98015 -2.99962,-2.82072 -2.99962,-5.45113 0,-1.00265 -0.37661,-3.09118 -0.83692,-4.64121 -0.98757,-3.32551 -0.98954,-3.32751 -19.71837,-20.06623 -15.19885,-13.58383 -16.75664,-15.50458 -18.2202,-22.46529 -1.21882,-5.79681 -0.92672,-23.42619 0.42917,-25.90136 1.22357,-2.23359 4.26575,-5.08703 6.20166,-5.81689 2.17792,-0.82111 6.7513,-0.73925 8.89756,0.15926 2.43688,1.02016 5.76916,4.83497 6.48955,7.42925 0.32517,1.171 0.59261,5.1406 0.59432,8.82131 0.002,6.02971 0.11069,6.7594 1.08977,7.37087 1.06806,0.66699 1.08954,0.35976 1.25381,-17.92958 l 0.16713,-18.6082 1.67945,-2.38844 c 5.24808,-7.46355 16.1984,-6.58572 20.08768,1.61035 0.55795,1.17576 1.03161,4.06923 1.21704,7.43435 0.26916,4.88478 0.42076,5.5094 1.33705,5.5094 0.95383,0 1.0344,-0.56887 1.04569,-7.3835 0.0141,-8.53562 0.70684,-10.79436 4.19104,-13.66632 5.8854,-4.85126 14.8277,-2.60756 17.78133,4.46148 0.62875,1.50479 0.86246,4.03215 0.86246,9.32625 0,6.71719 0.078,7.26209 1.03999,7.26209 0.92535,0 1.07014,-0.59893 1.31351,-5.43314 0.15043,-2.98823 0.65037,-6.31081 1.11098,-7.3835 3.81498,-8.88463 16.25184,-9.24256 20.6364,-0.59393 1.34592,2.65488 1.53242,3.65486 1.53242,8.21666 0,4.82241 0.0797,5.19391 1.1145,5.19391 0.78265,0 1.11611,-0.3733 1.11992,-1.2538 0.002,-0.68959 0.61719,-2.56776 1.36487,-4.1737 1.89927,-4.07944 5.36339,-6.27466 9.90161,-6.27466 4.13228,0 6.3202,0.9269 8.87737,3.76084 3.12561,3.4639 3.38213,5.66232 3.12473,26.77911 -0.25682,21.06969 0.76307,16.52381 -8.77581,39.11575 -5.50644,13.04152 -6.29011,15.30022 -6.70672,19.33032 -0.56406,5.45655 -1.14997,6.70324 -3.6391,7.74327 -2.92805,1.22342 -61.06818,1.13782 -63.56427,-0.0936 z"
       id="path6226-7"
       inkscape:connector-curvature="0" />
    <path
       style="fill:#00b018;fill-opacity:1"
       d="m 302.9442,470.86918 c -1.9868,-0.98015 -2.99962,-2.82072 -2.99962,-5.45113 0,-1.00265 -0.37661,-3.09118 -0.83692,-4.64121 -0.98757,-3.32551 -0.98954,-3.32751 -19.71837,-20.06623 -15.19885,-13.58383 -16.75664,-15.50458 -18.2202,-22.46528 -1.21882,-5.79682 -0.92672,-23.4262 0.42917,-25.90137 1.22357,-2.23359 4.26575,-5.08703 6.20166,-5.81689 2.17792,-0.82111 6.7513,-0.73925 8.89755,0.15926 2.43689,1.02016 5.76917,4.83497 6.48956,7.42925 0.32517,1.171 0.59261,5.1406 0.59432,8.82131 0.002,6.02971 0.11069,6.7594 1.08977,7.37087 1.06806,0.66699 1.08954,0.35976 1.25381,-17.92958 l 0.16713,-18.6082 1.67945,-2.38843 c 5.24808,-7.46356 16.1984,-6.58573 20.08768,1.61034 0.55795,1.17576 1.03161,4.06923 1.21704,7.43436 0.26916,4.88477 0.42076,5.50939 1.33705,5.50939 0.95383,0 1.0344,-0.56887 1.04569,-7.3835 0.0141,-8.53562 0.70684,-10.79436 4.19104,-13.66632 5.8854,-4.85125 14.8277,-2.60756 17.78133,4.46148 0.62875,1.50479 0.86246,4.03215 0.86246,9.32625 0,6.71719 0.078,7.26209 1.03999,7.26209 0.92535,0 1.07014,-0.59893 1.31351,-5.43314 0.15042,-2.98823 0.65037,-6.31081 1.11098,-7.3835 3.81498,-8.88463 16.25184,-9.24256 20.6364,-0.59393 1.34592,2.65488 1.53242,3.65486 1.53242,8.21666 0,4.82241 0.0797,5.19391 1.11449,5.19391 0.78266,0 1.11612,-0.3733 1.11993,-1.25379 0.002,-0.6896 0.61719,-2.56777 1.36487,-4.17371 1.89927,-4.07943 5.36339,-6.27466 9.9016,-6.27466 4.13229,0 6.32021,0.9269 8.87738,3.76084 3.1256,3.4639 3.38213,5.66232 3.12473,26.77911 -0.25682,21.06969 0.76307,16.52381 -8.77581,39.11575 -5.50644,13.04152 -6.29011,15.30022 -6.70673,19.33032 -0.56405,5.45655 -1.14996,6.70325 -3.63909,7.74327 -2.92805,1.22342 -61.06818,1.13782 -63.56427,-0.0936 z"
       id="path6226-9"
       inkscape:connector-curvature="0" />
    <path
       style="fill:#00b018;fill-opacity:1"
       d="m 80.030092,634.44644 c -1.986803,-0.98015 -2.999625,-2.82072 -2.999625,-5.45113 0,-1.00265 -0.376606,-3.09118 -0.836913,-4.64121 -0.987575,-3.32551 -0.98954,-3.32751 -19.718378,-20.06623 -15.198833,-13.58383 -16.756628,-15.50458 -18.220181,-22.46528 -1.218828,-5.79682 -0.926719,-23.4262 0.429166,-25.90137 1.223566,-2.23359 4.265749,-5.08703 6.201653,-5.81689 2.177913,-0.82111 6.751295,-0.73925 8.897551,0.15926 2.436882,1.02016 5.769164,4.83497 6.489552,7.42925 0.325169,1.171 0.592615,5.1406 0.594321,8.82131 0.0022,6.02971 0.110688,6.7594 1.089776,7.37087 1.068054,0.66699 1.08954,0.35976 1.253808,-17.92958 l 0.167131,-18.6082 1.67945,-2.38843 c 5.248081,-7.46356 16.198399,-6.58573 20.087676,1.61034 0.557949,1.17576 1.031614,4.06923 1.217043,7.43436 0.269164,4.88477 0.420758,5.50939 1.337049,5.50939 0.95383,0 1.034398,-0.56887 1.045692,-7.3835 0.01414,-8.53562 0.706838,-10.79436 4.19104,-13.66632 5.885397,-4.85125 14.827697,-2.60756 17.781327,4.46148 0.62876,1.50479 0.86247,4.03215 0.86247,9.32625 0,6.71719 0.078,7.26209 1.03999,7.26209 0.92535,0 1.07014,-0.59893 1.3135,-5.43314 0.15043,-2.98823 0.65038,-6.31081 1.11099,-7.3835 3.81498,-8.88463 16.25184,-9.24256 20.63639,-0.59393 1.34593,2.65488 1.53243,3.65486 1.53243,8.21666 0,4.82241 0.0797,5.19391 1.11449,5.19391 0.78266,0 1.11611,-0.3733 1.11993,-1.25379 0.002,-0.6896 0.61719,-2.56777 1.36487,-4.17371 1.89927,-4.07943 5.36339,-6.27466 9.9016,-6.27466 4.13228,0 6.32021,0.9269 8.87738,3.76084 3.1256,3.4639 3.38212,5.66232 3.12473,26.77911 -0.25682,21.06969 0.76306,16.52381 -8.77581,39.11575 -5.50645,13.04152 -6.29011,15.30022 -6.70673,19.33032 -0.56406,5.45655 -1.14997,6.70324 -3.6391,7.74327 -2.92804,1.22342 -61.06818,1.13782 -63.564268,-0.0936 z"
       id="path6226-2"
       inkscape:connector-curvature="0" />
    <path
       style="fill:#00b018;fill-opacity:1"
       d="m 569.15817,591.14659 c -1.98681,-0.98015 -2.99963,-2.82072 -2.99963,-5.45113 0,-1.00265 -0.3766,-3.09118 -0.83691,-4.64121 -0.98758,-3.32551 -0.98954,-3.32751 -19.71838,-20.06623 -15.19884,-13.58383 -16.75664,-15.50458 -18.22019,-22.46529 -1.21883,-5.79681 -0.92672,-23.42619 0.42917,-25.90136 1.22356,-2.23359 4.26574,-5.08703 6.20166,-5.81689 2.17791,-0.82111 6.7513,-0.73925 8.89755,0.15926 2.43688,1.02016 5.76917,4.83497 6.48955,7.42925 0.32517,1.171 0.59262,5.1406 0.59432,8.82131 0.002,6.02971 0.11069,6.7594 1.08978,7.37087 1.06805,0.66699 1.08954,0.35976 1.25381,-17.92958 l 0.16713,-18.6082 1.67945,-2.38844 c 5.24808,-7.46355 16.1984,-6.58572 20.08767,1.61035 0.55795,1.17576 1.03162,4.06922 1.21705,7.43435 0.26916,4.88478 0.42076,5.5094 1.33705,5.5094 0.95383,0 1.03439,-0.56887 1.04569,-7.3835 0.0141,-8.53562 0.70684,-10.79436 4.19104,-13.66632 5.8854,-4.85126 14.82769,-2.60756 17.78133,4.46148 0.62875,1.50479 0.86246,4.03215 0.86246,9.32624 0,6.7172 0.078,7.2621 1.03999,7.2621 0.92535,0 1.07014,-0.59893 1.3135,-5.43314 0.15043,-2.98823 0.65038,-6.31081 1.11099,-7.3835 3.81498,-8.88463 16.25184,-9.24256 20.63639,-0.59393 1.34593,2.65488 1.53243,3.65486 1.53243,8.21665 0,4.82242 0.0797,5.19392 1.11449,5.19392 0.78266,0 1.11611,-0.37331 1.11993,-1.2538 0.002,-0.68959 0.61719,-2.56776 1.36487,-4.1737 1.89927,-4.07944 5.36339,-6.27466 9.9016,-6.27466 4.13229,0 6.32021,0.9269 8.87738,3.76084 3.1256,3.4639 3.38212,5.66232 3.12473,26.7791 -0.25682,21.0697 0.76306,16.52382 -8.77581,39.11575 -5.50645,13.04152 -6.29011,15.30023 -6.70673,19.33032 -0.56405,5.45656 -1.14997,6.70325 -3.6391,7.74328 -2.92804,1.22342 -61.06817,1.13782 -63.56426,-0.0936 z"
       id="path6226-0"
       inkscape:connector-curvature="0" />
    <path
       style="fill:#00b018;fill-opacity:1"
       d="m 347.84776,764.34602 c -1.9868,-0.98015 -2.99962,-2.82072 -2.99962,-5.45113 0,-1.00265 -0.37661,-3.09118 -0.83692,-4.64121 -0.98757,-3.32551 -0.98954,-3.32751 -19.71837,-20.06623 -15.19885,-13.58383 -16.75664,-15.50458 -18.2202,-22.46529 -1.21882,-5.79681 -0.92672,-23.42619 0.42917,-25.90136 1.22357,-2.23359 4.26575,-5.08703 6.20166,-5.81689 2.17792,-0.82111 6.7513,-0.73925 8.89755,0.15926 2.43689,1.02016 5.76917,4.83497 6.48956,7.42925 0.32517,1.171 0.59261,5.1406 0.59432,8.82131 0.002,6.02971 0.11069,6.7594 1.08977,7.37087 1.06806,0.66699 1.08954,0.35976 1.25381,-17.92958 l 0.16713,-18.6082 1.67945,-2.38844 c 5.24808,-7.46355 16.1984,-6.58572 20.08768,1.61035 0.55795,1.17576 1.03161,4.06922 1.21704,7.43435 0.26916,4.88478 0.42076,5.5094 1.33705,5.5094 0.95383,0 1.0344,-0.56887 1.04569,-7.3835 0.0142,-8.53562 0.70684,-10.79436 4.19104,-13.66632 5.8854,-4.85125 14.8277,-2.60756 17.78133,4.46148 0.62875,1.50479 0.86246,4.03215 0.86246,9.32625 0,6.71719 0.078,7.26209 1.03999,7.26209 0.92535,0 1.07014,-0.59893 1.31351,-5.43314 0.15042,-2.98823 0.65037,-6.31081 1.11098,-7.3835 3.81498,-8.88463 16.25184,-9.24256 20.6364,-0.59393 1.34592,2.65488 1.53242,3.65486 1.53242,8.21665 0,4.82242 0.0797,5.19392 1.11449,5.19392 0.78266,0 1.11612,-0.37331 1.11993,-1.2538 0.002,-0.68959 0.61719,-2.56776 1.36487,-4.1737 1.89927,-4.07944 5.36339,-6.27466 9.9016,-6.27466 4.13229,0 6.32021,0.9269 8.87738,3.76084 3.1256,3.4639 3.38213,5.66232 3.12473,26.77911 -0.25682,21.06969 0.76307,16.52381 -8.77581,39.11574 -5.50644,13.04153 -6.29011,15.30023 -6.70673,19.33032 -0.56405,5.45656 -1.14996,6.70325 -3.63909,7.74328 -2.92805,1.22342 -61.06818,1.13782 -63.56427,-0.0936 z"
       id="path6226"
       inkscape:connector-curvature="0" />
    <path
       style="fill:#00b018;fill-opacity:1"
       d="m 161.01688,895.8493 c -1.9868,-0.98014 -2.99963,-2.82072 -2.99963,-5.45112 0,-1.00265 -0.3766,-3.09119 -0.83691,-4.64121 -0.98757,-3.32551 -0.98954,-3.32751 -19.71838,-20.06623 -15.19884,-13.58384 -16.75664,-15.50459 -18.22019,-22.46529 -1.21883,-5.79681 -0.92672,-23.4262 0.42917,-25.90136 1.22356,-2.23359 4.26575,-5.08704 6.20166,-5.8169 2.17791,-0.8211 6.7513,-0.73925 8.89755,0.15926 2.43688,1.02017 5.76917,4.83497 6.48955,7.42925 0.32517,1.17101 0.59262,5.14061 0.59433,8.82132 0.002,6.0297 0.11068,6.7594 1.08977,7.37086 1.06805,0.667 1.08954,0.35977 1.25381,-17.92957 l 0.16713,-18.60821 1.67945,-2.38843 c 5.24808,-7.46356 16.1984,-6.58572 20.08768,1.61034 0.55794,1.17577 1.03161,4.06923 1.21704,7.43436 0.26916,4.88478 0.42076,5.5094 1.33705,5.5094 0.95383,0 1.0344,-0.56887 1.04569,-7.38351 0.0141,-8.53561 0.70684,-10.79435 4.19104,-13.66632 5.8854,-4.85125 14.82769,-2.60756 17.78133,4.46149 0.62875,1.50478 0.86246,4.03215 0.86246,9.32624 0,6.71719 0.078,7.2621 1.03999,7.2621 0.92535,0 1.07014,-0.59894 1.31351,-5.43314 0.15042,-2.98823 0.65037,-6.31082 1.11098,-7.38351 3.81498,-8.88463 16.25184,-9.24255 20.63639,-0.59392 1.34593,2.65487 1.53243,3.65485 1.53243,8.21665 0,4.82242 0.0797,5.19392 1.11449,5.19392 0.78266,0 1.11611,-0.37331 1.11993,-1.2538 0.002,-0.6896 0.61719,-2.56777 1.36487,-4.17371 1.89927,-4.07943 5.36339,-6.27465 9.9016,-6.27465 4.13229,0 6.32021,0.9269 8.87738,3.76084 3.1256,3.46389 3.38212,5.66232 3.12473,26.7791 -0.25682,21.06969 0.76307,16.52382 -8.77581,39.11575 -5.50644,13.04152 -6.29011,15.30023 -6.70673,19.33032 -0.56405,5.45656 -1.14997,6.70325 -3.63909,7.74327 -2.92805,1.22342 -61.06818,1.13782 -63.56427,-0.0936 z"
       id="path6226-8-9"
       inkscape:connector-curvature="0" />
  </g>
</svg>
