<?xml version="1.0" encoding="UTF-8" standalone="no"?>
<!-- Created with Inkscape (http://www.inkscape.org/) -->

<svg
   xmlns:dc="http://purl.org/dc/elements/1.1/"
   xmlns:cc="http://creativecommons.org/ns#"
   xmlns:rdf="http://www.w3.org/1999/02/22-rdf-syntax-ns#"
   xmlns:svg="http://www.w3.org/2000/svg"
   xmlns="http://www.w3.org/2000/svg"
   xmlns:sodipodi="http://sodipodi.sourceforge.net/DTD/sodipodi-0.dtd"
   xmlns:inkscape="http://www.inkscape.org/namespaces/inkscape"
   width="200mm"
   height="200mm"
   viewBox="0 0 708.66142 708.66141"
   id="svg6677"
   version="1.1"
   inkscape:version="0.91 r13725"
   sodipodi:docname="B-NGOs.svg">
  <defs
     id="defs6679" />
  <sodipodi:namedview
     id="base"
     pagecolor="#ffffff"
     bordercolor="#666666"
     borderopacity="1.0"
     inkscape:pageopacity="0.0"
     inkscape:pageshadow="2"
     inkscape:zoom="0.32"
     inkscape:cx="12.96739"
     inkscape:cy="197.39456"
     inkscape:document-units="px"
     inkscape:current-layer="layer1"
     showgrid="false"
     inkscape:window-width="1301"
     inkscape:window-height="744"
     inkscape:window-x="65"
     inkscape:window-y="24"
     inkscape:window-maximized="1" />
  <metadata
     id="metadata6682">
    <rdf:RDF>
      <cc:Work
         rdf:about="">
        <dc:format>image/svg+xml</dc:format>
        <dc:type
           rdf:resource="http://purl.org/dc/dcmitype/StillImage" />
        <dc:title />
      </cc:Work>
    </rdf:RDF>
  </metadata>
  <g
     inkscape:groupmode="layer"
     id="layer2"
     inkscape:label="BG" />
  <g
     inkscape:label="Layer 1"
     inkscape:groupmode="layer"
     id="layer1"
     transform="translate(0,-343.70079)">
    <path
       style="fill:#b73ece;fill-opacity:1"
       d="m 187.83315,689.78125 c -0.071,-0.3082 -0.26569,-1.25381 -0.4328,-2.10133 -0.82789,-4.19883 -3.84274,-8.74074 -7.76325,-11.69545 -2.29655,-1.73081 -4.13431,-2.66768 -6.822,-3.4778 -2.00175,-0.60337 -2.49463,-0.62262 -18.63729,-0.72794 l -16.58117,-0.10811 0.39574,-1.12161 c 1.43932,-4.0795 1.64023,-11.63472 0.41242,-15.50971 -0.97166,-3.06658 -2.21469,-5.15208 -4.35345,-7.30398 -4.2577,-4.28391 -10.09222,-6.53029 -17.02524,-6.55503 -6.9806,-0.0249 -10.43392,3.05158 -16.0285,14.27928 -1.190139,2.38851 -2.614809,5.09922 -3.165929,6.02382 -3.09232,5.18796 -11.92567,15.65297 -15.44448,18.29734 -3.08936,2.32164 -1.75935,2.14028 -16.83485,2.29569 l -13.58861,0.14009 -1.7517,0.94992 c -2.12783,1.15391 -3.79143,2.89997 -4.78752,5.02482 l -0.74539,1.59005 0,28.15783 0,28.15785 0.6245,1.35311 c 0.84177,1.82388 2.1196,3.38701 3.60339,4.40788 2.63227,1.81106 2.22684,1.76715 18.0462,1.9541 l 14.42915,0.17053 3.08195,0.8623 c 3.1335,0.87672 6.47412,1.9612 14.00887,4.54773 4.739899,1.6271 10.138319,3.07468 14.289049,3.83155 2.08738,0.38063 4.19483,0.5113 8.26524,0.51247 6.56309,0.002 8.83614,-0.45329 13.44851,-2.6931 2.61932,-1.27196 3.23534,-1.72422 5.61863,-4.12501 4.07159,-4.10149 5.54072,-7.43346 6.18448,-14.02629 0.29506,-3.02188 0.3746,-3.29617 1.38507,-4.77651 2.33451,-3.42007 3.73069,-8.68526 3.59688,-13.56444 -0.064,-2.33297 0.007,-2.72732 0.83122,-4.64149 0.49562,-1.15053 1.11515,-3.18319 1.37672,-4.51702 l 0.47559,-2.42513 8.26711,-0.14634 c 7.22198,-0.12785 8.54774,-0.22106 10.48696,-0.73725 6.76819,-1.80157 12.75362,-7.73652 14.58083,-14.4578 0.44833,-1.64914 0.80769,-6.74102 0.55367,-7.84497 z m -11.04889,6.7212 c -0.97942,2.02326 -2.90717,3.94372 -4.98647,4.96764 l -1.86651,0.91914 -14.36551,0.0796 c -7.90104,0.0439 -14.36551,0.14111 -14.36551,0.21614 0,0.075 0.30671,0.60651 0.68158,1.18107 1.31038,2.0084 1.91588,4.57275 1.79019,7.58162 -0.10103,2.41983 -0.22189,2.93314 -1.13206,4.81023 -0.56039,1.15574 -1.45671,2.52359 -1.99179,3.03969 l -0.97291,0.93835 0.57984,1.30306 c 0.70793,1.59095 0.95655,4.969 0.51668,7.02007 -0.48753,2.27326 -1.6776,4.50148 -3.22821,6.04434 l -1.41407,1.407 -0.0231,3.92248 c -0.0189,3.19211 -0.13243,4.25034 -0.6103,5.68325 -1.88974,5.66641 -7.55892,8.57114 -15.76953,8.07988 -5.8347,-0.34911 -7.93747,-0.86492 -20.807479,-5.10415 -12.58346,-4.14485 -16.85639,-5.14644 -21.98963,-5.15446 l -1.47093,-0.002 0,-25.63623 0,-25.63624 2.32264,0 c 6.23708,0 10.07012,-2.4149 18.04216,-11.36699 7.292669,-8.18921 9.748709,-11.64343 13.573049,-19.08936 3.37228,-6.5658 4.47807,-8.43447 5.66843,-9.57902 l 0.98866,-0.95062 2.04668,0.18622 c 3.81872,0.34745 6.50097,1.36884 8.44445,3.21565 1.43162,1.36039 2.06732,2.66808 2.46362,5.06779 0.71461,4.32708 -0.75177,9.51429 -4.24183,15.00524 -1.64412,2.58672 -2.93721,5.20799 -3.21051,6.50814 l -0.19014,0.90458 24.46643,0.076 24.46643,0.076 1.40088,0.7413 c 5.26194,2.78444 7.52797,8.70426 5.18476,13.5447 z"
       id="path7236"
       inkscape:connector-curvature="0"
       sodipodi:nodetypes="ssssscsssssssscsscccssscssscssssssscsssscscsssssscssscssssccccsssscssssscccscc" />
    <path
       style="fill:#b4b4b4;fill-opacity:1"
       d="m 226.74362,585.05403 c -5.4e-4,-0.63377 0.22196,-1.62228 0.49432,-2.1966 0.27288,-0.57421 0.46213,-1.17132 0.92251,-1.83248 8.66768,-5.16579 93.47322,-62.83365 108.8376,-72.55904 24.66029,-15.61259 25.17303,-16.28392 24.87608,-16.75548 -0.45811,-0.72747 -31.44368,-6.96765 -32.69336,-6.58409 -0.55325,0.16931 -0.99894,-0.004 -1.14624,-0.21456 -0.13941,-0.19921 -0.79295,0.20394 -0.96863,0.0409 -2.11156,-1.9598 -1.96725,-2.76445 -2.28423,-3.95602 -0.17741,-0.66704 -0.53343,-1.49044 -0.79113,-1.82979 0.082,-1.84132 1.73555,-3.97527 1.48808,-6.54279 -0.0716,-0.55638 0.0855,-0.617 0.12319,-1.02347 0.28834,-0.19388 0.77994,-0.62343 1.12325,-0.94725 0.9876,-0.73614 2.74255,-1.95945 4.22331,-2.58852 1.14991,-0.24239 0.98983,-0.22789 1.83154,0.13439 0.64847,0.2796 6.32862,1.95016 27.60588,6.78789 22.65783,5.15162 26.99749,5.67958 27.64441,5.72511 0.39815,0.028 0.41952,0.0677 0.94147,0.13765 0.49775,0.0667 0.69507,0.73606 1.84885,1.91931 0.44654,0.45795 0.94246,1.24719 1.11964,1.78237 0.4021,1.21145 0.58337,1.57728 0.7986,2.17894 l -0.2224,1.10645 c -0.12778,0.63576 -1.63853,4.74667 -6.78648,27.40729 -1.68044,6.57922 -4.93709,24.66705 -6.33482,29.43984 0,0 -3.23552,2.37575 -4.29871,2.78541 -2.28855,-0.51175 -5.38473,-0.57569 -7.79867,-1.52618 -0.93961,-0.39715 -1.10401,-0.38919 -1.78548,-0.80121 -0.46162,-0.27915 -1.75224,-1.64583 -2.10785,-2.86829 -0.477,-1.63989 -0.21807,-0.99602 -0.36097,-1.9788 1.40278,-6.32485 3.35158,-12.42184 4.65145,-17.5724 2.15438,-8.55114 3.82953,-15.76235 3.72251,-16.02486 -0.18672,-0.45793 -17.0468,10.43505 -25.48367,15.79053 -16.63473,10.55922 -47.08562,30.69436 -49.55707,32.218 -1.20214,0.51787 -59.6931,40.76284 -60.41826,40.82755 -1.36687,0.12077 -2.53541,-0.15797 -3.76949,-0.89899 -1.67091,-1.09287 -1.97491,-2.29269 -3.03228,-3.97746 -1.0412,-1.88423 -1.47468,-2.4704 -2.33968,-3.83317 -0.16592,-0.8259 -0.15104,-1.39206 -0.0737,-1.76991 z"
       id="path5443-0-0-6-6-6-3-6-5-3"
       inkscape:connector-curvature="0"
       sodipodi:nodetypes="csccssccscccccsssssccsccccsscccaccccccc"
       inkscape:transform-center-y="-125.46498"
       inkscape:transform-center-x="-180.16826" />
    <path
       style="fill:#00b018;fill-opacity:1"
       d="m 480.3604,1034.4 c -0.88193,-0.2604 -2.21529,-1.1363 -2.963,-1.9464 -2.24445,-2.4321 -31.44151,-44.17287 -32.32983,-46.21954 -1.27537,-2.93853 -1.14506,-9.76395 0.24419,-12.7907 2.68993,-5.86058 8.25368,-9.57235 14.41307,-9.61523 1.92705,-0.0133 4.14529,0.15816 4.92942,0.38138 l 1.42566,0.40578 0.23158,-17.8407 0.23155,-17.84064 1.48696,-2.99682 c 2.80722,-5.6576 7.27905,-8.3994 14.227,-8.72297 l 4.56743,-0.21268 1.64839,-2.31835 c 5.65311,-7.95054 18.02385,-8.46257 24.65969,-1.02066 1.29362,1.45075 2.35136,2.79691 2.35057,2.99144 -8e-4,0.19453 1.84178,0.3607 4.09463,0.36927 5.22255,0.0191 8.64211,1.47432 12.01568,5.11079 3.0341,3.2705 4.01997,5.57251 4.39259,10.25647 l 0.29442,3.70097 3.43414,0.32762 c 1.88877,0.1802 4.31943,0.71109 5.40145,1.17975 2.9489,1.27729 6.97456,5.35895 8.37603,8.49251 1.21097,2.70768 1.23637,3.12041 1.32124,21.465 0.0494,10.66448 -0.15422,20.60668 -0.47333,23.1303 -0.30794,2.43434 -2.43256,12.42081 -4.72141,22.19221 -3.42382,14.6166 -4.39707,18.0436 -5.49032,19.332 -2.57946,3.0401 -2.20697,3.0087 -33.47491,2.8283 -15.77918,-0.091 -29.41097,-0.3786 -30.29289,-0.6391 z m 54.9825,-12.1303 c 2.21465,-8.6728 6.93192,-29.75043 7.3653,-32.90961 0.32017,-2.33373 0.52266,-11.52985 0.47214,-21.44242 l -0.0884,-17.35623 -1.47768,-1.28105 c -2.0438,-1.7719 -4.27809,-1.68415 -6.2225,0.24438 l -1.55125,1.53858 -0.0457,11.1397 c -0.0429,10.43505 -0.11288,11.20629 -1.10716,12.19247 -0.77418,0.76782 -1.76611,1.04983 -3.66567,1.04201 -2.18395,-0.01 -2.78017,-0.23618 -3.69397,-1.40776 -1.0599,-1.35889 -1.0874,-1.95797 -1.00544,-21.90898 l 0.0843,-20.51177 -1.24684,-1.46166 c -1.7472,-2.04819 -4.71535,-2.06038 -6.47929,-0.0266 l -1.25884,1.45137 -0.0843,20.51178 c -0.082,19.951 -0.11438,20.5498 -1.18539,21.89993 -0.9234,1.16405 -1.52149,1.38633 -3.70543,1.37737 -1.89956,-0.01 -2.88912,-0.29792 -3.65698,-1.07212 -1.02257,-1.03096 -1.0498,-1.76609 -0.95163,-25.6641 0.11125,-27.08721 0.11346,-27.06439 -3.08447,-28.19407 -2.36847,-0.83655 -4.92576,0.3126 -5.72387,2.57214 -0.41896,1.18613 -0.63807,9.25705 -0.70703,26.04276 -0.11416,27.79795 0.1504,26.25803 -4.50851,26.23888 -4.82687,-0.02 -4.58906,1.13281 -4.4949,-21.78731 0.0875,-21.28813 -0.0758,-22.89071 -2.46386,-24.18139 -1.18357,-0.63971 -3.23771,-0.75781 -4.54728,-0.26144 -2.32994,0.88312 -2.40965,1.83741 -2.52638,30.25177 l -0.11067,26.94277 -1.39709,1.08974 c -1.70802,1.33212 -3.5893,1.39034 -4.8183,0.14901 -0.5066,-0.51171 -2.54062,-3.23616 -4.52,-6.05427 -4.82207,-6.86533 -7.00298,-7.73833 -10.12896,-4.05409 -1.07053,1.26171 -1.32734,2.00942 -1.09602,3.19129 0.16616,0.84899 6.84823,10.82244 14.84906,22.16342 l 14.54694,20.6197 24.95346,0.1021 24.95348,0.1022 0.32922,-1.2892 z"
       id="path7249-6-4-2"
       inkscape:connector-curvature="0" />
    <path
       style="fill:#00b018;fill-opacity:1"
       d="m 534.2493,853.91485 c -0.88191,-0.26042 -2.21528,-1.13635 -2.96298,-1.94652 -2.24445,-2.43195 -31.44151,-44.17269 -32.32983,-46.2194 -1.27538,-2.93851 -1.14507,-9.76389 0.24419,-12.79071 2.68993,-5.8606 8.25366,-9.57228 14.41307,-9.6152 1.92705,-0.0134 4.14529,0.15818 4.92942,0.38135 l 1.42566,0.40577 0.23157,-17.84066 0.23155,-17.84065 1.48698,-2.99681 c 2.8072,-5.6576 7.27902,-8.3994 14.22699,-8.72298 l 4.56743,-0.21268 1.64839,-2.31835 c 5.6531,-7.95054 18.02383,-8.46256 24.65967,-1.02066 1.29362,1.45077 2.35137,2.79691 2.35057,2.99145 -8e-4,0.19452 1.84181,0.3607 4.09464,0.36926 5.22255,0.0191 8.6421,1.47435 12.01569,5.1108 3.0341,3.2705 4.01997,5.5725 4.39259,10.25646 l 0.29441,3.70097 3.43414,0.32763 c 1.88877,0.18019 4.31943,0.71108 5.40145,1.17974 2.9489,1.2773 6.97457,5.35894 8.37603,8.49255 1.21097,2.70765 1.23637,3.12033 1.32125,21.46499 0.0494,10.66449 -0.15422,20.6067 -0.47334,23.13029 -0.30792,2.43436 -2.43255,12.42077 -4.72141,22.19207 -3.42382,14.61665 -4.39708,18.04364 -5.49031,19.33209 -2.57946,3.04007 -2.20698,3.00861 -33.47492,2.8282 -15.77917,-0.0911 -29.41095,-0.3786 -30.2929,-0.639 z m 54.9825,-12.13033 c 2.21466,-8.67281 6.93192,-29.75039 7.36532,-32.90955 0.32016,-2.33368 0.52265,-11.5298 0.47214,-21.44238 l -0.0884,-17.35626 -1.47769,-1.28106 c -2.04377,-1.77185 -4.27808,-1.6841 -6.22248,0.24437 l -1.55126,1.53859 -0.0457,11.13971 c -0.0429,10.43504 -0.11288,11.20634 -1.10715,12.19245 -0.7742,0.76785 -1.76611,1.04983 -3.66569,1.04202 -2.18393,-0.01 -2.78016,-0.2362 -3.69396,-1.4078 -1.0599,-1.35889 -1.0874,-1.95795 -1.00544,-21.90892 l 0.0843,-20.51179 -1.24684,-1.46166 c -1.7472,-2.04817 -4.71534,-2.06036 -6.47931,-0.0266 l -1.25881,1.45137 -0.0843,20.51179 c -0.082,19.95095 -0.11439,20.54977 -1.1854,21.89991 -0.92341,1.16406 -1.52149,1.38637 -3.70543,1.3774 -1.89957,-0.009 -2.88913,-0.29791 -3.65699,-1.07211 -1.02256,-1.03098 -1.04981,-1.76609 -0.95163,-25.66414 0.11125,-27.08719 0.11346,-27.06437 -3.08445,-28.19405 -2.36848,-0.83656 -4.92578,0.31259 -5.72387,2.57213 -0.41897,1.18613 -0.63809,9.25705 -0.70704,26.04274 -0.11416,27.79802 0.1504,26.25802 -4.50852,26.23888 -4.82686,-0.0198 -4.58906,1.13284 -4.4949,-21.78732 0.0875,-21.28809 -0.0758,-22.89067 -2.46384,-24.18136 -1.18359,-0.63971 -3.23773,-0.75781 -4.54729,-0.26143 -2.32994,0.88311 -2.40965,1.83741 -2.52638,30.25177 l -0.11068,26.94278 -1.39708,1.08969 c -1.70803,1.33221 -3.58931,1.39041 -4.81829,0.14906 -0.50663,-0.5117 -2.54064,-3.23615 -4.52002,-6.0543 -4.82207,-6.86536 -7.00298,-7.73828 -10.12894,-4.05411 -1.07054,1.26171 -1.32736,2.00949 -1.09604,3.19135 0.16618,0.84892 6.84824,10.82242 14.84907,22.16332 l 14.54693,20.6198 24.95348,0.10254 24.95348,0.10254 0.32921,-1.28929 z"
       id="path7249-6-4-0"
       inkscape:connector-curvature="0" />
    <path
       style="fill:#00b018;fill-opacity:1"
       d="m 547.08,673.42979 c -0.88192,-0.26041 -2.21529,-1.13633 -2.96298,-1.9465 -2.24446,-2.43195 -31.44152,-44.17271 -32.32983,-46.21941 -1.27538,-2.93852 -1.14507,-9.7639 0.24419,-12.7907 2.68992,-5.86061 8.25367,-9.5723 14.41306,-9.61522 1.92706,-0.0134 4.14529,0.15819 4.92942,0.38135 l 1.42567,0.40578 0.23157,-17.84066 0.23155,-17.84064 1.48697,-2.99683 c 2.80721,-5.65758 7.27904,-8.39938 14.22699,-8.72297 l 4.56744,-0.21268 1.64839,-2.31835 c 5.65311,-7.95053 18.02384,-8.46256 24.65968,-1.02065 1.29362,1.45075 2.35136,2.79689 2.35057,2.99143 -8e-4,0.19453 1.84179,0.36072 4.09463,0.36927 5.22255,0.0191 8.64211,1.47434 12.01569,5.1108 3.0341,3.27051 4.01996,5.57249 4.39259,10.25647 l 0.29441,3.70095 3.43413,0.32764 c 1.88878,0.1802 4.31944,0.71108 5.40146,1.17975 2.9489,1.27728 6.97456,5.35892 8.37603,8.49253 1.21097,2.70766 1.23637,3.12035 1.32125,21.46499 0.0494,10.66449 -0.15422,20.60671 -0.47333,23.13031 -0.30794,2.43434 -2.43257,12.42077 -4.72142,22.19206 -3.42382,14.61665 -4.39707,18.04363 -5.49032,19.33208 -2.57946,3.04008 -2.20696,3.00862 -33.4749,2.82822 -15.77919,-0.0911 -29.41098,-0.37861 -30.29291,-0.63902 z m 54.9825,-12.13033 c 2.21465,-8.6728 6.93193,-29.75038 7.36531,-32.90954 0.32018,-2.33368 0.52267,-11.5298 0.47214,-21.44239 l -0.0884,-17.35624 -1.47769,-1.28107 c -2.04378,-1.77185 -4.27808,-1.68411 -6.22248,0.24438 l -1.55125,1.53857 -0.0457,11.13972 c -0.0429,10.43505 -0.11289,11.20634 -1.10716,12.19244 -0.77419,0.76787 -1.7661,1.04983 -3.66568,1.04203 -2.18395,-0.01 -2.78017,-0.2362 -3.69397,-1.4078 -1.0599,-1.35888 -1.0874,-1.95795 -1.00543,-21.90892 l 0.0843,-20.51178 -1.24683,-1.46166 c -1.74721,-2.04819 -4.71535,-2.06038 -6.4793,-0.0266 l -1.25884,1.45137 -0.0843,20.51179 c -0.082,19.95096 -0.11439,20.54978 -1.1854,21.89991 -0.9234,1.16405 -1.52148,1.38638 -3.70543,1.3774 -1.89956,-0.009 -2.88912,-0.29791 -3.65698,-1.07211 -1.02256,-1.03098 -1.04981,-1.76609 -0.95163,-25.66413 0.11125,-27.08721 0.11346,-27.06438 -3.08446,-28.19405 -2.36848,-0.83657 -4.92577,0.31258 -5.72387,2.57212 -0.41897,1.18613 -0.63808,9.25705 -0.70704,26.04274 -0.11416,27.79802 0.15041,26.25803 -4.50851,26.23889 -4.82687,-0.0199 -4.58906,1.13283 -4.4949,-21.78733 0.0875,-21.28808 -0.0758,-22.89068 -2.46385,-24.18136 -1.18358,-0.6397 -3.23772,-0.7578 -4.54729,-0.26144 -2.32994,0.88312 -2.40965,1.83741 -2.52637,30.25178 l -0.11068,26.94277 -1.39708,1.0897 c -1.70803,1.3322 -3.58931,1.39041 -4.8183,0.14905 -0.50662,-0.51168 -2.54064,-3.23613 -4.52,-6.05429 -4.82208,-6.86536 -7.00299,-7.73828 -10.12896,-4.05412 -1.07054,1.26173 -1.32735,2.00951 -1.09602,3.19135 0.16616,0.84894 6.84822,10.82243 14.84905,22.16333 l 14.54694,20.61979 24.95347,0.10254 24.95348,0.10254 0.32922,-1.2893 z"
       id="path7249-6-4-6"
       inkscape:connector-curvature="0" />
    <path
       style="fill:#00b018;fill-opacity:1"
       d="m 482.92652,492.94471 c -0.88191,-0.26042 -2.21528,-1.13635 -2.96297,-1.94652 -2.24446,-2.43194 -31.44152,-44.17269 -32.32984,-46.21941 -1.27538,-2.93852 -1.14507,-9.76388 0.24419,-12.79071 2.68993,-5.86059 8.25366,-9.57228 14.41307,-9.6152 1.92705,-0.0134 4.14529,0.15818 4.92942,0.38134 l 1.42566,0.40577 0.23157,-17.84066 0.23155,-17.84063 1.48698,-2.99682 c 2.8072,-5.6576 7.27902,-8.3994 14.22699,-8.72299 l 4.56742,-0.21268 1.6484,-2.31833 c 5.6531,-7.95055 18.02383,-8.46258 24.65968,-1.02066 1.29361,1.45075 2.35136,2.7969 2.35056,2.99144 -8e-4,0.19453 1.84181,0.3607 4.09464,0.36926 5.22255,0.0191 8.6421,1.47434 12.01569,5.11081 3.0341,3.27049 4.01997,5.5725 4.39259,10.25645 l 0.2944,3.70096 3.43415,0.32763 c 1.88876,0.1802 4.31943,0.7111 5.40144,1.17976 2.94891,1.2773 6.97458,5.35893 8.37604,8.49254 1.21097,2.70765 1.23637,3.12034 1.32125,21.46498 0.0494,10.6645 -0.15422,20.60671 -0.47334,23.1303 -0.30793,2.43435 -2.43255,12.42078 -4.7214,22.19207 -3.42383,14.61666 -4.39709,18.04363 -5.49033,19.33209 -2.57945,3.04008 -2.20697,3.00861 -33.47491,2.8282 -15.77917,-0.0911 -29.41096,-0.3786 -30.2929,-0.63899 z m 54.9825,-12.13034 c 2.21466,-8.67281 6.93192,-29.75039 7.36531,-32.90956 0.32017,-2.33367 0.52266,-11.52979 0.47215,-21.44237 l -0.0884,-17.35626 -1.47769,-1.28105 c -2.04377,-1.77187 -4.27808,-1.68411 -6.22248,0.24436 l -1.55126,1.53859 -0.0457,11.13971 c -0.0429,10.43504 -0.11288,11.20634 -1.10715,12.19245 -0.7742,0.76786 -1.76611,1.04982 -3.66569,1.04202 -2.18393,-0.01 -2.78016,-0.23619 -3.69396,-1.40779 -1.0599,-1.3589 -1.08741,-1.95797 -1.00544,-21.90894 l 0.0843,-20.51177 -1.24684,-1.46167 c -1.7472,-2.04817 -4.71534,-2.06037 -6.47931,-0.0266 l -1.25881,1.45138 -0.0843,20.51177 c -0.082,19.95096 -0.11439,20.54979 -1.1854,21.89993 -0.92341,1.16406 -1.52149,1.38636 -3.70543,1.37739 -1.89957,-0.009 -2.88913,-0.29791 -3.657,-1.07211 -1.02255,-1.03098 -1.0498,-1.76608 -0.95162,-25.66414 0.11125,-27.08719 0.11346,-27.06436 -3.08445,-28.19405 -2.36848,-0.83655 -4.92577,0.31258 -5.72387,2.57213 -0.41897,1.18614 -0.63809,9.25705 -0.70704,26.04274 -0.11416,27.79801 0.1504,26.25803 -4.50852,26.23889 -4.82686,-0.0198 -4.58906,1.13284 -4.4949,-21.78733 0.0875,-21.28809 -0.0758,-22.89067 -2.46384,-24.18136 -1.18359,-0.6397 -3.23774,-0.75779 -4.54729,-0.26143 -2.32994,0.88311 -2.40965,1.83742 -2.52638,30.25178 l -0.11068,26.94278 -1.39708,1.08968 c -1.70803,1.33221 -3.58931,1.3904 -4.81829,0.14907 -0.50663,-0.51171 -2.54064,-3.23615 -4.52002,-6.05431 -4.82207,-6.86536 -7.00298,-7.73828 -10.12894,-4.05412 -1.07054,1.26173 -1.32736,2.0095 -1.09604,3.19137 0.16617,0.84891 6.84824,10.82241 14.84907,22.16331 l 14.54693,20.6198 24.95348,0.10254 24.95348,0.10254 0.32921,-1.28929 z"
       id="path7249-6-4-8"
       inkscape:connector-curvature="0" />
    <path
       style="fill:#b4b4b4;fill-opacity:1"
       d="m 253.85884,744.81221 c 0.21045,0.5978 0.74932,1.45588 1.19732,1.90679 0.44848,0.45061 0.82567,0.95068 1.47988,1.42088 9.89295,1.98591 109.05837,28.1351 126.78389,32.19138 28.451,6.51334 29.15797,6.9757 29.03492,7.51922 -0.18981,0.83848 -27.33107,17.0372 -28.63715,17.09149 -0.57806,0.0245 -0.94064,0.33633 -1.00945,0.58389 -0.0652,0.23425 -0.8156,0.0716 -0.927,0.28389 -1.33876,2.55093 -0.93483,3.26165 -0.83707,4.49079 0.0547,0.68806 -0.007,1.58301 -0.13692,1.9888 0.69028,1.70898 2.95983,3.17082 3.58116,5.67429 0.11767,0.54849 0.28603,0.55335 0.45686,0.9241 0.33643,0.0869 0.94299,0.32825 1.3745,0.51933 1.17633,0.36539 3.2384,0.93477 4.84411,1.03504 1.16502,-0.15422 1.00925,-0.11461 1.68236,-0.7364 0.51841,-0.47952 5.31853,-3.9456 23.77197,-15.59015 19.6508,-12.40012 23.56722,-14.34256 24.1621,-14.60083 0.36611,-0.15898 0.37303,-0.20355 0.84196,-0.4432 0.44719,-0.22849 0.41041,-0.92545 1.1045,-2.42528 0.26863,-0.58048 0.47355,-1.48979 0.46247,-2.05344 -0.0242,-1.2762 0.0251,-1.68151 0.0277,-2.3205 l -0.57803,-0.9693 c -0.33211,-0.55699 -3.12514,-3.93056 -15.52272,-23.58521 -3.77469,-5.6446 -12.86665,-21.61683 -15.77341,-25.65215 0,0 -3.84184,-1.16324 -4.98075,-1.19562 -1.9877,1.24438 -4.88601,2.33531 -6.8459,4.03515 -0.75383,0.68726 -0.91147,0.73448 -1.41694,1.34987 -0.34239,0.41688 -1.10445,2.13524 -1.03285,3.40636 0.096,1.70514 0.12592,1.01182 0.31831,1.9861 3.42819,5.49719 7.29538,10.59776 10.23562,15.02188 4.87803,7.34632 8.85808,13.58865 8.84456,13.87182 -0.0237,0.49398 -19.54822,-4.16544 -29.28665,-6.40704 -19.20097,-4.4197 -54.61779,-13.27009 -57.45549,-13.88417 -1.30598,-0.0881 -69.85784,-18.56762 -70.56318,-18.38726 -1.32913,0.34113 -2.33825,0.99294 -3.25527,2.1025 -1.21183,1.58676 -1.09909,2.81936 -1.53535,4.75999 -0.35459,2.12339 -0.56823,2.82041 -0.93026,4.39341 0.11846,0.83403 0.32096,1.36296 0.51977,1.69346 z"
       id="path5443-0-0-6-6-6-3-6-5-5-3"
       inkscape:connector-curvature="0"
       sodipodi:nodetypes="csccssccscccccsssssccsccccsscccaccccccc"
       inkscape:transform-center-y="-125.46501"
       inkscape:transform-center-x="-180.16821" />
    <g
       id="g7409-6-0"
       inkscape:transform-center-x="-358.5446"
       inkscape:transform-center-y="198.84789"
       transform="matrix(0.45454795,1.0686478,1.0686478,-0.45454795,-366.14009,757.28968)">
      <path
         inkscape:transform-center-x="-155.14336"
         inkscape:transform-center-y="-108.03824"
         sodipodi:nodetypes="csccssccscccccsssssccsccccsscccaccccccc"
         inkscape:connector-curvature="0"
         id="path5443-0-0-6-6-6-3-6-5-3-8"
         d="m 252.68395,447.31926 c 0.50201,-0.21404 1.3603,-0.3709 1.90719,-0.34866 0.54698,0.0227 1.0839,-0.0286 1.76298,0.11336 7.01479,5.12716 81.29417,52.89032 94.17908,61.78715 20.68307,14.27865 21.38784,14.45867 21.66143,14.06443 0.42204,-0.60819 -5.07681,-27.26439 -5.80195,-28.12535 -0.32063,-0.38134 -0.33349,-0.79293 -0.21631,-0.9806 0.11086,-0.17762 -0.42886,-0.5596 -0.35886,-0.75377 0.84125,-2.33374 1.5275,-2.49059 2.36487,-3.14338 0.46876,-0.36542 1.00123,-0.92505 1.18328,-1.24363 1.4867,-0.5556 3.73495,0.0354 5.68605,-1.02606 0.41674,-0.24428 0.51774,-0.1402 0.85252,-0.24734 0.25081,0.16313 0.75688,0.4079 1.12919,0.57079 0.91618,0.53447 2.47703,1.51277 3.47459,2.4741 0.57964,0.82949 0.5142,0.70753 0.51083,1.49661 -0.003,0.60809 0.58772,5.67209 3.92573,24.16272 3.5546,19.6904 4.5989,23.30709 4.78087,23.83506 0.11197,0.32495 0.0877,0.35527 0.20824,0.79242 0.11499,0.41686 -0.34898,0.79886 -0.89771,2.11192 -0.21238,0.50818 -0.67062,1.16716 -1.03499,1.48794 -0.82442,0.72694 -1.05321,0.99388 -1.45742,1.36722 l -0.9517,0.19669 c -0.54685,0.11303 -4.31353,0.30148 -24.0049,3.85993 -5.77975,0.8859 -21.21019,4.40178 -25.46324,4.90287 0,0 -2.97307,-1.76309 -3.65603,-2.46748 -0.36584,-1.98594 -1.35873,-4.4609 -1.41917,-6.69407 -0.002,-0.8784 -0.0637,-1.00598 0.0331,-1.68486 0.0656,-0.45988 0.71356,-1.94319 1.56238,-2.637 1.13868,-0.93069 0.71575,-0.50851 1.44633,-0.95298 5.48462,-1.0202 10.9727,-1.53095 15.49212,-2.23691 7.50206,-1.17499 13.78081,-2.27812 13.95276,-2.45139 0.29993,-0.30231 -14.01429,-9.99079 -21.10158,-14.87112 -13.9738,-9.62241 -40.19223,-26.96522 -42.23257,-28.41006 -0.81554,-0.77803 -52.4198,-33.56184 -52.71549,-34.11464 -0.55639,-1.04241 -0.72938,-2.06232 -0.55813,-3.28995 0.30281,-1.69238 1.15109,-2.33766 2.12971,-3.74336 1.14214,-1.46012 1.46051,-2.00118 2.24883,-3.14592 0.59852,-0.40985 1.05217,-0.58888 1.37767,-0.65485 z"
         style="fill:#b4b4b4;fill-opacity:1" />
    </g>
    <path
       style="fill:#b4b4b4;fill-opacity:1"
       d="m 251.1333,660.01985 c 0.26154,-0.57731 0.87283,-1.38536 1.35828,-1.7957 0.48588,-0.41 0.90505,-0.87543 1.5976,-1.2871 10.02796,-1.11994 111.08847,-18.56502 129.09912,-21.06782 28.90891,-4.01984 29.65332,-4.4191 29.57792,-4.97124 -0.11634,-0.85178 -25.74952,-19.34467 -27.04595,-19.51209 -0.57374,-0.0747 -0.90792,-0.4167 -0.95499,-0.66931 -0.0446,-0.23901 -0.80631,-0.14209 -0.89885,-0.36325 -1.11235,-2.65749 -0.64826,-3.33047 -0.44421,-4.54648 0.11416,-0.68072 0.13063,-1.57764 0.0362,-1.99318 0.836,-1.64265 3.22384,-2.90201 4.06008,-5.34213 0.16482,-0.53621 0.33297,-0.52643 0.53532,-0.88096 0.34268,-0.0573 0.96792,-0.24517 1.41439,-0.3981 1.20359,-0.26193 3.3073,-0.65021 4.91564,-0.61077 1.14726,0.25471 0.99549,0.2018 1.61212,0.87961 0.47485,0.52272 4.95607,4.39227 22.3294,17.59423 18.5006,14.05864 22.23369,16.33358 22.80391,16.64252 0.35092,0.19017 0.35397,0.23516 0.80033,0.51459 0.42567,0.26643 0.32854,0.95758 0.88988,2.51198 0.21722,0.6016 0.34247,1.52525 0.28252,2.08581 -0.13479,1.26932 -0.12091,1.67736 -0.17373,2.31417 l -0.65997,0.9155 c -0.3792,0.52606 -3.45443,3.64452 -17.51085,22.14919 -4.25029,5.29572 -14.69398,20.41872 -17.93995,24.18659 0,0 -3.9283,0.82544 -5.06573,0.75888 -1.87222,-1.41216 -4.66494,-2.75051 -6.46991,-4.61402 -0.69135,-0.75007 -0.84429,-0.81081 -1.29445,-1.46773 -0.30492,-0.44504 -0.915,-2.22303 -0.73336,-3.48315 0.24371,-1.69036 0.21325,-0.99706 0.48947,-1.95097 3.89229,-5.17895 8.1875,-9.92469 11.50059,-14.07699 5.49713,-6.89531 10.00385,-12.76869 10.01497,-13.05196 0.0192,-0.49421 -19.83595,2.45334 -29.73217,3.8414 -19.51209,2.73681 -55.56332,8.48038 -58.44359,8.84589 -1.30872,-0.0254 -71.20558,12.43541 -71.89262,12.19452 -1.29451,-0.45518 -2.24327,-1.19212 -3.06053,-2.37707 -1.06956,-1.68591 -0.8503,-2.90408 -1.1165,-4.87526 -0.16898,-2.14613 -0.32133,-2.85907 -0.5455,-4.45757 0.19042,-0.82059 0.43803,-1.32996 0.66476,-1.64196 z"
       id="path5443-0-0-6-6-6-3-6-5-5-4"
       inkscape:connector-curvature="0"
       sodipodi:nodetypes="csccssccscccccsssssccsccccsscccaccccccc"
       inkscape:transform-center-y="7.6847227"
       inkscape:transform-center-x="-3.658498" />
  </g>
</svg>
