<?xml version="1.0" encoding="UTF-8" standalone="no"?>
<!-- Created with Inkscape (http://www.inkscape.org/) -->

<svg
   xmlns:dc="http://purl.org/dc/elements/1.1/"
   xmlns:cc="http://creativecommons.org/ns#"
   xmlns:rdf="http://www.w3.org/1999/02/22-rdf-syntax-ns#"
   xmlns:svg="http://www.w3.org/2000/svg"
   xmlns="http://www.w3.org/2000/svg"
   xmlns:sodipodi="http://sodipodi.sourceforge.net/DTD/sodipodi-0.dtd"
   xmlns:inkscape="http://www.inkscape.org/namespaces/inkscape"
   width="200mm"
   height="200mm"
   viewBox="0 0 708.66142 708.66141"
   id="svg4766"
   version="1.1"
   inkscape:version="0.91 r13725"
   sodipodi:docname="C-journalists.svg">
  <defs
     id="defs4768" />
  <sodipodi:namedview
     id="base"
     pagecolor="#ffffff"
     bordercolor="#666666"
     borderopacity="1.0"
     inkscape:pageopacity="0.0"
     inkscape:pageshadow="2"
     inkscape:zoom="0.5"
     inkscape:cx="-76.40077"
     inkscape:cy="443.42331"
     inkscape:document-units="px"
     inkscape:current-layer="layer1"
     showgrid="false"
     inkscape:window-width="1301"
     inkscape:window-height="744"
     inkscape:window-x="65"
     inkscape:window-y="24"
     inkscape:window-maximized="1" />
  <metadata
     id="metadata4771">
    <rdf:RDF>
      <cc:Work
         rdf:about="">
        <dc:format>image/svg+xml</dc:format>
        <dc:type
           rdf:resource="http://purl.org/dc/dcmitype/StillImage" />
        <dc:title />
      </cc:Work>
    </rdf:RDF>
  </metadata>
  <g
     inkscape:label="Layer 1"
     inkscape:groupmode="layer"
     id="layer1"
     transform="translate(0,-343.70079)">
    <path
       style="fill:#00afdc;fill-opacity:1"
       d="m 105.65018,576.47417 c -0.26372,-0.16702 -0.32113,-0.51576 -0.19533,-1.18636 0.38476,-2.05092 -1.83747,-6.28741 -4.67214,-8.90705 -3.88874,-3.59375 -9.975463,-5.3575 -19.707751,-5.7107 -6.041492,-0.25442 -9.622326,-0.16742 -13.838702,-0.16884 -7.267949,0 -8.379171,0.0537 -8.379171,0.40545 0,0.27029 -0.270294,0.40544 -0.810881,0.40544 -0.535951,0 -0.810892,-0.13572 -0.810892,-0.40029 0,-0.22016 -0.334486,-0.47187 -0.743305,-0.55934 -3.848755,-0.8235 -6.689404,-3.46252 -7.768206,-7.21681 -0.52413,-1.45083 0,0 -0.813683,-2.90567 0.357393,0 0.405446,-2.88316 0.405446,-24.32662 1.001635,-9.31387 -2.157614,-20.00077 0.499258,-27.49072 0.812364,-2.32767 1.867073,-3.84501 3.481837,-5.00908 1.396787,-1.00693 3.264332,-1.82774 4.158544,-1.82774 5.646604,-2.0634 11.145477,-0.27122 15.781525,-0.27029 6.612226,-0.64257 12.146716,-0.59595 17.339645,0.40637 4.603397,0.86653 7.558875,2.32179 10.730216,5.28347 2.25424,2.10521 4.14205,4.73205 5.0425,7.0165 0.32054,0.81324 0.70508,1.55419 0.85451,1.64655 0.14943,0.0924 0.26131,0.24554 0.24861,0.3404 -0.0677,0.50572 0.004,0.71311 0.24722,0.71311 0.14865,0 0.27029,-0.16639 0.27029,-0.36974 0,-0.52604 2.22273,-4.81446 3.14477,-6.06733 3.54194,-4.81284 7.74988,-7.44143 13.70798,-8.56296 3.10103,-0.55916 11.68067,-0.40751 17.47479,-0.40637 4.8242,0.0925 11.35618,0.0465 14.6503,0.17111 0.0778,0.29733 0.62492,0.0992 0.85625,0.0992 0.23134,0 1.1215,0.26223 1.97813,0.58274 2.78396,1.04161 5.38394,4.09004 5.93006,6.95285 0.36914,3.55845 0.37222,17.9529 0.3713,26.79196 -0.22959,9.74212 0.26391,24.75741 -0.52086,27.50258 -0.32376,1.00347 -1.01385,2.40869 -1.53352,3.1227 -1.0337,1.42025 -3.68736,3.29402 -5.05402,3.5687 -2.44021,1.0943 -8.16359,0.40507 -11.8123,0.40385 -6.4443,-0.0312 -11.1104,0.0799 -15.0014,0.26479 -7.49564,0.36127 -11.85551,1.35614 -15.93094,3.63526 -3.91526,2.18954 -7.36121,7.12707 -7.27615,10.42564 0.0222,0.85907 -0.092,1.57046 -0.2703,1.68522 -0.42218,0.27163 -1.57885,0.25004 -2.03361,-0.038 z m -9.762591,-30.83916 c 0,-0.35056 1.000931,-1.35148 1.351479,-1.35148 0.148666,0 0.270305,-0.64194 0.270305,-1.42656 0,-1.09476 -0.126451,-1.53481 -0.543686,-1.89206 -0.299022,-0.25604 -0.663929,-0.46552 -0.810892,-0.46552 -0.146962,0 -0.267206,-0.18245 -0.267206,-0.40544 0,-0.3557 -1.907085,-0.40544 -15.541993,-0.40544 -10.871887,0 -15.542004,0.087 -15.542004,0.28959 0,0.37423 -0.687649,1.06189 -1.061872,1.06189 -0.173758,0 -0.289608,0.6487 -0.289608,1.62177 0,1.26138 0.09009,1.62177 0.405446,1.62177 0.222998,0 0.405446,0.12025 0.405446,0.26721 0,0.14696 0.209485,0.51186 0.465519,0.81088 0.456246,0.53287 0.770924,0.54369 15.812287,0.54369 10.050997,0 15.346779,-0.0933 15.346779,-0.2703 z m 52.782731,-0.27339 c 0.25603,-0.29902 0.46552,-0.64973 0.46552,-0.77936 0,-0.12963 0.24326,-0.2993 0.54058,-0.37705 0.78286,-0.20471 0.78061,-2.56929 -0.003,-3.2403 -0.29904,-0.25604 -0.66393,-0.46552 -0.8109,-0.46552 -0.14696,0 -0.2672,-0.18245 -0.2672,-0.40544 0,-0.3557 -1.9071,-0.40544 -15.54201,-0.40544 -13.6349,0 -15.54199,0.0498 -15.54199,0.40544 0,0.22299 -0.12024,0.40544 -0.26721,0.40544 -0.14696,0 -0.51186,0.20948 -0.81089,0.46552 -0.69469,0.59481 -0.80815,3.31862 -0.13824,3.31862 0.223,0 0.40545,0.18245 0.40545,0.40545 0,0.22299 0.18245,0.40543 0.40545,0.40543 0.22298,0 0.40544,0.18245 0.40544,0.40545 0,0.35564 1.88539,0.40545 15.34678,0.40545 15.04136,0 15.35604,-0.011 15.81229,-0.54369 z M 95.887589,533.06626 c 0,-0.223 0.182459,-0.40544 0.405446,-0.40544 0.222998,0 0.405446,-0.18245 0.405446,-0.40544 0,-0.223 0.182448,-0.40545 0.405446,-0.40545 0.31125,0 0.405446,-0.34538 0.405446,-1.48663 0,-1.14124 -0.09415,-1.48662 -0.405446,-1.48662 -0.222998,0 -0.405446,-0.18245 -0.405446,-0.40544 0,-0.223 -0.182448,-0.40545 -0.405446,-0.40545 -0.222987,0 -0.405446,-0.18245 -0.405446,-0.40544 0,-0.35563 -1.885388,-0.40544 -15.346779,-0.40544 -15.041363,0 -15.356041,0.011 -15.812287,0.54367 -0.256034,0.29904 -0.465519,0.66393 -0.465519,0.8109 0,0.14696 -0.182448,0.2672 -0.405446,0.2672 -0.315348,0 -0.405446,0.36039 -0.405446,1.62178 0,0.97305 0.11585,1.62177 0.289608,1.62177 0.159278,0 0.463365,0.17376 0.675739,0.38613 0.212375,0.21239 0.386133,0.51646 0.386133,0.67574 0,0.20259 4.670117,0.28961 15.542004,0.28961 13.634908,0 15.541993,-0.0498 15.541993,-0.40545 z m 52.707661,0 c 0,-0.223 0.12163,-0.40544 0.27029,-0.40544 0.14867,0 0.2703,-0.18245 0.2703,-0.40544 0,-0.22525 0.24026,-0.40545 0.54058,-0.40545 0.47507,0 0.5406,-0.18019 0.5406,-1.48663 0,-0.81764 -0.12164,-1.48662 -0.27029,-1.48662 -0.35056,0 -1.35148,-1.00092 -1.35148,-1.35148 0,-0.17706 -5.36087,-0.27029 -15.54201,-0.27029 -13.6349,0 -15.54199,0.0498 -15.54199,0.40544 0,0.22299 -0.18246,0.40544 -0.40545,0.40544 -0.22299,0 -0.40544,0.18245 -0.40544,0.40545 0,0.22299 -0.18245,0.40544 -0.40545,0.40544 -0.66991,0 -0.55645,2.7238 0.13824,3.31863 0.29902,0.25603 0.66393,0.46551 0.81089,0.46551 0.14697,0 0.26721,0.18244 0.26721,0.40544 0,0.35569 1.90709,0.40545 15.54199,0.40545 13.63491,0 15.54201,-0.0498 15.54201,-0.40545 z M 95.899036,520.97053 c 0.0066,-0.18583 0.371202,-0.63624 0.810893,-1.00093 0.701656,-0.58195 0.799444,-0.83818 0.799444,-2.09478 0,-0.78746 -0.121639,-1.43174 -0.270305,-1.43174 -0.350548,0 -1.351479,-1.00092 -1.351479,-1.35148 0,-0.17702 -5.295782,-0.27029 -15.346779,-0.27029 -15.041363,0 -15.356041,0.011 -15.812287,0.54367 -0.256034,0.29904 -0.465519,0.66393 -0.465519,0.8109 0,0.14696 -0.182448,0.2672 -0.405446,0.2672 -0.315348,0 -0.405446,0.36039 -0.405446,1.62178 0,1.26138 0.09009,1.62177 0.405446,1.62177 0.222998,0 0.405446,0.12024 0.405446,0.26721 0,0.14696 0.209485,0.51185 0.465519,0.81088 0.456246,0.53286 0.770924,0.54368 15.812287,0.54368 12.091125,0 15.349207,-0.0716 15.358226,-0.33787 z m 52.771284,-0.20581 c 0.25603,-0.29903 0.46552,-0.64974 0.46552,-0.77936 0,-0.12963 0.24326,-0.2993 0.54058,-0.37705 0.4441,-0.11614 0.5406,-0.36869 0.5406,-1.41481 0,-1.11884 -0.12738,-1.40081 -1.04938,-2.32281 l -1.04939,-1.04938 -15.30351,0 c -10.02213,0 -15.30349,0.0933 -15.30349,0.27029 0,0.35056 -1.00093,1.35148 -1.35148,1.35148 -0.15017,0 -0.2703,0.72079 -0.2703,1.62178 0,0.90098 0.12013,1.62177 0.2703,1.62177 0.35055,0 1.35148,1.00092 1.35148,1.35148 0,0.17702 5.29578,0.27029 15.34678,0.27029 15.04136,0 15.35604,-0.011 15.81229,-0.54368 z"
       id="path5371"
       inkscape:connector-curvature="0"
       sodipodi:nodetypes="cssccssssccccscccssccssscccsscccscccsccccssssssssssssssscsscsssssssssssccsssssssssscsssscssssssssssssssssssssccsssscsssssssccsssscsssssssc" />
    <path
       style="fill:#000000"
       d=""
       id="path5369"
       inkscape:connector-curvature="0" />
    <path
       style="fill:#f4727a;fill-opacity:1"
       d="m 310.19607,731.8782 c 0,-0.22774 -0.80443,-0.6552 -1.92577,-1.02331 -3.77407,-1.23893 -5.99768,-3.57621 -7.17545,-7.5422 -0.25176,-0.84778 -0.58246,-1.4018 -0.83675,-1.4018 -0.27534,0 -0.42045,-0.2979 -0.42045,-0.8632 0,-0.57547 0.14386,-0.86321 0.4316,-0.86321 0.38141,0 0.4316,-4.31601 0.4316,-37.11769 0,-32.80168 -0.0502,-37.1177 -0.4316,-37.1177 0.28223,0.16933 0.29131,-0.82319 -0.0204,-1.72639 0.85895,-1.51061 0.5896,-0.60189 0.85895,-1.51061 1.09655,-3.6994 3.56333,-6.2572 7.14609,-7.40973 1.18689,-0.38182 1.9422,-0.78293 1.9422,-1.03144 0,0 1.22401,-0.2767 1.72641,0.0249 0,0.38077 3.38887,0.4316 28.77341,0.4316 25.38454,0 28.7734,-0.0509 28.7734,-0.4316 0,-0.26855 0.27175,-0.43161 0.71934,-0.43161 0.44019,0 0.71934,0.16371 0.71934,0.42185 0,0.23201 0.21285,0.8682 0.47301,1.41375 0.33103,0.69419 0.61171,0.9435 0.93513,0.83061 0.37553,-0.13106 0.39473,-0.0887 0.1025,0.22634 -0.19781,0.21319 -0.35966,0.68543 -0.35966,1.04941 0,0.55568 -0.15091,0.66179 -0.94114,0.66179 -0.80055,0 -1.31633,0.37695 -3.45281,2.52337 -2.11792,2.12777 -2.51168,2.66907 -2.51168,3.4528 0,0.73762 -0.11876,0.92944 -0.57546,0.92944 -0.31651,0 -0.57547,0.12949 -0.57547,0.28774 0,0.15826 -0.3237,0.28773 -0.71934,0.28773 -0.44759,0 -0.71933,-0.16304 -0.71933,-0.43159 0,-0.38038 -3.00522,-0.43161 -25.3206,-0.43161 -22.31537,0 -25.3206,0.0512 -25.3206,0.43161 0,0.23738 -0.19422,0.43159 -0.4316,0.43159 -0.38141,0 -0.43159,4.31602 -0.43159,37.1177 0,32.80168 0.0502,37.11769 0.43159,37.11769 0.23738,0 0.4316,0.19423 0.4316,0.43161 0,0.38142 4.31601,0.4316 37.1177,0.4316 32.80168,0 37.11769,-0.0502 37.11769,-0.4316 0,-0.23738 0.19423,-0.43161 0.43161,-0.43161 0.37645,0 0.4316,-1.47063 0.4316,-11.50936 0,-10.03872 -0.0552,-11.50936 -0.4316,-11.50936 -0.26855,0 -0.43161,-0.27175 -0.43161,-0.71934 0,-0.39563 0.12949,-0.71933 0.28774,-0.71933 0.15825,0 0.28773,-0.25895 0.28773,-0.57547 0,-0.45669 0.19183,-0.57547 0.92945,-0.57547 0.78373,0 1.32502,-0.39375 3.45281,-2.51167 2.14642,-2.13647 2.52337,-2.65226 2.52337,-3.4528 0,-0.806 0.10085,-0.94114 0.70234,-0.94114 0.3863,0 0.78239,-0.12948 0.88019,-0.28774 0.0978,-0.15825 0.32556,-0.28773 0.50613,-0.28773 0.24025,0 0.23757,0.0907 -0.01,0.33828 -0.25922,0.25923 -0.13656,0.46097 0.52488,0.86321 0.47474,0.2887 1.11899,0.52491 1.43167,0.52491 0.4146,0 0.56851,0.19476 0.56851,0.71934 0,0.44759 -0.16304,0.71934 -0.43159,0.71934 -0.37811,0 -0.43161,1.85428 -0.43161,14.96217 0,13.10789 0.0535,14.96216 0.43161,14.96216 0.28773,0 0.43159,0.28774 0.43159,0.86321 0,0.56819 -0.14475,0.8632 -0.42356,0.8632 -0.26433,0 -0.59164,0.57816 -0.87066,1.53797 -1.10431,3.79869 -4.28184,6.89037 -7.75049,7.5411 -0.72122,0.13529 0,0 -1.24053,0.74287 -22.83119,-0.33358 -14.83775,-0.32496 -38.91728,-0.32668 -32.80169,0 -37.1177,0.0502 -37.1177,0.4316 0,0.28773 -0.28773,0.43161 -0.8632,0.43161 -0.53576,0 -0.8632,-0.14837 -0.8632,-0.39112 z m 32.58589,-21.48957 c -0.90996,-0.1878 -2.10766,-0.57781 -2.66154,-0.8667 -2.15169,-1.12227 -4.09179,-3.67485 -4.47074,-5.88215 -0.29716,-1.42233 -0.22541,-2.11746 -0.12689,-3.81248 0.003,-0.11868 0.44751,-4.10021 0.987,-8.84782 l 1.30161,-10.36357 c 4.04802,-3.32932 3.02058,-2.43177 28.13372,-27.54595 25.09914,-25.10016 27.40611,-27.4859 27.40611,-28.34181 0,-0.84764 0.0808,-0.93457 0.86756,-0.93457 0.47717,0 1.54647,-0.38316 2.37624,-0.85144 2.41227,-1.3614 3.8832,-1.7652 6.43348,-1.76611 2.53009,-8.9e-4 4.86602,0.63654 6.44015,1.75742 0.89985,0.64074 1.37571,0.79942 2.51336,0.83811 0.50988,0.0174 0.6474,0.19091 0.6474,0.81713 3.29041,4.02297 5.48448,6.60963 9.0097,9.7771 1.20498,1.80053 0.80928,1.1737 1.20498,1.80053 1.44259,2.28521 1.72628,3.39641 1.72628,6.76157 0,2.88033 -0.0746,3.32649 -0.82869,4.95924 -0.45577,0.98679 -1.00607,1.94137 -1.22287,2.1213 -0.21679,0.17993 -0.39418,0.82921 -0.39418,1.44284 0,1.06707 -0.0408,1.11571 -0.9357,1.11571 -0.85741,0 -3.22865,2.29305 -28.34181,27.40723 -25.09913,25.10017 -27.4061,27.4859 -27.4061,28.3418 l -1.55082,0.51726 c -0.27703,-0.36191 -1.48475,-0.28596 -9.09534,0.57196 -4.82674,0.5441 -8.80826,0.99086 -8.84782,0.99279 0,0 -2.02239,0.30235 -3.16509,-0.01 z m 10.14263,-10.921 c 2.69031,-0.31207 5.13019,-0.56921 5.42194,-0.57143 0.29176,-0.002 0.39377,-0.42284 0.68097,-0.5795 l 1.05499,-0.57547 c 0.71406,-0.38951 2.83862,-1.93494 20.10781,-19.21128 16.6711,-16.67801 19.20334,-19.32245 19.20334,-20.05426 0,-0.70986 -0.85994,-1.70626 -5.44651,-6.31072 -5.06777,-5.08753 -5.51893,-5.46776 -6.4876,-5.46776 -0.99399,0 -1.90579,0.86465 -20.16182,19.11911 -17.17376,17.17231 -17.9416,18.03187 -19.88371,20.02151 -0.77811,5.36645 -0.54757,3.41273 -0.77811,5.36645 -0.84503,7.2183 -0.87933,7.8706 -0.43998,8.36682 0.51339,0.57984 0.88775,0.57409 6.72868,-0.10349 z m 57.72773,-51.4126 c 2.07426,-2.25244 2.10958,-2.406 3.84895,-4.69811 0.3143,-0.50856 -0.16385,-1.4361 -0.74032,-1.4361 0,0 -5.75711,-6.42574 -8.97616,-9.20749 -0.58643,0 -0.7874,-0.14194 -0.7874,-0.55608 0,-0.57647 -0.92755,-1.05462 -1.4361,-0.74032 -0.15967,0.0987 -0.77583,0.25239 -0.77583,0.25239 -1.62178,0.96952 -2.64309,2.31136 -3.75255,3.41147 -2.19638,2.18496 -2.37981,2.45688 -2.37981,3.52766 0,1.12217 0.17209,1.33115 5.25114,6.37659 2.88813,2.86903 5.44537,5.28525 5.68275,5.36939 1.0858,0.38486 1.64609,0.068 4.06533,-2.2994 z m -13.56056,40.19098 c 0,-0.15825 0.12949,-0.28774 0.28774,-0.28774 0.15826,0 0.28773,0.12949 0.28773,0.28774 0,0.15825 -0.12947,0.28773 -0.28773,0.28773 -0.15825,0 -0.28774,-0.12948 -0.28774,-0.28773 z M 371.1957,634.72747 c 0,-0.15826 0.12948,-0.28774 0.28774,-0.28774 0.15825,0 0.28772,0.12948 0.28772,0.28774 0,0.15826 -0.12947,0.28773 -0.28772,0.28773 -0.15826,0 -0.28774,-0.12947 -0.28774,-0.28773 z"
       id="path5373"
       inkscape:connector-curvature="0"
       sodipodi:nodetypes="cssssssccssccsssssccsssssssssssssssssssssssssscscssssssssssccsscccsccccsssssscccssccsssccscccsssssssscccccscccccsccscscssssscsssc" />
    <path
       style="fill:#00afdc;fill-opacity:1"
       d="m 609.87855,576.47417 c -0.26371,-0.16702 -0.32113,-0.51576 -0.19532,-1.18636 0.38475,-2.05092 -1.83748,-6.28741 -4.67214,-8.90705 -3.88875,-3.59375 -9.97547,-5.3575 -19.70776,-5.7107 -6.04149,-0.25442 -9.62232,-0.16742 -13.8387,-0.16884 -7.26795,0 -8.37917,0.0537 -8.37917,0.40545 0,0.27029 -0.2703,0.40544 -0.81088,0.40544 -0.53595,0 -0.81089,-0.13572 -0.81089,-0.40029 0,-0.22016 -0.33449,-0.47187 -0.74331,-0.55934 -3.84875,-0.8235 -6.6894,-3.46252 -7.76821,-7.21681 -0.52413,-1.45083 0,0 -0.81368,-2.90567 0.35739,0 0.40545,-2.88316 0.40545,-24.32662 1.00163,-9.31387 -2.15762,-20.00077 0.49926,-27.49072 0.81236,-2.32767 1.86707,-3.84501 3.48183,-5.00908 1.39679,-1.00693 3.26434,-1.82774 4.15855,-1.82774 5.6466,-2.0634 11.14547,-0.27122 15.78152,-0.27029 6.61223,-0.64257 12.14672,-0.59595 17.33965,0.40637 4.60339,0.86653 7.55887,2.32179 10.73022,5.28347 2.25423,2.10521 4.14204,4.73205 5.04249,7.0165 0.32055,0.81324 0.70508,1.55419 0.85451,1.64655 0.14943,0.0924 0.26132,0.24554 0.24862,0.3404 -0.0677,0.50572 0.004,0.71311 0.24721,0.71311 0.14865,0 0.27029,-0.16639 0.27029,-0.36974 0,-0.52604 2.22273,-4.81446 3.14477,-6.06733 3.54194,-4.81284 7.74988,-7.44143 13.70798,-8.56296 3.10103,-0.55916 11.68067,-0.40751 17.4748,-0.40637 4.82419,0.0925 11.35618,0.0465 14.65029,0.17111 0.0778,0.29733 0.62492,0.0992 0.85626,0.0992 0.23133,0 1.1215,0.26223 1.97813,0.58274 2.78396,1.04161 5.38395,4.09004 5.93006,6.95285 0.36915,3.55845 0.37222,17.9529 0.3713,26.79196 -0.22959,9.74212 0.26391,24.75741 -0.52086,27.50258 -0.32376,1.00347 -1.01385,2.40869 -1.53352,3.1227 -1.0337,1.42025 -3.68735,3.29402 -5.05402,3.5687 -2.44022,1.0943 -8.1636,0.40507 -11.8123,0.40385 -6.4443,-0.0312 -11.11041,0.0799 -15.00141,0.26479 -7.49564,0.36127 -11.8555,1.35614 -15.93094,3.63526 -3.91526,2.18954 -7.36121,7.12707 -7.27615,10.42564 0.0222,0.85907 -0.092,1.57046 -0.2703,1.68522 -0.42217,0.27163 -1.57885,0.25004 -2.03361,-0.038 z m -9.76259,-30.83916 c 0,-0.35056 1.00093,-1.35148 1.35148,-1.35148 0.14867,0 0.27031,-0.64194 0.27031,-1.42656 0,-1.09476 -0.12646,-1.53481 -0.54369,-1.89206 -0.29902,-0.25604 -0.66393,-0.46552 -0.81089,-0.46552 -0.14696,0 -0.26721,-0.18245 -0.26721,-0.40544 0,-0.3557 -1.90708,-0.40544 -15.54199,-0.40544 -10.87189,0 -15.54201,0.087 -15.54201,0.28959 0,0.37423 -0.68764,1.06189 -1.06187,1.06189 -0.17376,0 -0.28961,0.6487 -0.28961,1.62177 0,1.26138 0.0901,1.62177 0.40545,1.62177 0.223,0 0.40545,0.12025 0.40545,0.26721 0,0.14696 0.20948,0.51186 0.46552,0.81088 0.45624,0.53287 0.77092,0.54369 15.81228,0.54369 10.051,0 15.34678,-0.0933 15.34678,-0.2703 z m 52.78273,-0.27339 c 0.25603,-0.29902 0.46552,-0.64973 0.46552,-0.77936 0,-0.12963 0.24327,-0.2993 0.54059,-0.37705 0.78285,-0.20471 0.7806,-2.56929 -0.003,-3.2403 -0.29903,-0.25604 -0.66393,-0.46552 -0.81089,-0.46552 -0.14697,0 -0.26721,-0.18245 -0.26721,-0.40544 0,-0.3557 -1.9071,-0.40544 -15.542,-0.40544 -13.63491,0 -15.542,0.0498 -15.542,0.40544 0,0.22299 -0.12024,0.40544 -0.2672,0.40544 -0.14697,0 -0.51187,0.20948 -0.8109,0.46552 -0.69469,0.59481 -0.80815,3.31862 -0.13823,3.31862 0.22299,0 0.40544,0.18245 0.40544,0.40545 0,0.22299 0.18245,0.40543 0.40545,0.40543 0.22298,0 0.40544,0.18245 0.40544,0.40545 0,0.35564 1.88539,0.40545 15.34678,0.40545 15.04137,0 15.35604,-0.011 15.81229,-0.54369 z m -52.78273,-12.29536 c 0,-0.223 0.18246,-0.40544 0.40545,-0.40544 0.223,0 0.40544,-0.18245 0.40544,-0.40544 0,-0.223 0.18245,-0.40545 0.40545,-0.40545 0.31125,0 0.40545,-0.34538 0.40545,-1.48663 0,-1.14124 -0.0942,-1.48662 -0.40545,-1.48662 -0.223,0 -0.40545,-0.18245 -0.40545,-0.40544 0,-0.223 -0.18244,-0.40545 -0.40544,-0.40545 -0.22299,0 -0.40545,-0.18245 -0.40545,-0.40544 0,-0.35563 -1.88539,-0.40544 -15.34678,-0.40544 -15.04136,0 -15.35604,0.011 -15.81228,0.54367 -0.25604,0.29904 -0.46552,0.66393 -0.46552,0.8109 0,0.14696 -0.18245,0.2672 -0.40545,0.2672 -0.31535,0 -0.40545,0.36039 -0.40545,1.62178 0,0.97305 0.11585,1.62177 0.28961,1.62177 0.15928,0 0.46337,0.17376 0.67574,0.38613 0.21238,0.21239 0.38613,0.51646 0.38613,0.67574 0,0.20259 4.67012,0.28961 15.54201,0.28961 13.63491,0 15.54199,-0.0498 15.54199,-0.40545 z m 52.70766,0 c 0,-0.223 0.12163,-0.40544 0.27029,-0.40544 0.14867,0 0.2703,-0.18245 0.2703,-0.40544 0,-0.22525 0.24027,-0.40545 0.54059,-0.40545 0.47506,0 0.54059,-0.18019 0.54059,-1.48663 0,-0.81764 -0.12164,-1.48662 -0.27029,-1.48662 -0.35056,0 -1.35148,-1.00092 -1.35148,-1.35148 0,-0.17706 -5.36086,-0.27029 -15.542,-0.27029 -13.63491,0 -15.542,0.0498 -15.542,0.40544 0,0.22299 -0.18246,0.40544 -0.40544,0.40544 -0.223,0 -0.40545,0.18245 -0.40545,0.40545 0,0.22299 -0.18245,0.40544 -0.40544,0.40544 -0.66992,0 -0.55646,2.7238 0.13823,3.31863 0.29903,0.25603 0.66393,0.46551 0.8109,0.46551 0.14696,0 0.2672,0.18244 0.2672,0.40544 0,0.35569 1.90709,0.40545 15.542,0.40545 13.6349,0 15.542,-0.0498 15.542,-0.40545 z m -52.69621,-12.09573 c 0.007,-0.18583 0.3712,-0.63624 0.81089,-1.00093 0.70166,-0.58195 0.79945,-0.83818 0.79945,-2.09478 0,-0.78746 -0.12164,-1.43174 -0.27031,-1.43174 -0.35055,0 -1.35148,-1.00092 -1.35148,-1.35148 0,-0.17702 -5.29578,-0.27029 -15.34678,-0.27029 -15.04136,0 -15.35604,0.011 -15.81228,0.54367 -0.25604,0.29904 -0.46552,0.66393 -0.46552,0.8109 0,0.14696 -0.18245,0.2672 -0.40545,0.2672 -0.31535,0 -0.40545,0.36039 -0.40545,1.62178 0,1.26138 0.0901,1.62177 0.40545,1.62177 0.223,0 0.40545,0.12024 0.40545,0.26721 0,0.14696 0.20948,0.51185 0.46552,0.81088 0.45624,0.53286 0.77092,0.54368 15.81228,0.54368 12.09113,0 15.34921,-0.0716 15.35823,-0.33787 z m 52.77128,-0.20581 c 0.25603,-0.29903 0.46552,-0.64974 0.46552,-0.77936 0,-0.12963 0.24327,-0.2993 0.54059,-0.37705 0.44409,-0.11614 0.54059,-0.36869 0.54059,-1.41481 0,-1.11884 -0.12738,-1.40081 -1.04938,-2.32281 l -1.04939,-1.04938 -15.3035,0 c -10.02214,0 -15.3035,0.0933 -15.3035,0.27029 0,0.35056 -1.00093,1.35148 -1.35148,1.35148 -0.15017,0 -0.2703,0.72079 -0.2703,1.62178 0,0.90098 0.12013,1.62177 0.2703,1.62177 0.35055,0 1.35148,1.00092 1.35148,1.35148 0,0.17702 5.29578,0.27029 15.34678,0.27029 15.04136,0 15.35604,-0.011 15.81229,-0.54368 z"
       id="path5371-2"
       inkscape:connector-curvature="0"
       sodipodi:nodetypes="cssccssssccccscccssccssscccsscccscccsccccssssssssssssssscsscsssssssssssccsssssssssscsssscssssssssssssssssssssccsssscsssssssccsssscsssssssc" />
    <path
       style="fill:#00afdc;fill-opacity:1"
       d="m 609.87853,889.80286 c -0.26372,-0.16702 -0.32113,-0.51576 -0.19533,-1.18636 0.38476,-2.05093 -1.83747,-6.28742 -4.67214,-8.90706 -3.88874,-3.59374 -9.97546,-5.35749 -19.70775,-5.71069 -6.04149,-0.25442 -9.62233,-0.16742 -13.8387,-0.16884 -7.26795,0 -8.37917,0.0537 -8.37917,0.40545 0,0.27029 -0.2703,0.40544 -0.81088,0.40544 -0.53596,0 -0.8109,-0.13572 -0.8109,-0.40029 0,-0.22017 -0.33448,-0.47187 -0.7433,-0.55934 -3.84876,-0.82351 -6.68941,-3.46253 -7.76821,-7.21681 -0.52413,-1.45083 0,0 -0.81368,-2.90568 0.35739,0 0.40545,-2.88315 0.40545,-24.32661 1.00163,-9.31388 -2.15762,-20.00078 0.49925,-27.49072 0.81237,-2.32767 1.86708,-3.84501 3.48184,-5.00908 1.39679,-1.00693 3.26433,-1.82774 4.15854,-1.82774 5.64661,-2.0634 11.14548,-0.27122 15.78153,-0.2703 6.61223,-0.64257 12.14672,-0.59594 17.33964,0.40637 4.6034,0.86654 7.55888,2.3218 10.73022,5.28348 2.25424,2.10521 4.14205,4.73205 5.0425,7.0165 0.32054,0.81324 0.70508,1.55418 0.85451,1.64654 0.14943,0.0924 0.26131,0.24555 0.24861,0.34041 -0.0677,0.50572 0.004,0.71311 0.24722,0.71311 0.14865,0 0.27029,-0.16639 0.27029,-0.36974 0,-0.52605 2.22273,-4.81446 3.14477,-6.06734 3.54194,-4.81284 7.74988,-7.44142 13.70798,-8.56296 3.10103,-0.55915 11.68067,-0.40751 17.47479,-0.40637 4.8242,0.0925 11.35618,0.0465 14.6503,0.17112 0.0778,0.29733 0.62492,0.0992 0.85625,0.0992 0.23134,0 1.12151,0.26223 1.97814,0.58274 2.78396,1.0416 5.38394,4.09004 5.93006,6.95284 0.36914,3.55846 0.37222,17.95291 0.3713,26.79196 -0.22959,9.74212 0.26391,24.75742 -0.52086,27.50258 -0.32376,1.00347 -1.01385,2.4087 -1.53352,3.1227 -1.0337,1.42026 -3.68736,3.29403 -5.05402,3.56871 -2.44022,1.0943 -8.1636,0.40507 -11.8123,0.40385 -6.44431,-0.0312 -11.11041,0.0799 -15.00141,0.26479 -7.49564,0.36127 -11.8555,1.35614 -15.93094,3.63526 -3.91526,2.18954 -7.36121,7.12706 -7.27615,10.42564 0.0222,0.85907 -0.092,1.57046 -0.2703,1.68522 -0.42218,0.27163 -1.57885,0.25003 -2.03361,-0.038 z m -9.76259,-30.83916 c 0,-0.35056 1.00093,-1.35148 1.35148,-1.35148 0.14866,0 0.2703,-0.64195 0.2703,-1.42656 0,-1.09476 -0.12645,-1.53482 -0.54368,-1.89207 -0.29902,-0.25603 -0.66393,-0.46551 -0.81089,-0.46551 -0.14697,0 -0.26721,-0.18245 -0.26721,-0.40544 0,-0.3557 -1.90709,-0.40545 -15.54199,-0.40545 -10.87189,0 -15.54201,0.087 -15.54201,0.2896 0,0.37422 -0.68765,1.06188 -1.06187,1.06188 -0.17376,0 -0.28961,0.64871 -0.28961,1.62178 0,1.26138 0.0901,1.62177 0.40545,1.62177 0.223,0 0.40544,0.12024 0.40544,0.26721 0,0.14696 0.20949,0.51186 0.46552,0.81088 0.45625,0.53286 0.77093,0.54368 15.81229,0.54368 10.051,0 15.34678,-0.0933 15.34678,-0.27029 z m 52.78273,-0.27339 c 0.25603,-0.29902 0.46552,-0.64974 0.46552,-0.77936 0,-0.12963 0.24326,-0.2993 0.54058,-0.37705 0.78286,-0.20472 0.78061,-2.56929 -0.003,-3.24031 -0.29904,-0.25603 -0.66393,-0.46551 -0.81089,-0.46551 -0.14697,0 -0.26721,-0.18245 -0.26721,-0.40544 0,-0.3557 -1.9071,-0.40545 -15.54201,-0.40545 -13.6349,0 -15.54199,0.0498 -15.54199,0.40545 0,0.22299 -0.12024,0.40544 -0.2672,0.40544 -0.14697,0 -0.51187,0.20948 -0.8109,0.46551 -0.69469,0.59482 -0.80815,3.31863 -0.13824,3.31863 0.223,0 0.40545,0.18245 0.40545,0.40545 0,0.22298 0.18245,0.40543 0.40545,0.40543 0.22298,0 0.40544,0.18245 0.40544,0.40545 0,0.35563 1.88539,0.40544 15.34678,0.40544 15.04136,0 15.35604,-0.011 15.81229,-0.54368 z m -52.78273,-12.29536 c 0,-0.223 0.18246,-0.40545 0.40545,-0.40545 0.22299,0 0.40544,-0.18245 0.40544,-0.40543 0,-0.223 0.18245,-0.40545 0.40545,-0.40545 0.31125,0 0.40544,-0.34538 0.40544,-1.48663 0,-1.14125 -0.0942,-1.48662 -0.40544,-1.48662 -0.223,0 -0.40545,-0.18245 -0.40545,-0.40545 0,-0.223 -0.18245,-0.40544 -0.40544,-0.40544 -0.22299,0 -0.40545,-0.18245 -0.40545,-0.40544 0,-0.35563 -1.88539,-0.40544 -15.34678,-0.40544 -15.04136,0 -15.35604,0.011 -15.81229,0.54367 -0.25603,0.29903 -0.46552,0.66393 -0.46552,0.81089 0,0.14696 -0.18244,0.26721 -0.40544,0.26721 -0.31535,0 -0.40545,0.36039 -0.40545,1.62177 0,0.97306 0.11585,1.62178 0.28961,1.62178 0.15928,0 0.46337,0.17375 0.67574,0.38613 0.21237,0.21238 0.38613,0.51646 0.38613,0.67574 0,0.20258 4.67012,0.28961 15.54201,0.28961 13.6349,0 15.54199,-0.0498 15.54199,-0.40545 z m 52.70766,0 c 0,-0.223 0.12163,-0.40545 0.27029,-0.40545 0.14867,0 0.2703,-0.18245 0.2703,-0.40543 0,-0.22525 0.24026,-0.40545 0.54058,-0.40545 0.47507,0 0.5406,-0.18019 0.5406,-1.48663 0,-0.81764 -0.12164,-1.48662 -0.27029,-1.48662 -0.35056,0 -1.35148,-1.00092 -1.35148,-1.35148 0,-0.17707 -5.36087,-0.27029 -15.54201,-0.27029 -13.6349,0 -15.54199,0.0498 -15.54199,0.40544 0,0.22299 -0.18246,0.40544 -0.40544,0.40544 -0.223,0 -0.40545,0.18244 -0.40545,0.40544 0,0.223 -0.18245,0.40545 -0.40545,0.40545 -0.66991,0 -0.55645,2.7238 0.13824,3.31863 0.29903,0.25603 0.66393,0.4655 0.81089,0.4655 0.14697,0 0.26721,0.18245 0.26721,0.40545 0,0.35569 1.90709,0.40545 15.54199,0.40545 13.63491,0 15.54201,-0.0498 15.54201,-0.40545 z m -52.69621,-12.09573 c 0.007,-0.18583 0.3712,-0.63624 0.81089,-1.00093 0.70166,-0.58195 0.79944,-0.83818 0.79944,-2.09479 0,-0.78745 -0.12164,-1.43173 -0.2703,-1.43173 -0.35055,0 -1.35148,-1.00092 -1.35148,-1.35148 0,-0.17702 -5.29578,-0.27029 -15.34678,-0.27029 -15.04136,0 -15.35604,0.011 -15.81229,0.54367 -0.25603,0.29904 -0.46552,0.66393 -0.46552,0.81089 0,0.14697 -0.18244,0.26721 -0.40544,0.26721 -0.31535,0 -0.40545,0.36039 -0.40545,1.62177 0,1.26139 0.0901,1.62178 0.40545,1.62178 0.223,0 0.40544,0.12024 0.40544,0.2672 0,0.14697 0.20949,0.51186 0.46552,0.81088 0.45625,0.53287 0.77093,0.54369 15.81229,0.54369 12.09113,0 15.34921,-0.0716 15.35823,-0.33787 z m 52.77128,-0.20582 c 0.25603,-0.29902 0.46552,-0.64973 0.46552,-0.77936 0,-0.12962 0.24326,-0.29929 0.54058,-0.37704 0.4441,-0.11614 0.5406,-0.36869 0.5406,-1.41481 0,-1.11884 -0.12738,-1.40082 -1.04938,-2.32281 l -1.04939,-1.04938 -15.30351,0 c -10.02213,0 -15.30349,0.0933 -15.30349,0.27029 0,0.35056 -1.00093,1.35148 -1.35148,1.35148 -0.15017,0 -0.2703,0.72078 -0.2703,1.62177 0,0.90098 0.12013,1.62178 0.2703,1.62178 0.35055,0 1.35148,1.00092 1.35148,1.35148 0,0.17702 5.29578,0.27029 15.34678,0.27029 15.04136,0 15.35604,-0.011 15.81229,-0.54369 z"
       id="path5371-2-9"
       inkscape:connector-curvature="0"
       sodipodi:nodetypes="cssccssssccccscccssccssscccsscccscccsccccssssssssssssssscsscsssssssssssccsssssssssscsssscssssssssssssssssssssccsssscsssssssccsssscsssssssc" />
    <path
       style="fill:#00afdc;fill-opacity:1"
       d="m 105.65018,889.80286 c -0.26372,-0.16702 -0.32113,-0.51576 -0.19533,-1.18636 0.38476,-2.05093 -1.83747,-6.28742 -4.67214,-8.90706 -3.88874,-3.59374 -9.975463,-5.35749 -19.707751,-5.71069 -6.041492,-0.25442 -9.622326,-0.16742 -13.838702,-0.16884 -7.267949,0 -8.379171,0.0537 -8.379171,0.40545 0,0.27029 -0.270294,0.40544 -0.810881,0.40544 -0.535951,0 -0.810892,-0.13572 -0.810892,-0.40029 0,-0.22017 -0.334486,-0.47187 -0.743305,-0.55934 -3.848755,-0.82351 -6.689404,-3.46253 -7.768206,-7.21681 -0.52413,-1.45083 0,0 -0.813683,-2.90568 0.357393,0 0.405446,-2.88315 0.405446,-24.32661 1.001635,-9.31388 -2.157614,-20.00078 0.499258,-27.49072 0.812364,-2.32767 1.867073,-3.84501 3.481837,-5.00908 1.396787,-1.00693 3.264332,-1.82774 4.158544,-1.82774 5.646604,-2.0634 11.145477,-0.27122 15.781525,-0.2703 6.612226,-0.64257 12.146716,-0.59594 17.339645,0.40637 4.603397,0.86654 7.558875,2.3218 10.730216,5.28348 2.25424,2.10521 4.14205,4.73205 5.0425,7.0165 0.32054,0.81324 0.70508,1.55418 0.85451,1.64654 0.14943,0.0924 0.26131,0.24555 0.24861,0.34041 -0.0677,0.50572 0.004,0.71311 0.24722,0.71311 0.14865,0 0.27029,-0.16639 0.27029,-0.36974 0,-0.52605 2.22273,-4.81446 3.14477,-6.06734 3.54194,-4.81284 7.74988,-7.44142 13.70798,-8.56296 3.10103,-0.55915 11.68067,-0.40751 17.47479,-0.40637 4.8242,0.0925 11.35618,0.0465 14.6503,0.17112 0.0778,0.29733 0.62492,0.0992 0.85625,0.0992 0.23134,0 1.12151,0.26223 1.97814,0.58274 2.78396,1.0416 5.38394,4.09004 5.93006,6.95284 0.36914,3.55846 0.37222,17.95291 0.3713,26.79196 -0.22959,9.74212 0.26391,24.75742 -0.52086,27.50258 -0.32376,1.00347 -1.01385,2.4087 -1.53352,3.1227 -1.0337,1.42026 -3.68736,3.29403 -5.05402,3.56871 -2.44022,1.0943 -8.1636,0.40507 -11.81231,0.40385 -6.4443,-0.0312 -11.1104,0.0799 -15.0014,0.26479 -7.49564,0.36127 -11.85551,1.35614 -15.93094,3.63526 -3.91526,2.18954 -7.36121,7.12706 -7.27615,10.42564 0.0222,0.85907 -0.092,1.57046 -0.2703,1.68522 -0.42218,0.27163 -1.57885,0.25003 -2.03361,-0.038 z M 95.887589,858.9637 c 0,-0.35056 1.000931,-1.35148 1.351479,-1.35148 0.148666,0 0.270305,-0.64195 0.270305,-1.42656 0,-1.09476 -0.126451,-1.53482 -0.543686,-1.89207 -0.299022,-0.25603 -0.663929,-0.46551 -0.810892,-0.46551 -0.146962,0 -0.267206,-0.18245 -0.267206,-0.40544 0,-0.3557 -1.907085,-0.40545 -15.541993,-0.40545 -10.871887,0 -15.542004,0.087 -15.542004,0.2896 0,0.37422 -0.687649,1.06188 -1.061872,1.06188 -0.173758,0 -0.289608,0.64871 -0.289608,1.62178 0,1.26138 0.09009,1.62177 0.405446,1.62177 0.222998,0 0.405446,0.12024 0.405446,0.26721 0,0.14696 0.209485,0.51186 0.465519,0.81088 0.456246,0.53286 0.770924,0.54368 15.812287,0.54368 10.050997,0 15.346779,-0.0933 15.346779,-0.27029 z m 52.782731,-0.27339 c 0.25603,-0.29902 0.46552,-0.64974 0.46552,-0.77936 0,-0.12963 0.24326,-0.2993 0.54058,-0.37705 0.78286,-0.20472 0.78061,-2.56929 -0.003,-3.24031 -0.29904,-0.25603 -0.66393,-0.46551 -0.8109,-0.46551 -0.14696,0 -0.2672,-0.18245 -0.2672,-0.40544 0,-0.3557 -1.9071,-0.40545 -15.54201,-0.40545 -13.6349,0 -15.54199,0.0498 -15.54199,0.40545 0,0.22299 -0.12024,0.40544 -0.26721,0.40544 -0.14696,0 -0.51186,0.20948 -0.81089,0.46551 -0.69469,0.59482 -0.80815,3.31863 -0.13824,3.31863 0.223,0 0.40545,0.18245 0.40545,0.40545 0,0.22298 0.18245,0.40543 0.40545,0.40543 0.22298,0 0.40544,0.18245 0.40544,0.40545 0,0.35563 1.88539,0.40544 15.34678,0.40544 15.04136,0 15.35604,-0.011 15.81229,-0.54368 z M 95.887589,846.39495 c 0,-0.223 0.182459,-0.40545 0.405446,-0.40545 0.222998,0 0.405446,-0.18245 0.405446,-0.40543 0,-0.223 0.182448,-0.40545 0.405446,-0.40545 0.31125,0 0.405446,-0.34538 0.405446,-1.48663 0,-1.14125 -0.09415,-1.48662 -0.405446,-1.48662 -0.222998,0 -0.405446,-0.18245 -0.405446,-0.40545 0,-0.223 -0.182448,-0.40544 -0.405446,-0.40544 -0.222987,0 -0.405446,-0.18245 -0.405446,-0.40544 0,-0.35563 -1.885388,-0.40544 -15.346779,-0.40544 -15.041363,0 -15.356041,0.011 -15.812287,0.54367 -0.256034,0.29903 -0.465519,0.66393 -0.465519,0.81089 0,0.14696 -0.182448,0.26721 -0.405446,0.26721 -0.315348,0 -0.405446,0.36039 -0.405446,1.62177 0,0.97306 0.11585,1.62178 0.289608,1.62178 0.159278,0 0.463365,0.17375 0.675739,0.38613 0.212375,0.21238 0.386133,0.51646 0.386133,0.67574 0,0.20258 4.670117,0.28961 15.542004,0.28961 13.634908,0 15.541993,-0.0498 15.541993,-0.40545 z m 52.707661,0 c 0,-0.223 0.12163,-0.40545 0.27029,-0.40545 0.14867,0 0.2703,-0.18245 0.2703,-0.40543 0,-0.22525 0.24026,-0.40545 0.54058,-0.40545 0.47507,0 0.5406,-0.18019 0.5406,-1.48663 0,-0.81764 -0.12164,-1.48662 -0.27029,-1.48662 -0.35056,0 -1.35148,-1.00092 -1.35148,-1.35148 0,-0.17707 -5.36087,-0.27029 -15.54201,-0.27029 -13.6349,0 -15.54199,0.0498 -15.54199,0.40544 0,0.22299 -0.18246,0.40544 -0.40545,0.40544 -0.22299,0 -0.40544,0.18244 -0.40544,0.40544 0,0.223 -0.18245,0.40545 -0.40545,0.40545 -0.66991,0 -0.55645,2.7238 0.13824,3.31863 0.29902,0.25603 0.66393,0.4655 0.81089,0.4655 0.14697,0 0.26721,0.18245 0.26721,0.40545 0,0.35569 1.90709,0.40545 15.54199,0.40545 13.63491,0 15.54201,-0.0498 15.54201,-0.40545 z M 95.899036,834.29922 c 0.0066,-0.18583 0.371202,-0.63624 0.810893,-1.00093 0.701656,-0.58195 0.799444,-0.83818 0.799444,-2.09479 0,-0.78745 -0.121639,-1.43173 -0.270305,-1.43173 -0.350548,0 -1.351479,-1.00092 -1.351479,-1.35148 0,-0.17702 -5.295782,-0.27029 -15.346779,-0.27029 -15.041363,0 -15.356041,0.011 -15.812287,0.54367 -0.256034,0.29904 -0.465519,0.66393 -0.465519,0.81089 0,0.14697 -0.182448,0.26721 -0.405446,0.26721 -0.315348,0 -0.405446,0.36039 -0.405446,1.62177 0,1.26139 0.09009,1.62178 0.405446,1.62178 0.222998,0 0.405446,0.12024 0.405446,0.2672 0,0.14697 0.209485,0.51186 0.465519,0.81088 0.456246,0.53287 0.770924,0.54369 15.812287,0.54369 12.091125,0 15.349207,-0.0716 15.358226,-0.33787 z m 52.771284,-0.20582 c 0.25603,-0.29902 0.46552,-0.64973 0.46552,-0.77936 0,-0.12962 0.24326,-0.29929 0.54058,-0.37704 0.4441,-0.11614 0.5406,-0.36869 0.5406,-1.41481 0,-1.11884 -0.12738,-1.40082 -1.04938,-2.32281 l -1.04939,-1.04938 -15.30351,0 c -10.02213,0 -15.30349,0.0933 -15.30349,0.27029 0,0.35056 -1.00093,1.35148 -1.35148,1.35148 -0.15017,0 -0.2703,0.72078 -0.2703,1.62177 0,0.90098 0.12013,1.62178 0.2703,1.62178 0.35055,0 1.35148,1.00092 1.35148,1.35148 0,0.17702 5.29578,0.27029 15.34678,0.27029 15.04136,0 15.35604,-0.011 15.81229,-0.54369 z"
       id="path5371-2-1"
       inkscape:connector-curvature="0"
       sodipodi:nodetypes="cssccssssccccscccssccssscccsscccscccsccccssssssssssssssscsscsssssssssssccsssssssssscsssscssssssssssssssssssssccsssscsssssssccsssscsssssssc" />
    <path
       style="fill:#00afdc;fill-opacity:1"
       d="m 357.76433,1029.3277 c -0.26371,-0.167 -0.32113,-0.5157 -0.19532,-1.1863 0.38475,-2.051 -1.83748,-6.2875 -4.67214,-8.9071 -3.88875,-3.5937 -9.97547,-5.3575 -19.70776,-5.7107 -6.04149,-0.2544 -9.62232,-0.1674 -13.8387,-0.1688 -7.26795,0 -8.37917,0.054 -8.37917,0.4054 0,0.2703 -0.27029,0.4055 -0.81088,0.4055 -0.53595,0 -0.81089,-0.1358 -0.81089,-0.4003 0,-0.2202 -0.33449,-0.4719 -0.74331,-0.5594 -3.84875,-0.8235 -6.6894,-3.4625 -7.7682,-7.2168 -0.52413,-1.4508 0,0 -0.81369,-2.9057 0.35739,0 0.40545,-2.8831 0.40545,-24.32657 1.00163,-9.31387 -2.15762,-20.00077 0.49926,-27.49072 0.81236,-2.32767 1.86707,-3.84501 3.48183,-5.00908 1.39679,-1.00693 3.26434,-1.82774 4.15855,-1.82774 5.6466,-2.0634 11.14547,-0.27122 15.78152,-0.27029 6.61223,-0.64258 12.14672,-0.59595 17.33965,0.40637 4.60339,0.86653 7.55887,2.32179 10.73022,5.28347 2.25424,2.10521 4.14204,4.73205 5.04249,7.0165 0.32055,0.81324 0.70509,1.55419 0.85451,1.64655 0.14943,0.0924 0.26132,0.24554 0.24862,0.3404 -0.0677,0.50572 0.004,0.71311 0.24721,0.71311 0.14865,0 0.27029,-0.16639 0.27029,-0.36974 0,-0.52604 2.22273,-4.81446 3.14477,-6.06733 3.54194,-4.81284 7.74988,-7.44143 13.70798,-8.56296 3.10103,-0.55916 11.68067,-0.40752 17.4748,-0.40637 4.82419,0.0925 11.35618,0.0465 14.65029,0.17111 0.0778,0.29733 0.62492,0.0992 0.85626,0.0992 0.23133,0 1.1215,0.26223 1.97813,0.58274 2.78396,1.04161 5.38395,4.09004 5.93006,6.95285 0.36915,3.55845 0.37222,17.9529 0.3713,26.79196 -0.22959,9.74212 0.26391,24.75744 -0.52086,27.50254 -0.32376,1.0035 -1.01385,2.4087 -1.53352,3.1227 -1.0337,1.4203 -3.68735,3.2941 -5.05402,3.5687 -2.44022,1.0943 -8.1636,0.4051 -11.8123,0.4039 -6.4443,-0.031 -11.11041,0.08 -15.00141,0.2648 -7.49564,0.3613 -11.8555,1.3561 -15.93094,3.6352 -3.91526,2.1896 -7.36121,7.1271 -7.27615,10.4257 0.0222,0.859 -0.092,1.5704 -0.2703,1.6852 -0.42217,0.2716 -1.57885,0.25 -2.03361,-0.038 z m -9.76259,-30.83914 c 0,-0.35056 1.00093,-1.35148 1.35148,-1.35148 0.14867,0 0.27031,-0.64194 0.27031,-1.42656 0,-1.09476 -0.12645,-1.53481 -0.54369,-1.89206 -0.29902,-0.25604 -0.66393,-0.46552 -0.81089,-0.46552 -0.14696,0 -0.26721,-0.18245 -0.26721,-0.40544 0,-0.3557 -1.90708,-0.40544 -15.54199,-0.40544 -10.87189,0 -15.542,0.087 -15.542,0.28959 0,0.37423 -0.68765,1.06189 -1.06188,1.06189 -0.17375,0 -0.2896,0.6487 -0.2896,1.62177 0,1.26138 0.0901,1.62177 0.40544,1.62177 0.223,0 0.40545,0.12025 0.40545,0.26721 0,0.14696 0.20948,0.51186 0.46552,0.81088 0.45624,0.53286 0.77092,0.54369 15.81228,0.54369 10.051,0 15.34678,-0.0933 15.34678,-0.2703 z m 52.78273,-0.27339 c 0.25603,-0.29902 0.46552,-0.64973 0.46552,-0.77936 0,-0.12963 0.24327,-0.2993 0.54059,-0.37705 0.78285,-0.20471 0.7806,-2.56929 -0.003,-3.2403 -0.29903,-0.25604 -0.66393,-0.46552 -0.81089,-0.46552 -0.14696,0 -0.26721,-0.18245 -0.26721,-0.40544 0,-0.3557 -1.90709,-0.40544 -15.542,-0.40544 -13.63491,0 -15.542,0.0498 -15.542,0.40544 0,0.22299 -0.12024,0.40544 -0.2672,0.40544 -0.14696,0 -0.51187,0.20948 -0.81089,0.46552 -0.6947,0.59481 -0.80816,3.31862 -0.13824,3.31862 0.22299,0 0.40544,0.18245 0.40544,0.40545 0,0.22299 0.18245,0.40543 0.40545,0.40543 0.22299,0 0.40544,0.18245 0.40544,0.40545 0,0.35563 1.88539,0.40545 15.34678,0.40545 15.04137,0 15.35604,-0.011 15.81229,-0.54369 z m -52.78273,-12.29536 c 0,-0.223 0.18246,-0.40544 0.40545,-0.40544 0.223,0 0.40544,-0.18245 0.40544,-0.40544 0,-0.223 0.18245,-0.40545 0.40545,-0.40545 0.31125,0 0.40545,-0.34538 0.40545,-1.48663 0,-1.14125 -0.0942,-1.48662 -0.40545,-1.48662 -0.223,0 -0.40545,-0.18245 -0.40545,-0.40544 0,-0.223 -0.18244,-0.40545 -0.40544,-0.40545 -0.22299,0 -0.40545,-0.18245 -0.40545,-0.40544 0,-0.35563 -1.88539,-0.40544 -15.34678,-0.40544 -15.04136,0 -15.35604,0.011 -15.81228,0.54367 -0.25604,0.29904 -0.46552,0.66393 -0.46552,0.81089 0,0.14697 -0.18245,0.26721 -0.40545,0.26721 -0.31535,0 -0.40544,0.36039 -0.40544,1.62177 0,0.97306 0.11585,1.62178 0.2896,1.62178 0.15928,0 0.46337,0.17376 0.67574,0.38613 0.21238,0.21239 0.38614,0.51646 0.38614,0.67574 0,0.20259 4.67011,0.28961 15.542,0.28961 13.63491,0 15.54199,-0.0498 15.54199,-0.40545 z m 52.70766,0 c 0,-0.223 0.12163,-0.40544 0.27029,-0.40544 0.14867,0 0.2703,-0.18245 0.2703,-0.40544 0,-0.22525 0.24027,-0.40545 0.54059,-0.40545 0.47506,0 0.54059,-0.18019 0.54059,-1.48663 0,-0.81764 -0.12163,-1.48662 -0.27029,-1.48662 -0.35056,0 -1.35148,-1.00092 -1.35148,-1.35148 0,-0.17706 -5.36086,-0.27029 -15.542,-0.27029 -13.63491,0 -15.542,0.0498 -15.542,0.40544 0,0.22299 -0.18245,0.40544 -0.40544,0.40544 -0.223,0 -0.40545,0.18245 -0.40545,0.40545 0,0.22299 -0.18245,0.40544 -0.40544,0.40544 -0.66992,0 -0.55646,2.7238 0.13824,3.31863 0.29902,0.25603 0.66393,0.46551 0.81089,0.46551 0.14696,0 0.2672,0.18244 0.2672,0.40544 0,0.35569 1.90709,0.40545 15.542,0.40545 13.63491,0 15.542,-0.0498 15.542,-0.40545 z m -52.69621,-12.09573 c 0.007,-0.18583 0.3712,-0.63624 0.81089,-1.00093 0.70166,-0.58195 0.79945,-0.83818 0.79945,-2.09478 0,-0.78746 -0.12164,-1.43174 -0.27031,-1.43174 -0.35055,0 -1.35148,-1.00092 -1.35148,-1.35148 0,-0.17702 -5.29578,-0.27029 -15.34678,-0.27029 -15.04136,0 -15.35604,0.011 -15.81228,0.54367 -0.25604,0.29904 -0.46552,0.66393 -0.46552,0.8109 0,0.14696 -0.18245,0.2672 -0.40545,0.2672 -0.31535,0 -0.40544,0.36039 -0.40544,1.62178 0,1.26138 0.0901,1.62177 0.40544,1.62177 0.223,0 0.40545,0.12024 0.40545,0.26721 0,0.14696 0.20948,0.51185 0.46552,0.81088 0.45624,0.53286 0.77092,0.54368 15.81228,0.54368 12.09113,0 15.34921,-0.0716 15.35823,-0.33787 z m 52.77128,-0.20581 c 0.25603,-0.29903 0.46552,-0.64974 0.46552,-0.77936 0,-0.12963 0.24327,-0.2993 0.54059,-0.37705 0.44409,-0.11614 0.54059,-0.36869 0.54059,-1.41481 0,-1.11884 -0.12738,-1.40081 -1.04938,-2.32281 l -1.04939,-1.04938 -15.3035,0 c -10.02214,0 -15.3035,0.0933 -15.3035,0.27029 0,0.35056 -1.00093,1.35148 -1.35148,1.35148 -0.15017,0 -0.2703,0.72079 -0.2703,1.62178 0,0.90097 0.12013,1.62177 0.2703,1.62177 0.35055,0 1.35148,1.00092 1.35148,1.35148 0,0.17702 5.29579,0.27029 15.34678,0.27029 15.04137,0 15.35604,-0.011 15.81229,-0.54368 z"
       id="path5371-2-1-2"
       inkscape:connector-curvature="0"
       sodipodi:nodetypes="cssccssssccccscccssccssscccsscccscccsccccssssssssssssssscsscsssssssssssccsssssssssscsssscssssssssssssssssssssccsssscsssssssccsssscsssssssc" />
    <path
       style="fill:#00afdc;fill-opacity:1"
       d="m 357.76436,447.05861 c -0.26371,-0.16702 -0.32112,-0.51576 -0.19532,-1.18636 0.38476,-2.05092 -1.83748,-6.28742 -4.67214,-8.90705 -3.88874,-3.59375 -9.97547,-5.3575 -19.70775,-5.7107 -6.0415,-0.25442 -9.62233,-0.16742 -13.83871,-0.16884 -7.26795,0 -8.37917,0.0537 -8.37917,0.40545 0,0.27029 -0.27029,0.40544 -0.81088,0.40544 -0.53595,0 -0.81089,-0.13572 -0.81089,-0.40029 0,-0.22016 -0.33449,-0.47187 -0.74331,-0.55934 -3.84875,-0.82351 -6.6894,-3.46252 -7.7682,-7.21681 -0.52413,-1.45083 0,0 -0.81368,-2.90568 0.35739,0 0.40544,-2.88315 0.40544,-24.32661 1.00164,-9.31387 -2.15761,-20.00078 0.49926,-27.49072 0.81236,-2.32767 1.86707,-3.84501 3.48184,-5.00908 1.39678,-1.00693 3.26433,-1.82774 4.15854,-1.82774 5.6466,-2.0634 11.14548,-0.27122 15.78153,-0.27029 6.61222,-0.64258 12.14671,-0.59595 17.33964,0.40637 4.6034,0.86653 7.55887,2.32179 10.73022,5.28347 2.25424,2.10521 4.14204,4.73205 5.04249,7.0165 0.32055,0.81324 0.70509,1.55419 0.85451,1.64655 0.14944,0.0924 0.26132,0.24554 0.24862,0.3404 -0.0677,0.50572 0.004,0.71311 0.24721,0.71311 0.14866,0 0.2703,-0.16639 0.2703,-0.36974 0,-0.52604 2.22273,-4.81446 3.14476,-6.06734 3.54195,-4.81283 7.74989,-7.44142 13.70798,-8.56295 3.10104,-0.55916 11.68067,-0.40752 17.4748,-0.40637 4.8242,0.0925 11.35618,0.0465 14.6503,0.17111 0.0778,0.29733 0.62491,0.0992 0.85625,0.0992 0.23134,0 1.12151,0.26223 1.97813,0.58274 2.78396,1.04161 5.38395,4.09004 5.93006,6.95285 0.36915,3.55845 0.37223,17.9529 0.3713,26.79196 -0.22959,9.74212 0.26391,24.75741 -0.52085,27.50258 -0.32377,1.00347 -1.01385,2.40869 -1.53352,3.12269 -1.03371,1.42026 -3.68736,3.29403 -5.05402,3.56871 -2.44023,1.0943 -8.1636,0.40507 -11.81231,0.40385 -6.4443,-0.0312 -11.11041,0.0799 -15.0014,0.26479 -7.49564,0.36127 -11.85551,1.35614 -15.93094,3.63526 -3.91527,2.18954 -7.36121,7.12706 -7.27616,10.42564 0.0222,0.85907 -0.0919,1.57046 -0.27029,1.68522 -0.42218,0.27163 -1.57885,0.25003 -2.03362,-0.038 z m -9.76258,-30.83916 c 0,-0.35056 1.00093,-1.35148 1.35147,-1.35148 0.14867,0 0.27031,-0.64194 0.27031,-1.42656 0,-1.09476 -0.12645,-1.53481 -0.54369,-1.89206 -0.29902,-0.25604 -0.66393,-0.46552 -0.81089,-0.46552 -0.14696,0 -0.2672,-0.18245 -0.2672,-0.40544 0,-0.3557 -1.90709,-0.40544 -15.542,-0.40544 -10.87189,0 -15.542,0.087 -15.542,0.28959 0,0.37423 -0.68765,1.06189 -1.06187,1.06189 -0.17376,0 -0.28961,0.6487 -0.28961,1.62177 0,1.26138 0.0901,1.62177 0.40544,1.62177 0.223,0 0.40545,0.12025 0.40545,0.26721 0,0.14696 0.20949,0.51186 0.46552,0.81088 0.45625,0.53286 0.77092,0.54369 15.81229,0.54369 10.05099,0 15.34678,-0.0933 15.34678,-0.2703 z m 52.78272,-0.27339 c 0.25604,-0.29902 0.46552,-0.64974 0.46552,-0.77936 0,-0.12963 0.24327,-0.2993 0.54059,-0.37705 0.78285,-0.20472 0.7806,-2.56929 -0.003,-3.2403 -0.29903,-0.25604 -0.66393,-0.46552 -0.81089,-0.46552 -0.14696,0 -0.26721,-0.18245 -0.26721,-0.40544 0,-0.3557 -1.90709,-0.40544 -15.542,-0.40544 -13.63491,0 -15.54199,0.0498 -15.54199,0.40544 0,0.22299 -0.12025,0.40544 -0.26721,0.40544 -0.14696,0 -0.51187,0.20948 -0.81089,0.46552 -0.69469,0.59481 -0.80816,3.31862 -0.13824,3.31862 0.223,0 0.40545,0.18245 0.40545,0.40545 0,0.22299 0.18244,0.40543 0.40544,0.40543 0.22299,0 0.40545,0.18245 0.40545,0.40545 0,0.35563 1.88538,0.40545 15.34678,0.40545 15.04136,0 15.35604,-0.011 15.81228,-0.54369 z M 348.00178,403.6507 c 0,-0.223 0.18245,-0.40545 0.40544,-0.40545 0.223,0 0.40545,-0.18244 0.40545,-0.40543 0,-0.223 0.18245,-0.40545 0.40544,-0.40545 0.31125,0 0.40545,-0.34538 0.40545,-1.48663 0,-1.14125 -0.0942,-1.48662 -0.40545,-1.48662 -0.22299,0 -0.40544,-0.18245 -0.40544,-0.40545 0,-0.22299 -0.18245,-0.40544 -0.40545,-0.40544 -0.22299,0 -0.40544,-0.18245 -0.40544,-0.40544 0,-0.35563 -1.88539,-0.40544 -15.34678,-0.40544 -15.04137,0 -15.35604,0.011 -15.81229,0.54367 -0.25603,0.29904 -0.46552,0.66393 -0.46552,0.81089 0,0.14697 -0.18245,0.26721 -0.40545,0.26721 -0.31534,0 -0.40544,0.36039 -0.40544,1.62177 0,0.97306 0.11585,1.62178 0.28961,1.62178 0.15927,0 0.46336,0.17376 0.67574,0.38613 0.21237,0.21239 0.38613,0.51646 0.38613,0.67574 0,0.20259 4.67011,0.28961 15.542,0.28961 13.63491,0 15.542,-0.0498 15.542,-0.40545 z m 52.70765,0 c 0,-0.223 0.12163,-0.40545 0.2703,-0.40545 0.14866,0 0.27029,-0.18244 0.27029,-0.40543 0,-0.22525 0.24027,-0.40545 0.54059,-0.40545 0.47506,0 0.5406,-0.18019 0.5406,-1.48663 0,-0.81764 -0.12164,-1.48662 -0.2703,-1.48662 -0.35056,0 -1.35148,-1.00092 -1.35148,-1.35148 0,-0.17706 -5.36086,-0.27029 -15.542,-0.27029 -13.63491,0 -15.54199,0.0498 -15.54199,0.40544 0,0.22299 -0.18246,0.40544 -0.40545,0.40544 -0.223,0 -0.40545,0.18245 -0.40545,0.40544 0,0.223 -0.18244,0.40545 -0.40544,0.40545 -0.66992,0 -0.55645,2.7238 0.13824,3.31863 0.29902,0.25603 0.66393,0.4655 0.81089,0.4655 0.14696,0 0.26721,0.18245 0.26721,0.40545 0,0.35569 1.90708,0.40545 15.54199,0.40545 13.63491,0 15.542,-0.0498 15.542,-0.40545 z m -52.69621,-12.09573 c 0.007,-0.18583 0.3712,-0.63624 0.81089,-1.00093 0.70166,-0.58195 0.79945,-0.83818 0.79945,-2.09478 0,-0.78746 -0.12164,-1.43174 -0.27031,-1.43174 -0.35054,0 -1.35147,-1.00092 -1.35147,-1.35148 0,-0.17702 -5.29579,-0.27029 -15.34678,-0.27029 -15.04137,0 -15.35604,0.011 -15.81229,0.54367 -0.25603,0.29904 -0.46552,0.66393 -0.46552,0.8109 0,0.14696 -0.18245,0.2672 -0.40545,0.2672 -0.31534,0 -0.40544,0.36039 -0.40544,1.62178 0,1.26138 0.0901,1.62177 0.40544,1.62177 0.223,0 0.40545,0.12024 0.40545,0.26721 0,0.14696 0.20949,0.51185 0.46552,0.81088 0.45625,0.53286 0.77092,0.54368 15.81229,0.54368 12.09112,0 15.3492,-0.0716 15.35822,-0.33787 z m 52.77128,-0.20581 c 0.25604,-0.29903 0.46552,-0.64974 0.46552,-0.77937 0,-0.12962 0.24327,-0.29929 0.54059,-0.37704 0.44409,-0.11614 0.5406,-0.36869 0.5406,-1.41481 0,-1.11884 -0.12739,-1.40081 -1.04938,-2.32281 l -1.0494,-1.04938 -15.3035,0 c -10.02214,0 -15.30349,0.0933 -15.30349,0.27029 0,0.35056 -1.00093,1.35148 -1.35148,1.35148 -0.15017,0 -0.27031,0.72079 -0.27031,1.62178 0,0.90097 0.12014,1.62177 0.27031,1.62177 0.35055,0 1.35148,1.00092 1.35148,1.35148 0,0.17702 5.29578,0.27029 15.34678,0.27029 15.04136,0 15.35604,-0.011 15.81228,-0.54368 z"
       id="path5371-2-1-7"
       inkscape:connector-curvature="0"
       sodipodi:nodetypes="cssccssssccccscccssccssscccsscccscccsccccssssssssssssssscsscsssssssssssccsssssssssscsssscssssssssssssssssssssccsssscsssssssccsssscsssssssc" />
    <path
       style="fill:#b4b4b4;fill-opacity:1"
       d="m 352.844,916.08909 c -0.50762,-0.31904 -1.18678,-0.99546 -1.50926,-1.50302 -0.32248,-0.50768 -0.70469,-0.96042 -1.00194,-1.66222 0.23399,-9.54284 0.74444,-71.94327 0.70414,-89.1455 -0.0671,-27.61159 -0.34607,-28.36045 -0.87325,-28.36045 -0.81332,0 -21.42856,21.65922 -21.75146,22.85298 -0.14292,0.52836 -0.5068,0.79764 -0.74958,0.80944 -0.22978,0.0112 -0.23653,0.73758 -0.45556,0.79602 -2.63333,0.70243 -3.20471,0.18128 -4.31842,-0.16566 -0.62342,-0.19422 -1.46205,-0.32428 -1.86362,-0.28905 -1.43266,-0.99387 -2.30779,-3.39303 -4.48754,-4.48947 -0.48151,-0.22315 -0.45083,-0.37949 -0.75721,-0.61454 -0.01,-0.32855 -0.10591,-0.93864 -0.19211,-1.37671 -0.0914,-1.16169 -0.18607,-3.18323 0.0568,-4.68574 0.38562,-1.04272 0.31656,-0.90726 1.03085,-1.39848 0.55046,-0.37855 4.75141,-4.08316 19.35001,-18.67756 15.54581,-15.54133 18.15606,-18.74923 18.51863,-19.24414 0.22315,-0.30462 0.26575,-0.30166 0.58479,-0.6843 0.30424,-0.36488 0.93963,-0.18539 2.46846,-0.51254 0.59171,-0.12662 1.47351,-0.12578 1.99126,0.002 1.17241,0.2891 1.55674,0.32804 2.14688,0.45913 l 0.77361,0.7358 c 0.44453,0.4228 2.97388,3.7045 18.51934,19.24876 4.41971,4.66184 17.25789,16.38694 20.37405,19.91181 0,0 0.27086,3.78775 0.0628,4.84537 -1.56332,1.57409 -3.17527,4.02045 -5.15304,5.47374 -0.79153,0.55208 -0.86812,0.68753 -1.54147,1.02541 -0.45614,0.2289 -2.20081,0.57309 -3.35869,0.2415 -1.55325,-0.44481 -0.90728,-0.32751 -1.76605,-0.70851 -4.35613,-4.31134 -8.25454,-8.94489 -11.72245,-12.58185 -5.75944,-6.03529 -10.68779,-11.01145 -10.95187,-11.05811 -0.46071,-0.0814 -0.14592,18.9069 -0.20551,28.36044 -0.18453,29.2718 -0.44467,85.06932 -0.47082,87.81587 -0.19135,1.22342 -0.1036,1.87249 -0.41736,2.48563 -0.59236,1.15509 -1.40456,1.95005 -2.61986,2.5644 -1.71718,0.78672 -2.8309,0.42528 -4.71264,0.42242 -2.03324,-0.11635 -2.72098,-0.0648 -4.24799,-0.0593 -0.74481,-0.28355 -1.19054,-0.58084 -1.45396,-0.8333 z"
       id="path5443"
       inkscape:connector-curvature="0"
       sodipodi:nodetypes="csccssccscccccsssssccsccccsscccaccccccc"
       inkscape:transform-center-y="106.03887" />
    <path
       style="fill:#b4b4b4;fill-opacity:1"
       d="m 352.84401,459.03284 c -0.50761,0.31904 -1.18678,0.99546 -1.50926,1.50303 -0.32248,0.50767 -0.70469,0.96041 -1.00194,1.66221 0.23399,9.54284 0.74444,71.94327 0.70414,89.1455 -0.0671,27.6116 -0.34607,28.36045 -0.87325,28.36045 -0.81332,0 -21.42856,-21.65921 -21.75146,-22.85298 -0.14292,-0.52836 -0.5068,-0.79764 -0.74958,-0.80944 -0.22978,-0.0112 -0.23653,-0.73758 -0.45556,-0.79601 -2.63333,-0.70244 -3.20471,-0.18129 -4.31842,0.16566 -0.62342,0.19421 -1.46205,0.32428 -1.86362,0.28904 -1.43266,0.99387 -2.30778,3.39303 -4.48754,4.48947 -0.48151,0.22316 -0.45083,0.37949 -0.75721,0.61454 -0.01,0.32855 -0.10591,0.93864 -0.1921,1.37671 -0.0914,1.1617 -0.18608,3.18324 0.0568,4.68574 0.38562,1.04273 0.31656,0.90727 1.03085,1.39848 0.55046,0.37855 4.75142,4.08316 19.35001,18.67756 15.54581,15.54133 18.15606,18.74923 18.51863,19.24415 0.22315,0.30461 0.26575,0.30166 0.58479,0.68429 0.30424,0.36488 0.93964,0.1854 2.46847,0.51254 0.5917,0.12662 1.4735,0.12579 1.99125,-0.002 1.17241,-0.28911 1.55674,-0.32805 2.14688,-0.45914 l 0.77361,-0.7358 c 0.44453,-0.42279 2.97388,-3.7045 18.51934,-19.24876 4.41972,-4.66184 17.25789,-16.38693 20.37405,-19.9118 0,0 0.27086,-3.78775 0.0628,-4.84537 -1.56332,-1.5741 -3.17527,-4.02046 -5.15304,-5.47375 -0.79153,-0.55208 -0.86812,-0.68753 -1.54147,-1.02541 -0.45613,-0.2289 -2.20081,-0.57308 -3.35869,-0.2415 -1.55325,0.44481 -0.90728,0.32751 -1.76605,0.70851 -4.35613,4.31134 -8.25454,8.94489 -11.72245,12.58185 -5.75944,6.0353 -10.68779,11.01146 -10.95187,11.05811 -0.46071,0.0814 -0.14592,-18.9069 -0.20551,-28.36043 -0.18453,-29.2718 -0.44467,-85.06932 -0.47082,-87.81588 -0.19135,-1.22342 -0.1036,-1.87249 -0.41736,-2.48563 -0.59236,-1.15509 -1.40456,-1.95005 -2.61986,-2.5644 -1.71718,-0.78672 -2.83089,-0.42527 -4.71263,-0.42242 -2.03324,0.11635 -2.72099,0.0648 -4.248,0.0593 -0.74481,0.28355 -1.19054,0.58084 -1.45396,0.8333 z"
       id="path5443-0"
       inkscape:connector-curvature="0"
       sodipodi:nodetypes="csccssccscccccsssssccsccccsscccaccccccc"
       inkscape:transform-center-y="-106.03887" />
    <path
       style="fill:#b4b4b4;fill-opacity:1"
       d="m 535.3199,561.35138 c -0.54959,-0.23963 -1.49109,-0.41963 -2.0921,-0.40009 -0.6011,0.0201 -1.1905,-0.041 -1.93779,0.10877 -7.7522,5.56991 -33.38236,22.11642 -47.61708,31.77515 -22.84977,15.50138 -23.62562,15.69284 -23.92265,15.25729 -0.45822,-0.67193 5.82107,-29.90685 6.62539,-30.84621 0.356,-0.41576 0.37345,-0.86811 0.24641,-1.07533 -0.1202,-0.19616 0.4761,-0.61097 0.40097,-0.82486 -0.90332,-2.57135 -1.65582,-2.74979 -2.56992,-3.47443 -0.51171,-0.40563 -1.09166,-1.0252 -1.28881,-1.37681 -1.62829,-0.62366 -4.10347,0.005 -6.23743,-1.17805 -0.45565,-0.27207 -0.56754,-0.15865 -0.93434,-0.27935 -0.27701,0.17695 -0.83515,0.44135 -1.24563,0.61696 -1.01127,0.579 -2.73475,1.63975 -3.83924,2.68695 -0.64421,0.90606 -0.5712,0.7727 -0.57458,1.63958 -0.002,0.66807 -0.69637,6.22602 -4.52878,26.5097 -4.08107,21.59977 -5.26068,25.56368 -5.46529,26.14207 -0.12593,0.35599 -0.0995,0.38951 -0.23587,0.86868 -0.13003,0.45693 0.37624,0.88076 0.96733,2.32816 0.22877,0.56018 0.72628,1.28823 1.12373,1.64387 0.89941,0.80574 1.14811,1.10132 1.5889,1.515 l 1.04377,0.22459 c 0.59976,0.12905 4.73609,0.36977 26.33691,4.45509 6.34162,1.0249 23.26183,5.02534 27.92968,5.61386 0,0 3.28193,-1.91031 4.03851,-2.67804 0.41967,-2.17845 1.53259,-4.88852 1.61895,-7.34132 0.01,-0.96498 0.0789,-1.10458 -0.0213,-1.85125 -0.0679,-0.5058 -0.76651,-2.14113 -1.69283,-2.91093 -1.24261,-1.03264 -0.78175,-0.56503 -1.58037,-1.05986 -6.01623,-1.16983 -12.04076,-1.77997 -16.99941,-2.59595 -8.23115,-1.3579 -15.11903,-2.62593 -15.30638,-2.81781 -0.32683,-0.33476 15.48521,-10.85043 23.31484,-16.14853 15.43743,-10.44609 44.39564,-29.26421 46.65003,-30.83326 0.90295,-0.8474 1.48864,-1.14059 1.81842,-1.74526 0.62056,-1.14019 0.81973,-2.2591 0.64256,-3.60929 -0.31752,-1.86193 -1.24363,-2.57842 -2.30618,-4.13144 -1.24168,-1.61427 -1.58661,-2.2115 -2.44241,-3.47616 -0.6539,-0.45557 -1.15064,-0.65635 -1.50763,-0.73172 z"
       id="path5443-0-0"
       inkscape:connector-curvature="0"
       sodipodi:nodetypes="csccssccscccccsssssccsccccsscccaccccccc"
       inkscape:transform-center-y="-77.399274"
       inkscape:transform-center-x="-123.77797" />
    <path
       style="fill:#b4b4b4;fill-opacity:1"
       d="m 178.52909,564.11937 c 0.54959,-0.23964 1.49109,-0.41963 2.0921,-0.40009 0.6011,0.0201 1.1905,-0.041 1.93779,0.10876 7.7522,5.56991 33.38236,22.11643 47.61708,31.77515 22.84977,15.50138 23.62561,15.69285 23.92265,15.2573 0.45822,-0.67194 -5.82107,-29.90686 -6.62539,-30.84621 -0.356,-0.41576 -0.37345,-0.86811 -0.24641,-1.07533 0.1202,-0.19616 -0.4761,-0.61098 -0.40097,-0.82487 0.90332,-2.57134 1.65582,-2.74978 2.56992,-3.47442 0.51171,-0.40563 1.09166,-1.0252 1.28881,-1.37681 1.62828,-0.62367 4.10347,0.005 6.23743,-1.17805 0.45565,-0.27208 0.56753,-0.15866 0.93434,-0.27935 0.27701,0.17694 0.83515,0.44135 1.24563,0.61695 1.01127,0.57901 2.73475,1.63976 3.83924,2.68695 0.64421,0.90607 0.5712,0.77271 0.57458,1.63959 0.002,0.66807 0.69637,6.22601 4.52878,26.5097 4.08107,21.59977 5.26068,25.56368 5.46529,26.14207 0.12593,0.35598 0.0995,0.3895 0.23587,0.86868 0.13003,0.45693 -0.37624,0.88075 -0.96734,2.32815 -0.22876,0.56019 -0.72627,1.28823 -1.12372,1.64388 -0.89941,0.80574 -1.14811,1.10131 -1.5889,1.515 l -1.04377,0.22459 c -0.59976,0.12904 -4.73609,0.36976 -26.33691,4.45508 -6.34162,1.02491 -23.26183,5.02535 -27.92968,5.61387 0,0 -3.28193,-1.91032 -4.03851,-2.67804 -0.41967,-2.17845 -1.53259,-4.88853 -1.61895,-7.34132 -0.01,-0.96498 -0.0789,-1.10459 0.0213,-1.85125 0.0679,-0.50581 0.76652,-2.14114 1.69284,-2.91093 1.24261,-1.03264 0.78175,-0.56503 1.58037,-1.05986 6.01623,-1.16984 12.04076,-1.77998 16.99941,-2.59596 8.23115,-1.35789 15.11903,-2.62592 15.30638,-2.8178 0.32683,-0.33477 -15.48521,-10.85044 -23.31484,-16.14854 -15.43743,-10.44608 -44.39564,-29.2642 -46.65004,-30.83325 -0.90294,-0.8474 -1.48863,-1.14059 -1.81841,-1.74526 -0.62056,-1.1402 -0.81973,-2.25911 -0.64256,-3.60929 0.31752,-1.86193 1.24363,-2.57842 2.30618,-4.13144 1.24168,-1.61427 1.5866,-2.2115 2.44241,-3.47616 0.6539,-0.45558 1.15064,-0.65635 1.50763,-0.73173 z"
       id="path5443-0-0-6"
       inkscape:connector-curvature="0"
       sodipodi:nodetypes="csccssccscccccsssssccsccccsscccaccccccc"
       inkscape:transform-center-y="-77.399271"
       inkscape:transform-center-x="123.77796" />
    <path
       style="fill:#b4b4b4;fill-opacity:1"
       d="m 537.7197,807.45036 c -0.5496,0.23963 -1.4911,0.41963 -2.09211,0.40009 -0.6011,-0.0201 -1.1905,0.041 -1.93779,-0.10877 -7.7522,-5.56991 -33.38236,-22.11642 -47.61708,-31.77515 -22.84976,-15.50137 -23.62561,-15.69284 -23.92264,-15.25729 -0.45823,0.67194 5.82106,29.90686 6.62538,30.84621 0.356,0.41576 0.37346,0.86811 0.24641,1.07533 -0.1202,0.19616 0.4761,0.61098 0.40098,0.82487 -0.90332,2.57134 -1.65582,2.74978 -2.56993,3.47442 -0.5117,0.40563 -1.09166,1.0252 -1.2888,1.37681 -1.62829,0.62367 -4.10347,-0.005 -6.23743,1.17805 -0.45566,0.27208 -0.56754,0.15865 -0.93435,0.27935 -0.27701,-0.17695 -0.83515,-0.44135 -1.24563,-0.61695 -1.01127,-0.57901 -2.73475,-1.63976 -3.83924,-2.68696 -0.64421,-0.90606 -0.57119,-0.7727 -0.57458,-1.63958 -0.002,-0.66807 -0.69637,-6.22601 -4.52878,-26.5097 -4.08106,-21.59977 -5.26068,-25.56368 -5.46528,-26.14207 -0.12594,-0.35599 -0.0995,-0.38951 -0.23588,-0.86868 -0.13003,-0.45693 0.37625,-0.88075 0.96734,-2.32815 0.22876,-0.56019 0.72628,-1.28824 1.12372,-1.64388 0.89941,-0.80574 1.14812,-1.10131 1.58891,-1.515 l 1.04376,-0.22459 c 0.59976,-0.12904 4.73609,-0.36976 26.33691,-4.45508 6.34163,-1.02491 23.26183,-5.02535 27.92968,-5.61387 0,0 3.28194,1.91032 4.03851,2.67804 0.41968,2.17845 1.53259,4.88853 1.61895,7.34132 0.01,0.96498 0.0789,1.10458 -0.0213,1.85125 -0.0679,0.50581 -0.76652,2.14114 -1.69283,2.91093 -1.24262,1.03264 -0.78176,0.56503 -1.58038,1.05986 -6.01622,1.16983 -12.04075,1.77998 -16.9994,2.59595 -8.23116,1.3579 -15.11904,2.62593 -15.30638,2.81781 -0.32683,0.33476 15.4852,10.85043 23.31483,16.14853 15.43744,10.44609 44.39565,29.26421 46.65004,30.83326 0.90295,0.8474 1.48863,1.14059 1.81841,1.74526 0.62056,1.14019 0.81973,2.25911 0.64257,3.60929 -0.31753,1.86193 -1.24363,2.57842 -2.30618,4.13144 -1.24169,1.61427 -1.58661,2.2115 -2.44241,3.47616 -0.6539,0.45557 -1.15065,0.65635 -1.50763,0.73172 z"
       id="path5443-0-0-2"
       inkscape:connector-curvature="0"
       sodipodi:nodetypes="csccssccscccccsssssccsccccsscccaccccccc"
       inkscape:transform-center-y="77.399274"
       inkscape:transform-center-x="-123.77796" />
    <path
       style="fill:#b4b4b4;fill-opacity:1"
       d="m 180.92888,804.68238 c 0.5496,0.23963 1.49109,0.41963 2.09211,0.40008 0.6011,-0.0201 1.19049,0.041 1.93779,-0.10876 7.7522,-5.56991 33.38235,-22.11643 47.61708,-31.77515 22.84976,-15.50138 23.62561,-15.69285 23.92264,-15.2573 0.45823,0.67194 -5.82106,29.90686 -6.62538,30.84621 -0.356,0.41576 -0.37346,0.86811 -0.24641,1.07533 0.1202,0.19616 -0.4761,0.61098 -0.40098,0.82487 0.90332,2.57134 1.65582,2.74978 2.56993,3.47442 0.5117,0.40563 1.09165,1.0252 1.2888,1.37681 1.62829,0.62367 4.10347,-0.005 6.23743,1.17806 0.45566,0.27207 0.56754,0.15865 0.93435,0.27934 0.277,-0.17694 0.83515,-0.44135 1.24562,-0.61695 1.01127,-0.57901 2.73476,-1.63976 3.83925,-2.68695 0.6442,-0.90607 0.57119,-0.77271 0.57457,-1.63958 0.002,-0.66808 0.69638,-6.22602 4.52878,-26.50971 4.08107,-21.59976 5.26068,-25.56368 5.46529,-26.14207 0.12594,-0.35598 0.0995,-0.3895 0.23588,-0.86868 0.13003,-0.45692 -0.37625,-0.88075 -0.96734,-2.32815 -0.22877,-0.56019 -0.72628,-1.28823 -1.12373,-1.64388 -0.8994,-0.80574 -1.14811,-1.10131 -1.5889,-1.515 l -1.04376,-0.22459 c -0.59976,-0.12904 -4.73609,-0.36976 -26.33692,-4.45508 -6.34162,-1.0249 -23.26182,-5.02535 -27.92968,-5.61387 0,0 -3.28193,1.91032 -4.0385,2.67805 -0.41968,2.17844 -1.53259,4.88852 -1.61895,7.34131 -0.01,0.96499 -0.0789,1.10459 0.0213,1.85125 0.0679,0.50581 0.76652,2.14114 1.69283,2.91093 1.24262,1.03264 0.78176,0.56503 1.58038,1.05986 6.01622,1.16984 12.04075,1.77998 16.9994,2.59596 8.23115,1.35789 15.11903,2.62592 15.30638,2.81781 0.32683,0.33476 -15.4852,10.85043 -23.31483,16.14853 -15.43744,10.44608 -44.39565,29.26421 -46.65004,30.83326 -0.90295,0.8474 -1.48863,1.14058 -1.81842,1.74525 -0.62055,1.1402 -0.81972,2.25911 -0.64256,3.60929 0.31753,1.86193 1.24363,2.57842 2.30618,4.13144 1.24169,1.61427 1.58661,2.21151 2.44241,3.47616 0.6539,0.45558 1.15064,0.65635 1.50763,0.73173 z"
       id="path5443-0-0-6-6"
       inkscape:connector-curvature="0"
       sodipodi:nodetypes="csccssccscccccsssssccsccccsscccaccccccc"
       inkscape:transform-center-y="77.399272"
       inkscape:transform-center-x="123.77796" />
  </g>
</svg>
