<?xml version="1.0" encoding="UTF-8" standalone="no"?>
<svg
   xmlns:dc="http://purl.org/dc/elements/1.1/"
   xmlns:cc="http://creativecommons.org/ns#"
   xmlns:rdf="http://www.w3.org/1999/02/22-rdf-syntax-ns#"
   xmlns:svg="http://www.w3.org/2000/svg"
   xmlns="http://www.w3.org/2000/svg"
   xmlns:sodipodi="http://sodipodi.sourceforge.net/DTD/sodipodi-0.dtd"
   xmlns:inkscape="http://www.inkscape.org/namespaces/inkscape"
   viewBox="0 0 50 50"
   id="svg2"
   version="1.1"
   inkscape:version="0.91 r13725"
   sodipodi:docname="github.svg"
   width="50"
   height="50">
  <metadata
     id="metadata10">
    <rdf:RDF>
      <cc:Work
         rdf:about="">
        <dc:format>image/svg+xml</dc:format>
        <dc:type
           rdf:resource="http://purl.org/dc/dcmitype/StillImage" />
        <dc:title></dc:title>
      </cc:Work>
    </rdf:RDF>
  </metadata>
  <defs
     id="defs8" />
  <sodipodi:namedview
     pagecolor="#ffffff"
     bordercolor="#666666"
     borderopacity="1"
     objecttolerance="10"
     gridtolerance="10"
     guidetolerance="10"
     inkscape:pageopacity="0"
     inkscape:pageshadow="2"
     inkscape:window-width="1006"
     inkscape:window-height="587"
     id="namedview6"
     showgrid="false"
     inkscape:zoom="10.429825"
     inkscape:cx="21.65532"
     inkscape:cy="21.792849"
     inkscape:window-x="75"
     inkscape:window-y="34"
     inkscape:window-maximized="0"
     inkscape:current-layer="svg2" />
  <path
     d="m 16.80745,39.796515 c 0,0.200701 -0.230806,0.36126 -0.521825,0.36126 -0.331154,0.03009 -0.56196,-0.130454 -0.56196,-0.36126 0,-0.2007 0.230806,-0.36126 0.521821,-0.36126 0.301052,-0.03009 0.561964,0.130454 0.561964,0.36126 z m -3.120898,-0.451578 c -0.07025,0.2007 0.130454,0.431506 0.431508,0.491719 0.260912,0.100342 0.56196,0 0.622172,-0.200701 0.06021,-0.2007 -0.130454,-0.431506 -0.431507,-0.521824 -0.260912,-0.07024 -0.551925,0.03009 -0.622173,0.230806 z m 4.43549,-0.170595 c -0.291018,0.07025 -0.491719,0.260913 -0.461613,0.491719 0.03009,0.200701 0.291014,0.331155 0.592066,0.260908 0.291015,-0.07025 0.491716,-0.260908 0.461614,-0.461612 -0.03009,-0.190666 -0.301053,-0.321121 -0.592067,-0.291015 z M 24.725097,0.72006761 c -13.918602,0 -24.56577961,10.56689839 -24.56577961,24.48549939 0,11.128859 7.00446041,20.652111 17.00939261,24.003815 1.284486,0.230806 1.736065,-0.561961 1.736065,-1.21424 0,-0.622173 -0.03009,-4.054156 -0.03009,-6.161514 0,0 -7.024528,1.505258 -8.49968,-2.990444 0,0 -1.1439932,-2.920193 -2.789743,-3.672823 0,0 -2.2980204,-1.575501 0.160564,-1.545394 0,0 2.498725,0.200699 3.873525,2.589038 2.197673,3.873524 5.880535,2.759638 7.315542,2.097325 0.230807,-1.605606 0.883085,-2.719498 1.60561,-3.38181 C 14.930915,34.307347 9.2711525,33.494508 9.2711525,23.840802 c 0,-2.759638 0.7626595,-4.14447 2.3682665,-5.910641 -0.260909,-0.652274 -1.113888,-3.341666 0.260912,-6.813789 2.097325,-0.65228 6.924181,2.709459 6.924181,2.709459 2.007005,-0.561961 4.164537,-0.852979 6.302002,-0.852979 2.137465,0 4.294996,0.291018 6.302007,0.852979 0,0 4.826851,-3.371772 6.924175,-2.709459 1.374799,3.482157 0.52182,6.161515 0.260913,6.813789 1.605605,1.776204 2.589039,3.161037 2.589039,5.910641 0,9.683812 -5.910637,10.456511 -11.520225,11.088718 0.923221,0.792766 1.705959,2.298024 1.705959,4.656257 0,3.38181 -0.03009,7.56642 -0.03009,8.389293 0,0.652279 0.461612,1.44505 1.736059,1.214243 10.035041,-3.331635 16.8388,-12.854887 16.8388,-23.983746 0,-13.918601 -11.289418,-24.48549939 -25.208019,-24.48549939 z M 9.9133763,35.33092 c -0.1304538,0.100354 -0.1003425,0.331159 0.07025,0.521825 0.1605607,0.16056 0.3913667,0.230806 0.5218207,0.100342 0.130459,-0.100342 0.100355,-0.331153 -0.07024,-0.521819 -0.160562,-0.16056 -0.391368,-0.230807 -0.5218221,-0.100354 z m -1.083785,-0.812834 c -0.070237,0.130454 0.030093,0.291013 0.2308062,0.391367 0.160559,0.100342 0.3612649,0.07024 0.4315059,-0.07025 0.07025,-0.130459 -0.030093,-0.291018 -0.2308062,-0.391366 -0.2006997,-0.06021 -0.3612601,-0.03009 -0.4315059,0.07025 z m 3.2513557,3.572471 c -0.16056,0.130454 -0.100355,0.431506 0.130454,0.622173 0.230806,0.230806 0.52182,0.260913 0.652279,0.100355 0.130454,-0.130459 0.07025,-0.431506 -0.130459,-0.622173 -0.220767,-0.230806 -0.52182,-0.260913 -0.652274,-0.100355 z m -1.143998,-1.475151 c -0.160559,0.100354 -0.160559,0.361265 0,0.592066 0.16056,0.230806 0.431507,0.331158 0.561966,0.230806 0.160559,-0.130454 0.160559,-0.391366 0,-0.622173 -0.140493,-0.230801 -0.401406,-0.331153 -0.561966,-0.200699 z"
     id="path4"
     style="fill:#ffffff"
     inkscape:connector-curvature="0" />
</svg>
