<?xml version="1.0" standalone="no"?> <!DOCTYPE svg PUBLIC "-//W3C//DTD SVG 1.0//EN" "http://www.w3.org/TR/2001/REC-SVG-20010904/DTD/svg10.dtd" > <svg xmlns="http://www.w3.org/2000/svg" width="100%" height="100%">
<defs >
<font id="Akrobat-Thin" horiz-adv-x="417" ><font-face
    font-family="Akrobat-Thin"
    units-per-em="1000"
    panose-1="0 0 3 0 0 0 0 0 0 0"
    ascent="1000"
    descent="-200"
    alphabetic="0" />
<missing-glyph horiz-adv-x="500" d="M410 800V-200H93V800H410ZM333 733H168V700H233V663H167V630H333V663H267V700H333V733ZM267 604H167V500H333V534H267V604ZM233 570V534H200V570H233ZM333 473H167V440H233V403H167V370H267V440H333V473ZM333 413H300V347H167V313H333V413ZM333
291H233V235H267V258H300V211H200V291H167V178H333V291ZM333 118H167V5H333V118ZM300 85V38H200V85H300ZM333 -18H167V-51H237L167 -98V-131H333V-98H231L301 -51H333V-18Z" />
<glyph unicode=" " glyph-name="space" horiz-adv-x="261" />
<glyph unicode="!" glyph-name="exclam" horiz-adv-x="188" d="M84 115V700H104V115H84ZM118 -7T94 -7T70 17T94 41T118 17Z" />
<glyph unicode="&quot;" glyph-name="quotedbl" horiz-adv-x="180" d="M42 700H74L41 530H24L42 700ZM122 700H154L121 530H104L122 700Z" />
<glyph unicode="#" glyph-name="numbersign" horiz-adv-x="539" d="M98 0L141 189H21L26 208H146L208 481H88L92 500H212L258 700H278L232 500H378L424 700H444L398 500H518L514 481H394L332 208H452L447 189H327L284 0H264L307 189H161L118 0H98ZM166 208H312L374
481H228L166 208Z" />
<glyph unicode="$" glyph-name="dollar" horiz-adv-x="423" d="M375 149Q375 82 332 37T217 -11V-85H199V-11Q131 -7 91 38T44 156H64Q72 88 109 48T210 8Q277 8 316 48T355 149Q355 188 338 222T294 280T235 327T170 373T110 420T66 478T49 551Q49 619 91 663T199
711V785H217V711Q282 709 323 664T370 545H350Q342 616 306 654T210 692Q148 692 109 654T69 551Q69 515 86 484T130 429T189 383T254 337T314 288T358 227T375 149Z" />
<glyph unicode="%" glyph-name="percent" horiz-adv-x="606" d="M116 398Q80 398 59 422T37 481V624Q37 659 58 683T116 707Q154 707 175 684T196 624V481Q196 445 175 422T116 398ZM40 0L545 700H565L60 0H40ZM116 415Q146 415 162 433T178 481V624Q178 653 162
671T116 690Q87 690 71 671T54 624V481Q54 453 70 434T116 415ZM489 -7Q453 -7 432 17T410 76V219Q410 254 431 278T489 302Q527 302 548 279T569 219V76Q569 40 548 17T489 -7ZM489 10Q519 10 535 28T551 76V219Q551 248 535 266T489 285Q460 285 444 266T427
219V76Q427 48 443 29T489 10Z" />
<glyph unicode="&amp;" glyph-name="ampersand" horiz-adv-x="559" d="M518 0H491Q448 61 420 99Q348 -11 255 -11Q179 -11 133 36T87 160Q87 224 123 273T228 378Q143 515 143 575Q142 635 175 673T270 711Q328 711 364 674T400 576Q400 546 390 519T353 464T310
421T255 374Q305 296 421 136Q454 197 470 273L488 267Q469 184 433 119Q501 24 518 0ZM163 575Q163 518 244 391Q279 420 296 435T337 476T371 526T381 578Q381 629 351 660T270 692Q218 692 190 660T163 575ZM253 9Q342 9 409 115Q287 285 239 361Q175 308 141
263T107 161Q107 93 147 51T253 9Z" />
<glyph unicode="&apos;" glyph-name="quotesingle" horiz-adv-x="100" d="M42 700H74L41 530H24L42 700Z" />
<glyph unicode="(" glyph-name="parenleft" horiz-adv-x="257" d="M195 -120Q145 -120 116 -86T87 7V694Q87 752 115 786T195 820V801Q152 800 130 772T107 694V7Q107 -43 130 -72T195 -101V-120Z" />
<glyph unicode=")" glyph-name="parenright" horiz-adv-x="257" d="M62 -120V-101Q104 -101 127 -72T150 7V694Q150 744 128 772T62 801V820Q113 820 141 786T170 694V7Q170 -51 141 -85T62 -120Z" />
<glyph unicode="*" glyph-name="asterisk" horiz-adv-x="281" d="M82 508L66 519L125 600L30 631L36 649L131 618V718H150V618L245 649L251 631L156 600L215 519L199 508L140 589L82 508Z" />
<glyph unicode="+" glyph-name="plus" horiz-adv-x="415" d="M361 317V299H216V154H198V299H54V317H198V463H216V317H361Z" />
<glyph unicode="," glyph-name="comma" horiz-adv-x="120" d="M53 49H85L52 -121H35L53 49Z" />
<glyph unicode="-" glyph-name="hyphen" horiz-adv-x="335" d="M50 246V265H285V246H50Z" />
<glyph unicode="." glyph-name="period" horiz-adv-x="164" d="M106 -7T82 -7T58 17T82 41T106 17Z" />
<glyph unicode="/" glyph-name="slash" horiz-adv-x="366" d="M330 803H351L36 -109H15L330 803Z" />
<glyph unicode="0" glyph-name="zero" horiz-adv-x="446" d="M288 -11T223 -11T113 34T68 148V552Q68 620 113 665T223 711T333 666T378 552V148Q378 80 333 35ZM166 8T223 8T319 47T358 148V552Q358 613 319 652T223 692T127 653T88 552V148Q88 87 127 48Z" />
<glyph unicode="1" glyph-name="one" horiz-adv-x="260" d="M161 700H173V0H153V670L34 575V597L161 700Z" />
<glyph unicode="2" glyph-name="two" horiz-adv-x="378" d="M36 0V20Q36 75 65 133T135 240T218 339T289 445T318 553Q318 614 280 652T185 688Q131 688 96 649T58 545H38Q43 617 83 662T185 707Q251 709 294 665T338 553Q338 497 309 440T239 333T156 234T85
129T56 20H340V0H36Z" />
<glyph unicode="3" glyph-name="three" horiz-adv-x="379" d="M170 414Q237 414 281 370T326 252V173Q326 89 284 41T172 -7Q108 -7 66 38T23 156H43Q44 91 80 52T172 12Q234 12 270 54T306 173V252Q306 317 268 356T170 395H126V409L296 681H36V700H322V688L153
414H170Z" />
<glyph unicode="4" glyph-name="four" horiz-adv-x="374" d="M365 230V211H282V0H262V211H17V228L187 700H206L38 230H262V488H282V230H365Z" />
<glyph unicode="5" glyph-name="five" horiz-adv-x="413" d="M212 470Q276 470 318 423T361 300V160Q361 84 318 37T210 -10T102 36T58 157H78Q78 91 116 50T210 9T303 50T341 160V300Q341 368 305 409T213 451Q117 451 82 349H61V700H351V680H81V392Q99 428 133
449T212 470Z" />
<glyph unicode="6" glyph-name="six" horiz-adv-x="427" d="M221 466Q286 466 330 419T374 297V163Q374 87 330 40T221 -7Q157 -7 113 37T68 143V542Q68 618 111 664T220 711Q282 711 325 667T369 551H349Q346 615 310 653T220 692Q162 692 125 651T88 542V384Q105
421 140 443T221 466ZM354 163V297Q354 365 316 406T221 447Q166 447 127 409T88 317V143Q88 88 126 50T221 12Q278 12 316 53T354 163Z" />
<glyph unicode="7" glyph-name="seven" horiz-adv-x="363" d="M14 700H315V682L127 0H107L294 681H14V700Z" />
<glyph unicode="8" glyph-name="eight" horiz-adv-x="438" d="M274 360Q321 345 349 301T378 201V163Q378 87 334 40T219 -7T104 40T60 163V201Q60 257 88 301T164 360Q122 376 97 419T71 521V541Q71 616 111 661T219 707T326 662T367 541V521Q367 463 342 420T274
360ZM91 521Q91 453 126 412T219 370T312 411T347 521V541Q347 607 312 647T219 688T126 648T91 541V521ZM358 163V201Q358 268 320 309T219 351T119 310T80 201V163Q80 95 118 54T219 12T319 53T358 163Z" />
<glyph unicode="9" glyph-name="nine" horiz-adv-x="427" d="M206 707Q270 707 314 663T359 557V158Q359 82 316 36T207 -11Q145 -11 102 33T58 149H78Q81 85 117 47T207 8Q265 8 302 49T339 158V316Q322 279 287 257T206 234Q141 234 97 281T53 403V537Q53 613
97 660T206 707ZM206 253Q261 253 300 291T339 383V557Q339 612 301 650T206 688Q149 688 111 647T73 537V403Q73 335 111 294T206 253Z" />
<glyph unicode=":" glyph-name="colon" horiz-adv-x="188" d="M118 344T94 344T70 368T94 392T118 368ZM118 -7T94 -7T70 17T94 41T118 17Z" />
<glyph unicode=";" glyph-name="semicolon" horiz-adv-x="125" d="M90 343T66 343T42 367T66 391T90 367ZM53 49H85L52 -121H35L53 49Z" />
<glyph unicode="&lt;" glyph-name="less" horiz-adv-x="361" d="M307 459V438L72 309L307 180V159L54 298V320L307 459Z" />
<glyph unicode="=" glyph-name="equal" horiz-adv-x="415" d="M54 349V367H361V349H54ZM54 249V267H361V249H54Z" />
<glyph unicode="&gt;" glyph-name="greater" horiz-adv-x="361" d="M54 459L307 320V298L54 159V180L289 309L54 438V459Z" />
<glyph unicode="?" glyph-name="question" horiz-adv-x="366" d="M160 115V192Q160 251 182 301T230 381T278 457T300 555Q300 614 263 651T170 688T77 649T40 545H20Q21 616 64 661T170 707Q235 707 277 664T320 555Q320 502 298 455T250 378T202 298T180 192V115H160ZM196
-7T172 -7T148 17T172 41T196 17Z" />
<glyph unicode="@" glyph-name="at" horiz-adv-x="708" d="M358 710Q495 710 570 633T646 412V304Q646 147 544 147Q476 147 461 215Q429 147 357 147Q303 147 266 186T229 285V385Q229 446 262 483T352 520Q423 520 457 465V515H476V257Q476 166 544 166Q627
166 627 304V412Q627 548 557 620T358 692Q224 692 153 616T81 400V269Q81 134 158 54T358 -26T546 30L556 16Q485 -44 358 -44Q227 -44 145 41T62 269V400Q62 546 139 628T358 710ZM355 165Q394 165 425 193T457 278V402Q457 448 425 475T349 502Q303 502 276
470T248 385V285Q248 233 280 199T355 165Z" />
<glyph unicode="A" glyph-name="A" horiz-adv-x="430" d="M394 0L340 203H90L36 0H15L203 700H227L415 0H394ZM95 222H335L260 504L215 674Q207 646 192 590T170 504L95 222Z" />
<glyph unicode="B" glyph-name="B" horiz-adv-x="472" d="M288 364Q428 338 428 189Q428 99 376 50T233 0H87V700H227Q308 700 353 654T399 525Q399 466 373 423T288 364ZM227 681H107V373H235Q307 373 343 416T379 525Q379 600 339 640T227 681ZM233 19Q316 19
362 63T408 189Q408 260 364 307T235 354H107V19H233Z" />
<glyph unicode="C" glyph-name="C" horiz-adv-x="465" d="M239 -12Q159 -12 114 40T68 192V507Q68 608 113 660T239 712Q404 712 419 525H399Q384 693 239 693Q168 693 128 646T88 507V192Q88 100 128 54T239 7Q391 7 403 175H423Q411 -12 239 -12Z" />
<glyph unicode="D" glyph-name="D" horiz-adv-x="482" d="M87 0V700H234Q320 700 367 651T414 507V207Q414 108 367 54T234 0H87ZM107 19H234Q311 19 352 67T394 207V507Q394 681 234 681H107V19Z" />
<glyph unicode="E" glyph-name="E" horiz-adv-x="434" d="M390 681H107V366H368V347H107V19H390V0H87V700H390V681Z" />
<glyph unicode="F" glyph-name="F" horiz-adv-x="416" d="M384 681H107V354H364V335H107V0H87V700H384V681Z" />
<glyph unicode="G" glyph-name="G" horiz-adv-x="480" d="M243 -10Q167 -10 118 41T68 185V507Q68 606 116 658T241 710Q318 710 366 663T416 525H396Q393 609 351 650T241 691Q174 691 131 645T88 507V185Q88 101 132 55T243 9Q312 9 357 55T402 185V340H240V359H422V185Q422
93 371 42T243 -10Z" />
<glyph unicode="H" glyph-name="H" horiz-adv-x="513" d="M406 700H426V0H406V347H107V0H87V700H107V366H406V700Z" />
<glyph unicode="I" glyph-name="I" horiz-adv-x="194" d="M87 700H107V0H87V700Z" />
<glyph unicode="J" glyph-name="J" horiz-adv-x="207" d="M-10 -67V-48Q47 -48 74 -14T102 79V700H122V79Q122 13 89 -27T-10 -67Z" />
<glyph unicode="K" glyph-name="K" horiz-adv-x="463" d="M421 0L177 382L107 290V0H87V700H107V321L131 353L395 700H420L189 399L444 0H421Z" />
<glyph unicode="L" glyph-name="L" horiz-adv-x="382" d="M107 19H367V0H87V700H107V19Z" />
<glyph unicode="M" glyph-name="M" horiz-adv-x="616" d="M508 700H529V3H509V578V652Q505 641 496 620T482 587L318 190H298L134 587L107 652V578V3H87V700H108L276 292Q281 279 291 253T308 214Q314 227 324 253T340 292L508 700Z" />
<glyph unicode="N" glyph-name="N" horiz-adv-x="524" d="M417 700H437V0H417L140 586L107 656V578V0H87V700H107L382 118L417 44V106V700Z" />
<glyph unicode="O" glyph-name="O" horiz-adv-x="504" d="M338 -11T252 -11T117 41T68 192V507Q68 607 117 659T252 711T387 659T436 507V192Q436 93 387 41ZM175 8T252 8T372 54T416 192V507Q416 599 373 645T252 692T132 646T88 507V192Q88 101 131 55Z" />
<glyph unicode="P" glyph-name="P" horiz-adv-x="464" d="M421 495Q422 395 371 339T229 283H107V0H87V700H229Q320 700 370 646T421 495ZM401 495Q402 583 357 632T229 681H107V302H229Q311 302 355 352T401 495Z" />
<glyph unicode="Q" glyph-name="Q" horiz-adv-x="507" d="M439 -31L425 -44L366 22Q321 -11 252 -11Q166 -11 117 41T68 192V507Q68 607 117 659T252 711T387 659T436 507V192Q436 87 380 34L439 -31ZM252 8Q314 8 352 37L263 136L277 149L367 49Q416 96 416 192V507Q416
599 373 645T252 692T132 646T88 507V192Q88 101 131 55T252 8Z" />
<glyph unicode="R" glyph-name="R" horiz-adv-x="454" d="M394 0L225 303H107V0H87V700H215Q408 700 408 503Q408 412 365 360T246 303L415 0H394ZM107 681V322H242Q309 322 348 368T388 503Q388 681 215 681H107Z" />
<glyph unicode="S" glyph-name="S" horiz-adv-x="423" d="M284 -11T210 -11T93 35T44 156H64Q72 86 109 47T211 8Q277 8 316 48T355 151Q355 204 324 246T247 319T157 380T81 455T49 554Q49 623 94 667T209 711Q277 711 320 667T370 545H350Q342 616 306 654T210
692Q149 692 109 654T69 554Q69 517 86 485T130 429T189 383T254 337T314 289T358 228T375 151Q375 81 330 35Z" />
<glyph unicode="T" glyph-name="T" horiz-adv-x="393" d="M367 700V681H204V0H184V681H26V700H367Z" />
<glyph unicode="U" glyph-name="U" horiz-adv-x="488" d="M323 -10T244 -10T120 40T74 184V700H94V184Q94 99 134 54T244 9T354 54T394 184V700H414V184Q414 91 369 41Z" />
<glyph unicode="V" glyph-name="V" horiz-adv-x="420" d="M198 0L15 700H37L175 162Q181 139 192 94T210 26L245 163L383 700H405L222 0H198Z" />
<glyph unicode="W" glyph-name="W" horiz-adv-x="656" d="M619 700H641L491 0H467L356 510L328 652L300 510L189 0H165L15 700H37L149 162Q154 139 163 95T177 28Q182 51 191 95T205 162L317 690H339L448 176L479 28Q484 52 494 101T510 175L619 700Z" />
<glyph unicode="X" glyph-name="X" horiz-adv-x="409" d="M387 0H365L205 338L44 0H22L194 362L30 700H52L205 384L357 700H379L216 362L387 0Z" />
<glyph unicode="Y" glyph-name="Y" horiz-adv-x="399" d="M190 0V265L11 700H32L163 382Q169 367 181 338T200 293L236 382L367 700H388L210 265V0H190Z" />
<glyph unicode="Z" glyph-name="Z" horiz-adv-x="388" d="M47 19H352V0H24V17L325 681H36V700H349V685L47 19Z" />
<glyph unicode="[" glyph-name="bracketleft" horiz-adv-x="257" d="M195 801H107V-101H195V-120H87V820H195V801Z" />
<glyph unicode="\" glyph-name="backslash" horiz-adv-x="444" d="M75 803L390 -109H369L54 803H75Z" />
<glyph unicode="]" glyph-name="bracketright" horiz-adv-x="257" d="M62 -101H150V801H62V820H170V-120H62V-101Z" />
<glyph unicode="^" glyph-name="asciicircum" horiz-adv-x="280" d="M259 483H240L140 680L40 483H21L131 700H149L259 483Z" />
<glyph unicode="_" glyph-name="underscore" horiz-adv-x="415" d="M35 -7H380V-26H35V-7Z" />
<glyph unicode="a" glyph-name="a" horiz-adv-x="431" d="M217 530Q284 530 320 490T356 377V0H337V69Q301 -10 193 -10Q129 -10 91 31T53 146Q53 218 97 257T224 296H337V377Q337 442 306 477T217 512Q160 512 125 480T89 399H70Q74 456 113 493T217 530ZM194
8Q337 8 337 158V278H224Q150 278 111 244T72 146Q72 82 105 45T194 8Z" />
<glyph unicode="b" glyph-name="b" horiz-adv-x="439" d="M236 530Q297 530 337 485T377 370V150Q377 81 334 36T227 -10Q185 -10 149 11T94 66V0H75V722H94V431Q110 478 147 504T236 530ZM358 150V370Q358 433 323 472T231 512Q172 512 133 468T94 340V140Q94
85 132 47T226 8Q282 8 320 48T358 150Z" />
<glyph unicode="c" glyph-name="c" horiz-adv-x="416" d="M212 -10Q142 -10 102 34T62 152V368Q62 441 101 485T209 530Q280 530 320 485T360 361H341Q341 431 306 471T209 512Q150 512 116 473T81 368V152Q81 87 116 48T212 8Q274 8 309 49T345 162H364Q364 82
324 36T212 -10Z" />
<glyph unicode="d" glyph-name="d" horiz-adv-x="439" d="M345 722H364V0H345V66Q326 33 290 12T212 -10Q148 -10 105 35T62 150V370Q62 439 102 484T203 530Q254 530 291 504T345 431V722ZM213 8Q268 8 306 46T345 140V340Q345 423 306 467T208 512Q152 512 117
473T81 370V150Q81 88 119 48T213 8Z" />
<glyph unicode="e" glyph-name="e" horiz-adv-x="427" d="M352 152H371Q363 77 324 34T212 -10Q142 -10 102 34T62 152V368Q62 441 102 485T212 530Q281 530 321 486T362 368V249H81V152Q81 87 116 48T212 8Q275 8 309 46T352 152ZM212 512Q151 512 116 473T81
368V267H343V368Q343 432 308 472T212 512Z" />
<glyph unicode="f" glyph-name="f" horiz-adv-x="256" d="M223 714Q114 714 114 587V520H228V501H114V0H95V501H22V520H95V587Q95 659 128 695T223 732H236V714H223Z" />
<glyph unicode="g" glyph-name="g" horiz-adv-x="438" d="M344 520H363V-30Q363 -106 327 -148T225 -190Q154 -190 113 -153T67 -50H86Q92 -108 127 -140T225 -172Q282 -172 313 -136T344 -30V92Q328 53 293 30T216 7Q151 7 107 53T62 170V367Q62 438 105 484T214
530Q257 530 291 509T344 449V520ZM216 25Q269 25 306 63T344 157V380Q344 435 307 473T217 512Q159 512 120 472T81 367V170Q81 106 120 66T216 25Z" />
<glyph unicode="h" glyph-name="h" horiz-adv-x="440" d="M243 530Q304 530 338 482T372 340V0H353V340Q353 425 324 468T241 512Q177 512 136 459T94 320V0H75V722H94V421Q115 472 155 501T243 530Z" />
<glyph unicode="i" glyph-name="i" horiz-adv-x="169" d="M110 622T85 622T60 647T85 672T110 647ZM75 0V520H94V0H75Z" />
<glyph unicode="j" glyph-name="j" horiz-adv-x="205" d="M130 622T105 622T80 647T105 672T130 647ZM-30 -188V-170Q33 -168 64 -133T96 -35V520H115V-35Q115 -104 78 -145T-30 -188Z" />
<glyph unicode="k" glyph-name="k" horiz-adv-x="397" d="M359 0L147 283L94 226V0H75V722H94V253L340 520H365L160 298L382 0H359Z" />
<glyph unicode="l" glyph-name="l" horiz-adv-x="171" d="M76 0V722H95V0H76Z" />
<glyph unicode="m" glyph-name="m" horiz-adv-x="690" d="M498 530Q558 530 590 482T622 340V0H603V340Q603 512 496 512Q436 512 397 459T358 320V0H339V340Q339 512 233 512Q173 512 134 459T94 320V0H75V520H94V423Q114 473 151 501T235 530Q331 530 352 409Q371
465 410 497T498 530Z" />
<glyph unicode="n" glyph-name="n" horiz-adv-x="439" d="M243 530Q304 530 337 482T371 340V0H352V340Q352 424 323 468T241 512Q177 512 136 459T94 320V0H75V520H94V421Q115 472 155 501T243 530Z" />
<glyph unicode="o" glyph-name="o" horiz-adv-x="430" d="M286 -10T215 -10T103 34T62 152V368Q62 441 103 485T215 530T327 486T368 368V152Q368 79 327 35ZM153 8T215 8T313 47T349 152V368Q349 433 313 472T215 512T117 473T81 368V152Q81 87 117 48Z" />
<glyph unicode="p" glyph-name="p" horiz-adv-x="439" d="M236 530Q295 530 336 485T377 370V150Q377 81 335 36T229 -10Q186 -10 148 13T94 75V-180H75V520H94V428Q110 476 147 503T236 530ZM358 150V370Q358 432 322 472T232 512Q177 512 136 468T94 350V140Q94
85 132 47T226 8Q282 8 320 48T358 150Z" />
<glyph unicode="q" glyph-name="q" horiz-adv-x="439" d="M345 520H364V-180H345V75Q329 37 291 14T210 -10Q147 -10 105 35T62 150V370Q62 439 103 484T203 530Q255 530 292 503T345 428V520ZM213 8Q268 8 306 46T345 140V350Q345 424 304 468T207 512Q153 512
117 472T81 370V150Q81 88 119 48T213 8Z" />
<glyph unicode="r" glyph-name="r" horiz-adv-x="313" d="M240 530Q276 530 294 524V504Q264 512 236 512Q175 512 135 458T94 320V3H75V520H94V422Q115 473 153 501T240 530Z" />
<glyph unicode="s" glyph-name="s" horiz-adv-x="384" d="M197 -10Q127 -10 87 27T43 135H62Q69 8 197 8Q248 8 284 37T320 115Q320 159 292 189T225 238T145 276T77 327T49 407Q49 461 88 495T186 530Q249 530 287 496T328 401H309Q306 455 274 483T186 512Q135
512 102 483T68 407Q68 365 96 336T163 288T243 250T311 197T339 115Q339 61 297 26T197 -10Z" />
<glyph unicode="t" glyph-name="t" horiz-adv-x="275" d="M226 16H244V-2H226Q97 -2 97 126V502H25V520H97V643H116V520H238V502H116V126Q116 16 226 16Z" />
<glyph unicode="u" glyph-name="u" horiz-adv-x="439" d="M345 520H364V0H345V99Q324 48 284 19T196 -10Q135 -10 102 38T68 180V520H87V180Q87 96 116 52T198 8Q262 8 303 61T345 200V520Z" />
<glyph unicode="v" glyph-name="v" horiz-adv-x="364" d="M323 520H343L192 0H172L21 520H41L142 167Q148 143 162 97T182 27Q188 51 202 97T222 167L323 520Z" />
<glyph unicode="w" glyph-name="w" horiz-adv-x="582" d="M541 520H561L431 0H411L306 413L291 475Q288 465 283 444T276 413L171 0H151L21 520H41L138 117L161 22Q165 38 172 69T184 117L281 510H301L398 117L421 22Q425 38 432 69T444 117L541 520Z" />
<glyph unicode="x" glyph-name="x" horiz-adv-x="353" d="M337 0H314L177 246L38 0H16L166 264L22 520H44L177 281L310 520H331L189 264L337 0Z" />
<glyph unicode="y" glyph-name="y" horiz-adv-x="369" d="M328 520H348L160 -87Q129 -180 70 -180H44V-162H69Q115 -162 143 -81L183 50L21 520H42L193 82L328 520Z" />
<glyph unicode="z" glyph-name="z" horiz-adv-x="334" d="M45 18H303V0H22V17L278 503H39V521H300V504L45 18Z" />
<glyph unicode="{" glyph-name="braceleft" horiz-adv-x="322" d="M152 484Q152 444 135 408T84 354Q117 336 134 300T152 224V20Q152 -31 182 -66T260 -101V-120Q205 -120 169 -80T132 20V224Q132 311 62 343V365Q132 397 132 484V680Q132 739 168 779T260 820V801Q213
799 183 765T152 680V484Z" />
<glyph unicode="|" glyph-name="bar" horiz-adv-x="172" d="M76 795H96V-77H76V795Z" />
<glyph unicode="}" glyph-name="braceright" horiz-adv-x="322" d="M190 476Q190 389 260 357V335Q190 303 190 216V20Q190 -39 154 -79T62 -120V-101Q109 -99 139 -65T170 20V216Q170 256 187 292T238 346Q205 364 188 400T170 476V680Q170 731 140 766T62 801V820Q117
820 153 780T190 680V476Z" />
<glyph unicode="~" glyph-name="asciitilde" horiz-adv-x="427" d="M357 329L369 317Q340 263 294 263Q266 263 213 290T137 318Q101 318 70 270L59 283Q91 335 137 335Q166 335 219 308T295 280Q329 280 357 329Z" />
</font>
</defs>
</svg>
