<?xml version="1.0" encoding="UTF-8" standalone="no"?>
<!-- Created with Inkscape (http://www.inkscape.org/) -->

<svg
   xmlns:dc="http://purl.org/dc/elements/1.1/"
   xmlns:cc="http://creativecommons.org/ns#"
   xmlns:rdf="http://www.w3.org/1999/02/22-rdf-syntax-ns#"
   xmlns:svg="http://www.w3.org/2000/svg"
   xmlns="http://www.w3.org/2000/svg"
   xmlns:sodipodi="http://sodipodi.sourceforge.net/DTD/sodipodi-0.dtd"
   xmlns:inkscape="http://www.inkscape.org/namespaces/inkscape"
   id="svg2"
   version="1.1"
   inkscape:version="0.91 r13725"
   width="375"
   height="375"
   viewBox="0 0 375 375"
   sodipodi:docname="dailydot.svg">
  <metadata
     id="metadata8">
    <rdf:RDF>
      <cc:Work
         rdf:about="">
        <dc:format>image/svg+xml</dc:format>
        <dc:type
           rdf:resource="http://purl.org/dc/dcmitype/StillImage" />
        <dc:title></dc:title>
      </cc:Work>
    </rdf:RDF>
  </metadata>
  <defs
     id="defs6" />
  <sodipodi:namedview
     pagecolor="#ffffff"
     bordercolor="#666666"
     borderopacity="1"
     objecttolerance="10"
     gridtolerance="10"
     guidetolerance="10"
     inkscape:pageopacity="0"
     inkscape:pageshadow="2"
     inkscape:window-width="1137"
     inkscape:window-height="689"
     id="namedview4"
     showgrid="false"
     inkscape:zoom="3.5600469"
     inkscape:cx="41.582001"
     inkscape:cy="195.93723"
     inkscape:window-x="65"
     inkscape:window-y="24"
     inkscape:window-maximized="0"
     inkscape:current-layer="svg2" />
  <path
     style="fill:#000000"
     d="M 167.05554,373.13609 C 124.22017,367.97718 86.228509,349.97408 56.927229,320.94961 19.268399,283.64656 1.1212981,240.53943 1.0008381,188.10049 c -0.0528,-22.98466 2.38208,-38.49886 9.3186099,-59.375 C 28.337189,74.499422 72.777239,30.124112 127.28563,11.929702 c 20.42847,-6.8188493 36.205,-9.2993993 59.14491,-9.2993993 22.93991,0 38.71644,2.48055 59.14491,9.2993993 54.70586,18.26033 98.73648,62.34002 117.11704,117.247558 6.78944,20.28186 9.18088,35.64265 9.17343,58.92323 -0.007,22.96652 -2.49984,38.87847 -9.26461,59.14491 -18.31671,54.87479 -62.17598,98.73264 -117.02586,117.02205 -23.51826,7.84205 -56.30019,11.54469 -78.51991,8.86864 z m -53.17059,-74.26536 c 12.20141,-11.63818 26.70421,-16.95339 46.38121,-16.99854 15.31999,-0.0351 32.23177,6.39834 42.50233,16.16849 4.53616,4.31513 5.58427,4.79142 7.88434,3.58278 1.459,-0.76666 15.16833,-9.83461 30.46521,-20.15097 l 27.8125,-18.75705 -0.0185,-62.61998 c -0.02,-67.63372 -0.34425,-71.64362 -6.82903,-84.4407 -3.6266,-7.15675 -10.5721,-14.30879 -17.17687,-17.687664 -10.78353,-5.51663 -16.78433,-6.11661 -61.1767,-6.11661 -42.57906,0 -51.92195,-0.75607 -58.80843,-4.75906 -4.00478,-2.32792 -6.52599,-7.71411 -5.6807,-12.135984 1.40419,-7.34555 -5.17833,-3.75721 -9.20886,5.020044 -2.86175,6.23202 -3.00813,16.70814 -0.35814,25.631644 1.55892,5.24943 3.68523,8.40284 9.76649,14.4841 11.03783,11.03782 14.87049,12.09533 46.0653,12.71028 l 24.69957,0.48692 -0.32457,59.59353 c -0.28456,52.25007 -0.55561,59.53335 -2.19956,59.1052 -1.03125,-0.26857 -6.52624,-0.76153 -12.21109,-1.09548 -17.12325,-1.00587 -32.05051,2.84766 -45.49282,11.74412 -13.29374,8.79815 -20.15776,18.38309 -24.15525,33.73053 -2.95539,11.34647 -1.63602,11.75625 8.06358,2.5044 z m 105.3575,-32.52432 c -4.2972,-2.99063 -10.89697,-6.77253 -14.66616,-8.40422 l -6.85309,-2.9667 -0.0213,-60.9375 -0.0213,-60.9375 14.35119,0 c 13.84723,0 14.37514,0.0987 15.03338,2.8125 0.37522,1.54687 0.52657,32.75065 0.33632,69.34172 l -0.34589,66.52923 -7.81309,-5.43753 z m -75.41452,-19.12382 c 19.36653,-9.81133 28.99837,-17.83046 31.22526,-25.9971 0.83002,-3.04393 1.36614,-18.5043 1.37038,-39.51893 0.006,-33.24121 0.10475,-34.64327 2.64947,-37.87832 1.45339,-1.84768 2.27423,-3.72769 1.82411,-4.17781 -0.89391,-0.89392 -22.43482,6.26518 -29.46661,9.79318 -5.46207,2.74045 -13.17355,10.64575 -14.92557,15.30075 -0.72844,1.93538 -1.32443,5.93538 -1.32443,8.88889 l 0,5.37001 -7.54438,0.6841 c -8.82942,0.80063 -15.4447,5.03669 -18.21325,11.66275 -2.06474,4.94162 -2.28621,16.39824 -0.41285,21.3565 1.32358,3.50314 7.1177,10.39388 8.73976,10.39388 0.46835,0 1.16372,-2.32739 1.54526,-5.17198 0.90697,-6.762 3.2869,-8.95172 9.87967,-9.09008 l 5.38079,-0.11294 0.38531,11.875 c 0.57105,17.5992 -0.34868,21.83807 -6.0897,28.06634 -4.28068,4.644 -5.0542,6.78652 -2.52477,6.99326 0.40104,0.0328 8.27674,-3.7641 17.50155,-8.4375 z"
     id="path4140"
     inkscape:connector-curvature="0" />
</svg>
