<?xml version="1.0" encoding="UTF-8" standalone="no"?>
<!-- Created with Inkscape (http://www.inkscape.org/) -->

<svg
   xmlns:dc="http://purl.org/dc/elements/1.1/"
   xmlns:cc="http://creativecommons.org/ns#"
   xmlns:rdf="http://www.w3.org/1999/02/22-rdf-syntax-ns#"
   xmlns:svg="http://www.w3.org/2000/svg"
   xmlns="http://www.w3.org/2000/svg"
   xmlns:sodipodi="http://sodipodi.sourceforge.net/DTD/sodipodi-0.dtd"
   xmlns:inkscape="http://www.inkscape.org/namespaces/inkscape"
   id="svg2"
   version="1.1"
   inkscape:version="0.91 r13725"
   width="400"
   height="400"
   viewBox="0 0 400 400"
   sodipodi:docname="gregghoush.svg">
  <metadata
     id="metadata8">
    <rdf:RDF>
      <cc:Work
         rdf:about="">
        <dc:format>image/svg+xml</dc:format>
        <dc:type
           rdf:resource="http://purl.org/dc/dcmitype/StillImage" />
        <dc:title />
      </cc:Work>
    </rdf:RDF>
  </metadata>
  <defs
     id="defs6" />
  <sodipodi:namedview
     pagecolor="#ffffff"
     bordercolor="#666666"
     borderopacity="1"
     objecttolerance="10"
     gridtolerance="10"
     guidetolerance="10"
     inkscape:pageopacity="0"
     inkscape:pageshadow="2"
     inkscape:window-width="1025"
     inkscape:window-height="686"
     id="namedview4"
     showgrid="false"
     inkscape:zoom="2.9132799"
     inkscape:cx="172.83374"
     inkscape:cy="123.74671"
     inkscape:window-x="75"
     inkscape:window-y="34"
     inkscape:window-maximized="0"
     inkscape:current-layer="svg2" />
  <path
     style="fill:#c42028;stroke:#c42027;stroke-opacity:1;fill-opacity:1"
     d="m 289.95145,379.71843 c 0,-0.24831 2.69369,-2.17337 5.98597,-4.27791 8.58192,-5.48586 26.76862,-20.27897 32.93167,-26.78669 7.26996,-7.67654 22.52974,-28.07702 28.42662,-38.00295 6.15184,-10.35506 16.59021,-35.72671 18.13362,-44.07582 0.64245,-3.47531 1.43091,-6.744 1.75214,-7.26376 0.32123,-0.51976 1.56939,-7.80529 2.77367,-16.19006 3.69377,-25.71743 1.23975,-57.26584 -6.35554,-81.70586 C 369.55744,148.4086 356.78762,122.82485 347.81803,109.76324 339.3397,97.416983 321.19569,78.874465 307.75776,68.823092 296.61712,60.490056 276.84987,49.181634 266.83496,45.412036 227.03405,30.431012 184.17529,29.180674 144.67523,41.848214 c -6.6992,2.148412 -13.84214,4.930889 -15.87319,6.183284 -2.03105,1.252395 -5.77799,2.993585 -8.32654,3.869313 -6.805,2.338319 -29.251046,17.559001 -40.594091,27.526885 -9.294896,8.168035 -14.756149,14.242808 -27.434169,30.516134 -12.383772,15.89563 -26.491589,49.89965 -30.470148,73.44209 -5.228792,30.94047 -3.125055,61.77271 6.226973,91.26213 4.341075,13.68856 17.801395,39.78795 26.50418,51.39128 10.840818,14.45394 29.847155,33.73475 41.270692,41.8667 10.083673,7.17815 13.234233,9.81891 9.561803,7.90218 -2.03519,-1.06223 -6.165866,-3.52414 -12.37327,-7.38917 -10.570069,-6.58143 -8.447441,-3.2248 2.45089,3.87574 4.022527,2.62079 7.09678,4.98198 6.83167,5.24709 -0.33104,0.33104 -4.526224,-2.0058 -9.770065,-5.24149 C 86.143683,368.2672 77.978114,362.8375 73.63576,359.43721 62.627272,350.81699 42.108701,328.74206 34.418959,317.24577 3.4940263,271.0125 -5.7422504,215.76604 8.2589307,160.77052 13.863284,138.75707 20.570584,123.3264 32.986707,103.88237 62.88349,57.063071 111.89892,24.717729 165.60679,16.366218 c 19.10439,-2.970712 32.43393,-3.645377 47.22197,-2.390106 18.59821,1.578695 43.29001,6.785841 56.65683,11.948113 30.69471,11.854308 60.3424,32.019052 77.76588,52.89211 24.03399,28.792355 37.75434,55.834785 45.53057,89.739485 3.52354,15.36282 3.66176,16.90468 3.63054,40.49757 -0.0294,22.26388 -0.30957,25.76469 -3.03604,37.94539 -5.81376,25.97339 -11.06794,39.04683 -25.23174,62.78161 -11.82873,19.82182 -31.91652,40.8811 -53.74503,56.34428 -12.4767,8.83842 -24.44832,15.49488 -24.44832,13.59376 z m -9.69318,-37.1997 c 0.38965,-0.63047 3.65888,-3.14991 7.26495,-5.59875 7.266,-4.93425 21.8102,-19.84559 29.45316,-30.19664 5.98229,-8.10196 16.2269,-27.02649 20.14261,-37.20879 2.65887,-6.914 6.49814,-22.13279 8.17002,-32.38574 1.26894,-7.78191 0.72983,-31.6476 -1.00787,-44.61668 -1.86745,-13.93751 -8.98222,-35.14795 -16.22668,-48.37473 -13.4642,-24.58266 -35.96592,-46.584215 -61.48894,-60.122148 -9.98083,-5.29404 -35.73446,-13.457948 -48.08783,-15.24386 -18.36522,-2.655038 -38.21182,-0.874982 -58.37668,5.235851 -25.85175,7.834207 -42.23363,17.557005 -61.277831,36.368967 -39.26838,38.78949 -53.361794,91.77711 -38.685894,145.44902 5.123603,18.73776 9.648074,28.87376 19.482956,43.64691 8.569199,12.87193 18.446306,23.87113 28.120929,31.31557 3.66861,2.82293 6.41821,5.3846 6.11021,5.6926 -0.64635,0.64636 -8.98726,-4.86482 -17.26158,-11.40541 l -5.703883,-4.50875 4.671332,4.41959 c 2.569223,2.43077 7.189371,6.62282 10.266991,9.31566 l 5.59566,4.89606 -9.12622,-5.96093 C 76.551549,316.42264 54.041224,283.23918 45.137818,248.98057 36.500162,215.74451 38.992306,180.90785 52.229471,149.84929 59.05284,133.83951 61.202093,130.12869 71.874809,115.93036 88.611801,93.664493 104.99006,79.9884 128.65523,68.517843 c 34.01851,-16.488844 71.6356,-20.405092 108.82049,-11.329109 30.29888,7.395262 51.9442,19.267078 73.99154,40.582154 14.42409,13.945032 23.21401,25.918052 31.02894,42.265512 27.95861,58.48447 19.78609,122.28488 -21.8623,170.67232 -9.66095,11.22418 -10.86471,12.28297 -27.51405,24.20058 -11.94107,8.54743 -14.30608,9.94666 -12.86158,7.60943 z m -1.9216,-46.37447 c 14.24643,-15.71651 22.44594,-30.24366 28.23012,-50.01563 5.50605,-18.82119 4.99189,-47.34604 -1.1805,-65.49363 -12.31502,-36.20768 -37.03461,-60.04016 -76.4664,-73.72229 -12.0063,-4.16598 -33.72988,-5.25129 -47.19018,-2.35763 -14.13076,3.0378 -16.20395,3.678 -26.8069,8.27805 -13.07144,5.67099 -31.6469,20.36737 -40.9461,32.39541 -8.6179,11.14678 -15.813779,25.31538 -19.668885,38.72776 -2.587327,9.00163 -3.215507,13.84388 -3.708471,28.58624 -0.55371,16.55854 -0.389815,18.54767 2.443829,29.66019 4.800103,18.82426 12.271567,33.10136 25.455457,48.64242 3.32211,3.91607 6.04019,7.50576 6.04019,7.9771 0,0.47133 -3.4236,-2.46497 -7.608,-6.52512 -6.19432,-6.01037 -6.92074,-6.48414 -3.9094,-2.54962 2.03424,2.65786 4.1717,5.12486 4.74992,5.48223 0.57823,0.35736 1.62738,1.77619 2.33145,3.15296 1.96606,3.84453 -10.97317,-9.00952 -18.52417,-18.40219 -9.216092,-11.46392 -15.000044,-23.97363 -19.337479,-41.82377 -3.428464,-14.10939 -3.57136,-15.60668 -2.993969,-31.37136 0.706066,-19.27799 3.46054,-31.15199 10.909128,-47.02712 11.3119,-24.10899 33.53378,-46.31643 56.62766,-56.59088 20.43843,-9.093048 27.49533,-10.736145 48.48301,-11.288573 16.96414,-0.446522 20.17458,-0.208563 32.51214,2.409804 9.94669,2.110963 16.55163,4.319741 24.15872,8.079009 22.42866,11.08376 33.39115,20.51126 47.67661,41.00085 14.12674,20.26192 19.67337,36.60656 20.72621,61.0753 0.58681,13.63769 0.33155,17.06852 -2.17923,29.29079 -5.01059,24.39103 -19.55336,49.27808 -37.06656,63.432 -11.47879,9.277 -11.93938,9.10629 -2.7582,-1.0223 z"
     id="path4142"
     inkscape:connector-curvature="0"
     sodipodi:nodetypes="ssssssssssssssssssssssssssssssssssssssssssssssssssssssscsscssssssssssssssssssssssssscssssssssssssss" />
  <path
     style="fill:#110d40;fill-opacity:1"
     d="m 150.04315,379.8847 c 0.36856,-3.29399 2.25444,-27.03641 4.19084,-52.76092 1.93641,-25.72452 3.7451,-47.87875 4.01933,-49.23163 0.49659,-2.44995 0.52261,-2.4469 6.49278,0.75932 3.29679,1.77051 9.77317,4.3565 14.39192,5.74664 l 8.39774,2.52754 -0.65021,5.26896 c -1.33541,10.8215 -2.16534,29.79567 -1.30327,29.79567 0.98585,0 28.14189,-8.01578 29.1165,-8.59446 0.33493,-0.19886 -0.0119,-7.45842 -0.77064,-16.13234 -0.75879,-8.67393 -1.41664,-16.28412 -1.46188,-16.91155 -0.0502,-0.69582 -3.75409,-0.988 -9.49635,-0.74908 -17.61865,0.73307 -33.23336,-5.09496 -45.18886,-16.86628 -8.94727,-8.80943 -11.99333,-13.78108 -16.30649,-26.61483 -3.3061,-9.83723 -3.49578,-11.28309 -2.89461,-22.06351 1.06536,-19.1042 7.72561,-32.2396 22.30154,-43.98336 10.12903,-8.16092 16.43176,-11.27425 29.78588,-14.71325 10.06761,-2.59263 19.27418,-2.55251 28.84112,0.12571 5.24143,1.4673 5.25748,2.05751 0.41758,15.35004 -3.08391,8.46979 -4.12159,10.20864 -5.92805,9.93365 -1.20437,-0.18335 -5.5878,-0.63254 -9.74094,-0.99821 -15.84654,-1.39522 -30.37592,7.20906 -37.1466,21.99821 -2.56893,5.61126 -2.85776,7.48744 -2.41227,15.66946 0.60859,11.17787 3.26846,17.78033 10.21833,25.3644 4.74502,5.17801 14.14613,10.48461 21.84226,12.32919 4.21683,1.01068 16.07246,-1.19295 21.60602,-4.01596 6.91474,-3.52764 15.27758,-12.30536 16.70907,-17.53802 1.26142,-4.61093 1.759,-17.68204 0.67312,-17.68204 -0.32335,0 -6.73233,3.0801 -14.24216,6.84466 -7.50984,3.76456 -14.09385,6.84466 -14.63116,6.84466 -1.02662,0 -8.18438,-13.94238 -8.18438,-15.94211 0,-0.95043 51.17888,-27.4074 53.01739,-27.4074 1.40762,0 6.18375,11.75078 8.34609,20.53398 4.70263,19.10168 -0.10929,38.08323 -13.36587,52.72425 -5.22022,5.7654 -5.83175,6.95758 -5.26654,10.26699 0.3517,2.05931 1.38173,13.75451 2.28895,25.98934 2.7251,36.75084 6.22604,81.28479 6.74842,85.84344 l 0.49019,4.27792 -14.72155,0 c -12.49282,0 -14.72154,-0.26587 -14.72154,-1.75613 0,-0.96587 -0.48405,-6.48438 -1.07565,-12.26335 -0.59161,-5.77898 -1.39574,-14.38224 -1.78696,-19.11835 -0.39122,-4.73612 -1.07146,-9.19389 -1.51167,-9.90614 -0.56669,-0.91694 -4.62451,-0.14859 -13.89872,2.63171 -7.20409,2.1597 -14.49856,4.24092 -16.20991,4.62493 -1.71136,0.38402 -3.57433,1.27803 -4.13994,1.98669 -0.5656,0.70868 -1.57739,8.1721 -2.24842,16.58538 -0.81155,10.17518 -1.71714,15.61218 -2.70473,16.23859 -0.81658,0.51795 -7.57569,0.9496 -15.02025,0.9592 l -13.53558,0.0175 0.67013,-5.98908 z m 88.57335,-4.27791 c 0,-0.62743 -0.77003,-1.14078 -1.71117,-1.14078 -0.94114,0 -1.71116,0.51335 -1.71116,1.14078 0,0.62742 0.77002,1.14077 1.71116,1.14077 0.94114,0 1.71117,-0.51335 1.71117,-1.14077 z m -74.51199,-5.91778 c -0.36416,-0.91004 -0.63448,-0.63973 -0.68921,0.68922 -0.0495,1.20256 0.22008,1.87634 0.59916,1.49727 0.37907,-0.37907 0.41959,-1.363 0.09,-2.18649 z m 7.20616,-1.49727 c 0,-0.94114 -0.77002,-1.71117 -1.71116,-1.71117 -1.78141,0 -2.26327,1.3492 -0.95065,2.66181 1.31262,1.31262 2.66181,0.83076 2.66181,-0.95064 z m 60.46117,-3.48966 c 0,-0.97817 -0.51335,-1.46122 -1.14078,-1.07345 -0.62743,0.38777 -1.14078,1.1881 -1.14078,1.77849 0,0.5904 0.51335,1.07345 1.14078,1.07345 0.62743,0 1.14078,-0.80032 1.14078,-1.77849 z m -67.82931,-1.71973 c 1.22779,-1.9866 -0.17057,-2.40732 -1.73519,-0.52207 -0.89978,1.08418 -0.98634,1.73874 -0.22989,1.73874 0.66722,0 1.55151,-0.54751 1.96508,-1.21667 z m 68.74106,-9.27398 c 0.31709,-1.64653 -0.0202,-1.72562 -2.45626,-0.57598 -1.55311,0.73295 -2.56312,1.75448 -2.24447,2.27008 0.96108,1.55507 4.30724,0.34915 4.70073,-1.6941 z m 2.05902,-4.03049 c -1.15962,-1.15961 -2.11642,0.58623 -1.16498,2.1257 0.71872,1.16293 0.98743,1.16383 1.37384,0.005 0.2642,-0.7926 0.17021,-1.75124 -0.20886,-2.13031 z m -6.3931,0.83182 c 0,-0.62743 -0.54365,-1.14078 -1.20811,-1.14078 -0.66446,0 -0.89083,0.51335 -0.50306,1.14078 0.38777,0.62743 0.93142,1.14078 1.20811,1.14078 0.27668,0 0.50306,-0.51335 0.50306,-1.14078 z m 3.42233,-1.14078 c 0,-0.62743 -0.51335,-1.14077 -1.14078,-1.14077 -0.62743,0 -1.14078,0.51334 -1.14078,1.14077 0,0.62743 0.51335,1.14078 1.14078,1.14078 0.62743,0 1.14078,-0.51335 1.14078,-1.14078 z m -45.94003,-12.09699 c -0.37908,-0.37907 -1.363,-0.41959 -2.18649,-0.09 -0.91003,0.36415 -0.63972,0.63447 0.68922,0.68921 1.20256,0.0495 1.87634,-0.22009 1.49727,-0.59916 z m 13.99828,-2.97586 c 0,-2.15231 1.70173,-2.7591 2.79172,-0.99546 0.35466,0.57384 -6e-5,1.27359 -0.78825,1.555 -0.7882,0.28139 -1.03805,0.93417 -0.55524,1.45059 0.48281,0.51643 2.23758,0.45837 3.8995,-0.12901 3.64445,-1.28809 5.10113,-4.28741 1.81161,-3.73012 -1.35521,0.22959 -3.32995,-0.91556 -5.07273,-2.94167 -1.6564,-1.92568 -3.41071,-2.97336 -4.18132,-2.4971 -2.10225,1.29926 -1.55223,2.76548 1.23913,3.30312 2.20073,0.42387 2.11938,0.51653 -0.57039,0.64972 -2.253,0.11157 -3.13714,-0.3912 -3.13714,-1.78396 0,-1.40971 -0.34248,-1.59684 -1.2541,-0.68522 -1.57029,1.57029 -0.18699,6.36713 1.5301,5.30591 0.79391,-0.49067 0.99644,-0.10678 0.55314,1.04842 -0.50233,1.30905 -0.0748,1.77548 1.5173,1.65554 1.30588,-0.0984 2.21667,-1.00467 2.21667,-2.20576 z m 9.90549,-5.67502 c -0.36416,-0.91004 -0.63448,-0.63973 -0.68921,0.68922 -0.0495,1.20256 0.22008,1.87634 0.59916,1.49727 0.37906,-0.37907 0.41958,-1.363 0.09,-2.18649 z m 5.15276,-2.29582 c -1.06472,-1.06472 -1.67314,-1.06472 -2.73786,0 -1.06472,1.06472 -0.76052,1.36894 1.36893,1.36894 2.12945,0 2.43365,-0.30422 1.36893,-1.36894 z m 14.60194,-2.05339 c 0,-0.62743 -0.51335,-1.14078 -1.14077,-1.14078 -0.62743,0 -1.14078,0.51335 -1.14078,1.14078 0,0.62742 0.51335,1.14077 1.14078,1.14077 0.62742,0 1.14077,-0.51335 1.14077,-1.14077 z m 6.27427,0 c 0.38778,-0.62743 -0.0953,-1.14078 -1.07344,-1.14078 -0.97817,0 -1.7785,0.51335 -1.7785,1.14078 0,0.62742 0.48305,1.14077 1.07345,1.14077 0.5904,0 1.39072,-0.51335 1.77849,-1.14077 z m 0.57039,-8.42278 c 0,-2.04633 -4.74725,-3.2903 -6.25459,-1.63895 -0.82476,0.90355 -0.61026,1.07858 0.74149,0.60505 1.10288,-0.38633 2.16621,0.0224 2.53095,0.97288 0.80341,2.09364 2.98215,2.13823 2.98215,0.061 z m -2.28155,-8.68887 c 0,-0.62743 -0.51335,-1.14078 -1.14078,-1.14078 -0.62742,0 -1.14077,0.51335 -1.14077,1.14078 0,0.62742 0.51335,1.14077 1.14077,1.14077 0.62743,0 1.14078,-0.51335 1.14078,-1.14077 z m -4.87206,-10.95622 c -0.37908,-0.37907 -1.363,-0.41959 -2.1865,-0.09 -0.91003,0.36416 -0.63972,0.63448 0.68923,0.68922 1.20256,0.0495 1.87634,-0.22009 1.49727,-0.59916 z m -4.25415,-4.37694 c 0,-0.27669 -0.51335,-0.82033 -1.14078,-1.20811 -0.62743,-0.38777 -1.14078,-0.16139 -1.14078,0.50306 0,0.66446 0.51335,1.20811 1.14078,1.20811 0.62743,0 1.14078,-0.22638 1.14078,-0.50306 z m 2.28155,-5.20082 c 0,-0.62743 -0.48305,-1.14078 -1.07345,-1.14078 -0.5904,0 -1.39072,0.51335 -1.77849,1.14078 -0.38777,0.62742 0.0953,1.14077 1.07345,1.14077 0.97817,0 1.77849,-0.51335 1.77849,-1.14077 z m -58.74185,-32.35733 c 1.16155,-1.16153 1.22769,-1.88499 0.26074,-2.85194 -2.05488,-2.05488 -3.12083,-1.52329 -3.12083,1.55635 0,3.23785 0.63169,3.524 2.86009,1.29559 z m -13.69747,-17.83685 c -0.55193,-0.89304 -1.20816,-0.95931 -1.96868,-0.19879 -0.62743,0.62743 -0.76821,1.74357 -0.31287,2.48034 0.55193,0.89305 1.20816,0.95932 1.96868,0.1988 0.62743,-0.62743 0.76821,-1.74358 0.31287,-2.48035 z m 5.1335,1.20811 c 0,-0.5904 -0.51335,-1.39072 -1.14078,-1.7785 -0.62743,-0.38777 -1.14078,0.0953 -1.14078,1.07345 0,0.97817 0.51335,1.77849 1.14078,1.77849 0.62743,0 1.14078,-0.48305 1.14078,-1.07344 z m -4.56311,-10.33432 c 0,-0.62743 -0.22638,-1.14078 -0.50306,-1.14078 -0.27668,0 -0.82033,0.51335 -1.20811,1.14078 -0.38777,0.62743 -0.16139,1.14077 0.50306,1.14077 0.66446,0 1.20811,-0.51334 1.20811,-1.14077 z m 92.14174,-14.61698 c 0.27787,-0.83362 -0.24366,-1.08857 -1.35467,-0.66223 -0.99357,0.38127 -1.80649,1.19441 -1.80649,1.807 0,1.49943 2.59273,0.56051 3.16116,-1.14477 z m -92.00249,-6.68703 c -1.34479,-2.31259 -1.66953,-1.57239 -0.56871,1.29631 0.39122,1.01952 0.95163,1.61336 1.24534,1.31964 0.29372,-0.29371 -0.0103,-1.47089 -0.67663,-2.61595 z m -2.4208,-1.63358 c 0,-0.56029 -1.0267,-1.01872 -2.28156,-1.01872 -2.22359,0 -2.97286,1.20999 -1.59963,2.58321 0.91389,0.9139 3.88119,-0.28221 3.88119,-1.56449 z m 2.28155,-6.72261 c 0,-0.62742 -0.48305,-1.14077 -1.07345,-1.14077 -0.5904,0 -1.39072,0.51335 -1.77849,1.14077 -0.38778,0.62743 0.0952,1.14078 1.07345,1.14078 0.97817,0 1.77849,-0.51335 1.77849,-1.14078 z m 3.99272,-2.28155 c -0.38778,-0.62743 -1.1881,-1.14078 -1.7785,-1.14078 -0.59039,0 -1.07344,0.51335 -1.07344,1.14078 0,0.62743 0.80032,1.14078 1.77849,1.14078 0.97817,0 1.46122,-0.51335 1.07345,-1.14078 z m 13.11893,-20.46665 c 0,-0.5904 -0.51335,-1.39072 -1.14078,-1.77849 -0.62742,-0.38778 -1.14077,0.0952 -1.14077,1.07344 0,0.97817 0.51335,1.7785 1.14077,1.7785 0.62743,0 1.14078,-0.48305 1.14078,-1.07345 z"
     id="path4140"
     inkscape:connector-curvature="0"
     sodipodi:nodetypes="csssscsscscsssssssscssssssssssssssssscsssscsscssscccsssssccsccssssssssssssssssscscccsssssssssscccccsscssssssssssscscccccsssssssssssssscscsccssssscccccssssssssssssssssssssssssssssssssscsccssssssssssssssscsss" />
  <g
     id="g3357"
     transform="translate(1008.7379,45.631068)">
    <path
       style="fill:#fbfafa"
       d="m -27.184469,228.15533 0,-228.1553324571002 228.155339,0 228.15533,0 0,228.1553324571002 0,228.15534 -228.15533,0 -228.155339,0 0,-228.15534 z"
       id="path3373"
       inkscape:connector-curvature="0" />
  </g>
  <g
     inkscape:groupmode="layer"
     id="layer1"
     inkscape:label="Layer 1" />
</svg>
