<?xml version="1.0" encoding="UTF-8" standalone="no"?>
<!-- Created with Inkscape (http://www.inkscape.org/) -->

<svg
   xmlns:svg="http://www.w3.org/2000/svg"
   xmlns="http://www.w3.org/2000/svg"
   version="1.1"
   width="305"
   height="45"
   id="svg4337">
  <defs
     id="defs4339" />
  <g
     transform="translate(-44.955185,-403.33709)"
     id="layer1">
    <path
       d="m 57.67805,415.7631 -10.3125,0 0,-9.6225 31.257499,0 0,9.6225 -10.3125,0 0,29.77 -10.6325,0 0,-29.77 z"
       id="path740"
       style="fill:#006f94;fill-opacity:1;fill-rule:nonzero;stroke:none" />
    <path
       d="m 79.84505,406.14134 10.1,0 0,10.6325 c 1.382499,-1.595 3.5625,-2.3925 8.2925,-2.3925 7.2825,0 8.7725,4.8375 8.7725,11.11 l 0,20.04 -10.2075,0 0,-17.435 c 0,-2.765 -0.3725,-3.9875 -2.9225,-3.9875 -3.35,0 -3.8825,1.2225 -3.8825,4.0925 l 0,17.33 -10.1525,0 0,-39.39 z"
       id="path752"
       style="fill:#006f94;fill-opacity:1;fill-rule:nonzero;stroke:none" />
    <path
       d="m 121.94655,445.9046 c 5.4225,0 9.3025,-0.9575 12.545,-2.71 l -3.7725,-7.655 c -2.075,0.9025 -4.1475,1.7525 -8.24,1.7525 -3.19,0 -4.2,-0.7425 -4.465,-3.4025 l 16.4775,0 c 0.2125,-11.64 0.585,-19.5075 -12.28,-19.5075 -10.685,0 -13.98,5.8475 -13.98,15.7875 0,10.1 2.4975,15.735 13.715,15.735 m 0.0525,-22.7 c 3.1375,0 3.455,1.17 3.5625,4.2525 l -7.6025,0 c 0.16,-3.03 0.9575,-4.2525 4.04,-4.2525"
       id="path756"
       style="fill:#006f94;fill-opacity:1;fill-rule:nonzero;stroke:none" />
    <path
       d="m 155.64855,446.01084 c 14.61751,0 17.22251,-9.6225 17.22251,-20.1475 0,-10.5775 -2.55,-20.2 -17.22251,-20.2 -14.6725,0 -17.2775,9.6225 -17.2775,20.2 0,10.525 2.605,20.1475 17.2775,20.1475 m 0,-9.3025 c -5.795,0 -6.5925,-3.9875 -6.5925,-10.4725 0,-6.4325 0.7975,-10.42 6.5925,-10.42 5.74001,0 6.53751,3.9875 6.53751,10.42 0,6.485 -0.7975,10.4725 -6.53751,10.4725"
       id="path760"
       style="fill:#006f94;fill-opacity:1;fill-rule:nonzero;stroke:none" />
    <path
       d="m 174.46656,445.21334 7.335,0.69 1.595,-2.3375 c 1.915,1.595 2.925,2.3375 8.665,2.3375 9.1975,0 10.74,-7.175 10.74,-15.735 0,-8.3975 -1.17,-15.7875 -10.26,-15.7875 -3.775,0 -6.38,0.4775 -7.975,2.8175 l 0,-11.0575 -10.1,0 0,39.0725 z m 14.405,-8.0275 c -3.615,0 -4.2525,-1.755 -4.2525,-6.5375 0,-4.89 0.7975,-6.805 4.2525,-6.805 3.19,0 3.67,1.8075 3.67,6.805 0,4.9975 -0.64,6.5375 -3.67,6.5375"
       id="path764"
       style="fill:#006f94;fill-opacity:1;fill-rule:nonzero;stroke:none" />
    <path
       d="m 202.5878,443.2466 3.7225,-7.4425 c 2.3375,1.1175 6.005,2.1275 9.46,2.1275 1.6475,0 2.2325,-0.585 2.2325,-1.49 0,-1.3275 -1.7,-1.435 -5.6875,-2.605 -5.5825,-1.595 -8.6125,-3.2425 -8.6125,-9.355 0,-7.7625 5.4225,-10.1 12.5475,-10.1 4.73,0 7.175,0.6375 10.2575,1.86 l -3.8275,8.08 c -1.9125,-0.7975 -4.41,-1.275 -6.8575,-1.275 -2.0725,0 -2.445,0.4775 -2.445,1.3275 0,1.2225 1.7025,1.33 4.8375,2.18 6.275,1.7025 9.25,3.5625 9.25,9.835 0,6.6975 -4.9425,9.515 -11.7475,9.515 -4.785,0 -9.57,-0.6375 -13.13,-2.6575"
       id="path768"
       style="fill:#006f94;fill-opacity:1;fill-rule:nonzero;stroke:none" />
    <path
       d="m 241.97754,445.9046 c 5.42252,0 9.30502,-0.9575 12.54502,-2.71 l -3.7725,-7.655 c -2.07502,0.9025 -4.14751,1.7525 -8.24,1.7525 -3.19002,0 -4.20002,-0.7425 -4.46501,-3.4025 l 16.4775,0 c 0.2125,-11.64 0.5875,-19.5075 -12.2775,-19.5075 -10.6875,0 -13.9825,5.8475 -13.9825,15.7875 0,10.1 2.49752,15.735 13.715,15.735 m 0.0526,-22.7 c 3.13748,0 3.45748,1.17 3.5625,4.2525 l -7.6025,0 c 0.16,-3.03 0.9575,-4.2525 4.04,-4.2525"
       id="path772"
       style="fill:#006f94;fill-opacity:1;fill-rule:nonzero;stroke:none" />
    <path
       d="m 256.27756,415.5506 8.08,-0.6375 0.85,2.6575 c 1.49,-1.755 3.5625,-2.87 8.56,-2.87 l 0,9.62 c -6.7,0 -7.2825,2.235 -7.2825,5.795 l 0,15.4175 -10.2075,0 0,-29.9825 z"
       id="path776"
       style="fill:#006f94;fill-opacity:1;fill-rule:nonzero;stroke:none" />
    <path
       d="m 274.02582,414.9656 10.685,0 4.625,17.8625 4.6775,-17.8625 10.04751,0 -9.3025,30.885 -11.48251,0 -9.25,-30.885 z"
       id="path780"
       style="fill:#006f94;fill-opacity:1;fill-rule:nonzero;stroke:none" />
    <path
       d="m 316.02082,445.9046 c 5.4225,0 9.305,-0.9575 12.545,-2.71 l -3.7725,-7.655 c -2.075,0.9025 -4.1475,1.7525 -8.24,1.7525 -3.19,0 -4.2,-0.7425 -4.465,-3.4025 l 16.47751,0 c 0.21249,-11.64 0.58749,-19.5075 -12.2775,-19.5075 -10.685,0 -13.9825,5.8475 -13.9825,15.7875 0,10.1 2.5,15.735 13.71499,15.735 m 0.0526,-22.7 c 3.1375,0 3.4575,1.17 3.5625,4.2525 l -7.6025,0 c 0.16,-3.03 0.9575,-4.2525 4.04,-4.2525"
       id="path784"
       style="fill:#006f94;fill-opacity:1;fill-rule:nonzero;stroke:none" />
    <path
       d="m 330.05482,415.5506 8.08,-0.6375 0.85,2.6575 c 1.48998,-1.755 3.56248,-2.87 8.56,-2.87 l 0,9.62 c -6.6975,0 -7.28251,2.235 -7.28251,5.795 l 0,15.4175 -10.20748,0 0,-29.9825 z"
       id="path788"
       style="fill:#006f94;fill-opacity:1;fill-rule:nonzero;stroke:none" />
  </g>
</svg>
