<?xml version="1.0" encoding="UTF-8" standalone="no"?>
<!-- Created with Inkscape (http://www.inkscape.org/) -->
<svg id="svg2" xmlns:rdf="http://www.w3.org/1999/02/22-rdf-syntax-ns#" xmlns="http://www.w3.org/2000/svg" height="81" viewBox="0 0 578 81" width="578" version="1.1" xmlns:cc="http://creativecommons.org/ns#" xmlns:dc="http://purl.org/dc/elements/1.1/">
 <metadata id="metadata8">
  <rdf:RDF>
   <cc:Work rdf:about="">
    <dc:format>image/svg+xml</dc:format>
    <dc:type rdf:resource="http://purl.org/dc/dcmitype/StillImage"/>
    <dc:title/>
   </cc:Work>
  </rdf:RDF>
 </metadata>
 <path id="path4138" d="m26.189 77.163c-10.206-4.296-17.252-10.963-21.752-20.579-2.2882-4.89-2.6307-6.92-2.6354-15.62-0.0049-9.1499 0.26254-10.565 3.1459-16.651 5.1945-10.965 13.986-18.219 25.808-21.297 24.033-6.2582 46.829 7.9262 50.626 31.501 2.7509 17.082-6.0431 33.96-21.608 41.471-5.2697 2.543-7.2818 2.9235-16.978 3.2106-9.7476 0.2886-11.638 0.05692-16.608-2.0348zm22.607-13.805c5.1775-1.4164 12.609-8.9774 14.269-14.517 6.0044-20.041-12.471-37.795-30.864-29.659-8.3437 3.6908-12.918 11.325-12.883 21.5 0.05762 16.482 13.715 26.989 29.478 22.677zm132 15.445c-6.837-1.4651-21.508-9.0257-21.495-11.077 0.003-0.41933 2.0887-3.3296 4.6355-6.4672l4.6306-5.7048 4.3535 2.9953c12.088 8.3166 28.169 8.1105 29.186-0.37401 0.4575-3.816-2.7057-6.3304-11.019-8.759-13.951-4.0756-16.503-5.0252-20.543-7.6448-5.8876-3.8176-8.2484-8.6071-8.2484-16.734 0-10.048 3.5862-15.884 12.51-20.359 10.461-5.2454 29.689-2.8163 39.926 5.0439 2.064 1.5848 2.239 1.1765-5.611 13.092-0.4223 0.64102-3.0429-0.16945-7-2.1649-13.262-6.6875-25.428-4.4208-23.232 4.3285 0.80391 3.203 3.6542 4.6812 15.389 7.9805 5.1307 1.4426 10.989 3.4698 13.018 4.5051 8.1926 4.1795 12.825 13.011 11.492 21.905-2.0182 13.458-11.651 20.235-28.4 19.979-4.1751-0.0638-8.4911-0.30886-9.5911-0.54458zm209.05-2.5894c-0.74394-1.7875-7.5011-18.55-15.016-37.25-7.5148-18.7-13.906-34.562-14.203-35.25-0.41039-0.94984 1.7256-1.25 8.895-1.25h9.4351l9.8218 26.517c5.402 14.584 9.9237 26.397 10.048 26.25 0.12454-0.14672 4.607-12.079 9.9609-26.517l9.7345-26.25h8.9962c8.1451 0 8.9356 0.16554 8.3556 1.75-0.35231 0.9625-7.2368 18.287-15.299 38.5l-14.658 36.75h-7.3592c-7.3585 0-7.3593-0.000283-8.7118-3.25zm-299.55-35.75v-38l18.25 0.006c21.312 0.007 28.613 0.97621 33.95 4.508 9.9083 6.557 11.368 19.424 3.226 28.436l-3.4661 3.8366 4.4239 2.5926c10.589 6.2058 11.5 22.65 1.7109 30.888-5.7809 4.8643-11.203 5.7333-35.776 5.7333h-22.318v-38zm44.737 21.355c2.9378-2.1854 3.8175-5.0094 2.8104-9.0223-0.99511-3.9648-5.8718-5.3324-19.015-5.3324h-11.532v8.6207 8.6207l12.487-0.41571c10.632-0.35396 12.897-0.72104 15.25-2.471zm-3.3148-31.279c4.3336-4.0755 3.0689-10.012-2.5503-11.97-1.7437-0.60785-7.3782-1.1052-12.521-1.1052h-9.3508v8.0885 8.0885l10.922-0.33848c9.9384-0.30799 11.154-0.55684 13.5-2.7628zm96.578 9.9243v-38h28.5 28.5v7.4793 7.4793l-20.25 0.2707-20.25 0.27071v7.5 7.5l20.25 0.2707 20.25 0.27071v6.9586 6.9586l-20.25 0.2707-20.25 0.27071-0.29206 7.75-0.29207 7.75h20.542 20.542v7.5 7.5h-28.5-28.5v-38zm67-0.11008v-38.11l21.75 0.40351c19.939 0.36992 22.165 0.59131 26.738 2.6589 8.973 4.0577 13.35 10.234 14.235 20.085 0.91686 10.213-2.7449 18.199-10.839 23.64l-4.5636 3.0678 7.4562 10.932c4.1009 6.0127 8.1308 11.945 8.9552 13.182l1.499 2.25h-9.9769-9.9769l-7.8881-11.981-7.8881-11.981-6.75-0.01914-6.75-0.01914v12 12h-8-8v-38.11zm43.084-4.6557c3.2759-3.6694 3.7612-7.6982 1.4628-12.143-2.1742-4.2044-6.6179-5.5798-18.047-5.5859l-10-0.005-0.28469 10.835-0.28469 10.835 12.119-0.33454 12.119-0.33454 2.9156-3.2658zm104.92 4.7658v-38h28.5 28.5v7.4793 7.4793l-20.25 0.2707-20.25 0.27071v7.5 7.5l20.25 0.2707 20.25 0.27071v6.9586 6.9586l-20.25 0.2707-20.25 0.27071-0.29206 7.75-0.29207 7.75h20.542 20.542v7.5 7.5h-28.5-28.5v-38zm67 0v-38h18.168c21.966 0 29.276 1.1013 35.595 5.3622 6.6876 4.5097 9.4591 10.383 9.4591 20.046 0 11.416-3.26 16.901-13.747 23.128-1.5542 0.92288-0.74863 2.4866 7.3406 14.25l9.0864 13.213h-9.9313-9.9313l-8.0395-12-8.0395-12h-6.4803-6.4802v12 12h-8.5-8.5v-38zm41.128-2.5664c5.8923-3.047 7.1654-11.93 2.3572-16.447-3.0022-2.8204-8.1242-3.9334-18.236-3.9627l-8.25-0.0238v11 11h10.55c7.6204 0 11.391-0.43494 13.579-1.5664z"/>
</svg>
