<?xml version="1.0" standalone="no"?>
<!DOCTYPE svg PUBLIC "-//W3C//DTD SVG 20010904//EN"
 "http://www.w3.org/TR/2001/REC-SVG-20010904/DTD/svg10.dtd">
<svg version="1.0" xmlns="http://www.w3.org/2000/svg"
 width="600.000000pt" height="600.000000pt" viewBox="0 0 600.000000 600.000000"
 preserveAspectRatio="xMidYMid meet">
<metadata>
Created by potrace 1.11, written by Peter Selinger 2001-2013
</metadata>
<g transform="translate(0.000000,600.000000) scale(0.100000,-0.100000)"
fill="#000000" stroke="none">
<path d="M1000 5228 c-163 -26 -294 -163 -320 -333 -7 -47 -10 -301 -8 -750
l3 -680 23 -58 c81 -199 285 -299 483 -237 113 35 206 123 250 237 20 52 22
77 23 233 l1 175 -77 3 -78 3 0 -149 c0 -217 -29 -289 -134 -338 -139 -65
-294 11 -326 159 -8 36 -10 257 -8 732 3 675 3 680 25 720 45 84 118 129 208
129 90 0 163 -45 208 -129 20 -36 22 -58 25 -229 l4 -188 71 7 c39 3 75 9 79
11 12 7 10 278 -2 354 -35 218 -234 363 -450 328z"/>
<path d="M2010 5228 c-163 -26 -294 -163 -320 -333 -7 -47 -10 -301 -8 -750
l3 -680 23 -58 c81 -199 285 -299 483 -237 112 35 204 122 251 237 l23 58 3
680 c2 449 -1 703 -8 750 -34 222 -232 369 -450 333z m167 -177 c44 -22 83
-62 109 -111 18 -33 19 -74 22 -715 2 -475 0 -696 -8 -732 -16 -72 -60 -129
-123 -159 -140 -65 -295 11 -327 159 -8 36 -10 257 -8 732 3 641 4 682 22 715
65 123 198 170 313 111z"/>
<path d="M2750 4196 l0 -1016 208 0 c161 0 221 4 263 16 139 41 247 147 291
286 17 56 18 105 18 707 0 695 0 692 -52 795 -27 53 -101 130 -154 161 -86 50
-124 57 -356 62 l-218 5 0 -1016z m470 828 c55 -25 112 -86 134 -145 15 -40
16 -107 14 -704 -3 -735 2 -685 -73 -760 -63 -63 -85 -69 -242 -73 l-143 -4 0
857 0 857 133 -4 c105 -3 141 -8 177 -24z"/>
<path d="M3810 4195 l0 -1015 335 0 335 0 0 80 0 80 -255 0 -255 0 0 385 0
385 180 0 180 0 0 80 0 80 -180 0 -180 0 0 390 0 390 245 0 246 0 -3 78 -3 77
-322 3 -323 2 0 -1015z"/>
<path d="M5269 2898 c-46 -155 -670 -2244 -675 -2260 -5 -16 2 -18 63 -18 l68
0 348 1163 c191 639 347 1168 347 1175 0 8 -20 12 -65 12 l-64 0 -22 -72z"/>
<path d="M1000 2828 c-163 -26 -294 -163 -320 -333 -7 -47 -10 -301 -8 -750
l3 -680 23 -58 c81 -199 285 -299 483 -237 113 35 206 123 250 237 20 52 22
77 23 233 l1 175 -77 3 -78 3 0 -149 c0 -217 -29 -289 -134 -338 -139 -65
-294 11 -326 159 -8 36 -10 257 -8 732 3 675 3 680 25 720 45 84 118 129 208
129 90 0 163 -45 208 -129 20 -36 22 -58 25 -229 l4 -188 71 7 c39 3 75 9 79
11 12 7 10 278 -2 354 -35 218 -234 363 -450 328z"/>
<path d="M2010 2828 c-163 -26 -294 -163 -320 -333 -7 -47 -10 -301 -8 -750
l3 -680 23 -58 c81 -199 285 -299 483 -237 112 35 204 122 251 237 l23 58 3
680 c2 449 -1 703 -8 750 -34 222 -232 369 -450 333z m167 -177 c44 -22 83
-62 109 -111 18 -33 19 -74 22 -715 2 -475 0 -696 -8 -732 -16 -72 -60 -129
-123 -159 -140 -65 -295 11 -327 159 -8 36 -10 257 -8 732 3 641 4 682 22 715
65 123 198 170 313 111z"/>
<path d="M2750 1796 l0 -1016 208 0 c161 0 221 4 263 16 139 41 247 147 291
286 17 56 18 105 18 707 0 695 0 692 -52 795 -27 53 -101 130 -154 161 -86 50
-124 57 -356 62 l-218 5 0 -1016z m470 828 c55 -25 112 -86 134 -145 15 -40
16 -107 14 -704 -3 -735 2 -685 -73 -760 -63 -63 -85 -69 -242 -73 l-143 -4 0
857 0 857 133 -4 c105 -3 141 -8 177 -24z"/>
<path d="M3810 1795 l0 -1015 335 0 335 0 0 80 0 80 -255 0 -255 0 0 385 0
385 180 0 180 0 0 80 0 80 -180 0 -180 0 0 390 0 390 245 0 246 0 -3 78 -3 77
-322 3 -323 2 0 -1015z"/>
</g>
</svg>
