<?xml version="1.0" encoding="utf-8"?>
<!-- Generator: Adobe Illustrator 16.0.0, SVG Export Plug-In . SVG Version: 6.00 Build 0)  -->
<!DOCTYPE svg PUBLIC "-//W3C//DTD SVG 1.1//EN" "http://www.w3.org/Graphics/SVG/1.1/DTD/svg11.dtd">
<svg version="1.1" id="Layer_1" xmlns="http://www.w3.org/2000/svg" xmlns:xlink="http://www.w3.org/1999/xlink" x="0px" y="0px"
	 width="22px" height="22px" viewBox="0 0 22 22" enable-background="new 0 0 22 22" xml:space="preserve">
<path fill="#00FF00" d="M20.785,2.39c0.447,0.323,0.549,0.948,0.227,1.396c-0.18,0.248-0.455,0.375-0.738,0.397L22,4.579V0h-4.523
	L20.785,2.39z"/>
<path fill="#00FF00" d="M3.831,23.441c0.711,0.715,0.711,1.86,0,2.57c-0.354,0.355-0.819,0.533-1.285,0.533
	c-0.465,0-0.931-0.178-1.286-0.533L0,24.753v15.086l0.342-0.762c0.409-0.92,1.487-1.325,2.401-0.92
	c0.733,0.33,1.121,1.085,1.042,1.843h2.212l-1.666-3.821c-0.401-0.92,0.021-1.995,0.94-2.392c0.921-0.403,1.993,0.023,2.393,0.943
	L9.963,40h2.26c0.062-0.597,0.386-1.156,0.964-1.445l6.909-3.452c0.897-0.447,1.991-0.087,2.438,0.812
	c0.451,0.898,0.086,1.991-0.812,2.441L18.43,40h9.612c0.009-0.082-0.011-0.158,0.009-0.239l1.817-7.636
	c0.234-0.978,1.215-1.576,2.189-1.348c0.977,0.234,1.58,1.215,1.348,2.189L31.731,40h3.512l-0.065-0.076
	c-0.661-0.755-0.586-1.903,0.17-2.565c0.753-0.661,1.903-0.586,2.567,0.174L40,39.915v-7.489l-1.098,1.063
	C38.548,33.828,38.093,34,37.637,34c-0.478,0-0.95-0.187-1.309-0.556c-0.696-0.721-0.679-1.869,0.039-2.57L40,27.365v-6.914
	l-4.41-4.655c-0.692-0.729-0.661-1.88,0.067-2.57c0.731-0.689,1.882-0.658,2.57,0.069L40,15.165v-3.11l-4.407-1.011
	c-0.979-0.224-1.589-1.2-1.365-2.179c0.197-0.86,0.979-1.403,1.827-1.376c-0.133-0.055-0.267-0.109-0.391-0.199l-6.548-4.727
	c-0.813-0.588-1.002-1.724-0.414-2.538c0.013-0.01,0.026-0.015,0.033-0.026h-3.692l-0.946,2.925
	c-0.254,0.768-0.965,1.256-1.733,1.256c-0.187,0-0.375-0.029-0.562-0.089c-0.957-0.311-1.478-1.336-1.169-2.291L21.22,0H6.14
	l0.822,2.051c0.373,0.933-0.08,1.991-1.013,2.364c-0.224,0.089-0.451,0.13-0.677,0.13c-0.722,0-1.403-0.432-1.688-1.144L2.224,0H0
	v19.611L3.831,23.441z M2.8,19.42c-0.283-0.964,0.271-1.973,1.234-2.257l7.455-2.181c0.966-0.28,1.974,0.272,2.256,1.233
	c0.282,0.965-0.271,1.973-1.234,2.257l-7.454,2.182c-0.171,0.05-0.344,0.073-0.511,0.073C3.758,20.728,3.033,20.213,2.8,19.42z
	 M3.54,33.384c-0.342,0.292-0.76,0.434-1.176,0.434c-0.516,0-1.027-0.217-1.387-0.643c-0.649-0.766-0.555-1.914,0.21-2.562l6-5.09
	c0.765-0.646,1.914-0.555,2.563,0.209c0.65,0.768,0.555,1.914-0.21,2.564L3.54,33.384z M16.473,27.656l-4,6.728
	c-0.342,0.573-0.945,0.89-1.565,0.89c-0.316,0-0.636-0.082-0.928-0.261c-0.863-0.51-1.145-1.629-0.632-2.488l3.999-6.726
	c0.514-0.868,1.629-1.15,2.493-0.639C16.702,25.679,16.985,26.793,16.473,27.656z M27.406,33.696
	c-0.359,0.44-0.881,0.668-1.408,0.668c-0.405,0-0.81-0.135-1.149-0.417l-5.999-4.906c-0.777-0.639-0.892-1.78-0.257-2.557
	c0.637-0.777,1.78-0.89,2.558-0.259l6.002,4.909C27.926,31.775,28.043,32.919,27.406,33.696z M36.111,21.637
	c0.909-0.44,1.992-0.063,2.431,0.839c0.438,0.901,0.066,1.992-0.836,2.431l-7.09,3.453c-0.258,0.126-0.529,0.187-0.797,0.187
	c-0.675,0-1.325-0.375-1.636-1.021c-0.438-0.905-0.063-1.997,0.838-2.436L36.111,21.637z M28.179,10.085
	c0.951-0.308,1.979,0.227,2.281,1.184l2.363,7.454c0.306,0.957-0.224,1.978-1.183,2.285c-0.183,0.055-0.364,0.085-0.551,0.085
	c-0.772,0-1.482-0.492-1.732-1.271l-2.361-7.454C26.69,11.411,27.22,10.389,28.179,10.085z M19.903,15.269l2.364-7.454
	c0.304-0.955,1.322-1.491,2.281-1.184c0.959,0.304,1.488,1.326,1.183,2.282l-2.361,7.455c-0.247,0.775-0.961,1.27-1.733,1.27
	c-0.187,0-0.365-0.027-0.55-0.086C20.131,17.247,19.6,16.226,19.903,15.269z M25.497,21.552c0.946,0.33,1.458,1.36,1.133,2.312
	c-0.263,0.755-0.964,1.23-1.721,1.23c-0.195,0-0.393-0.03-0.588-0.098l-7.454-2.542c-0.949-0.327-1.458-1.356-1.133-2.311
	c0.324-0.949,1.353-1.458,2.309-1.133L25.497,21.552z M13.825,1.31c0.985-0.195,1.941,0.439,2.138,1.425l1.638,8.182
	c0.196,0.985-0.442,1.941-1.426,2.141c-0.12,0.023-0.24,0.034-0.358,0.034c-0.85,0-1.607-0.598-1.779-1.462l-1.638-8.182
	C12.202,2.463,12.84,1.506,13.825,1.31z M0.704,7.622c0.408-0.918,1.481-1.331,2.401-0.918l8.546,3.818
	c0.916,0.411,1.327,1.485,0.918,2.402c-0.302,0.676-0.966,1.078-1.66,1.078c-0.248,0-0.5-0.052-0.741-0.158l-8.545-3.818
	C0.706,9.615,0.295,8.538,0.704,7.622z"/>
</svg>
