<?xml version="1.0" encoding="utf-8"?>
<!-- Generator: Adobe Illustrator 16.0.0, SVG Export Plug-In . SVG Version: 6.00 Build 0)  -->
<!DOCTYPE svg PUBLIC "-//W3C//DTD SVG 1.1//EN" "http://www.w3.org/Graphics/SVG/1.1/DTD/svg11.dtd">
<svg version="1.1" id="Layer_1" xmlns="http://www.w3.org/2000/svg" xmlns:xlink="http://www.w3.org/1999/xlink" x="0px" y="0px"
	 width="22px" height="22px" viewBox="0 0 22 22" enable-background="new 0 0 22 22" xml:space="preserve">
<path fill="#00FF00" d="M37.637,34.909c-0.712,0-1.424-0.276-1.96-0.831c-1.048-1.081-1.021-2.809,0.063-3.856L40,26.098v-4.325
	l-5.071-5.349c-1.033-1.098-0.988-2.824,0.106-3.86c0.253-0.236,0.536-0.4,0.839-0.525l-0.483-0.11
	c-1.469-0.337-2.387-1.801-2.049-3.268c0.124-0.542,0.404-1.007,0.781-1.363l-5.536-3.999C27.524,2.537,27.181,1.15,27.685,0H26
	l-1.043,3.206c-0.372,1.152-1.441,1.885-2.594,1.885c-0.278,0-0.562-0.043-0.844-0.134c-1.433-0.465-2.216-2.005-1.75-3.437
	L20.264,0H7.118l0.686,1.714C8.364,3.113,7.684,4.7,6.286,5.26C5.953,5.393,5.611,5.455,5.272,5.455
	c-1.081,0-2.105-0.647-2.533-1.714L1.246,0H0v7.029c0.682-1.212,2.179-1.736,3.477-1.157l8.545,3.818
	c0.315,0.141,0.584,0.338,0.813,0.567l-1.327-6.633c-0.295-1.476,0.661-2.913,2.138-3.209c1.479-0.293,2.914,0.661,3.209,2.138
	l1.637,8.182c0.296,1.476-0.662,2.915-2.139,3.209C16.171,13.981,15.992,14,15.815,14c-0.916,0-1.748-0.475-2.248-1.216
	c-0.038,0.172-0.093,0.344-0.167,0.511c-0.146,0.325-0.362,0.591-0.604,0.825c0.847,0.26,1.553,0.925,1.821,1.842
	c0.424,1.445-0.405,2.96-1.851,3.384l-7.455,2.182c-0.256,0.074-0.514,0.109-0.767,0.109c-1.18,0-2.269-0.772-2.616-1.966
	c-0.423-1.443,0.406-2.958,1.851-3.382l5.827-1.705l-8.356-3.729C0.7,10.607,0.276,10.196,0,9.709v8.616l4.473,4.473
	c1.051,1.052,1.055,2.74,0.033,3.808l2.093-1.776c1.147-0.973,2.869-0.834,3.844,0.314c0.974,1.149,0.833,2.871-0.317,3.845
	l-4.443,3.768c0.986-0.114,1.967,0.306,2.543,1.118c-0.096-0.607-0.001-1.25,0.338-1.818l4-6.722c0.77-1.296,2.443-1.726,3.738-0.95
	c0.738,0.438,1.183,1.174,1.295,1.966c0.082-0.153,0.178-0.302,0.292-0.44c0.953-1.168,2.67-1.335,3.839-0.384l6,4.909
	c1.164,0.954,1.335,2.673,0.383,3.838c-0.539,0.654-1.324,1.001-2.112,1.001c-0.607,0-1.218-0.202-1.726-0.618l-5.998-4.907
	c-0.555-0.455-0.877-1.083-0.967-1.74c-0.021,0.037-0.031,0.074-0.053,0.112l-4,6.728c-0.512,0.859-1.419,1.335-2.348,1.335
	c-0.475,0-0.954-0.123-1.391-0.384c-0.24-0.142-0.438-0.328-0.616-0.521L10.956,40h0.342c0.061-0.934,0.586-1.812,1.481-2.259
	l6.91-3.451c1.344-0.668,2.988-0.123,3.659,1.218c0.673,1.35,0.128,2.992-1.22,3.665L20.464,40h6.642
	c0.011-0.149,0.025-0.3,0.061-0.451l1.818-7.635c0.343-1.465,1.814-2.376,3.285-2.021c1.466,0.348,2.37,1.821,2.021,3.29L32.665,40
	h1.476c-0.575-1.094-0.356-2.476,0.607-3.325c1.136-0.993,2.858-0.876,3.85,0.257L40,38.533v-4.844l-0.467,0.451
	C39.004,34.655,38.32,34.909,37.637,34.909z M27.905,9.218c1.435-0.46,2.969,0.34,3.423,1.776l2.361,7.455
	c0.462,1.437-0.339,2.968-1.775,3.422c-0.273,0.089-0.552,0.128-0.824,0.128c-1.157,0-2.231-0.742-2.599-1.902l-2.363-7.455
	C25.671,11.208,26.467,9.672,27.905,9.218z M19.038,14.995l2.364-7.455c0.455-1.435,1.981-2.235,3.424-1.776
	c1.435,0.455,2.231,1.988,1.775,3.424l-2.363,7.454c-0.367,1.162-1.441,1.904-2.602,1.904c-0.27,0-0.55-0.043-0.821-0.13
	C19.377,17.964,18.582,16.431,19.038,14.995z M24.909,26c-0.293,0-0.589-0.045-0.881-0.145l-7.455-2.546
	c-1.426-0.488-2.186-2.033-1.7-3.459c0.487-1.426,2.036-2.189,3.462-1.7l7.453,2.546c1.426,0.49,2.188,2.038,1.707,3.462
	C27.104,25.288,26.044,26,24.909,26z M31.016,29.18c-0.387,0.188-0.794,0.275-1.193,0.275c-1.012,0-1.981-0.563-2.455-1.532
	c-0.659-1.356-0.097-2.992,1.257-3.647l7.09-3.455c1.356-0.659,2.988-0.099,3.646,1.257c0.654,1.35,0.097,2.986-1.257,3.647
	L31.016,29.18z"/>
<path fill="#00FF00" d="M3.114,37.329C3.607,37.55,4,37.901,4.276,38.324L3.5,36.545c-0.3-0.686-0.292-1.432-0.04-2.077
	c-0.354,0.156-0.72,0.259-1.094,0.259c-0.774,0-1.542-0.327-2.081-0.962C0.173,33.635,0.082,33.494,0,33.353v4.631
	C0.772,37.145,2.014,36.84,3.114,37.329z"/>
<path fill="#00FF00" d="M2.545,27.454c-0.698,0-1.396-0.265-1.929-0.796L0,26.037v4.62c0.153-0.271,0.347-0.524,0.6-0.737
	l3.756-3.187C3.84,27.198,3.198,27.454,2.545,27.454z"/>
<polygon fill="#00FF00" points="40,13.842 40,12.987 38.967,12.751 "/>
<path fill="#00FF00" d="M4.625,39.13C4.7,39.41,4.729,39.705,4.71,40h0.295L4.625,39.13z"/>
<path fill="#00FF00" d="M38.324,3.607c1.146,0.829,1.445,2.377,0.751,3.573L40,7.393V0h-6.671L38.324,3.607z"/>
</svg>
