<?xml version="1.0" encoding="utf-8"?>
<!-- Generator: Adobe Illustrator 16.0.0, SVG Export Plug-In . SVG Version: 6.00 Build 0)  -->
<!DOCTYPE svg PUBLIC "-//W3C//DTD SVG 1.1//EN" "http://www.w3.org/Graphics/SVG/1.1/DTD/svg11.dtd">
<svg version="1.1" id="Layer_1" xmlns="http://www.w3.org/2000/svg" xmlns:xlink="http://www.w3.org/1999/xlink" x="0px" y="0px"
	 width="22px" height="22px" viewBox="0 0 22 22" enable-background="new 0 0 22 22" xml:space="preserve">
<path fill="#00FF00" d="M3.187,24.084c0.355,0.354,0.355,0.931,0,1.285c-0.176,0.178-0.409,0.267-0.642,0.267
	c-0.233,0-0.465-0.089-0.644-0.265L0,23.468V40h0.923l0.248-0.554c0.204-0.455,0.74-0.668,1.202-0.458
	c0.394,0.177,0.583,0.604,0.5,1.012h4.116l-1.822-4.182c-0.2-0.463,0.01-0.996,0.471-1.196c0.462-0.197,0.996,0.011,1.196,0.469
	L8.975,40h4.15c0.055-0.263,0.211-0.501,0.47-0.632l6.908-3.454c0.452-0.226,0.997-0.04,1.221,0.407
	c0.223,0.451,0.041,0.998-0.406,1.222L16.396,40h12.536c0.004-0.011,0-0.02,0.002-0.032l1.818-7.633
	c0.113-0.488,0.599-0.797,1.098-0.673c0.489,0.113,0.791,0.607,0.671,1.097L30.796,40h5.654l-0.591-0.675
	c-0.332-0.378-0.291-0.951,0.085-1.282c0.377-0.328,0.952-0.291,1.282,0.086L38.863,40H40v-8.839l-1.731,1.676
	c-0.176,0.167-0.404,0.256-0.632,0.256c-0.239,0-0.474-0.096-0.653-0.276c-0.35-0.359-0.339-0.937,0.023-1.286L40,28.629v-9.5
	l-3.75-3.96c-0.343-0.363-0.33-0.939,0.037-1.286c0.364-0.345,0.939-0.33,1.286,0.035L40,16.485v-5.363l-4.204-0.964
	c-0.49-0.113-0.796-0.6-0.683-1.089c0.114-0.487,0.594-0.8,1.091-0.682L40,9.258V0H24.087l-0.859,2.644
	c-0.124,0.385-0.479,0.628-0.864,0.628c-0.093,0-0.19-0.014-0.278-0.043c-0.479-0.155-0.737-0.668-0.583-1.146L22.173,0H5.16
	l0.956,2.389c0.188,0.465-0.04,0.994-0.507,1.182C5.5,3.617,5.385,3.636,5.272,3.636c-0.359,0-0.701-0.216-0.843-0.571L3.202,0H0
	v20.896L3.187,24.084z M8.951,27.603l-6,5.089c-0.171,0.146-0.378,0.217-0.588,0.217c-0.257,0-0.514-0.108-0.694-0.321
	c-0.326-0.382-0.278-0.957,0.106-1.28l6-5.091c0.383-0.328,0.954-0.278,1.282,0.105C9.382,26.704,9.334,27.276,8.951,27.603z
	 M15.69,27.192l-3.999,6.729c-0.172,0.283-0.473,0.443-0.782,0.443c-0.158,0-0.318-0.041-0.463-0.128
	c-0.432-0.256-0.573-0.814-0.317-1.246l4-6.729c0.257-0.43,0.814-0.573,1.246-0.316C15.806,26.202,15.947,26.762,15.69,27.192z
	 M36.511,22.457c0.446-0.216,0.994-0.035,1.215,0.418c0.22,0.45,0.033,0.994-0.417,1.214l-7.089,3.454
	c-0.127,0.063-0.266,0.094-0.4,0.094c-0.336,0-0.657-0.19-0.813-0.512c-0.221-0.45-0.036-0.994,0.415-1.214L36.511,22.457z
	 M29.442,0.56c0.295-0.409,0.865-0.498,1.271-0.206l6.547,4.728c0.406,0.295,0.498,0.862,0.204,1.27
	c-0.178,0.245-0.458,0.376-0.737,0.376c-0.187,0-0.371-0.057-0.532-0.173l-6.547-4.728C29.242,1.534,29.149,0.966,29.442,0.56z
	 M28.452,10.951c0.486-0.151,0.99,0.113,1.14,0.593l2.365,7.455c0.152,0.478-0.114,0.988-0.592,1.14
	c-0.092,0.03-0.187,0.043-0.275,0.043c-0.383,0-0.742-0.247-0.866-0.635l-2.363-7.454C27.706,11.615,27.976,11.104,28.452,10.951z
	 M26.704,33.121c-0.181,0.221-0.443,0.334-0.704,0.334c-0.201,0-0.407-0.065-0.574-0.204l-5.998-4.909
	c-0.39-0.318-0.448-0.888-0.127-1.278c0.317-0.389,0.89-0.444,1.277-0.125l6,4.908C26.964,32.159,27.021,32.732,26.704,33.121z
	 M20.771,15.543l2.365-7.454c0.149-0.48,0.657-0.748,1.14-0.593c0.481,0.151,0.746,0.661,0.592,1.14l-2.363,7.455
	c-0.121,0.389-0.483,0.637-0.867,0.637c-0.092,0-0.187-0.014-0.274-0.043C20.884,16.532,20.618,16.021,20.771,15.543z
	 M17.749,19.867l7.453,2.544c0.478,0.163,0.731,0.68,0.566,1.154c-0.126,0.378-0.482,0.616-0.861,0.616
	c-0.099,0-0.196-0.017-0.293-0.048l-7.456-2.543c-0.475-0.161-0.729-0.68-0.567-1.154C16.754,19.96,17.271,19.702,17.749,19.867z
	 M14.004,2.2c0.496-0.104,0.971,0.22,1.069,0.713l1.636,8.182c0.101,0.492-0.22,0.971-0.713,1.068c-0.06,0.013-0.12,0.02-0.178,0.02
	c-0.424,0-0.804-0.299-0.892-0.732l-1.636-8.182C13.19,2.776,13.511,2.298,14.004,2.2z M12.873,16.473
	c0.142,0.482-0.137,0.987-0.616,1.128l-7.455,2.181c-0.086,0.026-0.173,0.037-0.257,0.037c-0.394,0-0.756-0.259-0.873-0.653
	c-0.142-0.483,0.137-0.986,0.616-1.129l7.454-2.182C12.229,15.715,12.73,15.991,12.873,16.473z M1.532,7.993
	c0.206-0.456,0.741-0.667,1.202-0.458l8.546,3.818c0.458,0.205,0.663,0.742,0.458,1.201c-0.149,0.337-0.482,0.537-0.829,0.537
	c-0.124,0-0.25-0.025-0.371-0.078L1.993,9.195C1.534,8.989,1.327,8.451,1.532,7.993z"/>
</svg>
