<?xml version="1.0" encoding="utf-8"?>
<!-- Generator: Adobe Illustrator 16.0.0, SVG Export Plug-In . SVG Version: 6.00 Build 0)  -->
<!DOCTYPE svg PUBLIC "-//W3C//DTD SVG 1.1//EN" "http://www.w3.org/Graphics/SVG/1.1/DTD/svg11.dtd">
<svg version="1.1" id="Layer_1" xmlns="http://www.w3.org/2000/svg" xmlns:xlink="http://www.w3.org/1999/xlink" x="0px" y="0px"
	 width="22px" height="22px" viewBox="0 0 22 22" enable-background="new 0 0 22 22" xml:space="preserve">
<path fill="#00FF00" d="M0,0v22h22V0H0z M20.521,1.153c0.045-0.054,0.123-0.06,0.177-0.015l0.403,0.341
	c0.053,0.045,0.06,0.124,0.016,0.176C21.092,1.685,21.057,1.7,21.021,1.7c-0.028,0-0.059-0.01-0.082-0.029L20.536,1.33
	C20.482,1.285,20.479,1.206,20.521,1.153z M20.521,6.059c0.043-0.054,0.123-0.06,0.176-0.016l0.404,0.34
	c0.053,0.044,0.061,0.123,0.017,0.176c-0.024,0.03-0.062,0.045-0.097,0.045c-0.027,0-0.057-0.01-0.08-0.029l-0.404-0.34
	C20.482,6.19,20.477,6.112,20.521,6.059z M20.334,13.283c-0.053-0.044-0.061-0.123-0.016-0.176c0.043-0.053,0.123-0.062,0.176-0.017
	l0.406,0.341c0.053,0.043,0.061,0.123,0.016,0.176c-0.023,0.028-0.061,0.045-0.096,0.045c-0.028,0-0.057-0.01-0.08-0.029
	L20.334,13.283z M20.611,15.5c-0.024,0.029-0.061,0.045-0.096,0.045c-0.029,0-0.058-0.01-0.08-0.029l-0.406-0.34
	c-0.053-0.044-0.062-0.123-0.016-0.176c0.043-0.052,0.121-0.061,0.176-0.016l0.406,0.34C20.648,15.368,20.656,15.447,20.611,15.5z
	 M19.812,2.53c0.045-0.054,0.123-0.06,0.177-0.015l0.401,0.34c0.053,0.044,0.06,0.123,0.016,0.176
	c-0.025,0.029-0.061,0.044-0.096,0.044c-0.028,0-0.059-0.01-0.082-0.03l-0.401-0.34C19.773,2.662,19.77,2.583,19.812,2.53z
	 M19.562,3.98c0.043-0.054,0.123-0.06,0.176-0.016l0.404,0.34c0.053,0.044,0.061,0.123,0.017,0.176
	c-0.024,0.03-0.062,0.045-0.097,0.045c-0.027,0-0.057-0.01-0.08-0.029l-0.404-0.34C19.523,4.111,19.518,4.033,19.562,3.98z
	 M18.463,0.409c0.043-0.053,0.123-0.059,0.176-0.015l0.404,0.34c0.053,0.044,0.061,0.124,0.016,0.176
	c-0.023,0.029-0.061,0.044-0.096,0.044c-0.027,0-0.057-0.01-0.08-0.029l-0.404-0.34C18.426,0.541,18.419,0.461,18.463,0.409z
	 M18.156,6.229c0.043-0.054,0.123-0.06,0.176-0.015l0.406,0.341c0.053,0.044,0.06,0.123,0.016,0.176
	c-0.023,0.029-0.061,0.044-0.096,0.044c-0.028,0-0.057-0.01-0.08-0.029l-0.406-0.341C18.119,6.36,18.111,6.282,18.156,6.229z
	 M17.943,9.533c-0.024,0.03-0.062,0.045-0.096,0.045c-0.029,0-0.058-0.01-0.08-0.029l-0.406-0.34
	c-0.053-0.044-0.062-0.123-0.016-0.176c0.043-0.054,0.122-0.06,0.176-0.016l0.405,0.34C17.98,9.402,17.988,9.48,17.943,9.533z
	 M17.693,15.671c-0.024,0.029-0.061,0.045-0.096,0.045c-0.029,0-0.058-0.01-0.08-0.028l-0.408-0.342
	c-0.053-0.044-0.062-0.123-0.017-0.176c0.044-0.053,0.123-0.061,0.177-0.016l0.407,0.341C17.73,15.539,17.738,15.618,17.693,15.671z
	 M17.234,1.904c0.043-0.054,0.121-0.06,0.176-0.015l0.406,0.341c0.053,0.044,0.06,0.123,0.016,0.176
	c-0.023,0.029-0.061,0.044-0.096,0.044c-0.028,0-0.057-0.01-0.08-0.029l-0.406-0.34C17.197,2.036,17.189,1.958,17.234,1.904z
	 M16.973,3.64c0.043-0.053,0.123-0.06,0.176-0.016l0.406,0.34c0.053,0.044,0.062,0.123,0.016,0.176
	c-0.023,0.03-0.06,0.045-0.096,0.045c-0.027,0-0.057-0.01-0.08-0.029l-0.405-0.34C16.936,3.772,16.928,3.693,16.973,3.64z
	 M16.85,10.484c0.045-0.053,0.123-0.06,0.176-0.016l0.408,0.341c0.053,0.044,0.062,0.124,0.017,0.176
	c-0.024,0.03-0.06,0.045-0.097,0.045c-0.027,0-0.057-0.01-0.08-0.029l-0.407-0.341C16.812,10.616,16.805,10.537,16.85,10.484z
	 M16.32,7.896l0.406,0.341c0.053,0.044,0.06,0.124,0.016,0.176c-0.024,0.029-0.061,0.044-0.096,0.044
	c-0.028,0-0.058-0.01-0.08-0.029l-0.405-0.341c-0.054-0.044-0.06-0.124-0.017-0.176C16.189,7.857,16.268,7.851,16.32,7.896z
	 M15.68,6.173l0.407,0.339c0.054,0.044,0.062,0.123,0.017,0.176c-0.024,0.03-0.061,0.045-0.097,0.045
	c-0.028,0-0.057-0.009-0.08-0.029L15.52,6.365c-0.053-0.044-0.061-0.123-0.016-0.176C15.548,6.136,15.626,6.128,15.68,6.173z
	 M14.936,1.092c0.045-0.054,0.123-0.06,0.176-0.016l0.406,0.34c0.053,0.044,0.062,0.123,0.017,0.176
	c-0.024,0.03-0.062,0.045-0.097,0.045c-0.027,0-0.057-0.01-0.08-0.029l-0.405-0.34C14.898,1.223,14.891,1.145,14.936,1.092z
	 M15.102,9.873c-0.024,0.03-0.062,0.045-0.097,0.045c-0.028,0-0.057-0.01-0.08-0.029l-0.405-0.34
	c-0.053-0.044-0.06-0.123-0.016-0.176c0.044-0.054,0.122-0.06,0.176-0.016l0.405,0.34C15.139,9.742,15.146,9.82,15.102,9.873z
	 M14.415,3.042c0.044-0.054,0.122-0.061,0.176-0.016l0.405,0.34c0.053,0.044,0.061,0.123,0.016,0.176
	c-0.023,0.03-0.061,0.045-0.096,0.045c-0.027,0-0.057-0.01-0.08-0.029l-0.404-0.34C14.378,3.173,14.37,3.095,14.415,3.042z
	 M14.303,7.327c0.045-0.053,0.122-0.06,0.176-0.016l0.406,0.34c0.053,0.044,0.061,0.123,0.016,0.176
	c-0.023,0.03-0.06,0.045-0.096,0.045c-0.027,0-0.057-0.01-0.08-0.029l-0.406-0.34C14.266,7.459,14.258,7.38,14.303,7.327z
	 M14.133,4.972c-0.023,0.03-0.061,0.045-0.096,0.045c-0.028,0-0.057-0.01-0.08-0.029l-0.406-0.34
	c-0.053-0.044-0.061-0.123-0.016-0.176c0.044-0.054,0.122-0.06,0.176-0.016l0.406,0.34C14.17,4.841,14.178,4.919,14.133,4.972z
	 M13.119,0.549c0.044-0.053,0.123-0.06,0.176-0.015l0.405,0.34c0.053,0.044,0.06,0.123,0.016,0.176
	c-0.024,0.029-0.062,0.044-0.096,0.044c-0.028,0-0.058-0.01-0.08-0.029l-0.405-0.34C13.082,0.681,13.075,0.603,13.119,0.549z
	 M12.084,14.041c0.044-0.053,0.123-0.061,0.176-0.016l0.406,0.34c0.053,0.044,0.061,0.123,0.016,0.176
	c-0.023,0.029-0.06,0.045-0.096,0.045c-0.027,0-0.057-0.01-0.08-0.029l-0.406-0.34C12.047,14.173,12.039,14.094,12.084,14.041z
	 M12.02,6.434c-0.027,0-0.057-0.01-0.08-0.029l-0.404-0.34c-0.053-0.044-0.06-0.123-0.016-0.176
	c0.043-0.053,0.123-0.059,0.176-0.015l0.404,0.34c0.053,0.044,0.061,0.123,0.017,0.176C12.091,6.419,12.055,6.434,12.02,6.434z
	 M12.6,12.003c-0.053-0.044-0.06-0.123-0.016-0.176c0.044-0.054,0.123-0.06,0.176-0.017l0.405,0.34
	c0.053,0.045,0.062,0.123,0.017,0.177c-0.024,0.028-0.062,0.045-0.097,0.045c-0.028,0-0.058-0.011-0.08-0.029L12.6,12.003z
	 M12.979,9.157c-0.024,0.029-0.062,0.044-0.097,0.044c-0.028,0-0.057-0.01-0.08-0.029l-0.405-0.34
	c-0.053-0.044-0.06-0.123-0.016-0.176c0.044-0.053,0.122-0.059,0.176-0.015l0.405,0.34C13.016,9.025,13.021,9.104,12.979,9.157z
	 M11.971,2.701c0.043-0.053,0.122-0.06,0.178-0.015l0.403,0.341c0.054,0.044,0.06,0.124,0.015,0.176
	c-0.023,0.029-0.061,0.044-0.096,0.044c-0.027,0-0.057-0.01-0.08-0.029l-0.404-0.341C11.934,2.833,11.927,2.753,11.971,2.701z
	 M11.315,0.548c0.045-0.052,0.124-0.059,0.176-0.015l0.405,0.342c0.054,0.045,0.06,0.124,0.016,0.176
	c-0.025,0.029-0.061,0.044-0.096,0.044c-0.028,0-0.059-0.01-0.082-0.029L11.33,0.724C11.278,0.68,11.271,0.601,11.315,0.548z
	 M11.314,4.148c0.044-0.052,0.125-0.059,0.176-0.015l0.406,0.341c0.053,0.044,0.06,0.123,0.016,0.176
	c-0.023,0.029-0.061,0.044-0.096,0.044c-0.028,0-0.058-0.01-0.08-0.029l-0.406-0.34C11.277,4.28,11.27,4.202,11.314,4.148z
	 M10.911,7.497c0.045-0.053,0.123-0.06,0.176-0.016l0.406,0.34c0.053,0.044,0.062,0.123,0.016,0.176
	c-0.024,0.03-0.06,0.045-0.096,0.045c-0.028,0-0.057-0.01-0.08-0.029l-0.406-0.34C10.874,7.629,10.867,7.55,10.911,7.497z
	 M10.128,1.718c0.045-0.052,0.124-0.059,0.176-0.015l0.403,0.34c0.053,0.045,0.06,0.124,0.015,0.176
	c-0.025,0.029-0.06,0.044-0.096,0.044c-0.028,0-0.057-0.01-0.081-0.029l-0.403-0.34C10.091,1.85,10.084,1.771,10.128,1.718z
	 M9.821,3.171c0.044-0.053,0.124-0.059,0.176-0.015l0.406,0.341c0.053,0.044,0.06,0.123,0.015,0.176
	c-0.025,0.029-0.06,0.044-0.096,0.044c-0.028,0-0.057-0.01-0.081-0.029l-0.405-0.34C9.784,3.303,9.777,3.225,9.821,3.171z
	 M9.202,6.508C9.247,6.456,9.326,6.45,9.378,6.493l0.406,0.341C9.837,6.879,9.844,6.958,9.8,7.011
	C9.775,7.04,9.74,7.055,9.704,7.055c-0.028,0-0.057-0.01-0.081-0.029L9.217,6.685C9.165,6.64,9.158,6.562,9.202,6.508z
	 M9.238,10.144l0.406,0.34c0.053,0.044,0.06,0.123,0.016,0.176c-0.024,0.03-0.06,0.045-0.096,0.045c-0.028,0-0.057-0.01-0.08-0.029
	l-0.406-0.34c-0.053-0.044-0.06-0.123-0.016-0.176C9.107,10.106,9.186,10.1,9.238,10.144z M9.102,5.08
	c0.053,0.045,0.06,0.124,0.015,0.176C9.092,5.285,9.057,5.3,9.021,5.3c-0.028,0-0.057-0.01-0.081-0.029l-0.403-0.34
	c-0.053-0.045-0.06-0.124-0.015-0.176C8.568,4.703,8.646,4.696,8.698,4.74L9.102,5.08z M8.003,3.172
	C8.048,3.121,8.127,3.113,8.18,3.157l0.405,0.34C8.637,3.542,8.644,3.62,8.6,3.673c-0.025,0.03-0.06,0.045-0.096,0.045
	c-0.028,0-0.057-0.01-0.081-0.029l-0.405-0.34C7.966,3.304,7.959,3.226,8.003,3.172z M7.238,0.55
	c0.044-0.053,0.124-0.059,0.176-0.016l0.406,0.34C7.874,0.919,7.88,0.998,7.836,1.05C7.812,1.08,7.776,1.095,7.74,1.095
	c-0.028,0-0.057-0.01-0.08-0.029l-0.406-0.34C7.201,0.681,7.194,0.603,7.238,0.55z M7.035,10.484
	c0.044-0.053,0.124-0.06,0.176-0.016l0.406,0.34c0.053,0.044,0.06,0.123,0.016,0.176c-0.024,0.03-0.06,0.045-0.096,0.045
	c-0.028,0-0.057-0.01-0.08-0.029l-0.406-0.34C6.998,10.616,6.991,10.537,7.035,10.484z M6.96,9.031c-0.029,0-0.057-0.01-0.081-0.029
	L6.476,8.661C6.423,8.616,6.416,8.537,6.46,8.484c0.045-0.053,0.124-0.059,0.176-0.015L7.04,8.81C7.093,8.855,7.1,8.934,7.056,8.987
	C7.031,9.016,6.996,9.031,6.96,9.031z M7.441,16.178c0.044-0.052,0.124-0.06,0.176-0.016l0.405,0.34
	c0.053,0.044,0.06,0.123,0.015,0.176c-0.025,0.029-0.06,0.045-0.096,0.045c-0.028,0-0.057-0.01-0.081-0.029l-0.405-0.34
	C7.404,16.311,7.397,16.23,7.441,16.178z M6.838,5.655l0.404,0.341C7.295,6.04,7.302,6.12,7.257,6.172
	c-0.025,0.029-0.06,0.044-0.096,0.044c-0.028,0-0.057-0.01-0.081-0.029l-0.403-0.34C6.625,5.802,6.618,5.723,6.662,5.67
	C6.707,5.618,6.786,5.611,6.838,5.655z M4.395,3.64C4.438,3.587,4.519,3.581,4.57,3.625l0.406,0.34
	c0.053,0.044,0.06,0.123,0.016,0.176c-0.024,0.03-0.06,0.045-0.096,0.045c-0.028,0-0.057-0.01-0.08-0.029L4.41,3.816
	C4.357,3.771,4.35,3.693,4.395,3.64z M4.856,7.231c-0.053-0.044-0.06-0.124-0.015-0.176C4.887,7.003,4.965,6.997,5.018,7.04
	l0.406,0.341c0.053,0.044,0.06,0.124,0.015,0.176c-0.025,0.029-0.06,0.044-0.096,0.044c-0.028,0-0.057-0.01-0.081-0.029L4.856,7.231
	z M5.079,10.473c-0.025,0.029-0.06,0.044-0.096,0.044c-0.028,0-0.057-0.01-0.081-0.029l-0.406-0.341
	c-0.053-0.044-0.06-0.124-0.015-0.176c0.044-0.052,0.124-0.059,0.176-0.015l0.406,0.341C5.116,10.341,5.123,10.42,5.079,10.473z
	 M4.037,6.39c-0.024,0.029-0.06,0.044-0.096,0.044c-0.028,0-0.057-0.01-0.081-0.029l-0.406-0.34C3.402,6.02,3.395,5.941,3.439,5.888
	C3.483,5.836,3.563,5.83,3.616,5.873l0.406,0.34C4.074,6.258,4.081,6.336,4.037,6.39z M3.236,0.638
	C3.28,0.586,3.36,0.579,3.413,0.623l0.406,0.34c0.053,0.044,0.06,0.123,0.015,0.176C3.81,1.168,3.774,1.183,3.738,1.183
	c-0.028,0-0.057-0.01-0.081-0.029l-0.406-0.34C3.199,0.77,3.192,0.691,3.236,0.638z M2.966,7.911
	C3.012,7.858,3.09,7.853,3.143,7.896l0.406,0.342c0.053,0.044,0.06,0.124,0.015,0.176c-0.025,0.029-0.06,0.044-0.096,0.044
	c-0.028,0-0.057-0.01-0.081-0.029L2.981,8.087C2.929,8.042,2.922,7.963,2.966,7.911z M2.093,4.474
	c0.053,0.044,0.06,0.123,0.016,0.176c-0.024,0.03-0.06,0.045-0.096,0.045c-0.028,0-0.057-0.01-0.08-0.029l-0.406-0.34
	C1.474,4.282,1.467,4.203,1.511,4.15c0.044-0.053,0.124-0.06,0.176-0.016L2.093,4.474z M2.108,10.479
	c-0.025,0.029-0.06,0.044-0.096,0.044c-0.028,0-0.057-0.01-0.081-0.029l-0.404-0.34c-0.053-0.044-0.06-0.124-0.015-0.176
	C1.558,9.926,1.636,9.92,1.688,9.963l0.404,0.34C2.146,10.348,2.152,10.427,2.108,10.479z M1.055,1.74
	C1.1,1.688,1.179,1.682,1.231,1.725l0.406,0.341C1.69,2.11,1.697,2.189,1.652,2.242c-0.025,0.029-0.06,0.044-0.096,0.044
	c-0.028,0-0.057-0.01-0.081-0.029L1.07,1.917C1.018,1.872,1.011,1.793,1.055,1.74z M0.838,12.809
	c-0.024,0.029-0.06,0.045-0.096,0.045c-0.028,0-0.057-0.01-0.08-0.028l-0.406-0.341c-0.053-0.043-0.06-0.123-0.016-0.176
	c0.045-0.053,0.124-0.06,0.176-0.016l0.406,0.34C0.875,12.677,0.882,12.756,0.838,12.809z M0.838,7.997
	c-0.024,0.03-0.06,0.045-0.096,0.045c-0.028,0-0.057-0.01-0.08-0.029l-0.406-0.34C0.203,7.629,0.196,7.55,0.24,7.497
	c0.045-0.053,0.124-0.06,0.176-0.016l0.406,0.34C0.875,7.865,0.882,7.944,0.838,7.997z M0.904,6.243
	C0.949,6.191,1.028,6.184,1.08,6.228l0.406,0.341c0.053,0.044,0.06,0.123,0.015,0.176c-0.025,0.029-0.06,0.044-0.096,0.044
	c-0.028,0-0.057-0.01-0.081-0.029L0.919,6.419C0.867,6.375,0.86,6.296,0.904,6.243z M1.906,21.081
	c-0.025,0.028-0.06,0.044-0.096,0.044c-0.028,0-0.057-0.01-0.081-0.029l-0.404-0.341c-0.053-0.045-0.06-0.124-0.015-0.177
	s0.125-0.059,0.176-0.016l0.404,0.342C1.943,20.949,1.95,21.027,1.906,21.081z M2.161,16.678c-0.025,0.029-0.06,0.045-0.096,0.045
	c-0.028,0-0.057-0.01-0.081-0.029l-0.406-0.34c-0.053-0.045-0.06-0.123-0.015-0.177c0.045-0.052,0.124-0.06,0.176-0.016l0.406,0.341
	C2.198,16.546,2.205,16.625,2.161,16.678z M2.522,14.566l-0.407-0.34c-0.053-0.045-0.06-0.123-0.016-0.177
	c0.045-0.053,0.124-0.059,0.176-0.016l0.407,0.34c0.053,0.044,0.06,0.123,0.016,0.176c-0.025,0.029-0.061,0.046-0.096,0.046
	C2.574,14.596,2.545,14.586,2.522,14.566z M2.667,18.257c-0.053-0.044-0.06-0.123-0.016-0.176c0.044-0.054,0.124-0.06,0.176-0.017
	l0.406,0.34c0.053,0.045,0.06,0.123,0.016,0.177c-0.024,0.028-0.06,0.045-0.096,0.045c-0.028,0-0.057-0.01-0.08-0.028L2.667,18.257z
	 M3.766,20.164c-0.025,0.029-0.06,0.045-0.096,0.045c-0.028,0-0.057-0.01-0.081-0.029l-0.405-0.341
	c-0.053-0.045-0.06-0.123-0.015-0.176c0.045-0.054,0.124-0.06,0.176-0.017l0.405,0.342C3.803,20.033,3.81,20.111,3.766,20.164z
	 M4.208,14.191c-0.024,0.029-0.06,0.045-0.096,0.045c-0.028,0-0.057-0.01-0.08-0.029l-0.406-0.34
	c-0.053-0.044-0.06-0.123-0.016-0.176c0.045-0.053,0.123-0.06,0.176-0.017l0.406,0.341C4.245,14.061,4.252,14.139,4.208,14.191z
	 M4.294,11.832c-0.053-0.045-0.06-0.123-0.015-0.176c0.045-0.055,0.124-0.059,0.176-0.016l0.405,0.34
	c0.053,0.045,0.06,0.123,0.015,0.177c-0.025,0.03-0.06,0.045-0.096,0.045c-0.028,0-0.057-0.011-0.081-0.029L4.294,11.832z
	 M5.276,17.172c-0.028,0-0.057-0.01-0.081-0.029l-0.404-0.34c-0.053-0.045-0.06-0.123-0.015-0.176
	c0.045-0.055,0.124-0.059,0.176-0.016l0.404,0.34c0.053,0.045,0.06,0.123,0.015,0.176C5.347,17.157,5.312,17.172,5.276,17.172z
	 M6.002,21.434c-0.024,0.029-0.06,0.045-0.096,0.045c-0.028,0-0.057-0.01-0.08-0.028L5.42,21.109
	c-0.053-0.043-0.06-0.123-0.016-0.176c0.044-0.052,0.123-0.059,0.176-0.016l0.406,0.34C6.04,21.302,6.046,21.381,6.002,21.434z
	 M6.002,19.216c-0.024,0.029-0.06,0.045-0.096,0.045c-0.028,0-0.057-0.01-0.08-0.028l-0.406-0.34
	c-0.053-0.045-0.06-0.123-0.016-0.177c0.044-0.053,0.123-0.059,0.176-0.016l0.406,0.34C6.04,19.084,6.046,19.163,6.002,19.216z
	 M6.002,5.961c-0.024,0.03-0.06,0.045-0.096,0.045c-0.028,0-0.057-0.01-0.08-0.029L5.42,5.637C5.367,5.593,5.36,5.514,5.404,5.461
	C5.449,5.408,5.527,5.402,5.58,5.445l0.406,0.34C6.04,5.829,6.046,5.908,6.002,5.961z M6.054,2.53C6.1,2.479,6.178,2.472,6.23,2.515
	l0.406,0.341C6.689,2.9,6.696,2.979,6.651,3.032c-0.025,0.029-0.06,0.044-0.096,0.044c-0.028,0-0.057-0.01-0.081-0.029l-0.405-0.34
	C6.017,2.662,6.01,2.583,6.054,2.53z M6.257,12.307c0.046-0.053,0.124-0.06,0.176-0.016l0.405,0.342
	c0.053,0.045,0.06,0.124,0.015,0.178c-0.025,0.028-0.06,0.043-0.096,0.043c-0.028,0-0.057-0.01-0.081-0.028l-0.405-0.343
	C6.22,12.438,6.213,12.357,6.257,12.307z M7.258,14.881c-0.024,0.029-0.06,0.045-0.096,0.045c-0.028,0-0.057-0.01-0.08-0.029
	l-0.405-0.34c-0.053-0.043-0.06-0.123-0.016-0.176c0.044-0.052,0.125-0.061,0.176-0.016l0.405,0.34
	C7.295,14.749,7.302,14.828,7.258,14.881z M7.441,18.346c0.044-0.053,0.124-0.061,0.176-0.017l0.406,0.341
	c0.053,0.044,0.06,0.123,0.015,0.176c-0.025,0.029-0.06,0.045-0.096,0.045c-0.028,0-0.057-0.01-0.081-0.029l-0.406-0.34
	C7.404,18.477,7.397,18.396,7.441,18.346z M8.089,20.889c-0.025,0.029-0.06,0.045-0.096,0.045c-0.028,0-0.057-0.01-0.081-0.029
	l-0.405-0.34c-0.053-0.045-0.06-0.123-0.015-0.176c0.045-0.054,0.124-0.06,0.176-0.017l0.405,0.341
	C8.126,20.758,8.133,20.836,8.089,20.889z M8.6,8.167c-0.025,0.03-0.06,0.045-0.096,0.045c-0.028,0-0.057-0.01-0.081-0.029
	l-0.405-0.34C7.966,7.798,7.959,7.72,8.003,7.667c0.045-0.053,0.124-0.06,0.177-0.016l0.405,0.34C8.637,8.036,8.644,8.114,8.6,8.167
	z M8.777,12.406c0.046-0.053,0.124-0.059,0.176-0.016l0.405,0.34c0.053,0.043,0.06,0.123,0.015,0.176
	c-0.025,0.029-0.06,0.045-0.096,0.045c-0.028,0-0.057-0.01-0.081-0.029l-0.405-0.34C8.74,12.538,8.733,12.459,8.777,12.406z
	 M9.062,14.211c0.044-0.052,0.123-0.061,0.176-0.016l0.407,0.34c0.053,0.044,0.06,0.123,0.016,0.176
	c-0.024,0.029-0.06,0.045-0.096,0.045c-0.028,0-0.057-0.01-0.08-0.029l-0.407-0.34C9.024,14.343,9.017,14.264,9.062,14.211z
	 M9.733,20.176c-0.024,0.029-0.06,0.045-0.096,0.045c-0.028,0-0.057-0.01-0.08-0.029l-0.406-0.34
	c-0.053-0.043-0.06-0.123-0.016-0.176c0.043-0.052,0.123-0.06,0.176-0.016L9.717,20C9.771,20.044,9.777,20.123,9.733,20.176z
	 M9.827,16.354l-0.406-0.34c-0.053-0.045-0.06-0.123-0.016-0.177c0.044-0.052,0.124-0.06,0.176-0.017l0.406,0.341
	c0.053,0.044,0.06,0.123,0.016,0.176c-0.024,0.029-0.06,0.045-0.096,0.045C9.879,16.382,9.851,16.372,9.827,16.354z M10.572,21.434
	c-0.025,0.029-0.061,0.045-0.096,0.045c-0.028,0-0.057-0.01-0.08-0.028l-0.407-0.341c-0.053-0.043-0.06-0.123-0.016-0.176
	c0.045-0.052,0.124-0.059,0.176-0.016l0.407,0.34C10.609,21.302,10.616,21.381,10.572,21.434z M10.917,18.195
	c-0.025,0.029-0.06,0.045-0.096,0.045c-0.028,0-0.057-0.01-0.081-0.029l-0.406-0.342c-0.053-0.045-0.06-0.123-0.015-0.176
	c0.045-0.055,0.124-0.06,0.176-0.017l0.406,0.343C10.954,18.064,10.961,18.143,10.917,18.195z M10.995,10.317l-0.406-0.34
	c-0.053-0.044-0.06-0.123-0.016-0.176c0.044-0.052,0.124-0.059,0.176-0.016l0.406,0.34c0.053,0.044,0.06,0.123,0.016,0.176
	c-0.024,0.03-0.06,0.045-0.096,0.045C11.047,10.346,11.019,10.336,10.995,10.317z M11.114,11.566
	c0.045-0.055,0.124-0.061,0.176-0.017l0.403,0.341c0.054,0.045,0.06,0.123,0.016,0.176c-0.023,0.029-0.061,0.045-0.096,0.045
	c-0.028,0-0.057-0.01-0.08-0.029l-0.404-0.34C11.077,11.697,11.07,11.619,11.114,11.566z M12.115,20.646
	c-0.024,0.028-0.061,0.045-0.096,0.045c-0.028,0-0.058-0.01-0.08-0.029l-0.406-0.34c-0.053-0.045-0.06-0.123-0.016-0.176
	c0.043-0.054,0.121-0.061,0.176-0.017l0.406,0.341C12.152,20.516,12.16,20.594,12.115,20.646z M13.096,17.587
	c-0.023,0.029-0.06,0.045-0.096,0.045c-0.027,0-0.057-0.01-0.08-0.028l-0.406-0.34c-0.053-0.045-0.061-0.123-0.016-0.177
	c0.044-0.052,0.122-0.062,0.176-0.017l0.406,0.341C13.133,17.455,13.141,17.534,13.096,17.587z M13.801,19.188
	c-0.025,0.028-0.061,0.043-0.096,0.043c-0.028,0-0.059-0.01-0.081-0.028l-0.401-0.341c-0.054-0.045-0.06-0.123-0.016-0.176
	c0.045-0.054,0.123-0.061,0.177-0.016l0.402,0.34C13.839,19.055,13.846,19.134,13.801,19.188z M14.006,16.166
	c-0.023,0.029-0.061,0.045-0.096,0.045c-0.028,0-0.057-0.01-0.08-0.029l-0.406-0.338c-0.053-0.044-0.061-0.121-0.016-0.176
	c0.044-0.053,0.121-0.061,0.176-0.016l0.406,0.338C14.043,16.034,14.051,16.111,14.006,16.166z M14.357,11.095l-0.401-0.341
	c-0.054-0.044-0.06-0.124-0.015-0.176c0.045-0.053,0.123-0.06,0.177-0.015l0.401,0.341c0.054,0.044,0.06,0.124,0.016,0.176
	c-0.025,0.029-0.061,0.044-0.096,0.044C14.411,11.125,14.382,11.115,14.357,11.095z M15.128,20.646
	c-0.024,0.028-0.062,0.045-0.096,0.045c-0.028,0-0.058-0.01-0.08-0.029l-0.405-0.34c-0.053-0.045-0.061-0.123-0.016-0.176
	c0.044-0.055,0.121-0.062,0.176-0.017l0.404,0.341C15.165,20.516,15.173,20.594,15.128,20.646z M15.533,18.113
	c-0.024,0.029-0.061,0.045-0.096,0.045c-0.028,0-0.058-0.01-0.08-0.029l-0.404-0.34c-0.053-0.045-0.061-0.123-0.016-0.176
	c0.043-0.055,0.123-0.061,0.176-0.016l0.404,0.34C15.57,17.982,15.577,18.061,15.533,18.113z M15.641,15.176
	c-0.053-0.044-0.06-0.123-0.016-0.176c0.044-0.055,0.123-0.061,0.176-0.016l0.405,0.34c0.053,0.044,0.062,0.123,0.017,0.176
	c-0.024,0.029-0.062,0.045-0.097,0.045c-0.028,0-0.058-0.01-0.08-0.029L15.641,15.176z M16.742,19.729
	c-0.024,0.029-0.061,0.045-0.096,0.045c-0.028,0-0.058-0.01-0.082-0.029l-0.404-0.342c-0.053-0.045-0.059-0.123-0.016-0.178
	c0.045-0.053,0.123-0.059,0.178-0.015l0.404,0.342C16.779,19.598,16.786,19.676,16.742,19.729z M16.42,12.637
	c-0.053-0.044-0.061-0.123-0.016-0.176c0.044-0.053,0.121-0.061,0.176-0.016l0.406,0.34c0.053,0.044,0.061,0.123,0.016,0.176
	c-0.023,0.029-0.061,0.045-0.096,0.045c-0.028,0-0.057-0.01-0.08-0.029L16.42,12.637z M17.49,21.434
	c-0.024,0.029-0.061,0.045-0.096,0.045c-0.028,0-0.058-0.01-0.08-0.028l-0.406-0.341c-0.053-0.043-0.061-0.123-0.016-0.176
	c0.043-0.052,0.123-0.061,0.176-0.016l0.406,0.34C17.527,21.302,17.535,21.381,17.49,21.434z M18.146,18.657
	c-0.024,0.028-0.062,0.045-0.097,0.045c-0.028,0-0.057-0.011-0.079-0.029l-0.406-0.341c-0.054-0.044-0.061-0.123-0.017-0.176
	c0.044-0.055,0.123-0.061,0.177-0.016l0.405,0.34C18.184,18.525,18.189,18.604,18.146,18.657z M18.754,17.417
	c-0.023,0.028-0.061,0.045-0.096,0.045c-0.028,0-0.057-0.01-0.08-0.028l-0.406-0.341c-0.053-0.044-0.061-0.122-0.016-0.176
	c0.043-0.053,0.121-0.06,0.176-0.017l0.406,0.341C18.791,17.285,18.799,17.364,18.754,17.417z M18.957,13.607
	c-0.023,0.028-0.061,0.045-0.096,0.045c-0.028,0-0.057-0.01-0.08-0.029l-0.406-0.34c-0.053-0.044-0.061-0.123-0.016-0.176
	c0.043-0.053,0.123-0.062,0.176-0.017l0.406,0.341C18.994,13.477,19.002,13.555,18.957,13.607z M19.158,11.42
	c-0.024,0.029-0.061,0.044-0.096,0.044c-0.028,0-0.058-0.01-0.08-0.029l-0.404-0.34c-0.053-0.044-0.061-0.124-0.016-0.176
	c0.043-0.053,0.123-0.059,0.176-0.015l0.404,0.34C19.195,11.289,19.202,11.368,19.158,11.42z M19.357,8.36
	c0.045-0.053,0.123-0.06,0.177-0.015l0.405,0.341c0.054,0.044,0.06,0.124,0.016,0.176c-0.023,0.029-0.061,0.044-0.096,0.044
	c-0.028,0-0.058-0.01-0.08-0.029l-0.405-0.341C19.32,8.492,19.314,8.413,19.357,8.36z M20.158,19.387
	c-0.024,0.029-0.061,0.045-0.096,0.045c-0.028,0-0.058-0.01-0.08-0.029l-0.406-0.342c-0.055-0.045-0.061-0.123-0.016-0.176
	c0.043-0.054,0.123-0.061,0.176-0.016l0.406,0.342C20.195,19.256,20.202,19.334,20.158,19.387z M20.814,21.059
	c-0.024,0.029-0.061,0.045-0.097,0.045c-0.028,0-0.057-0.01-0.079-0.028l-0.406-0.341c-0.053-0.043-0.062-0.123-0.017-0.176
	c0.044-0.052,0.122-0.06,0.177-0.016l0.405,0.34C20.852,20.927,20.859,21.006,20.814,21.059z M21.32,17.758
	c-0.024,0.029-0.062,0.045-0.096,0.045c-0.029,0-0.058-0.01-0.08-0.029l-0.406-0.34c-0.053-0.045-0.061-0.123-0.016-0.177
	c0.043-0.054,0.123-0.06,0.176-0.016l0.406,0.341C21.357,17.626,21.364,17.705,21.32,17.758z M21.32,11.896
	c-0.024,0.028-0.061,0.045-0.096,0.045c-0.029,0-0.058-0.01-0.08-0.029l-0.406-0.339c-0.053-0.046-0.062-0.124-0.016-0.176
	c0.043-0.053,0.121-0.061,0.176-0.016l0.406,0.34C21.357,11.766,21.365,11.844,21.32,11.896z M21.523,10.188
	c-0.024,0.03-0.061,0.045-0.097,0.045c-0.028,0-0.057-0.01-0.079-0.029l-0.406-0.34c-0.053-0.044-0.062-0.123-0.017-0.176
	c0.044-0.053,0.122-0.061,0.177-0.016l0.405,0.34C21.561,10.056,21.568,10.135,21.523,10.188z"/>
<line fill="none" stroke="#FF0000" stroke-width="0.25" stroke-linecap="round" stroke-linejoin="round" stroke-miterlimit="10" x1="1.151" y1="1.821" x2="1.557" y2="2.162"/>
<line fill="none" stroke="#FF0000" stroke-width="0.25" stroke-linecap="round" stroke-linejoin="round" stroke-miterlimit="10" x1="9.501" y1="15.917" x2="9.907" y2="16.257"/>
<line fill="none" stroke="#FF0000" stroke-width="0.25" stroke-linecap="round" stroke-linejoin="round" stroke-miterlimit="10" x1="4.49" y1="3.72" x2="4.896" y2="4.06"/>
<line fill="none" stroke="#FF0000" stroke-width="0.25" stroke-linecap="round" stroke-linejoin="round" stroke-miterlimit="10" x1="6.556" y1="8.565" x2="6.96" y2="8.906"/>
<line fill="none" stroke="#FF0000" stroke-width="0.25" stroke-linecap="round" stroke-linejoin="round" stroke-miterlimit="10" x1="16.241" y1="19.307" x2="16.646" y2="19.648"/>
<line fill="none" stroke="#FF0000" stroke-width="0.25" stroke-linecap="round" stroke-linejoin="round" stroke-miterlimit="10" x1="19.454" y1="8.441" x2="19.859" y2="8.782"/>
<line fill="none" stroke="#FF0000" stroke-width="0.25" stroke-linecap="round" stroke-linejoin="round" stroke-miterlimit="10" x1="13.215" y1="0.63" x2="13.62" y2="0.97"/>
<line fill="none" stroke="#FF0000" stroke-width="0.25" stroke-linecap="round" stroke-linejoin="round" stroke-miterlimit="10" x1="3.062" y1="7.991" x2="3.468" y2="8.333"/>
<line fill="none" stroke="#FF0000" stroke-width="0.25" stroke-linecap="round" stroke-linejoin="round" stroke-miterlimit="10" x1="16.988" y1="21.014" x2="17.395" y2="21.354"/>
<line fill="none" stroke="#FF0000" stroke-width="0.25" stroke-linecap="round" stroke-linejoin="round" stroke-miterlimit="10" x1="20.818" y1="17.337" x2="21.225" y2="17.678"/>
<line fill="none" stroke="#FF0000" stroke-width="0.25" stroke-linecap="round" stroke-linejoin="round" stroke-miterlimit="10" x1="14.398" y1="7.407" x2="14.805" y2="7.747"/>
<line fill="none" stroke="#FF0000" stroke-width="0.25" stroke-linecap="round" stroke-linejoin="round" stroke-miterlimit="10" x1="1" y1="6.323" x2="1.406" y2="6.664"/>
<line fill="none" stroke="#FF0000" stroke-width="0.25" stroke-linecap="round" stroke-linejoin="round" stroke-miterlimit="10" x1="1.406" y1="20.659" x2="1.81" y2="21"/>
<line fill="none" stroke="#FF0000" stroke-width="0.25" stroke-linecap="round" stroke-linejoin="round" stroke-miterlimit="10" x1="3.706" y1="13.771" x2="4.112" y2="14.111"/>
<line fill="none" stroke="#FF0000" stroke-width="0.25" stroke-linecap="round" stroke-linejoin="round" stroke-miterlimit="10" x1="7.334" y1="0.63" x2="7.74" y2="0.97"/>
<line fill="none" stroke="#FF0000" stroke-width="0.25" stroke-linecap="round" stroke-linejoin="round" stroke-miterlimit="10" x1="13.303" y1="18.766" x2="13.705" y2="19.105"/>
<line fill="none" stroke="#FF0000" stroke-width="0.25" stroke-linecap="round" stroke-linejoin="round" stroke-miterlimit="10" x1="13.504" y1="15.748" x2="13.91" y2="16.086"/>
<line fill="none" stroke="#FF0000" stroke-width="0.25" stroke-linecap="round" stroke-linejoin="round" stroke-miterlimit="10" x1="11.614" y1="5.969" x2="12.02" y2="6.309"/>
<line fill="none" stroke="#FF0000" stroke-width="0.25" stroke-linecap="round" stroke-linejoin="round" stroke-miterlimit="10" x1="7.588" y1="20.468" x2="7.993" y2="20.809"/>
<line fill="none" stroke="#FF0000" stroke-width="0.25" stroke-linecap="round" stroke-linejoin="round" stroke-miterlimit="10" x1="11.411" y1="0.629" x2="11.816" y2="0.971"/>
<line fill="none" stroke="#FF0000" stroke-width="0.25" stroke-linecap="round" stroke-linejoin="round" stroke-miterlimit="10" x1="12.477" y1="8.736" x2="12.882" y2="9.076"/>
<line fill="none" stroke="#FF0000" stroke-width="0.25" stroke-linecap="round" stroke-linejoin="round" stroke-miterlimit="10" x1="12.18" y1="14.121" x2="12.586" y2="14.461"/>
<line fill="none" stroke="#FF0000" stroke-width="0.25" stroke-linecap="round" stroke-linejoin="round" stroke-miterlimit="10" x1="20.312" y1="20.639" x2="20.719" y2="20.979"/>
<line fill="none" stroke="#FF0000" stroke-width="0.25" stroke-linecap="round" stroke-linejoin="round" stroke-miterlimit="10" x1="15.721" y1="15.08" x2="16.126" y2="15.42"/>
<line fill="none" stroke="#FF0000" stroke-width="0.25" stroke-linecap="round" stroke-linejoin="round" stroke-miterlimit="10" x1="0.336" y1="7.577" x2="0.742" y2="7.917"/>
<line fill="none" stroke="#FF0000" stroke-width="0.25" stroke-linecap="round" stroke-linejoin="round" stroke-miterlimit="10" x1="0.336" y1="12.389" x2="0.742" y2="12.729"/>
<line fill="none" stroke="#FF0000" stroke-width="0.25" stroke-linecap="round" stroke-linejoin="round" stroke-miterlimit="10" x1="1.608" y1="10.059" x2="2.012" y2="10.399"/>
<line fill="none" stroke="#FF0000" stroke-width="0.25" stroke-linecap="round" stroke-linejoin="round" stroke-miterlimit="10" x1="10.069" y1="21.014" x2="10.476" y2="21.354"/>
<line fill="none" stroke="#FF0000" stroke-width="0.25" stroke-linecap="round" stroke-linejoin="round" stroke-miterlimit="10" x1="9.157" y1="14.291" x2="9.564" y2="14.631"/>
<line fill="none" stroke="#FF0000" stroke-width="0.25" stroke-linecap="round" stroke-linejoin="round" stroke-miterlimit="10" x1="16.241" y1="7.991" x2="16.646" y2="8.332"/>
<line fill="none" stroke="#FF0000" stroke-width="0.25" stroke-linecap="round" stroke-linejoin="round" stroke-miterlimit="10" x1="18.559" y1="0.489" x2="18.963" y2="0.829"/>
<line fill="none" stroke="#FF0000" stroke-width="0.25" stroke-linecap="round" stroke-linejoin="round" stroke-miterlimit="10" x1="20.616" y1="6.139" x2="21.021" y2="6.479"/>
<line fill="none" stroke="#FF0000" stroke-width="0.25" stroke-linecap="round" stroke-linejoin="round" stroke-miterlimit="10" x1="19.657" y1="4.06" x2="20.062" y2="4.4"/>
<line fill="none" stroke="#FF0000" stroke-width="0.25" stroke-linecap="round" stroke-linejoin="round" stroke-miterlimit="10" x1="20.414" y1="13.188" x2="20.82" y2="13.527"/>
<line fill="none" stroke="#FF0000" stroke-width="0.25" stroke-linecap="round" stroke-linejoin="round" stroke-miterlimit="10" x1="4.937" y1="7.136" x2="5.343" y2="7.477"/>
<line fill="none" stroke="#FF0000" stroke-width="0.25" stroke-linecap="round" stroke-linejoin="round" stroke-miterlimit="10" x1="1.607" y1="4.23" x2="2.013" y2="4.57"/>
<line fill="none" stroke="#FF0000" stroke-width="0.25" stroke-linecap="round" stroke-linejoin="round" stroke-miterlimit="10" x1="9.917" y1="3.252" x2="10.323" y2="3.593"/>
<line fill="none" stroke="#FF0000" stroke-width="0.25" stroke-linecap="round" stroke-linejoin="round" stroke-miterlimit="10" x1="13.631" y1="4.552" x2="14.037" y2="4.892"/>
<line fill="none" stroke="#FF0000" stroke-width="0.25" stroke-linecap="round" stroke-linejoin="round" stroke-miterlimit="10" x1="21.021" y1="9.768" x2="21.428" y2="10.108"/>
<line fill="none" stroke="#FF0000" stroke-width="0.25" stroke-linecap="round" stroke-linejoin="round" stroke-miterlimit="10" x1="7.537" y1="16.258" x2="7.942" y2="16.598"/>
<line fill="none" stroke="#FF0000" stroke-width="0.25" stroke-linecap="round" stroke-linejoin="round" stroke-miterlimit="10" x1="8.873" y1="12.486" x2="9.278" y2="12.826"/>
<line fill="none" stroke="#FF0000" stroke-width="0.25" stroke-linecap="round" stroke-linejoin="round" stroke-miterlimit="10" x1="2.195" y1="14.131" x2="2.602" y2="14.471"/>
<line fill="none" stroke="#FF0000" stroke-width="0.25" stroke-linecap="round" stroke-linejoin="round" stroke-miterlimit="10" x1="17.645" y1="18.236" x2="18.051" y2="18.577"/>
<line fill="none" stroke="#FF0000" stroke-width="0.25" stroke-linecap="round" stroke-linejoin="round" stroke-miterlimit="10" x1="9.298" y1="6.589" x2="9.704" y2="6.93"/>
<line fill="none" stroke="#FF0000" stroke-width="0.25" stroke-linecap="round" stroke-linejoin="round" stroke-miterlimit="10" x1="20.617" y1="1.234" x2="21.021" y2="1.575"/>
<line fill="none" stroke="#FF0000" stroke-width="0.25" stroke-linecap="round" stroke-linejoin="round" stroke-miterlimit="10" x1="17.33" y1="1.985" x2="17.736" y2="2.326"/>
<line fill="none" stroke="#FF0000" stroke-width="0.25" stroke-linecap="round" stroke-linejoin="round" stroke-miterlimit="10" x1="17.068" y1="3.72" x2="17.475" y2="4.06"/>
<line fill="none" stroke="#FF0000" stroke-width="0.25" stroke-linecap="round" stroke-linejoin="round" stroke-miterlimit="10" x1="10.669" y1="9.881" x2="11.075" y2="10.221"/>
<line fill="none" stroke="#FF0000" stroke-width="0.25" stroke-linecap="round" stroke-linejoin="round" stroke-miterlimit="10" x1="11.21" y1="11.646" x2="11.613" y2="11.986"/>
<line fill="none" stroke="#FF0000" stroke-width="0.25" stroke-linecap="round" stroke-linejoin="round" stroke-miterlimit="10" x1="9.158" y1="10.239" x2="9.564" y2="10.579"/>
<line fill="none" stroke="#FF0000" stroke-width="0.25" stroke-linecap="round" stroke-linejoin="round" stroke-miterlimit="10" x1="20.109" y1="15.08" x2="20.516" y2="15.42"/>
<line fill="none" stroke="#FF0000" stroke-width="0.25" stroke-linecap="round" stroke-linejoin="round" stroke-miterlimit="10" x1="18.455" y1="13.188" x2="18.861" y2="13.527"/>
<line fill="none" stroke="#FF0000" stroke-width="0.25" stroke-linecap="round" stroke-linejoin="round" stroke-miterlimit="10" x1="5.5" y1="5.541" x2="5.906" y2="5.881"/>
<line fill="none" stroke="#FF0000" stroke-width="0.25" stroke-linecap="round" stroke-linejoin="round" stroke-miterlimit="10" x1="11.41" y1="4.229" x2="11.816" y2="4.57"/>
<line fill="none" stroke="#FF0000" stroke-width="0.25" stroke-linecap="round" stroke-linejoin="round" stroke-miterlimit="10" x1="8.099" y1="7.747" x2="8.504" y2="8.087"/>
<line fill="none" stroke="#FF0000" stroke-width="0.25" stroke-linecap="round" stroke-linejoin="round" stroke-miterlimit="10" x1="18.658" y1="11" x2="19.062" y2="11.34"/>
<line fill="none" stroke="#FF0000" stroke-width="0.25" stroke-linecap="round" stroke-linejoin="round" stroke-miterlimit="10" x1="14.037" y1="10.659" x2="14.439" y2="11"/>
<line fill="none" stroke="#FF0000" stroke-width="0.25" stroke-linecap="round" stroke-linejoin="round" stroke-miterlimit="10" x1="7.537" y1="18.425" x2="7.943" y2="18.766"/>
<line fill="none" stroke="#FF0000" stroke-width="0.25" stroke-linecap="round" stroke-linejoin="round" stroke-miterlimit="10" x1="12.594" y1="17.167" x2="13" y2="17.507"/>
<line fill="none" stroke="#FF0000" stroke-width="0.25" stroke-linecap="round" stroke-linejoin="round" stroke-miterlimit="10" x1="18.252" y1="16.997" x2="18.658" y2="17.337"/>
<line fill="none" stroke="#FF0000" stroke-width="0.25" stroke-linecap="round" stroke-linejoin="round" stroke-miterlimit="10" x1="17.189" y1="15.25" x2="17.598" y2="15.591"/>
<line fill="none" stroke="#FF0000" stroke-width="0.25" stroke-linecap="round" stroke-linejoin="round" stroke-miterlimit="10" x1="6.353" y1="12.387" x2="6.758" y2="12.729"/>
<line fill="none" stroke="#FF0000" stroke-width="0.25" stroke-linecap="round" stroke-linejoin="round" stroke-miterlimit="10" x1="3.265" y1="19.743" x2="3.67" y2="20.084"/>
<line fill="none" stroke="#FF0000" stroke-width="0.25" stroke-linecap="round" stroke-linejoin="round" stroke-miterlimit="10" x1="4.872" y1="16.707" x2="5.276" y2="17.047"/>
<line fill="none" stroke="#FF0000" stroke-width="0.25" stroke-linecap="round" stroke-linejoin="round" stroke-miterlimit="10" x1="1.659" y1="16.257" x2="2.065" y2="16.598"/>
<line fill="none" stroke="#FF0000" stroke-width="0.25" stroke-linecap="round" stroke-linejoin="round" stroke-miterlimit="10" x1="2.747" y1="18.161" x2="3.153" y2="18.501"/>
<line fill="none" stroke="#FF0000" stroke-width="0.25" stroke-linecap="round" stroke-linejoin="round" stroke-miterlimit="10" x1="14.511" y1="3.122" x2="14.916" y2="3.462"/>
<line fill="none" stroke="#FF0000" stroke-width="0.25" stroke-linecap="round" stroke-linejoin="round" stroke-miterlimit="10" x1="12.066" y1="2.781" x2="12.471" y2="3.122"/>
<line fill="none" stroke="#FF0000" stroke-width="0.25" stroke-linecap="round" stroke-linejoin="round" stroke-miterlimit="10" x1="20.818" y1="11.477" x2="21.225" y2="11.816"/>
<line fill="none" stroke="#FF0000" stroke-width="0.25" stroke-linecap="round" stroke-linejoin="round" stroke-miterlimit="10" x1="3.332" y1="0.719" x2="3.738" y2="1.059"/>
<line fill="none" stroke="#FF0000" stroke-width="0.25" stroke-linecap="round" stroke-linejoin="round" stroke-miterlimit="10" x1="18.252" y1="6.309" x2="18.658" y2="6.65"/>
<line fill="none" stroke="#FF0000" stroke-width="0.25" stroke-linecap="round" stroke-linejoin="round" stroke-miterlimit="10" x1="3.535" y1="5.969" x2="3.941" y2="6.309"/>
<line fill="none" stroke="#FF0000" stroke-width="0.25" stroke-linecap="round" stroke-linejoin="round" stroke-miterlimit="10" x1="7.131" y1="10.564" x2="7.537" y2="10.904"/>
<line fill="none" stroke="#FF0000" stroke-width="0.25" stroke-linecap="round" stroke-linejoin="round" stroke-miterlimit="10" x1="4.375" y1="11.736" x2="4.78" y2="12.077"/>
<line fill="none" stroke="#FF0000" stroke-width="0.25" stroke-linecap="round" stroke-linejoin="round" stroke-miterlimit="10" x1="4.577" y1="10.051" x2="4.983" y2="10.392"/>
<line fill="none" stroke="#FF0000" stroke-width="0.25" stroke-linecap="round" stroke-linejoin="round" stroke-miterlimit="10" x1="11.007" y1="7.577" x2="11.413" y2="7.917"/>
<line fill="none" stroke="#FF0000" stroke-width="0.25" stroke-linecap="round" stroke-linejoin="round" stroke-miterlimit="10" x1="12.68" y1="11.907" x2="13.085" y2="12.247"/>
<line fill="none" stroke="#FF0000" stroke-width="0.25" stroke-linecap="round" stroke-linejoin="round" stroke-miterlimit="10" x1="16.5" y1="12.541" x2="16.906" y2="12.881"/>
<line fill="none" stroke="#FF0000" stroke-width="0.25" stroke-linecap="round" stroke-linejoin="round" stroke-miterlimit="10" x1="16.945" y1="10.564" x2="17.354" y2="10.905"/>
<line fill="none" stroke="#FF0000" stroke-width="0.25" stroke-linecap="round" stroke-linejoin="round" stroke-miterlimit="10" x1="17.441" y1="9.113" x2="17.848" y2="9.453"/>
<line fill="none" stroke="#FF0000" stroke-width="0.25" stroke-linecap="round" stroke-linejoin="round" stroke-miterlimit="10" x1="14.6" y1="9.453" x2="15.005" y2="9.793"/>
<line fill="none" stroke="#FF0000" stroke-width="0.25" stroke-linecap="round" stroke-linejoin="round" stroke-miterlimit="10" x1="6.758" y1="5.751" x2="7.162" y2="6.092"/>
<line fill="none" stroke="#FF0000" stroke-width="0.25" stroke-linecap="round" stroke-linejoin="round" stroke-miterlimit="10" x1="8.617" y1="4.835" x2="9.021" y2="5.176"/>
<line fill="none" stroke="#FF0000" stroke-width="0.25" stroke-linecap="round" stroke-linejoin="round" stroke-miterlimit="10" x1="10.224" y1="1.799" x2="10.627" y2="2.139"/>
<line fill="none" stroke="#FF0000" stroke-width="0.25" stroke-linecap="round" stroke-linejoin="round" stroke-miterlimit="10" x1="6.15" y1="2.611" x2="6.556" y2="2.952"/>
<line fill="none" stroke="#FF0000" stroke-width="0.25" stroke-linecap="round" stroke-linejoin="round" stroke-miterlimit="10" x1="8.099" y1="3.253" x2="8.504" y2="3.593"/>
<line fill="none" stroke="#FF0000" stroke-width="0.25" stroke-linecap="round" stroke-linejoin="round" stroke-miterlimit="10" x1="15.031" y1="1.172" x2="15.438" y2="1.512"/>
<line fill="none" stroke="#FF0000" stroke-width="0.25" stroke-linecap="round" stroke-linejoin="round" stroke-miterlimit="10" x1="19.908" y1="2.611" x2="20.311" y2="2.951"/>
<line fill="none" stroke="#FF0000" stroke-width="0.25" stroke-linecap="round" stroke-linejoin="round" stroke-miterlimit="10" x1="15.6" y1="6.269" x2="16.007" y2="6.608"/>
<line fill="none" stroke="#FF0000" stroke-width="0.25" stroke-linecap="round" stroke-linejoin="round" stroke-miterlimit="10" x1="19.656" y1="18.965" x2="20.062" y2="19.307"/>
<line fill="none" stroke="#FF0000" stroke-width="0.25" stroke-linecap="round" stroke-linejoin="round" stroke-miterlimit="10" x1="5.5" y1="21.014" x2="5.906" y2="21.354"/>
<line fill="none" stroke="#FF0000" stroke-width="0.25" stroke-linecap="round" stroke-linejoin="round" stroke-miterlimit="10" x1="10.415" y1="17.773" x2="10.821" y2="18.115"/>
<line fill="none" stroke="#FF0000" stroke-width="0.25" stroke-linecap="round" stroke-linejoin="round" stroke-miterlimit="10" x1="14.627" y1="20.227" x2="15.032" y2="20.566"/>
<line fill="none" stroke="#FF0000" stroke-width="0.25" stroke-linecap="round" stroke-linejoin="round" stroke-miterlimit="10" x1="11.613" y1="20.227" x2="12.02" y2="20.566"/>
<line fill="none" stroke="#FF0000" stroke-width="0.25" stroke-linecap="round" stroke-linejoin="round" stroke-miterlimit="10" x1="5.5" y1="18.796" x2="5.906" y2="19.136"/>
<line fill="none" stroke="#FF0000" stroke-width="0.25" stroke-linecap="round" stroke-linejoin="round" stroke-miterlimit="10" x1="15.033" y1="17.693" x2="15.438" y2="18.033"/>
<line fill="none" stroke="#FF0000" stroke-width="0.25" stroke-linecap="round" stroke-linejoin="round" stroke-miterlimit="10" x1="9.231" y1="19.756" x2="9.637" y2="20.096"/>
<line fill="none" stroke="#FF0000" stroke-width="0.25" stroke-linecap="round" stroke-linejoin="round" stroke-miterlimit="10" x1="6.757" y1="14.461" x2="7.162" y2="14.801"/>
<text transform="matrix(1 0 0 1 0 -7.2285)" font-family="'ArialMT'" font-size="12">noise-c</text>
</svg>
