<?xml version="1.0" encoding="utf-8"?>
<!-- Generator: Adobe Illustrator 16.0.0, SVG Export Plug-In . SVG Version: 6.00 Build 0)  -->
<!DOCTYPE svg PUBLIC "-//W3C//DTD SVG 1.1//EN" "http://www.w3.org/Graphics/SVG/1.1/DTD/svg11.dtd">
<svg version="1.1" id="Layer_1" xmlns="http://www.w3.org/2000/svg" xmlns:xlink="http://www.w3.org/1999/xlink" x="0px" y="0px"
	 width="22px" height="22px" viewBox="0 0 22 22" enable-background="new 0 0 22 22" xml:space="preserve">
<path fill="#00FF00" d="M6.951,0l0.292,0.244c0.053,0.044,0.06,0.123,0.016,0.176c-0.024,0.03-0.06,0.045-0.096,0.045
	c-0.028,0-0.057-0.01-0.08-0.029l-0.406-0.34C6.647,0.071,6.636,0.036,6.636,0H0v22h22V0H6.951z M19.562,3.98
	c0.043-0.054,0.123-0.06,0.176-0.016l0.404,0.34c0.053,0.044,0.061,0.123,0.017,0.176c-0.024,0.03-0.062,0.045-0.097,0.045
	c-0.027,0-0.057-0.01-0.08-0.029l-0.404-0.34C19.523,4.111,19.518,4.033,19.562,3.98z M16.146,5.63
	c0.043-0.054,0.121-0.06,0.176-0.015l0.404,0.341C16.779,6,16.786,6.08,16.742,6.132c-0.024,0.029-0.061,0.044-0.096,0.044
	c-0.028,0-0.058-0.01-0.08-0.029l-0.405-0.341C16.107,5.762,16.102,5.683,16.146,5.63z M9.948,8.846l0.405,0.341
	c0.053,0.044,0.06,0.124,0.015,0.176c-0.025,0.029-0.06,0.044-0.096,0.044c-0.028,0-0.057-0.01-0.081-0.029l-0.404-0.34
	c-0.053-0.044-0.06-0.124-0.015-0.176C9.817,8.809,9.896,8.803,9.948,8.846z M7.034,2.688C7.079,2.635,7.158,2.629,7.21,2.672
	l0.406,0.34c0.053,0.044,0.06,0.123,0.016,0.176c-0.024,0.03-0.06,0.045-0.096,0.045c-0.028,0-0.057-0.01-0.08-0.029L7.05,2.864
	C6.997,2.82,6.99,2.741,7.034,2.688z M5.404,5.461C5.449,5.408,5.527,5.402,5.58,5.445l0.406,0.34
	c0.053,0.044,0.06,0.123,0.016,0.176c-0.024,0.03-0.06,0.045-0.096,0.045c-0.028,0-0.057-0.01-0.08-0.029L5.42,5.637
	C5.367,5.593,5.36,5.514,5.404,5.461z M0.838,12.809c-0.024,0.029-0.06,0.045-0.096,0.045c-0.028,0-0.057-0.01-0.08-0.028
	l-0.406-0.341c-0.053-0.043-0.06-0.123-0.016-0.176c0.045-0.053,0.124-0.06,0.176-0.016l0.406,0.34
	C0.875,12.677,0.882,12.756,0.838,12.809z M0.838,7.997c-0.024,0.03-0.06,0.045-0.096,0.045c-0.028,0-0.057-0.01-0.08-0.029
	l-0.406-0.34C0.203,7.629,0.196,7.55,0.24,7.497c0.045-0.053,0.124-0.06,0.176-0.016l0.406,0.34
	C0.875,7.865,0.882,7.944,0.838,7.997z M1.055,1.74C1.1,1.688,1.179,1.682,1.231,1.725l0.406,0.341
	C1.69,2.11,1.697,2.189,1.652,2.242c-0.025,0.029-0.06,0.044-0.096,0.044c-0.028,0-0.057-0.01-0.081-0.029L1.07,1.917
	C1.018,1.872,1.011,1.793,1.055,1.74z M1.906,21.081c-0.025,0.028-0.06,0.044-0.096,0.044c-0.028,0-0.057-0.01-0.081-0.029
	l-0.404-0.341c-0.053-0.045-0.06-0.124-0.015-0.177s0.125-0.059,0.176-0.016l0.404,0.342C1.943,20.949,1.95,21.027,1.906,21.081z
	 M1.932,10.495l-0.404-0.34c-0.053-0.044-0.06-0.124-0.015-0.176C1.558,9.926,1.636,9.92,1.688,9.963l0.404,0.34
	c0.053,0.044,0.06,0.124,0.015,0.176c-0.025,0.029-0.06,0.044-0.096,0.044C1.984,10.524,1.955,10.514,1.932,10.495z M2.698,14.551
	c-0.025,0.029-0.061,0.045-0.096,0.045c-0.028,0-0.057-0.01-0.08-0.029l-0.407-0.34c-0.053-0.043-0.06-0.123-0.016-0.176
	c0.045-0.053,0.124-0.059,0.176-0.016l0.407,0.34C2.735,14.419,2.742,14.498,2.698,14.551z M2.9,5.731
	c-0.025,0.03-0.06,0.045-0.096,0.045c-0.028,0-0.057-0.009-0.08-0.029L2.318,5.408c-0.053-0.044-0.06-0.123-0.016-0.176
	c0.045-0.053,0.124-0.06,0.176-0.016l0.406,0.339C2.938,5.599,2.944,5.678,2.9,5.731z M3.236,0.638
	C3.28,0.586,3.36,0.579,3.413,0.623l0.406,0.34c0.053,0.044,0.06,0.123,0.015,0.176C3.81,1.168,3.774,1.183,3.738,1.183
	c-0.028,0-0.057-0.01-0.081-0.029l-0.406-0.34C3.199,0.77,3.192,0.691,3.236,0.638z M4.036,19.258
	c-0.025,0.029-0.06,0.045-0.096,0.045c-0.028,0-0.057-0.01-0.081-0.029l-0.406-0.34c-0.053-0.045-0.06-0.123-0.015-0.177
	c0.045-0.052,0.124-0.06,0.176-0.016l0.406,0.341C4.073,19.126,4.08,19.205,4.036,19.258z M4.101,2.873
	c-0.024,0.03-0.06,0.045-0.096,0.045c-0.028,0-0.057-0.01-0.08-0.029l-0.406-0.34c-0.053-0.044-0.06-0.123-0.016-0.176
	C3.548,2.32,3.627,2.314,3.679,2.357l0.406,0.34C4.138,2.742,4.145,2.82,4.101,2.873z M4.395,9.031
	C4.44,8.979,4.519,8.973,4.571,9.016l0.406,0.341c0.053,0.044,0.06,0.124,0.015,0.176c-0.025,0.029-0.06,0.044-0.096,0.044
	c-0.028,0-0.057-0.01-0.081-0.029L4.41,9.208C4.357,9.163,4.35,9.084,4.395,9.031z M5.372,17.127
	c-0.025,0.03-0.06,0.045-0.096,0.045c-0.028,0-0.057-0.01-0.081-0.029l-0.404-0.34c-0.053-0.045-0.06-0.123-0.015-0.176
	c0.045-0.055,0.124-0.059,0.176-0.016l0.404,0.34C5.409,16.996,5.416,17.074,5.372,17.127z M5.404,11.566
	c0.044-0.053,0.123-0.061,0.176-0.017l0.406,0.341c0.053,0.043,0.06,0.123,0.016,0.176c-0.024,0.029-0.06,0.045-0.096,0.045
	c-0.028,0-0.057-0.01-0.08-0.029l-0.406-0.34C5.367,11.698,5.36,11.619,5.404,11.566z M6.449,14.712
	c-0.025,0.029-0.061,0.045-0.096,0.045c-0.028,0-0.057-0.01-0.08-0.028l-0.407-0.34c-0.053-0.045-0.06-0.123-0.016-0.177
	c0.045-0.053,0.124-0.06,0.176-0.017l0.407,0.341C6.486,14.58,6.493,14.659,6.449,14.712z M7.056,8.987
	C7.031,9.016,6.996,9.031,6.96,9.031c-0.029,0-0.057-0.01-0.081-0.029L6.476,8.661C6.423,8.616,6.416,8.537,6.46,8.484
	c0.045-0.053,0.124-0.059,0.176-0.015L7.04,8.81C7.093,8.855,7.1,8.934,7.056,8.987z M8.08,18.564
	c-0.024,0.028-0.06,0.045-0.096,0.045c-0.028,0-0.057-0.01-0.08-0.029l-0.406-0.34c-0.053-0.045-0.06-0.123-0.016-0.176
	c0.044-0.054,0.123-0.061,0.176-0.017l0.406,0.341C8.117,18.434,8.124,18.512,8.08,18.564z M8.08,5.413
	c-0.024,0.03-0.06,0.045-0.096,0.045c-0.028,0-0.057-0.01-0.08-0.029l-0.406-0.34c-0.053-0.044-0.06-0.123-0.016-0.176
	c0.044-0.053,0.123-0.06,0.176-0.016l0.406,0.34C8.117,5.282,8.124,5.36,8.08,5.413z M9.202,6.508
	C9.247,6.456,9.326,6.45,9.378,6.493l0.406,0.341C9.837,6.879,9.844,6.958,9.8,7.011C9.775,7.04,9.74,7.055,9.704,7.055
	c-0.028,0-0.057-0.01-0.081-0.029L9.217,6.685C9.165,6.64,9.158,6.562,9.202,6.508z M9.827,16.354l-0.406-0.34
	c-0.053-0.045-0.06-0.123-0.016-0.177c0.044-0.052,0.124-0.06,0.176-0.017l0.406,0.341c0.053,0.044,0.06,0.123,0.016,0.176
	c-0.024,0.029-0.06,0.045-0.096,0.045C9.879,16.382,9.851,16.372,9.827,16.354z M10.572,21.434
	c-0.025,0.029-0.061,0.045-0.096,0.045c-0.028,0-0.057-0.01-0.08-0.028l-0.407-0.341c-0.053-0.043-0.06-0.123-0.016-0.176
	c0.045-0.052,0.124-0.059,0.176-0.016l0.407,0.34C10.609,21.302,10.616,21.381,10.572,21.434z M10.911,3.47
	c0.045-0.053,0.123-0.06,0.176-0.016l0.406,0.34c0.053,0.044,0.062,0.123,0.016,0.176c-0.024,0.03-0.06,0.045-0.096,0.045
	c-0.028,0-0.057-0.01-0.08-0.029l-0.406-0.34C10.874,3.601,10.867,3.522,10.911,3.47z M11.709,12.066
	c-0.023,0.029-0.061,0.045-0.096,0.045c-0.028,0-0.057-0.01-0.08-0.029l-0.404-0.34c-0.053-0.045-0.06-0.123-0.015-0.176
	c0.045-0.055,0.124-0.061,0.176-0.017l0.403,0.341C11.747,11.936,11.753,12.014,11.709,12.066z M11.939,6.405l-0.405-0.34
	c-0.053-0.044-0.06-0.123-0.017-0.176c0.045-0.053,0.123-0.059,0.176-0.015l0.406,0.34c0.053,0.044,0.06,0.123,0.016,0.176
	c-0.024,0.029-0.061,0.044-0.096,0.044C11.991,6.434,11.963,6.424,11.939,6.405z M12.084,14.041
	c0.044-0.053,0.123-0.061,0.176-0.016l0.406,0.34c0.053,0.044,0.061,0.123,0.016,0.176c-0.023,0.029-0.06,0.045-0.096,0.045
	c-0.027,0-0.057-0.01-0.08-0.029l-0.406-0.34C12.047,14.173,12.039,14.094,12.084,14.041z M13.096,17.587
	c-0.023,0.029-0.06,0.045-0.096,0.045c-0.027,0-0.057-0.01-0.08-0.028l-0.406-0.34c-0.053-0.045-0.061-0.123-0.016-0.177
	c0.044-0.052,0.122-0.062,0.176-0.017l0.406,0.341C13.133,17.455,13.141,17.534,13.096,17.587z M13.299,9.156
	c-0.023,0.03-0.061,0.045-0.096,0.045c-0.028,0-0.057-0.01-0.08-0.029l-0.406-0.34c-0.053-0.044-0.061-0.123-0.016-0.176
	c0.044-0.054,0.122-0.06,0.176-0.016l0.406,0.34C13.336,9.025,13.344,9.104,13.299,9.156z M13.716,1.051
	c-0.024,0.029-0.062,0.044-0.096,0.044c-0.028,0-0.058-0.01-0.08-0.029l-0.405-0.34c-0.053-0.044-0.06-0.123-0.016-0.176
	c0.044-0.053,0.123-0.06,0.176-0.015l0.405,0.34C13.753,0.919,13.76,0.998,13.716,1.051z M14.697,21.602
	c-0.024,0.029-0.061,0.045-0.096,0.045c-0.028,0-0.058-0.01-0.08-0.028l-0.406-0.341c-0.053-0.043-0.061-0.123-0.016-0.176
	c0.043-0.052,0.123-0.061,0.176-0.016l0.406,0.34C14.734,21.471,14.742,21.549,14.697,21.602z M14.9,3.503
	c-0.024,0.03-0.061,0.045-0.096,0.045c-0.029,0-0.058-0.01-0.08-0.029l-0.406-0.34c-0.053-0.044-0.062-0.123-0.017-0.176
	c0.044-0.053,0.122-0.06,0.177-0.016l0.405,0.34C14.938,3.371,14.945,3.45,14.9,3.503z M15.611,14.541
	c-0.024,0.029-0.061,0.045-0.096,0.045c-0.029,0-0.058-0.01-0.08-0.029l-0.406-0.34c-0.053-0.044-0.062-0.123-0.016-0.176
	c0.043-0.053,0.121-0.061,0.176-0.016l0.406,0.34C15.648,14.409,15.656,14.488,15.611,14.541z M15.812,10.309
	c-0.023,0.03-0.061,0.045-0.096,0.045c-0.027,0-0.057-0.01-0.08-0.029l-0.404-0.34c-0.053-0.044-0.061-0.123-0.017-0.176
	c0.043-0.054,0.123-0.06,0.177-0.016l0.404,0.34C15.852,10.178,15.857,10.256,15.812,10.309z M16.566,16.973l-0.405-0.34
	c-0.054-0.044-0.062-0.123-0.017-0.176c0.045-0.055,0.123-0.061,0.176-0.016l0.406,0.34c0.053,0.044,0.06,0.123,0.016,0.176
	c-0.024,0.029-0.061,0.045-0.096,0.045C16.618,17.002,16.59,16.992,16.566,16.973z M17.285,19.43
	c-0.024,0.028-0.061,0.043-0.096,0.043c-0.028,0-0.058-0.01-0.082-0.029l-0.403-0.34c-0.054-0.045-0.06-0.123-0.015-0.178
	c0.043-0.053,0.121-0.059,0.177-0.015l0.403,0.341C17.323,19.297,17.329,19.375,17.285,19.43z M18.957,13.607
	c-0.023,0.028-0.061,0.045-0.096,0.045c-0.028,0-0.057-0.01-0.08-0.029l-0.406-0.34c-0.053-0.044-0.061-0.123-0.016-0.176
	c0.043-0.053,0.123-0.062,0.176-0.017l0.406,0.341C18.994,13.477,19.002,13.555,18.957,13.607z M19.059,0.91
	c-0.023,0.029-0.061,0.044-0.096,0.044c-0.027,0-0.057-0.01-0.08-0.029l-0.404-0.34c-0.053-0.044-0.06-0.124-0.016-0.176
	c0.043-0.053,0.123-0.059,0.176-0.015l0.404,0.34C19.096,0.778,19.104,0.857,19.059,0.91z M19.955,17.986
	c-0.023,0.029-0.061,0.046-0.096,0.046c-0.028,0-0.058-0.011-0.08-0.029l-0.405-0.341c-0.054-0.045-0.06-0.123-0.017-0.176
	c0.045-0.055,0.123-0.061,0.177-0.016l0.405,0.34C19.992,17.855,19.999,17.936,19.955,17.986z M19.955,8.863
	c-0.023,0.029-0.061,0.044-0.096,0.044c-0.028,0-0.058-0.01-0.08-0.029l-0.405-0.341c-0.054-0.044-0.06-0.124-0.017-0.176
	c0.045-0.052,0.123-0.06,0.177-0.015l0.405,0.341C19.993,8.731,19.999,8.81,19.955,8.863z M20.014,15
	c0.045-0.052,0.122-0.061,0.176-0.016l0.406,0.34c0.053,0.044,0.062,0.123,0.016,0.176c-0.023,0.029-0.06,0.045-0.096,0.045
	c-0.027,0-0.057-0.01-0.08-0.029l-0.406-0.34C19.977,15.132,19.969,15.053,20.014,15z M20.814,21.059
	c-0.024,0.029-0.061,0.045-0.097,0.045c-0.028,0-0.057-0.01-0.079-0.028l-0.406-0.341c-0.053-0.043-0.062-0.123-0.017-0.176
	c0.044-0.052,0.122-0.06,0.177-0.016l0.405,0.34C20.852,20.927,20.859,21.006,20.814,21.059z M21.32,11.896
	c-0.024,0.028-0.061,0.045-0.096,0.045c-0.029,0-0.058-0.01-0.08-0.029l-0.406-0.339c-0.053-0.046-0.062-0.124-0.016-0.176
	c0.043-0.053,0.121-0.061,0.176-0.016l0.406,0.34C21.357,11.766,21.365,11.844,21.32,11.896z"/>
<line fill="none" stroke="#FF0000" stroke-width="0.25" stroke-linecap="round" stroke-linejoin="round" stroke-miterlimit="10" x1="1.151" y1="1.821" x2="1.557" y2="2.162"/>
<line fill="none" stroke="#FF0000" stroke-width="0.25" stroke-linecap="round" stroke-linejoin="round" stroke-miterlimit="10" x1="9.501" y1="15.917" x2="9.907" y2="16.257"/>
<line fill="none" stroke="#FF0000" stroke-width="0.25" stroke-linecap="round" stroke-linejoin="round" stroke-miterlimit="10" x1="7.13" y1="2.768" x2="7.536" y2="3.108"/>
<line fill="none" stroke="#FF0000" stroke-width="0.25" stroke-linecap="round" stroke-linejoin="round" stroke-miterlimit="10" x1="6.556" y1="8.565" x2="6.96" y2="8.906"/>
<line fill="none" stroke="#FF0000" stroke-width="0.25" stroke-linecap="round" stroke-linejoin="round" stroke-miterlimit="10" x1="14.195" y1="21.182" x2="14.602" y2="21.521"/>
<line fill="none" stroke="#FF0000" stroke-width="0.25" stroke-linecap="round" stroke-linejoin="round" stroke-miterlimit="10" x1="19.454" y1="8.441" x2="19.859" y2="8.782"/>
<line fill="none" stroke="#FF0000" stroke-width="0.25" stroke-linecap="round" stroke-linejoin="round" stroke-miterlimit="10" x1="13.215" y1="0.63" x2="13.62" y2="0.97"/>
<line fill="none" stroke="#FF0000" stroke-width="0.25" stroke-linecap="round" stroke-linejoin="round" stroke-miterlimit="10" x1="4.49" y1="9.112" x2="4.896" y2="9.453"/>
<line fill="none" stroke="#FF0000" stroke-width="0.25" stroke-linecap="round" stroke-linejoin="round" stroke-miterlimit="10" x1="16.785" y1="19.007" x2="17.189" y2="19.348"/>
<line fill="none" stroke="#FF0000" stroke-width="0.25" stroke-linecap="round" stroke-linejoin="round" stroke-miterlimit="10" x1="19.454" y1="17.566" x2="19.859" y2="17.907"/>
<line fill="none" stroke="#FF0000" stroke-width="0.25" stroke-linecap="round" stroke-linejoin="round" stroke-miterlimit="10" x1="9.867" y1="8.942" x2="10.272" y2="9.283"/>
<line fill="none" stroke="#FF0000" stroke-width="0.25" stroke-linecap="round" stroke-linejoin="round" stroke-miterlimit="10" x1="1.406" y1="20.659" x2="1.81" y2="21"/>
<line fill="none" stroke="#FF0000" stroke-width="0.25" stroke-linecap="round" stroke-linejoin="round" stroke-miterlimit="10" x1="15.312" y1="9.889" x2="15.718" y2="10.229"/>
<line fill="none" stroke="#FF0000" stroke-width="0.25" stroke-linecap="round" stroke-linejoin="round" stroke-miterlimit="10" x1="11.614" y1="5.969" x2="12.02" y2="6.309"/>
<line fill="none" stroke="#FF0000" stroke-width="0.25" stroke-linecap="round" stroke-linejoin="round" stroke-miterlimit="10" x1="6.757" y1="0" x2="7.163" y2="0.34"/>
<line fill="none" stroke="#FF0000" stroke-width="0.25" stroke-linecap="round" stroke-linejoin="round" stroke-miterlimit="10" x1="12.18" y1="14.121" x2="12.586" y2="14.461"/>
<line fill="none" stroke="#FF0000" stroke-width="0.25" stroke-linecap="round" stroke-linejoin="round" stroke-miterlimit="10" x1="20.312" y1="20.639" x2="20.719" y2="20.979"/>
<line fill="none" stroke="#FF0000" stroke-width="0.25" stroke-linecap="round" stroke-linejoin="round" stroke-miterlimit="10" x1="0.336" y1="7.577" x2="0.742" y2="7.917"/>
<line fill="none" stroke="#FF0000" stroke-width="0.25" stroke-linecap="round" stroke-linejoin="round" stroke-miterlimit="10" x1="0.336" y1="12.389" x2="0.742" y2="12.729"/>
<line fill="none" stroke="#FF0000" stroke-width="0.25" stroke-linecap="round" stroke-linejoin="round" stroke-miterlimit="10" x1="1.608" y1="10.059" x2="2.012" y2="10.399"/>
<line fill="none" stroke="#FF0000" stroke-width="0.25" stroke-linecap="round" stroke-linejoin="round" stroke-miterlimit="10" x1="10.069" y1="21.014" x2="10.476" y2="21.354"/>
<line fill="none" stroke="#FF0000" stroke-width="0.25" stroke-linecap="round" stroke-linejoin="round" stroke-miterlimit="10" x1="5.946" y1="14.292" x2="6.353" y2="14.632"/>
<line fill="none" stroke="#FF0000" stroke-width="0.25" stroke-linecap="round" stroke-linejoin="round" stroke-miterlimit="10" x1="16.241" y1="5.711" x2="16.646" y2="6.052"/>
<line fill="none" stroke="#FF0000" stroke-width="0.25" stroke-linecap="round" stroke-linejoin="round" stroke-miterlimit="10" x1="18.559" y1="0.489" x2="18.963" y2="0.829"/>
<line fill="none" stroke="#FF0000" stroke-width="0.25" stroke-linecap="round" stroke-linejoin="round" stroke-miterlimit="10" x1="19.657" y1="4.06" x2="20.062" y2="4.4"/>
<line fill="none" stroke="#FF0000" stroke-width="0.25" stroke-linecap="round" stroke-linejoin="round" stroke-miterlimit="10" x1="2.398" y1="5.312" x2="2.804" y2="5.651"/>
<line fill="none" stroke="#FF0000" stroke-width="0.25" stroke-linecap="round" stroke-linejoin="round" stroke-miterlimit="10" x1="14.398" y1="3.083" x2="14.805" y2="3.423"/>
<line fill="none" stroke="#FF0000" stroke-width="0.25" stroke-linecap="round" stroke-linejoin="round" stroke-miterlimit="10" x1="5.5" y1="11.646" x2="5.906" y2="11.986"/>
<line fill="none" stroke="#FF0000" stroke-width="0.25" stroke-linecap="round" stroke-linejoin="round" stroke-miterlimit="10" x1="2.195" y1="14.131" x2="2.602" y2="14.471"/>
<line fill="none" stroke="#FF0000" stroke-width="0.25" stroke-linecap="round" stroke-linejoin="round" stroke-miterlimit="10" x1="9.298" y1="6.589" x2="9.704" y2="6.93"/>
<line fill="none" stroke="#FF0000" stroke-width="0.25" stroke-linecap="round" stroke-linejoin="round" stroke-miterlimit="10" x1="11.007" y1="3.55" x2="11.413" y2="3.89"/>
<line fill="none" stroke="#FF0000" stroke-width="0.25" stroke-linecap="round" stroke-linejoin="round" stroke-miterlimit="10" x1="12.797" y1="8.736" x2="13.203" y2="9.076"/>
<line fill="none" stroke="#FF0000" stroke-width="0.25" stroke-linecap="round" stroke-linejoin="round" stroke-miterlimit="10" x1="11.21" y1="11.646" x2="11.613" y2="11.986"/>
<line fill="none" stroke="#FF0000" stroke-width="0.25" stroke-linecap="round" stroke-linejoin="round" stroke-miterlimit="10" x1="20.109" y1="15.08" x2="20.516" y2="15.42"/>
<line fill="none" stroke="#FF0000" stroke-width="0.25" stroke-linecap="round" stroke-linejoin="round" stroke-miterlimit="10" x1="18.455" y1="13.188" x2="18.861" y2="13.527"/>
<line fill="none" stroke="#FF0000" stroke-width="0.25" stroke-linecap="round" stroke-linejoin="round" stroke-miterlimit="10" x1="5.5" y1="5.541" x2="5.906" y2="5.881"/>
<line fill="none" stroke="#FF0000" stroke-width="0.25" stroke-linecap="round" stroke-linejoin="round" stroke-miterlimit="10" x1="7.578" y1="4.993" x2="7.984" y2="5.333"/>
<line fill="none" stroke="#FF0000" stroke-width="0.25" stroke-linecap="round" stroke-linejoin="round" stroke-miterlimit="10" x1="15.109" y1="14.121" x2="15.516" y2="14.461"/>
<line fill="none" stroke="#FF0000" stroke-width="0.25" stroke-linecap="round" stroke-linejoin="round" stroke-miterlimit="10" x1="7.578" y1="18.145" x2="7.984" y2="18.484"/>
<line fill="none" stroke="#FF0000" stroke-width="0.25" stroke-linecap="round" stroke-linejoin="round" stroke-miterlimit="10" x1="12.594" y1="17.167" x2="13" y2="17.507"/>
<line fill="none" stroke="#FF0000" stroke-width="0.25" stroke-linecap="round" stroke-linejoin="round" stroke-miterlimit="10" x1="16.241" y1="16.537" x2="16.646" y2="16.877"/>
<line fill="none" stroke="#FF0000" stroke-width="0.25" stroke-linecap="round" stroke-linejoin="round" stroke-miterlimit="10" x1="4.872" y1="16.707" x2="5.276" y2="17.047"/>
<line fill="none" stroke="#FF0000" stroke-width="0.25" stroke-linecap="round" stroke-linejoin="round" stroke-miterlimit="10" x1="3.534" y1="18.837" x2="3.94" y2="19.178"/>
<line fill="none" stroke="#FF0000" stroke-width="0.25" stroke-linecap="round" stroke-linejoin="round" stroke-miterlimit="10" x1="20.818" y1="11.477" x2="21.225" y2="11.816"/>
<line fill="none" stroke="#FF0000" stroke-width="0.25" stroke-linecap="round" stroke-linejoin="round" stroke-miterlimit="10" x1="3.332" y1="0.719" x2="3.738" y2="1.059"/>
<line fill="none" stroke="#FF0000" stroke-width="0.25" stroke-linecap="round" stroke-linejoin="round" stroke-miterlimit="10" x1="3.599" y1="2.453" x2="4.005" y2="2.793"/>
<text transform="matrix(1 0 0 1 0 -7.2285)" font-family="'ArialMT'" font-size="12">noise-b</text>
</svg>
