<?xml version="1.0" encoding="utf-8"?>
<!-- Generator: Adobe Illustrator 16.0.0, SVG Export Plug-In . SVG Version: 6.00 Build 0)  -->
<!DOCTYPE svg PUBLIC "-//W3C//DTD SVG 1.1//EN" "http://www.w3.org/Graphics/SVG/1.1/DTD/svg11.dtd">
<svg version="1.1" id="Layer_1" xmlns="http://www.w3.org/2000/svg" xmlns:xlink="http://www.w3.org/1999/xlink" x="0px" y="0px"
	 width="22px" height="22px" viewBox="0 0 22 22" enable-background="new 0 0 22 22" xml:space="preserve">
<path fill="#00FF00" d="M0,0v22h22V0H0z M0.904,6.243C0.949,6.191,1.028,6.184,1.08,6.228l0.406,0.341
	c0.053,0.044,0.06,0.123,0.015,0.176c-0.025,0.029-0.06,0.044-0.096,0.044c-0.028,0-0.057-0.01-0.081-0.029L0.919,6.419
	C0.867,6.375,0.86,6.296,0.904,6.243z M1.906,20.783c-0.025,0.029-0.06,0.044-0.096,0.044c-0.028,0-0.057-0.011-0.081-0.029
	l-0.404-0.341c-0.053-0.045-0.06-0.124-0.015-0.178c0.045-0.051,0.125-0.059,0.176-0.014l0.404,0.34
	C1.943,20.65,1.95,20.73,1.906,20.783z M3.995,2.839c0.044-0.053,0.123-0.06,0.176-0.016l0.406,0.34
	c0.053,0.044,0.06,0.123,0.016,0.176c-0.024,0.03-0.06,0.045-0.096,0.045c-0.028,0-0.057-0.01-0.08-0.029l-0.406-0.34
	C3.958,2.971,3.951,2.892,3.995,2.839z M4.997,17.379c-0.025,0.029-0.06,0.044-0.096,0.044c-0.028,0-0.057-0.01-0.081-0.028
	l-0.404-0.342c-0.053-0.045-0.06-0.123-0.015-0.177c0.045-0.052,0.124-0.06,0.176-0.015l0.404,0.341
	C5.034,17.247,5.041,17.326,4.997,17.379z M7.275,9.535C7.25,9.564,7.215,9.579,7.179,9.579c-0.028,0-0.057-0.01-0.081-0.029
	L6.692,9.208C6.64,9.164,6.633,9.085,6.677,9.032C6.722,8.98,6.801,8.974,6.854,9.017L7.26,9.358
	C7.312,9.403,7.319,9.481,7.275,9.535z M9.171,15.003c-0.024,0.029-0.06,0.045-0.096,0.045c-0.028,0-0.057-0.01-0.08-0.028
	l-0.406-0.34c-0.053-0.045-0.06-0.123-0.016-0.177c0.045-0.053,0.124-0.06,0.176-0.017l0.406,0.341
	C9.208,14.871,9.215,14.95,9.171,15.003z M10.572,4.287c-0.025,0.029-0.06,0.044-0.096,0.044c-0.028,0-0.057-0.01-0.081-0.029
	L9.989,3.961C9.937,3.917,9.93,3.838,9.974,3.785c0.045-0.052,0.124-0.059,0.176-0.015l0.406,0.341
	C10.609,4.155,10.616,4.233,10.572,4.287z M11.593,11.339c-0.024,0.03-0.06,0.045-0.096,0.045c-0.028,0-0.057-0.01-0.08-0.029
	l-0.406-0.34c-0.053-0.044-0.06-0.123-0.016-0.176c0.045-0.053,0.124-0.06,0.176-0.016l0.406,0.34
	C11.63,11.207,11.639,11.286,11.593,11.339z M14.006,17.719c-0.023,0.029-0.061,0.045-0.096,0.045c-0.028,0-0.057-0.01-0.08-0.029
	l-0.406-0.34c-0.053-0.045-0.06-0.123-0.016-0.177s0.121-0.061,0.176-0.016l0.406,0.341C14.043,17.587,14.05,17.666,14.006,17.719z
	 M14.9,7.827c-0.024,0.03-0.061,0.045-0.096,0.045c-0.029,0-0.058-0.01-0.08-0.029l-0.406-0.34
	c-0.053-0.044-0.062-0.123-0.017-0.176c0.044-0.053,0.122-0.06,0.177-0.016l0.405,0.34C14.938,7.695,14.945,7.774,14.9,7.827z
	 M16.656,2.148c-0.024,0.03-0.061,0.045-0.096,0.045c-0.028,0-0.058-0.01-0.08-0.029l-0.406-0.34
	c-0.053-0.044-0.061-0.123-0.016-0.176c0.043-0.054,0.121-0.061,0.176-0.016l0.406,0.34C16.693,2.016,16.701,2.095,16.656,2.148z
	 M17.49,20.135c-0.024,0.029-0.061,0.045-0.096,0.045c-0.028,0-0.058-0.01-0.08-0.029l-0.406-0.34
	c-0.053-0.043-0.061-0.123-0.016-0.176c0.043-0.053,0.123-0.061,0.176-0.016l0.406,0.34C17.527,20.003,17.535,20.082,17.49,20.135z
	 M19.059,14.296c-0.023,0.029-0.061,0.044-0.096,0.044c-0.027,0-0.057-0.01-0.081-0.029l-0.403-0.34
	c-0.054-0.046-0.06-0.123-0.016-0.178c0.043-0.053,0.122-0.059,0.178-0.016l0.403,0.342C19.098,14.164,19.104,14.242,19.059,14.296z
	 M19.955,8.863c-0.023,0.029-0.061,0.044-0.096,0.044c-0.028,0-0.058-0.01-0.08-0.029l-0.405-0.341
	c-0.054-0.044-0.06-0.124-0.017-0.176c0.045-0.052,0.123-0.06,0.177-0.015l0.405,0.341C19.993,8.731,19.999,8.81,19.955,8.863z"/>
<line fill="none" stroke="#FF0000" stroke-width="0.25" stroke-linecap="round" stroke-linejoin="round" stroke-miterlimit="10" x1="4.091" y1="2.919" x2="4.497" y2="3.259"/>
<line fill="none" stroke="#FF0000" stroke-width="0.25" stroke-linecap="round" stroke-linejoin="round" stroke-miterlimit="10" x1="11.091" y1="10.919" x2="11.497" y2="11.259"/>
<line fill="none" stroke="#FF0000" stroke-width="0.25" stroke-linecap="round" stroke-linejoin="round" stroke-miterlimit="10" x1="10.07" y1="3.865" x2="10.476" y2="4.206"/>
<line fill="none" stroke="#FF0000" stroke-width="0.25" stroke-linecap="round" stroke-linejoin="round" stroke-miterlimit="10" x1="4.497" y1="16.957" x2="4.901" y2="17.298"/>
<line fill="none" stroke="#FF0000" stroke-width="0.25" stroke-linecap="round" stroke-linejoin="round" stroke-miterlimit="10" x1="13.504" y1="17.298" x2="13.91" y2="17.639"/>
<line fill="none" stroke="#FF0000" stroke-width="0.25" stroke-linecap="round" stroke-linejoin="round" stroke-miterlimit="10" x1="19.454" y1="8.441" x2="19.859" y2="8.782"/>
<line fill="none" stroke="#FF0000" stroke-width="0.25" stroke-linecap="round" stroke-linejoin="round" stroke-miterlimit="10" x1="16.154" y1="1.728" x2="16.561" y2="2.068"/>
<line fill="none" stroke="#FF0000" stroke-width="0.25" stroke-linecap="round" stroke-linejoin="round" stroke-miterlimit="10" x1="6.773" y1="9.113" x2="7.179" y2="9.454"/>
<line fill="none" stroke="#FF0000" stroke-width="0.25" stroke-linecap="round" stroke-linejoin="round" stroke-miterlimit="10" x1="16.988" y1="19.715" x2="17.395" y2="20.055"/>
<line fill="none" stroke="#FF0000" stroke-width="0.25" stroke-linecap="round" stroke-linejoin="round" stroke-miterlimit="10" x1="18.559" y1="13.874" x2="18.963" y2="14.215"/>
<line fill="none" stroke="#FF0000" stroke-width="0.25" stroke-linecap="round" stroke-linejoin="round" stroke-miterlimit="10" x1="14.398" y1="7.407" x2="14.805" y2="7.747"/>
<line fill="none" stroke="#FF0000" stroke-width="0.25" stroke-linecap="round" stroke-linejoin="round" stroke-miterlimit="10" x1="1" y1="6.323" x2="1.406" y2="6.664"/>
<line fill="none" stroke="#FF0000" stroke-width="0.25" stroke-linecap="round" stroke-linejoin="round" stroke-miterlimit="10" x1="1.406" y1="20.361" x2="1.81" y2="20.702"/>
<line fill="none" stroke="#FF0000" stroke-width="0.25" stroke-linecap="round" stroke-linejoin="round" stroke-miterlimit="10" x1="8.669" y1="14.583" x2="9.075" y2="14.923"/>
<text transform="matrix(1 0 0 1 0 -7.2285)" font-family="'ArialMT'" font-size="12">noise-a</text>
</svg>
