<?xml version="1.0" encoding="utf-8"?>
<!-- Generator: Adobe Illustrator 16.0.0, SVG Export Plug-In . SVG Version: 6.00 Build 0)  -->
<!DOCTYPE svg PUBLIC "-//W3C//DTD SVG 1.1//EN" "http://www.w3.org/Graphics/SVG/1.1/DTD/svg11.dtd">
<svg version="1.1" id="Layer_1" xmlns="http://www.w3.org/2000/svg" xmlns:xlink="http://www.w3.org/1999/xlink" x="0px" y="0px"
	 width="36px" height="36px" viewBox="0 0 36 36" enable-background="new 0 0 36 36" xml:space="preserve">
<path fill="#FF0000" d="M49.519,2.77c-2.053-1.153-4.175-2.346-8.374-2.346c-4.2,0-6.323,1.193-8.375,2.346
	c-1.971,1.107-3.832,2.154-7.64,2.154c-2.46,0-4.514-0.95-6.688-1.956C14.058,0.94,9.108-1.349,0,4.269v1.776
	c8.938-5.819,13.449-3.733,17.812-1.716c2.226,1.03,4.528,2.094,7.318,2.094c4.2,0,6.322-1.193,8.375-2.346
	c1.971-1.107,3.832-2.154,7.64-2.154c3.807,0,5.668,1.046,7.639,2.154c2.027,1.14,4.125,2.317,8.225,2.345v-1.5
	C53.302,4.895,51.463,3.862,49.519,2.77z"/>
<text transform="matrix(1 0 0 1 0 -7.2285)" font-family="'ArialMT'" font-size="12">wave-a</text>
</svg>
